<svg xmlns="http://www.w3.org/2000/svg" width="800" height="200" viewBox="0 0 800 200">
  <style>
    .chart-title { font: bold 18px Arial; fill: #333; }
    .axis-label { font: 10px Arial; fill: #666; }
  </style>
  <text x="400" y="20" text-anchor="middle" class="chart-title">All Time Monthly Commits</text>
  <g transform="translate(50, 40)">
    <rect x="0" y="108.67069486404834" width="7.105263157894736" height="1.3293051359516617" fill="#16a34a" rx="3" />
    <text x="3.552631578947368" y="128" font-family="Arial" font-size="11" fill="#444" text-anchor="middle"></text>
    <rect x="9.473684210526315" y="106.67673716012085" width="7.105263157894736" height="3.3232628398791544" fill="#16a34a" rx="3" />
    <text x="13.026315789473683" y="128" font-family="Arial" font-size="11" fill="#444" text-anchor="middle"></text>
    <rect x="18.94736842105263" y="104.35045317220543" width="7.105263157894736" height="5.649546827794563" fill="#16a34a" rx="3" />
    <text x="22.5" y="128" font-family="Arial" font-size="11" fill="#444" text-anchor="middle"></text>
    <rect x="28.421052631578945" y="109.33534743202416" width="7.105263157894736" height="0.6646525679758308" fill="#16a34a" rx="3" />
    <text x="31.973684210526315" y="128" font-family="Arial" font-size="11" fill="#444" text-anchor="middle"></text>
    <rect x="37.89473684210526" y="104.01812688821752" width="7.105263157894736" height="5.981873111782477" fill="#16a34a" rx="3" />
    <text x="41.44736842105263" y="128" font-family="Arial" font-size="11" fill="#444" text-anchor="middle"></text>
    <rect x="47.368421052631575" y="61.14803625377643" width="7.105263157894736" height="48.85196374622357" fill="#16a34a" rx="3" />
    <text x="50.921052631578945" y="128" font-family="Arial" font-size="11" fill="#444" text-anchor="middle"></text>
    <rect x="56.84210526315789" y="85.40785498489426" width="7.105263157894736" height="24.59214501510574" fill="#16a34a" rx="3" />
    <text x="60.39473684210526" y="128" font-family="Arial" font-size="11" fill="#444" text-anchor="middle"></text>
    <rect x="66.3157894736842" y="104.35045317220543" width="7.105263157894736" height="5.649546827794563" fill="#16a34a" rx="3" />
    <text x="69.86842105263158" y="128" font-family="Arial" font-size="11" fill="#444" text-anchor="middle"></text>
    <rect x="75.78947368421052" y="89.06344410876133" width="7.105263157894736" height="20.93655589123867" fill="#16a34a" rx="3" />
    <text x="79.34210526315789" y="128" font-family="Arial" font-size="11" fill="#444" text-anchor="middle"></text>
    <rect x="85.26315789473684" y="87.06948640483384" width="7.105263157894736" height="22.930513595166165" fill="#16a34a" rx="3" />
    <text x="88.8157894736842" y="128" font-family="Arial" font-size="11" fill="#444" text-anchor="middle"></text>
    <rect x="94.73684210526315" y="104.35045317220543" width="7.105263157894736" height="5.649546827794563" fill="#16a34a" rx="3" />
    <text x="98.28947368421052" y="128" font-family="Arial" font-size="11" fill="#444" text-anchor="middle">2021</text>
    <rect x="104.21052631578947" y="106.34441087613293" width="7.105263157894736" height="3.6555891238670695" fill="#16a34a" rx="3" />
    <text x="107.76315789473684" y="128" font-family="Arial" font-size="11" fill="#444" text-anchor="middle"></text>
    <rect x="113.68421052631578" y="100.69486404833837" width="7.105263157894736" height="9.305135951661631" fill="#16a34a" rx="3" />
    <text x="117.23684210526315" y="128" font-family="Arial" font-size="11" fill="#444" text-anchor="middle"></text>
    <rect x="123.1578947368421" y="53.8368580060423" width="7.105263157894736" height="56.1631419939577" fill="#16a34a" rx="3" />
    <text x="126.71052631578947" y="128" font-family="Arial" font-size="11" fill="#444" text-anchor="middle"></text>
    <rect x="132.6315789473684" y="54.16918429003021" width="7.105263157894736" height="55.83081570996979" fill="#16a34a" rx="3" />
    <text x="136.18421052631578" y="128" font-family="Arial" font-size="11" fill="#444" text-anchor="middle"></text>
    <rect x="142.10526315789474" y="27.915407854984892" width="7.105263157894736" height="82.08459214501511" fill="#16a34a" rx="3" />
    <text x="145.6578947368421" y="128" font-family="Arial" font-size="11" fill="#444" text-anchor="middle"></text>
    <rect x="151.57894736842104" y="61.14803625377643" width="7.105263157894736" height="48.85196374622357" fill="#16a34a" rx="3" />
    <text x="155.1315789473684" y="128" font-family="Arial" font-size="11" fill="#444" text-anchor="middle"></text>
    <rect x="161.05263157894734" y="81.08761329305136" width="7.105263157894736" height="28.912386706948638" fill="#16a34a" rx="3" />
    <text x="164.6052631578947" y="128" font-family="Arial" font-size="11" fill="#444" text-anchor="middle"></text>
    <rect x="170.52631578947367" y="82.41691842900302" width="7.105263157894736" height="27.58308157099698" fill="#16a34a" rx="3" />
    <text x="174.07894736842104" y="128" font-family="Arial" font-size="11" fill="#444" text-anchor="middle"></text>
    <rect x="180" y="89.39577039274924" width="7.105263157894736" height="20.604229607250755" fill="#16a34a" rx="3" />
    <text x="183.55263157894737" y="128" font-family="Arial" font-size="11" fill="#444" text-anchor="middle"></text>
    <rect x="189.4736842105263" y="77.09969788519638" width="7.105263157894736" height="32.90030211480363" fill="#16a34a" rx="3" />
    <text x="193.02631578947367" y="128" font-family="Arial" font-size="11" fill="#444" text-anchor="middle"></text>
    <rect x="198.9473684210526" y="75.7703927492447" width="7.105263157894736" height="34.229607250755286" fill="#16a34a" rx="3" />
    <text x="202.49999999999997" y="128" font-family="Arial" font-size="11" fill="#444" text-anchor="middle"></text>
    <rect x="208.42105263157893" y="62.809667673716014" width="7.105263157894736" height="47.190332326283986" fill="#16a34a" rx="3" />
    <text x="211.9736842105263" y="128" font-family="Arial" font-size="11" fill="#444" text-anchor="middle">2022</text>
    <rect x="217.89473684210526" y="65.46827794561933" width="7.105263157894736" height="44.531722054380666" fill="#16a34a" rx="3" />
    <text x="221.44736842105263" y="128" font-family="Arial" font-size="11" fill="#444" text-anchor="middle"></text>
    <rect x="227.36842105263156" y="75.7703927492447" width="7.105263157894736" height="34.229607250755286" fill="#16a34a" rx="3" />
    <text x="230.92105263157893" y="128" font-family="Arial" font-size="11" fill="#444" text-anchor="middle"></text>
    <rect x="236.84210526315786" y="71.78247734138972" width="7.105263157894736" height="38.21752265861027" fill="#16a34a" rx="3" />
    <text x="240.39473684210523" y="128" font-family="Arial" font-size="11" fill="#444" text-anchor="middle"></text>
    <rect x="246.3157894736842" y="80.75528700906344" width="7.105263157894736" height="29.244712990936556" fill="#16a34a" rx="3" />
    <text x="249.86842105263156" y="128" font-family="Arial" font-size="11" fill="#444" text-anchor="middle"></text>
    <rect x="255.78947368421052" y="88.06646525679758" width="7.105263157894736" height="21.93353474320242" fill="#16a34a" rx="3" />
    <text x="259.34210526315786" y="128" font-family="Arial" font-size="11" fill="#444" text-anchor="middle"></text>
    <rect x="265.2631578947368" y="79.42598187311178" width="7.105263157894736" height="30.57401812688822" fill="#16a34a" rx="3" />
    <text x="268.81578947368416" y="128" font-family="Arial" font-size="11" fill="#444" text-anchor="middle"></text>
    <rect x="274.7368421052631" y="33.89728096676737" width="7.105263157894736" height="76.10271903323263" fill="#16a34a" rx="3" />
    <text x="278.28947368421046" y="128" font-family="Arial" font-size="11" fill="#444" text-anchor="middle"></text>
    <rect x="284.2105263157895" y="75.7703927492447" width="7.105263157894736" height="34.229607250755286" fill="#16a34a" rx="3" />
    <text x="287.7631578947368" y="128" font-family="Arial" font-size="11" fill="#444" text-anchor="middle"></text>
    <rect x="293.6842105263158" y="60.483383685800604" width="7.105263157894736" height="49.516616314199396" fill="#16a34a" rx="3" />
    <text x="297.2368421052631" y="128" font-family="Arial" font-size="11" fill="#444" text-anchor="middle"></text>
    <rect x="303.1578947368421" y="59.818731117824775" width="7.105263157894736" height="50.181268882175225" fill="#16a34a" rx="3" />
    <text x="306.7105263157894" y="128" font-family="Arial" font-size="11" fill="#444" text-anchor="middle"></text>
    <rect x="312.6315789473684" y="27.58308157099698" width="7.105263157894736" height="82.41691842900302" fill="#16a34a" rx="3" />
    <text x="316.1842105263157" y="128" font-family="Arial" font-size="11" fill="#444" text-anchor="middle"></text>
    <rect x="322.1052631578947" y="76.43504531722054" width="7.105263157894736" height="33.56495468277946" fill="#16a34a" rx="3" />
    <text x="325.657894736842" y="128" font-family="Arial" font-size="11" fill="#444" text-anchor="middle">2023</text>
    <rect x="331.57894736842104" y="19.939577039274923" width="7.105263157894736" height="90.06042296072508" fill="#16a34a" rx="3" />
    <text x="335.1315789473684" y="128" font-family="Arial" font-size="11" fill="#444" text-anchor="middle"></text>
    <rect x="341.05263157894734" y="44.86404833836859" width="7.105263157894736" height="65.13595166163141" fill="#16a34a" rx="3" />
    <text x="344.6052631578947" y="128" font-family="Arial" font-size="11" fill="#444" text-anchor="middle"></text>
    <rect x="350.52631578947364" y="60.81570996978852" width="7.105263157894736" height="49.18429003021148" fill="#16a34a" rx="3" />
    <text x="354.078947368421" y="128" font-family="Arial" font-size="11" fill="#444" text-anchor="middle"></text>
    <rect x="360" y="44.531722054380666" width="7.105263157894736" height="65.46827794561933" fill="#16a34a" rx="3" />
    <text x="363.55263157894734" y="128" font-family="Arial" font-size="11" fill="#444" text-anchor="middle"></text>
    <rect x="369.4736842105263" y="63.141993957703924" width="7.105263157894736" height="46.858006042296076" fill="#16a34a" rx="3" />
    <text x="373.02631578947364" y="128" font-family="Arial" font-size="11" fill="#444" text-anchor="middle"></text>
    <rect x="378.9473684210526" y="75.4380664652568" width="7.105263157894736" height="34.561933534743204" fill="#16a34a" rx="3" />
    <text x="382.49999999999994" y="128" font-family="Arial" font-size="11" fill="#444" text-anchor="middle"></text>
    <rect x="388.4210526315789" y="74.77341389728096" width="7.105263157894736" height="35.22658610271903" fill="#16a34a" rx="3" />
    <text x="391.97368421052624" y="128" font-family="Arial" font-size="11" fill="#444" text-anchor="middle"></text>
    <rect x="397.8947368421052" y="72.44712990936556" width="7.105263157894736" height="37.55287009063444" fill="#16a34a" rx="3" />
    <text x="401.44736842105254" y="128" font-family="Arial" font-size="11" fill="#444" text-anchor="middle"></text>
    <rect x="407.36842105263156" y="69.78851963746223" width="7.105263157894736" height="40.21148036253776" fill="#16a34a" rx="3" />
    <text x="410.9210526315789" y="128" font-family="Arial" font-size="11" fill="#444" text-anchor="middle"></text>
    <rect x="416.84210526315786" y="44.531722054380666" width="7.105263157894736" height="65.46827794561933" fill="#16a34a" rx="3" />
    <text x="420.3947368421052" y="128" font-family="Arial" font-size="11" fill="#444" text-anchor="middle"></text>
    <rect x="426.31578947368416" y="87.06948640483384" width="7.105263157894736" height="22.930513595166165" fill="#16a34a" rx="3" />
    <text x="429.8684210526315" y="128" font-family="Arial" font-size="11" fill="#444" text-anchor="middle"></text>
    <rect x="435.7894736842105" y="94.38066465256797" width="7.105263157894736" height="15.619335347432026" fill="#16a34a" rx="3" />
    <text x="439.34210526315786" y="128" font-family="Arial" font-size="11" fill="#444" text-anchor="middle">2024</text>
    <rect x="445.2631578947368" y="92.05438066465257" width="7.105263157894736" height="17.94561933534743" fill="#16a34a" rx="3" />
    <text x="448.81578947368416" y="128" font-family="Arial" font-size="11" fill="#444" text-anchor="middle"></text>
    <rect x="454.7368421052631" y="97.0392749244713" width="7.105263157894736" height="12.960725075528702" fill="#16a34a" rx="3" />
    <text x="458.28947368421046" y="128" font-family="Arial" font-size="11" fill="#444" text-anchor="middle"></text>
    <rect x="464.2105263157894" y="100.03021148036254" width="7.105263157894736" height="9.969788519637461" fill="#16a34a" rx="3" />
    <text x="467.76315789473676" y="128" font-family="Arial" font-size="11" fill="#444" text-anchor="middle"></text>
    <rect x="473.6842105263157" y="106.34441087613293" width="7.105263157894736" height="3.6555891238670695" fill="#16a34a" rx="3" />
    <text x="477.23684210526307" y="128" font-family="Arial" font-size="11" fill="#444" text-anchor="middle"></text>
    <rect x="483.1578947368421" y="91.05740181268882" width="7.105263157894736" height="18.94259818731118" fill="#16a34a" rx="3" />
    <text x="486.7105263157894" y="128" font-family="Arial" font-size="11" fill="#444" text-anchor="middle"></text>
    <rect x="492.6315789473684" y="84.74320241691842" width="7.105263157894736" height="25.25679758308157" fill="#16a34a" rx="3" />
    <text x="496.1842105263157" y="128" font-family="Arial" font-size="11" fill="#444" text-anchor="middle"></text>
    <rect x="502.1052631578947" y="98.70090634441087" width="7.105263157894736" height="11.299093655589125" fill="#16a34a" rx="3" />
    <text x="505.657894736842" y="128" font-family="Arial" font-size="11" fill="#444" text-anchor="middle"></text>
    <rect x="511.57894736842104" y="99.69788519637463" width="7.105263157894736" height="10.302114803625377" fill="#16a34a" rx="3" />
    <text x="515.1315789473684" y="128" font-family="Arial" font-size="11" fill="#444" text-anchor="middle"></text>
    <rect x="521.0526315789473" y="81.75226586102718" width="7.105263157894736" height="28.247734138972813" fill="#16a34a" rx="3" />
    <text x="524.6052631578947" y="128" font-family="Arial" font-size="11" fill="#444" text-anchor="middle"></text>
    <rect x="530.5263157894736" y="52.83987915407855" width="7.105263157894736" height="57.16012084592145" fill="#16a34a" rx="3" />
    <text x="534.078947368421" y="128" font-family="Arial" font-size="11" fill="#444" text-anchor="middle"></text>
    <rect x="540" y="62.477341389728096" width="7.105263157894736" height="47.522658610271904" fill="#16a34a" rx="3" />
    <text x="543.5526315789474" y="128" font-family="Arial" font-size="11" fill="#444" text-anchor="middle"></text>
    <rect x="549.4736842105262" y="71.78247734138972" width="7.105263157894736" height="38.21752265861027" fill="#16a34a" rx="3" />
    <text x="553.0263157894736" y="128" font-family="Arial" font-size="11" fill="#444" text-anchor="middle">2025</text>
    <rect x="558.9473684210526" y="96.70694864048338" width="7.105263157894736" height="13.293051359516618" fill="#16a34a" rx="3" />
    <text x="562.5" y="128" font-family="Arial" font-size="11" fill="#444" text-anchor="middle"></text>
    <rect x="568.421052631579" y="88.3987915407855" width="7.105263157894736" height="21.6012084592145" fill="#16a34a" rx="3" />
    <text x="571.9736842105264" y="128" font-family="Arial" font-size="11" fill="#444" text-anchor="middle"></text>
    <rect x="577.8947368421052" y="79.09365558912387" width="7.105263157894736" height="30.90634441087613" fill="#16a34a" rx="3" />
    <text x="581.4473684210526" y="128" font-family="Arial" font-size="11" fill="#444" text-anchor="middle"></text>
    <rect x="587.3684210526316" y="70.12084592145015" width="7.105263157894736" height="39.879154078549846" fill="#16a34a" rx="3" />
    <text x="590.921052631579" y="128" font-family="Arial" font-size="11" fill="#444" text-anchor="middle"></text>
    <rect x="596.8421052631578" y="55.49848942598187" width="7.105263157894736" height="54.50151057401813" fill="#16a34a" rx="3" />
    <text x="600.3947368421052" y="128" font-family="Arial" font-size="11" fill="#444" text-anchor="middle"></text>
    <rect x="606.3157894736842" y="88.3987915407855" width="7.105263157894736" height="21.6012084592145" fill="#16a34a" rx="3" />
    <text x="609.8684210526316" y="128" font-family="Arial" font-size="11" fill="#444" text-anchor="middle"></text>
    <rect x="615.7894736842105" y="40.54380664652568" width="7.105263157894736" height="69.45619335347432" fill="#16a34a" rx="3" />
    <text x="619.3421052631579" y="128" font-family="Arial" font-size="11" fill="#444" text-anchor="middle"></text>
    <rect x="625.2631578947368" y="21.601208459214504" width="7.105263157894736" height="88.3987915407855" fill="#16a34a" rx="3" />
    <text x="628.8157894736842" y="128" font-family="Arial" font-size="11" fill="#444" text-anchor="middle"></text>
    <rect x="634.7368421052631" y="0" width="7.105263157894736" height="110" fill="#16a34a" rx="3" />
    <text x="638.2894736842105" y="128" font-family="Arial" font-size="11" fill="#444" text-anchor="middle"></text>
    <rect x="644.2105263157894" y="27.915407854984892" width="7.105263157894736" height="82.08459214501511" fill="#16a34a" rx="3" />
    <text x="647.7631578947368" y="128" font-family="Arial" font-size="11" fill="#444" text-anchor="middle"></text>
    <rect x="653.6842105263157" y="55.166163141993955" width="7.105263157894736" height="54.833836858006045" fill="#16a34a" rx="3" />
    <text x="657.2368421052631" y="128" font-family="Arial" font-size="11" fill="#444" text-anchor="middle"></text>
    <rect x="663.1578947368421" y="75.10574018126889" width="7.105263157894736" height="34.89425981873112" fill="#16a34a" rx="3" />
    <text x="666.7105263157895" y="128" font-family="Arial" font-size="11" fill="#444" text-anchor="middle">2026</text>
    <rect x="672.6315789473683" y="70.12084592145015" width="7.105263157894736" height="39.879154078549846" fill="#16a34a" rx="3" />
    <text x="676.1842105263157" y="128" font-family="Arial" font-size="11" fill="#444" text-anchor="middle"></text>
    <rect x="682.1052631578947" y="66.79758308157099" width="7.105263157894736" height="43.202416918429" fill="#16a34a" rx="3" />
    <text x="685.6578947368421" y="128" font-family="Arial" font-size="11" fill="#444" text-anchor="middle"></text>
    <rect x="691.578947368421" y="90.7250755287009" width="7.105263157894736" height="19.274924471299094" fill="#16a34a" rx="3" />
    <text x="695.1315789473684" y="128" font-family="Arial" font-size="11" fill="#444" text-anchor="middle"></text>
    <rect x="701.0526315789473" y="60.151057401812686" width="7.105263157894736" height="49.848942598187314" fill="#16a34a" rx="3" />
    <text x="704.6052631578947" y="128" font-family="Arial" font-size="11" fill="#444" text-anchor="middle"></text>
    <rect x="710.5263157894736" y="94.04833836858006" width="7.105263157894736" height="15.951661631419942" fill="#16a34a" rx="3" />
    <text x="714.078947368421" y="128" font-family="Arial" font-size="11" fill="#444" text-anchor="middle"></text>
    <text x="-6" y="110" font-family="Arial" font-size="11" fill="#666" text-anchor="end">0</text>
    <text x="-6" y="10" font-family="Arial" font-size="11" fill="#666" text-anchor="end">331</text>
  </g>
</svg>