<svg xmlns="http://www.w3.org/2000/svg" width="800" height="200" viewBox="0 0 800 200">
  <style>
    .chart-title { font: bold 18px Arial; fill: #333; }
    .axis-label { font: 10px Arial; fill: #666; }
  </style>
  <text x="400" y="20" text-anchor="middle" class="chart-title">All Time Monthly Commits</text>
  <g transform="translate(50, 40)">
    <rect x="0" y="108.67069486404834" width="6.835443037974684" height="1.3293051359516617" fill="#16a34a" rx="3" />
    <text x="3.417721518987342" y="128" font-family="Arial" font-size="11" fill="#444" text-anchor="middle"></text>
    <rect x="9.113924050632912" y="106.67673716012085" width="6.835443037974684" height="3.3232628398791544" fill="#16a34a" rx="3" />
    <text x="12.531645569620254" y="128" font-family="Arial" font-size="11" fill="#444" text-anchor="middle"></text>
    <rect x="18.227848101265824" y="104.35045317220543" width="6.835443037974684" height="5.649546827794563" fill="#16a34a" rx="3" />
    <text x="21.645569620253166" y="128" font-family="Arial" font-size="11" fill="#444" text-anchor="middle"></text>
    <rect x="27.341772151898738" y="109.33534743202416" width="6.835443037974684" height="0.6646525679758308" fill="#16a34a" rx="3" />
    <text x="30.75949367088608" y="128" font-family="Arial" font-size="11" fill="#444" text-anchor="middle"></text>
    <rect x="36.45569620253165" y="104.01812688821752" width="6.835443037974684" height="5.981873111782477" fill="#16a34a" rx="3" />
    <text x="39.87341772151899" y="128" font-family="Arial" font-size="11" fill="#444" text-anchor="middle"></text>
    <rect x="45.56962025316456" y="61.14803625377643" width="6.835443037974684" height="48.85196374622357" fill="#16a34a" rx="3" />
    <text x="48.9873417721519" y="128" font-family="Arial" font-size="11" fill="#444" text-anchor="middle"></text>
    <rect x="54.683544303797476" y="85.40785498489426" width="6.835443037974684" height="24.59214501510574" fill="#16a34a" rx="3" />
    <text x="58.10126582278482" y="128" font-family="Arial" font-size="11" fill="#444" text-anchor="middle"></text>
    <rect x="63.797468354430386" y="104.35045317220543" width="6.835443037974684" height="5.649546827794563" fill="#16a34a" rx="3" />
    <text x="67.21518987341773" y="128" font-family="Arial" font-size="11" fill="#444" text-anchor="middle"></text>
    <rect x="72.9113924050633" y="89.06344410876133" width="6.835443037974684" height="20.93655589123867" fill="#16a34a" rx="3" />
    <text x="76.32911392405063" y="128" font-family="Arial" font-size="11" fill="#444" text-anchor="middle"></text>
    <rect x="82.02531645569621" y="87.06948640483384" width="6.835443037974684" height="22.930513595166165" fill="#16a34a" rx="3" />
    <text x="85.44303797468356" y="128" font-family="Arial" font-size="11" fill="#444" text-anchor="middle"></text>
    <rect x="91.13924050632912" y="104.35045317220543" width="6.835443037974684" height="5.649546827794563" fill="#16a34a" rx="3" />
    <text x="94.55696202531647" y="128" font-family="Arial" font-size="11" fill="#444" text-anchor="middle">2021</text>
    <rect x="100.25316455696203" y="106.34441087613293" width="6.835443037974684" height="3.6555891238670695" fill="#16a34a" rx="3" />
    <text x="103.67088607594937" y="128" font-family="Arial" font-size="11" fill="#444" text-anchor="middle"></text>
    <rect x="109.36708860759495" y="100.69486404833837" width="6.835443037974684" height="9.305135951661631" fill="#16a34a" rx="3" />
    <text x="112.7848101265823" y="128" font-family="Arial" font-size="11" fill="#444" text-anchor="middle"></text>
    <rect x="118.48101265822785" y="53.8368580060423" width="6.835443037974684" height="56.1631419939577" fill="#16a34a" rx="3" />
    <text x="121.8987341772152" y="128" font-family="Arial" font-size="11" fill="#444" text-anchor="middle"></text>
    <rect x="127.59493670886077" y="54.16918429003021" width="6.835443037974684" height="55.83081570996979" fill="#16a34a" rx="3" />
    <text x="131.0126582278481" y="128" font-family="Arial" font-size="11" fill="#444" text-anchor="middle"></text>
    <rect x="136.7088607594937" y="27.915407854984892" width="6.835443037974684" height="82.08459214501511" fill="#16a34a" rx="3" />
    <text x="140.12658227848104" y="128" font-family="Arial" font-size="11" fill="#444" text-anchor="middle"></text>
    <rect x="145.8227848101266" y="61.14803625377643" width="6.835443037974684" height="48.85196374622357" fill="#16a34a" rx="3" />
    <text x="149.24050632911394" y="128" font-family="Arial" font-size="11" fill="#444" text-anchor="middle"></text>
    <rect x="154.9367088607595" y="81.08761329305136" width="6.835443037974684" height="28.912386706948638" fill="#16a34a" rx="3" />
    <text x="158.35443037974684" y="128" font-family="Arial" font-size="11" fill="#444" text-anchor="middle"></text>
    <rect x="164.05063291139243" y="82.41691842900302" width="6.835443037974684" height="27.58308157099698" fill="#16a34a" rx="3" />
    <text x="167.46835443037978" y="128" font-family="Arial" font-size="11" fill="#444" text-anchor="middle"></text>
    <rect x="173.16455696202533" y="89.39577039274924" width="6.835443037974684" height="20.604229607250755" fill="#16a34a" rx="3" />
    <text x="176.58227848101268" y="128" font-family="Arial" font-size="11" fill="#444" text-anchor="middle"></text>
    <rect x="182.27848101265823" y="77.09969788519638" width="6.835443037974684" height="32.90030211480363" fill="#16a34a" rx="3" />
    <text x="185.69620253164558" y="128" font-family="Arial" font-size="11" fill="#444" text-anchor="middle"></text>
    <rect x="191.39240506329116" y="75.7703927492447" width="6.835443037974684" height="34.229607250755286" fill="#16a34a" rx="3" />
    <text x="194.8101265822785" y="128" font-family="Arial" font-size="11" fill="#444" text-anchor="middle"></text>
    <rect x="200.50632911392407" y="62.809667673716014" width="6.835443037974684" height="47.190332326283986" fill="#16a34a" rx="3" />
    <text x="203.92405063291142" y="128" font-family="Arial" font-size="11" fill="#444" text-anchor="middle">2022</text>
    <rect x="209.62025316455697" y="65.46827794561933" width="6.835443037974684" height="44.531722054380666" fill="#16a34a" rx="3" />
    <text x="213.03797468354432" y="128" font-family="Arial" font-size="11" fill="#444" text-anchor="middle"></text>
    <rect x="218.7341772151899" y="75.7703927492447" width="6.835443037974684" height="34.229607250755286" fill="#16a34a" rx="3" />
    <text x="222.15189873417725" y="128" font-family="Arial" font-size="11" fill="#444" text-anchor="middle"></text>
    <rect x="227.8481012658228" y="71.78247734138972" width="6.835443037974684" height="38.21752265861027" fill="#16a34a" rx="3" />
    <text x="231.26582278481015" y="128" font-family="Arial" font-size="11" fill="#444" text-anchor="middle"></text>
    <rect x="236.9620253164557" y="80.75528700906344" width="6.835443037974684" height="29.244712990936556" fill="#16a34a" rx="3" />
    <text x="240.37974683544306" y="128" font-family="Arial" font-size="11" fill="#444" text-anchor="middle"></text>
    <rect x="246.0759493670886" y="88.06646525679758" width="6.835443037974684" height="21.93353474320242" fill="#16a34a" rx="3" />
    <text x="249.49367088607596" y="128" font-family="Arial" font-size="11" fill="#444" text-anchor="middle"></text>
    <rect x="255.18987341772154" y="79.42598187311178" width="6.835443037974684" height="30.57401812688822" fill="#16a34a" rx="3" />
    <text x="258.6075949367089" y="128" font-family="Arial" font-size="11" fill="#444" text-anchor="middle"></text>
    <rect x="264.30379746835445" y="33.89728096676737" width="6.835443037974684" height="76.10271903323263" fill="#16a34a" rx="3" />
    <text x="267.72151898734177" y="128" font-family="Arial" font-size="11" fill="#444" text-anchor="middle"></text>
    <rect x="273.4177215189874" y="75.7703927492447" width="6.835443037974684" height="34.229607250755286" fill="#16a34a" rx="3" />
    <text x="276.8354430379747" y="128" font-family="Arial" font-size="11" fill="#444" text-anchor="middle"></text>
    <rect x="282.53164556962025" y="60.483383685800604" width="6.835443037974684" height="49.516616314199396" fill="#16a34a" rx="3" />
    <text x="285.9493670886076" y="128" font-family="Arial" font-size="11" fill="#444" text-anchor="middle"></text>
    <rect x="291.6455696202532" y="59.818731117824775" width="6.835443037974684" height="50.181268882175225" fill="#16a34a" rx="3" />
    <text x="295.0632911392405" y="128" font-family="Arial" font-size="11" fill="#444" text-anchor="middle"></text>
    <rect x="300.7594936708861" y="27.58308157099698" width="6.835443037974684" height="82.41691842900302" fill="#16a34a" rx="3" />
    <text x="304.17721518987344" y="128" font-family="Arial" font-size="11" fill="#444" text-anchor="middle"></text>
    <rect x="309.873417721519" y="76.43504531722054" width="6.835443037974684" height="33.56495468277946" fill="#16a34a" rx="3" />
    <text x="313.2911392405063" y="128" font-family="Arial" font-size="11" fill="#444" text-anchor="middle">2023</text>
    <rect x="318.9873417721519" y="19.939577039274923" width="6.835443037974684" height="90.06042296072508" fill="#16a34a" rx="3" />
    <text x="322.40506329113924" y="128" font-family="Arial" font-size="11" fill="#444" text-anchor="middle"></text>
    <rect x="328.10126582278485" y="44.86404833836859" width="6.835443037974684" height="65.13595166163141" fill="#16a34a" rx="3" />
    <text x="331.5189873417722" y="128" font-family="Arial" font-size="11" fill="#444" text-anchor="middle"></text>
    <rect x="337.2151898734177" y="60.81570996978852" width="6.835443037974684" height="49.18429003021148" fill="#16a34a" rx="3" />
    <text x="340.63291139240505" y="128" font-family="Arial" font-size="11" fill="#444" text-anchor="middle"></text>
    <rect x="346.32911392405066" y="44.531722054380666" width="6.835443037974684" height="65.46827794561933" fill="#16a34a" rx="3" />
    <text x="349.746835443038" y="128" font-family="Arial" font-size="11" fill="#444" text-anchor="middle"></text>
    <rect x="355.4430379746836" y="63.141993957703924" width="6.835443037974684" height="46.858006042296076" fill="#16a34a" rx="3" />
    <text x="358.8607594936709" y="128" font-family="Arial" font-size="11" fill="#444" text-anchor="middle"></text>
    <rect x="364.55696202531647" y="75.4380664652568" width="6.835443037974684" height="34.561933534743204" fill="#16a34a" rx="3" />
    <text x="367.9746835443038" y="128" font-family="Arial" font-size="11" fill="#444" text-anchor="middle"></text>
    <rect x="373.6708860759494" y="74.77341389728096" width="6.835443037974684" height="35.22658610271903" fill="#16a34a" rx="3" />
    <text x="377.0886075949367" y="128" font-family="Arial" font-size="11" fill="#444" text-anchor="middle"></text>
    <rect x="382.78481012658233" y="72.44712990936556" width="6.835443037974684" height="37.55287009063444" fill="#16a34a" rx="3" />
    <text x="386.20253164556965" y="128" font-family="Arial" font-size="11" fill="#444" text-anchor="middle"></text>
    <rect x="391.8987341772152" y="69.78851963746223" width="6.835443037974684" height="40.21148036253776" fill="#16a34a" rx="3" />
    <text x="395.3164556962025" y="128" font-family="Arial" font-size="11" fill="#444" text-anchor="middle"></text>
    <rect x="401.01265822784814" y="44.531722054380666" width="6.835443037974684" height="65.46827794561933" fill="#16a34a" rx="3" />
    <text x="404.43037974683546" y="128" font-family="Arial" font-size="11" fill="#444" text-anchor="middle"></text>
    <rect x="410.12658227848107" y="87.06948640483384" width="6.835443037974684" height="22.930513595166165" fill="#16a34a" rx="3" />
    <text x="413.5443037974684" y="128" font-family="Arial" font-size="11" fill="#444" text-anchor="middle"></text>
    <rect x="419.24050632911394" y="94.38066465256797" width="6.835443037974684" height="15.619335347432026" fill="#16a34a" rx="3" />
    <text x="422.65822784810126" y="128" font-family="Arial" font-size="11" fill="#444" text-anchor="middle">2024</text>
    <rect x="428.3544303797469" y="92.05438066465257" width="6.835443037974684" height="17.94561933534743" fill="#16a34a" rx="3" />
    <text x="431.7721518987342" y="128" font-family="Arial" font-size="11" fill="#444" text-anchor="middle"></text>
    <rect x="437.4683544303798" y="97.0392749244713" width="6.835443037974684" height="12.960725075528702" fill="#16a34a" rx="3" />
    <text x="440.8860759493671" y="128" font-family="Arial" font-size="11" fill="#444" text-anchor="middle"></text>
    <rect x="446.5822784810127" y="100.03021148036254" width="6.835443037974684" height="9.969788519637461" fill="#16a34a" rx="3" />
    <text x="450" y="128" font-family="Arial" font-size="11" fill="#444" text-anchor="middle"></text>
    <rect x="455.6962025316456" y="106.34441087613293" width="6.835443037974684" height="3.6555891238670695" fill="#16a34a" rx="3" />
    <text x="459.11392405063293" y="128" font-family="Arial" font-size="11" fill="#444" text-anchor="middle"></text>
    <rect x="464.8101265822785" y="91.05740181268882" width="6.835443037974684" height="18.94259818731118" fill="#16a34a" rx="3" />
    <text x="468.2278481012658" y="128" font-family="Arial" font-size="11" fill="#444" text-anchor="middle"></text>
    <rect x="473.9240506329114" y="84.74320241691842" width="6.835443037974684" height="25.25679758308157" fill="#16a34a" rx="3" />
    <text x="477.34177215189874" y="128" font-family="Arial" font-size="11" fill="#444" text-anchor="middle"></text>
    <rect x="483.03797468354435" y="98.70090634441087" width="6.835443037974684" height="11.299093655589125" fill="#16a34a" rx="3" />
    <text x="486.45569620253167" y="128" font-family="Arial" font-size="11" fill="#444" text-anchor="middle"></text>
    <rect x="492.1518987341772" y="99.69788519637463" width="6.835443037974684" height="10.302114803625377" fill="#16a34a" rx="3" />
    <text x="495.56962025316454" y="128" font-family="Arial" font-size="11" fill="#444" text-anchor="middle"></text>
    <rect x="501.26582278481015" y="81.75226586102718" width="6.835443037974684" height="28.247734138972813" fill="#16a34a" rx="3" />
    <text x="504.6835443037975" y="128" font-family="Arial" font-size="11" fill="#444" text-anchor="middle"></text>
    <rect x="510.3797468354431" y="52.83987915407855" width="6.835443037974684" height="57.16012084592145" fill="#16a34a" rx="3" />
    <text x="513.7974683544304" y="128" font-family="Arial" font-size="11" fill="#444" text-anchor="middle"></text>
    <rect x="519.493670886076" y="62.477341389728096" width="6.835443037974684" height="47.522658610271904" fill="#16a34a" rx="3" />
    <text x="522.9113924050633" y="128" font-family="Arial" font-size="11" fill="#444" text-anchor="middle"></text>
    <rect x="528.6075949367089" y="71.78247734138972" width="6.835443037974684" height="38.21752265861027" fill="#16a34a" rx="3" />
    <text x="532.0253164556963" y="128" font-family="Arial" font-size="11" fill="#444" text-anchor="middle">2025</text>
    <rect x="537.7215189873418" y="96.70694864048338" width="6.835443037974684" height="13.293051359516618" fill="#16a34a" rx="3" />
    <text x="541.1392405063292" y="128" font-family="Arial" font-size="11" fill="#444" text-anchor="middle"></text>
    <rect x="546.8354430379748" y="88.3987915407855" width="6.835443037974684" height="21.6012084592145" fill="#16a34a" rx="3" />
    <text x="550.2531645569621" y="128" font-family="Arial" font-size="11" fill="#444" text-anchor="middle"></text>
    <rect x="555.9493670886077" y="79.09365558912387" width="6.835443037974684" height="30.90634441087613" fill="#16a34a" rx="3" />
    <text x="559.3670886075951" y="128" font-family="Arial" font-size="11" fill="#444" text-anchor="middle"></text>
    <rect x="565.0632911392405" y="70.12084592145015" width="6.835443037974684" height="39.879154078549846" fill="#16a34a" rx="3" />
    <text x="568.4810126582279" y="128" font-family="Arial" font-size="11" fill="#444" text-anchor="middle"></text>
    <rect x="574.1772151898734" y="55.49848942598187" width="6.835443037974684" height="54.50151057401813" fill="#16a34a" rx="3" />
    <text x="577.5949367088608" y="128" font-family="Arial" font-size="11" fill="#444" text-anchor="middle"></text>
    <rect x="583.2911392405064" y="88.3987915407855" width="6.835443037974684" height="21.6012084592145" fill="#16a34a" rx="3" />
    <text x="586.7088607594937" y="128" font-family="Arial" font-size="11" fill="#444" text-anchor="middle"></text>
    <rect x="592.4050632911393" y="40.54380664652568" width="6.835443037974684" height="69.45619335347432" fill="#16a34a" rx="3" />
    <text x="595.8227848101267" y="128" font-family="Arial" font-size="11" fill="#444" text-anchor="middle"></text>
    <rect x="601.5189873417722" y="21.601208459214504" width="6.835443037974684" height="88.3987915407855" fill="#16a34a" rx="3" />
    <text x="604.9367088607596" y="128" font-family="Arial" font-size="11" fill="#444" text-anchor="middle"></text>
    <rect x="610.632911392405" y="0" width="6.835443037974684" height="110" fill="#16a34a" rx="3" />
    <text x="614.0506329113924" y="128" font-family="Arial" font-size="11" fill="#444" text-anchor="middle"></text>
    <rect x="619.746835443038" y="27.915407854984892" width="6.835443037974684" height="82.08459214501511" fill="#16a34a" rx="3" />
    <text x="623.1645569620254" y="128" font-family="Arial" font-size="11" fill="#444" text-anchor="middle"></text>
    <rect x="628.8607594936709" y="55.166163141993955" width="6.835443037974684" height="54.833836858006045" fill="#16a34a" rx="3" />
    <text x="632.2784810126583" y="128" font-family="Arial" font-size="11" fill="#444" text-anchor="middle"></text>
    <rect x="637.9746835443038" y="75.10574018126889" width="6.835443037974684" height="34.89425981873112" fill="#16a34a" rx="3" />
    <text x="641.3924050632912" y="128" font-family="Arial" font-size="11" fill="#444" text-anchor="middle">2026</text>
    <rect x="647.0886075949368" y="70.12084592145015" width="6.835443037974684" height="39.879154078549846" fill="#16a34a" rx="3" />
    <text x="650.5063291139242" y="128" font-family="Arial" font-size="11" fill="#444" text-anchor="middle"></text>
    <rect x="656.2025316455697" y="66.79758308157099" width="6.835443037974684" height="43.202416918429" fill="#16a34a" rx="3" />
    <text x="659.6202531645571" y="128" font-family="Arial" font-size="11" fill="#444" text-anchor="middle"></text>
    <rect x="665.3164556962025" y="90.7250755287009" width="6.835443037974684" height="19.274924471299094" fill="#16a34a" rx="3" />
    <text x="668.7341772151899" y="128" font-family="Arial" font-size="11" fill="#444" text-anchor="middle"></text>
    <rect x="674.4303797468355" y="59.818731117824775" width="6.835443037974684" height="50.181268882175225" fill="#16a34a" rx="3" />
    <text x="677.8481012658228" y="128" font-family="Arial" font-size="11" fill="#444" text-anchor="middle"></text>
    <rect x="683.5443037974684" y="81.08761329305136" width="6.835443037974684" height="28.912386706948638" fill="#16a34a" rx="3" />
    <text x="686.9620253164558" y="128" font-family="Arial" font-size="11" fill="#444" text-anchor="middle"></text>
    <rect x="692.6582278481013" y="85.74018126888217" width="6.835443037974684" height="24.259818731117825" fill="#16a34a" rx="3" />
    <text x="696.0759493670887" y="128" font-family="Arial" font-size="11" fill="#444" text-anchor="middle"></text>
    <rect x="701.7721518987343" y="90.7250755287009" width="6.835443037974684" height="19.274924471299094" fill="#16a34a" rx="3" />
    <text x="705.1898734177216" y="128" font-family="Arial" font-size="11" fill="#444" text-anchor="middle"></text>
    <rect x="710.8860759493672" y="74.44108761329306" width="6.835443037974684" height="35.55891238670694" fill="#16a34a" rx="3" />
    <text x="714.3037974683546" y="128" font-family="Arial" font-size="11" fill="#444" text-anchor="middle"></text>
    <text x="-6" y="110" font-family="Arial" font-size="11" fill="#666" text-anchor="end">0</text>
    <text x="-6" y="10" font-family="Arial" font-size="11" fill="#666" text-anchor="end">331</text>
  </g>
</svg>