<svg xmlns="http://www.w3.org/2000/svg" width="800" height="200" viewBox="0 0 800 200">
  <style>
    .chart-title { font: bold 18px Arial; fill: #333; }
    .axis-label { font: 10px Arial; fill: #666; }
  </style>
  <text x="400" y="20" text-anchor="middle" class="chart-title">All Time Monthly Commits</text>
  <g transform="translate(50, 40)">
    <rect x="0" y="109.11646586345381" width="4.462809917355372" height="0.8835341365461846" fill="#16a34a" rx="3" />
    <text x="2.231404958677686" y="128" font-family="Arial" font-size="11" fill="#444" text-anchor="middle"></text>
    <rect x="5.950413223140496" y="109.77911646586345" width="4.462809917355372" height="0.22088353413654616" fill="#16a34a" rx="3" />
    <text x="8.181818181818182" y="128" font-family="Arial" font-size="11" fill="#444" text-anchor="middle"></text>
    <rect x="11.900826446280991" y="107.1285140562249" width="4.462809917355372" height="2.8714859437751" fill="#16a34a" rx="3" />
    <text x="14.132231404958677" y="128" font-family="Arial" font-size="11" fill="#444" text-anchor="middle"></text>
    <rect x="17.85123966942149" y="92.32931726907631" width="4.462809917355372" height="17.670682730923694" fill="#16a34a" rx="3" />
    <text x="20.082644628099175" y="128" font-family="Arial" font-size="11" fill="#444" text-anchor="middle"></text>
    <rect x="23.801652892561982" y="77.53012048192771" width="4.462809917355372" height="32.46987951807229" fill="#16a34a" rx="3" />
    <text x="26.03305785123967" y="128" font-family="Arial" font-size="11" fill="#444" text-anchor="middle"></text>
    <rect x="29.752066115702476" y="91.44578313253012" width="4.462809917355372" height="18.55421686746988" fill="#16a34a" rx="3" />
    <text x="31.983471074380162" y="128" font-family="Arial" font-size="11" fill="#444" text-anchor="middle"></text>
    <rect x="35.70247933884298" y="87.46987951807229" width="4.462809917355372" height="22.53012048192771" fill="#16a34a" rx="3" />
    <text x="37.93388429752066" y="128" font-family="Arial" font-size="11" fill="#444" text-anchor="middle"></text>
    <rect x="41.65289256198347" y="88.13253012048193" width="4.462809917355372" height="21.867469879518072" fill="#16a34a" rx="3" />
    <text x="43.88429752066116" y="128" font-family="Arial" font-size="11" fill="#444" text-anchor="middle"></text>
    <rect x="47.603305785123965" y="81.72690763052209" width="4.462809917355372" height="28.273092369477908" fill="#16a34a" rx="3" />
    <text x="49.83471074380165" y="128" font-family="Arial" font-size="11" fill="#444" text-anchor="middle"></text>
    <rect x="53.55371900826446" y="82.16867469879519" width="4.462809917355372" height="27.831325301204817" fill="#16a34a" rx="3" />
    <text x="55.785123966942145" y="128" font-family="Arial" font-size="11" fill="#444" text-anchor="middle"></text>
    <rect x="59.50413223140495" y="83.49397590361446" width="4.462809917355372" height="26.50602409638554" fill="#16a34a" rx="3" />
    <text x="61.73553719008264" y="128" font-family="Arial" font-size="11" fill="#444" text-anchor="middle"></text>
    <rect x="65.45454545454545" y="103.59437751004016" width="4.462809917355372" height="6.40562248995984" fill="#16a34a" rx="3" />
    <text x="67.68595041322314" y="128" font-family="Arial" font-size="11" fill="#444" text-anchor="middle"></text>
    <rect x="71.40495867768595" y="100.28112449799197" width="4.462809917355372" height="9.718875502008032" fill="#16a34a" rx="3" />
    <text x="73.63636363636364" y="128" font-family="Arial" font-size="11" fill="#444" text-anchor="middle"></text>
    <rect x="77.35537190082644" y="98.5140562248996" width="4.462809917355372" height="11.4859437751004" fill="#16a34a" rx="3" />
    <text x="79.58677685950413" y="128" font-family="Arial" font-size="11" fill="#444" text-anchor="middle">2014</text>
    <rect x="83.30578512396694" y="101.60642570281124" width="4.462809917355372" height="8.393574297188756" fill="#16a34a" rx="3" />
    <text x="85.53719008264463" y="128" font-family="Arial" font-size="11" fill="#444" text-anchor="middle"></text>
    <rect x="89.25619834710743" y="106.46586345381526" width="4.462809917355372" height="3.5341365461847385" fill="#16a34a" rx="3" />
    <text x="91.48760330578511" y="128" font-family="Arial" font-size="11" fill="#444" text-anchor="middle"></text>
    <rect x="95.20661157024793" y="109.33734939759036" width="4.462809917355372" height="0.6626506024096386" fill="#16a34a" rx="3" />
    <text x="97.43801652892562" y="128" font-family="Arial" font-size="11" fill="#444" text-anchor="middle"></text>
    <rect x="101.15702479338843" y="109.33734939759036" width="4.462809917355372" height="0.6626506024096386" fill="#16a34a" rx="3" />
    <text x="103.38842975206612" y="128" font-family="Arial" font-size="11" fill="#444" text-anchor="middle"></text>
    <rect x="107.10743801652892" y="109.33734939759036" width="4.462809917355372" height="0.6626506024096386" fill="#16a34a" rx="3" />
    <text x="109.3388429752066" y="128" font-family="Arial" font-size="11" fill="#444" text-anchor="middle"></text>
    <rect x="113.05785123966942" y="108.23293172690764" width="4.462809917355372" height="1.7670682730923692" fill="#16a34a" rx="3" />
    <text x="115.2892561983471" y="128" font-family="Arial" font-size="11" fill="#444" text-anchor="middle"></text>
    <rect x="119.0082644628099" y="108.89558232931726" width="4.462809917355372" height="1.104417670682731" fill="#16a34a" rx="3" />
    <text x="121.23966942148759" y="128" font-family="Arial" font-size="11" fill="#444" text-anchor="middle"></text>
    <rect x="124.9586776859504" y="107.570281124498" width="4.462809917355372" height="2.429718875502008" fill="#16a34a" rx="3" />
    <text x="127.19008264462809" y="128" font-family="Arial" font-size="11" fill="#444" text-anchor="middle"></text>
    <rect x="130.9090909090909" y="108.01204819277109" width="4.462809917355372" height="1.9879518072289155" fill="#16a34a" rx="3" />
    <text x="133.1404958677686" y="128" font-family="Arial" font-size="11" fill="#444" text-anchor="middle"></text>
    <rect x="136.8595041322314" y="108.23293172690764" width="4.462809917355372" height="1.7670682730923692" fill="#16a34a" rx="3" />
    <text x="139.09090909090907" y="128" font-family="Arial" font-size="11" fill="#444" text-anchor="middle"></text>
    <rect x="142.8099173553719" y="103.37349397590361" width="4.462809917355372" height="6.626506024096385" fill="#16a34a" rx="3" />
    <text x="145.04132231404958" y="128" font-family="Arial" font-size="11" fill="#444" text-anchor="middle"></text>
    <rect x="148.7603305785124" y="100.50200803212851" width="4.462809917355372" height="9.497991967871487" fill="#16a34a" rx="3" />
    <text x="150.9917355371901" y="128" font-family="Arial" font-size="11" fill="#444" text-anchor="middle">2015</text>
    <rect x="154.71074380165288" y="108.89558232931726" width="4.462809917355372" height="1.104417670682731" fill="#16a34a" rx="3" />
    <text x="156.94214876033055" y="128" font-family="Arial" font-size="11" fill="#444" text-anchor="middle"></text>
    <rect x="160.66115702479337" y="100.94377510040161" width="4.462809917355372" height="9.056224899598392" fill="#16a34a" rx="3" />
    <text x="162.89256198347107" y="128" font-family="Arial" font-size="11" fill="#444" text-anchor="middle"></text>
    <rect x="166.61157024793388" y="97.85140562248996" width="4.462809917355372" height="12.14859437751004" fill="#16a34a" rx="3" />
    <text x="168.84297520661158" y="128" font-family="Arial" font-size="11" fill="#444" text-anchor="middle"></text>
    <rect x="172.56198347107437" y="103.81526104417671" width="4.462809917355372" height="6.184738955823293" fill="#16a34a" rx="3" />
    <text x="174.79338842975204" y="128" font-family="Arial" font-size="11" fill="#444" text-anchor="middle"></text>
    <rect x="178.51239669421486" y="95.86345381526104" width="4.462809917355372" height="14.136546184738954" fill="#16a34a" rx="3" />
    <text x="180.74380165289256" y="128" font-family="Arial" font-size="11" fill="#444" text-anchor="middle"></text>
    <rect x="184.46280991735537" y="96.74698795180723" width="4.462809917355372" height="13.25301204819277" fill="#16a34a" rx="3" />
    <text x="186.69421487603307" y="128" font-family="Arial" font-size="11" fill="#444" text-anchor="middle"></text>
    <rect x="190.41322314049586" y="102.26907630522088" width="4.462809917355372" height="7.730923694779117" fill="#16a34a" rx="3" />
    <text x="192.64462809917353" y="128" font-family="Arial" font-size="11" fill="#444" text-anchor="middle"></text>
    <rect x="196.36363636363635" y="96.96787148594377" width="4.462809917355372" height="13.032128514056225" fill="#16a34a" rx="3" />
    <text x="198.59504132231405" y="128" font-family="Arial" font-size="11" fill="#444" text-anchor="middle"></text>
    <rect x="202.31404958677686" y="101.16465863453816" width="4.462809917355372" height="8.835341365461847" fill="#16a34a" rx="3" />
    <text x="204.54545454545456" y="128" font-family="Arial" font-size="11" fill="#444" text-anchor="middle"></text>
    <rect x="208.26446280991735" y="105.58232931726907" width="4.462809917355372" height="4.417670682730924" fill="#16a34a" rx="3" />
    <text x="210.49586776859502" y="128" font-family="Arial" font-size="11" fill="#444" text-anchor="middle"></text>
    <rect x="214.21487603305783" y="105.14056224899599" width="4.462809917355372" height="4.859437751004016" fill="#16a34a" rx="3" />
    <text x="216.44628099173553" y="128" font-family="Arial" font-size="11" fill="#444" text-anchor="middle"></text>
    <rect x="220.16528925619835" y="99.83935742971887" width="4.462809917355372" height="10.160642570281125" fill="#16a34a" rx="3" />
    <text x="222.39669421487605" y="128" font-family="Arial" font-size="11" fill="#444" text-anchor="middle">2016</text>
    <rect x="226.11570247933884" y="105.36144578313252" width="4.462809917355372" height="4.63855421686747" fill="#16a34a" rx="3" />
    <text x="228.3471074380165" y="128" font-family="Arial" font-size="11" fill="#444" text-anchor="middle"></text>
    <rect x="232.06611570247932" y="105.58232931726907" width="4.462809917355372" height="4.417670682730924" fill="#16a34a" rx="3" />
    <text x="234.29752066115702" y="128" font-family="Arial" font-size="11" fill="#444" text-anchor="middle"></text>
    <rect x="238.0165289256198" y="106.6867469879518" width="4.462809917355372" height="3.3132530120481927" fill="#16a34a" rx="3" />
    <text x="240.24793388429748" y="128" font-family="Arial" font-size="11" fill="#444" text-anchor="middle"></text>
    <rect x="243.96694214876032" y="97.85140562248996" width="4.462809917355372" height="12.14859437751004" fill="#16a34a" rx="3" />
    <text x="246.198347107438" y="128" font-family="Arial" font-size="11" fill="#444" text-anchor="middle"></text>
    <rect x="249.9173553719008" y="109.11646586345381" width="4.462809917355372" height="0.8835341365461846" fill="#16a34a" rx="3" />
    <text x="252.1487603305785" y="128" font-family="Arial" font-size="11" fill="#444" text-anchor="middle"></text>
    <rect x="255.8677685950413" y="109.77911646586345" width="4.462809917355372" height="0.22088353413654616" fill="#16a34a" rx="3" />
    <text x="258.09917355371897" y="128" font-family="Arial" font-size="11" fill="#444" text-anchor="middle"></text>
    <rect x="261.8181818181818" y="99.39759036144578" width="4.462809917355372" height="10.602409638554217" fill="#16a34a" rx="3" />
    <text x="264.0495867768595" y="128" font-family="Arial" font-size="11" fill="#444" text-anchor="middle"></text>
    <rect x="267.7685950413223" y="109.5582329317269" width="4.462809917355372" height="0.4417670682730923" fill="#16a34a" rx="3" />
    <text x="270" y="128" font-family="Arial" font-size="11" fill="#444" text-anchor="middle"></text>
    <rect x="273.7190082644628" y="106.6867469879518" width="4.462809917355372" height="3.3132530120481927" fill="#16a34a" rx="3" />
    <text x="275.95041322314046" y="128" font-family="Arial" font-size="11" fill="#444" text-anchor="middle"></text>
    <rect x="279.6694214876033" y="107.1285140562249" width="4.462809917355372" height="2.8714859437751" fill="#16a34a" rx="3" />
    <text x="281.900826446281" y="128" font-family="Arial" font-size="11" fill="#444" text-anchor="middle"></text>
    <rect x="285.6198347107438" y="109.11646586345381" width="4.462809917355372" height="0.8835341365461846" fill="#16a34a" rx="3" />
    <text x="287.8512396694215" y="128" font-family="Arial" font-size="11" fill="#444" text-anchor="middle"></text>
    <rect x="291.5702479338843" y="107.79116465863454" width="4.462809917355372" height="2.208835341365462" fill="#16a34a" rx="3" />
    <text x="293.80165289256195" y="128" font-family="Arial" font-size="11" fill="#444" text-anchor="middle">2017</text>
    <rect x="297.5206611570248" y="107.570281124498" width="4.462809917355372" height="2.429718875502008" fill="#16a34a" rx="3" />
    <text x="299.75206611570246" y="128" font-family="Arial" font-size="11" fill="#444" text-anchor="middle"></text>
    <rect x="303.47107438016525" y="108.45381526104417" width="4.462809917355372" height="1.5461847389558232" fill="#16a34a" rx="3" />
    <text x="305.7024793388429" y="128" font-family="Arial" font-size="11" fill="#444" text-anchor="middle"></text>
    <rect x="309.42148760330576" y="109.5582329317269" width="4.462809917355372" height="0.4417670682730923" fill="#16a34a" rx="3" />
    <text x="311.65289256198344" y="128" font-family="Arial" font-size="11" fill="#444" text-anchor="middle">2018</text>
    <rect x="315.3719008264463" y="109.11646586345381" width="4.462809917355372" height="0.8835341365461846" fill="#16a34a" rx="3" />
    <text x="317.60330578512395" y="128" font-family="Arial" font-size="11" fill="#444" text-anchor="middle"></text>
    <rect x="321.32231404958674" y="109.5582329317269" width="4.462809917355372" height="0.4417670682730923" fill="#16a34a" rx="3" />
    <text x="323.5537190082644" y="128" font-family="Arial" font-size="11" fill="#444" text-anchor="middle"></text>
    <rect x="327.27272727272725" y="109.77911646586345" width="4.462809917355372" height="0.22088353413654616" fill="#16a34a" rx="3" />
    <text x="329.5041322314049" y="128" font-family="Arial" font-size="11" fill="#444" text-anchor="middle"></text>
    <rect x="333.22314049586777" y="109.11646586345381" width="4.462809917355372" height="0.8835341365461846" fill="#16a34a" rx="3" />
    <text x="335.45454545454544" y="128" font-family="Arial" font-size="11" fill="#444" text-anchor="middle"></text>
    <rect x="339.1735537190082" y="107.79116465863454" width="4.462809917355372" height="2.208835341365462" fill="#16a34a" rx="3" />
    <text x="341.4049586776859" y="128" font-family="Arial" font-size="11" fill="#444" text-anchor="middle"></text>
    <rect x="345.12396694214874" y="109.11646586345381" width="4.462809917355372" height="0.8835341365461846" fill="#16a34a" rx="3" />
    <text x="347.3553719008264" y="128" font-family="Arial" font-size="11" fill="#444" text-anchor="middle"></text>
    <rect x="351.07438016528926" y="107.570281124498" width="4.462809917355372" height="2.429718875502008" fill="#16a34a" rx="3" />
    <text x="353.3057851239669" y="128" font-family="Arial" font-size="11" fill="#444" text-anchor="middle"></text>
    <rect x="357.0247933884297" y="106.24497991967871" width="4.462809917355372" height="3.755020080321285" fill="#16a34a" rx="3" />
    <text x="359.2561983471074" y="128" font-family="Arial" font-size="11" fill="#444" text-anchor="middle"></text>
    <rect x="362.97520661157023" y="107.1285140562249" width="4.462809917355372" height="2.8714859437751" fill="#16a34a" rx="3" />
    <text x="365.2066115702479" y="128" font-family="Arial" font-size="11" fill="#444" text-anchor="middle"></text>
    <rect x="368.92561983471074" y="106.02409638554217" width="4.462809917355372" height="3.975903614457831" fill="#16a34a" rx="3" />
    <text x="371.1570247933884" y="128" font-family="Arial" font-size="11" fill="#444" text-anchor="middle">2021</text>
    <rect x="374.8760330578512" y="109.33734939759036" width="4.462809917355372" height="0.6626506024096386" fill="#16a34a" rx="3" />
    <text x="377.1074380165289" y="128" font-family="Arial" font-size="11" fill="#444" text-anchor="middle"></text>
    <rect x="380.8264462809917" y="89.67871485943775" width="4.462809917355372" height="20.32128514056225" fill="#16a34a" rx="3" />
    <text x="383.0578512396694" y="128" font-family="Arial" font-size="11" fill="#444" text-anchor="middle"></text>
    <rect x="386.77685950413223" y="57.65060240963856" width="4.462809917355372" height="52.34939759036144" fill="#16a34a" rx="3" />
    <text x="389.0082644628099" y="128" font-family="Arial" font-size="11" fill="#444" text-anchor="middle"></text>
    <rect x="392.7272727272727" y="81.94779116465864" width="4.462809917355372" height="28.052208835341368" fill="#16a34a" rx="3" />
    <text x="394.95867768595036" y="128" font-family="Arial" font-size="11" fill="#444" text-anchor="middle"></text>
    <rect x="398.6776859504132" y="73.33333333333334" width="4.462809917355372" height="36.666666666666664" fill="#16a34a" rx="3" />
    <text x="400.9090909090909" y="128" font-family="Arial" font-size="11" fill="#444" text-anchor="middle"></text>
    <rect x="404.6280991735537" y="87.69076305220884" width="4.462809917355372" height="22.309236947791163" fill="#16a34a" rx="3" />
    <text x="406.8595041322314" y="128" font-family="Arial" font-size="11" fill="#444" text-anchor="middle"></text>
    <rect x="410.5785123966942" y="87.0281124497992" width="4.462809917355372" height="22.9718875502008" fill="#16a34a" rx="3" />
    <text x="412.80991735537185" y="128" font-family="Arial" font-size="11" fill="#444" text-anchor="middle"></text>
    <rect x="416.5289256198347" y="82.83132530120483" width="4.462809917355372" height="27.16867469879518" fill="#16a34a" rx="3" />
    <text x="418.76033057851237" y="128" font-family="Arial" font-size="11" fill="#444" text-anchor="middle"></text>
    <rect x="422.4793388429752" y="90.56224899598394" width="4.462809917355372" height="19.437751004016064" fill="#16a34a" rx="3" />
    <text x="424.7107438016529" y="128" font-family="Arial" font-size="11" fill="#444" text-anchor="middle"></text>
    <rect x="428.42975206611567" y="82.38955823293173" width="4.462809917355372" height="27.610441767068274" fill="#16a34a" rx="3" />
    <text x="430.66115702479334" y="128" font-family="Arial" font-size="11" fill="#444" text-anchor="middle"></text>
    <rect x="434.3801652892562" y="90.34136546184739" width="4.462809917355372" height="19.65863453815261" fill="#16a34a" rx="3" />
    <text x="436.61157024793386" y="128" font-family="Arial" font-size="11" fill="#444" text-anchor="middle"></text>
    <rect x="440.3305785123967" y="66.70682730923696" width="4.462809917355372" height="43.29317269076305" fill="#16a34a" rx="3" />
    <text x="442.56198347107437" y="128" font-family="Arial" font-size="11" fill="#444" text-anchor="middle">2022</text>
    <rect x="446.28099173553716" y="71.56626506024097" width="4.462809917355372" height="38.433734939759034" fill="#16a34a" rx="3" />
    <text x="448.51239669421483" y="128" font-family="Arial" font-size="11" fill="#444" text-anchor="middle"></text>
    <rect x="452.2314049586777" y="70.02008032128514" width="4.462809917355372" height="39.979919678714865" fill="#16a34a" rx="3" />
    <text x="454.46280991735534" y="128" font-family="Arial" font-size="11" fill="#444" text-anchor="middle"></text>
    <rect x="458.1818181818182" y="84.37751004016064" width="4.462809917355372" height="25.62248995983936" fill="#16a34a" rx="3" />
    <text x="460.41322314049586" y="128" font-family="Arial" font-size="11" fill="#444" text-anchor="middle"></text>
    <rect x="464.13223140495865" y="72.67068273092369" width="4.462809917355372" height="37.329317269076306" fill="#16a34a" rx="3" />
    <text x="466.3636363636363" y="128" font-family="Arial" font-size="11" fill="#444" text-anchor="middle"></text>
    <rect x="470.08264462809916" y="86.36546184738955" width="4.462809917355372" height="23.634538152610443" fill="#16a34a" rx="3" />
    <text x="472.31404958677683" y="128" font-family="Arial" font-size="11" fill="#444" text-anchor="middle"></text>
    <rect x="476.0330578512396" y="89.23694779116465" width="4.462809917355372" height="20.76305220883534" fill="#16a34a" rx="3" />
    <text x="478.2644628099173" y="128" font-family="Arial" font-size="11" fill="#444" text-anchor="middle"></text>
    <rect x="481.98347107438013" y="4.638554216867462" width="4.462809917355372" height="105.36144578313254" fill="#16a34a" rx="3" />
    <text x="484.2148760330578" y="128" font-family="Arial" font-size="11" fill="#444" text-anchor="middle"></text>
    <rect x="487.93388429752065" y="60.963855421686745" width="4.462809917355372" height="49.036144578313255" fill="#16a34a" rx="3" />
    <text x="490.1652892561983" y="128" font-family="Arial" font-size="11" fill="#444" text-anchor="middle"></text>
    <rect x="493.8842975206611" y="0" width="4.462809917355372" height="110" fill="#16a34a" rx="3" />
    <text x="496.1157024793388" y="128" font-family="Arial" font-size="11" fill="#444" text-anchor="middle"></text>
    <rect x="499.8347107438016" y="42.40963855421687" width="4.462809917355372" height="67.59036144578313" fill="#16a34a" rx="3" />
    <text x="502.0661157024793" y="128" font-family="Arial" font-size="11" fill="#444" text-anchor="middle"></text>
    <rect x="505.78512396694214" y="31.807228915662648" width="4.462809917355372" height="78.19277108433735" fill="#16a34a" rx="3" />
    <text x="508.0165289256198" y="128" font-family="Arial" font-size="11" fill="#444" text-anchor="middle"></text>
    <rect x="511.7355371900826" y="62.06827309236948" width="4.462809917355372" height="47.93172690763052" fill="#16a34a" rx="3" />
    <text x="513.9669421487603" y="128" font-family="Arial" font-size="11" fill="#444" text-anchor="middle">2023</text>
    <rect x="517.6859504132232" y="76.20481927710844" width="4.462809917355372" height="33.795180722891565" fill="#16a34a" rx="3" />
    <text x="519.9173553719008" y="128" font-family="Arial" font-size="11" fill="#444" text-anchor="middle"></text>
    <rect x="523.6363636363636" y="53.23293172690763" width="4.462809917355372" height="56.76706827309237" fill="#16a34a" rx="3" />
    <text x="525.8677685950413" y="128" font-family="Arial" font-size="11" fill="#444" text-anchor="middle"></text>
    <rect x="529.5867768595041" y="60.08032128514056" width="4.462809917355372" height="49.91967871485944" fill="#16a34a" rx="3" />
    <text x="531.8181818181818" y="128" font-family="Arial" font-size="11" fill="#444" text-anchor="middle"></text>
    <rect x="535.5371900826447" y="53.23293172690763" width="4.462809917355372" height="56.76706827309237" fill="#16a34a" rx="3" />
    <text x="537.7685950413223" y="128" font-family="Arial" font-size="11" fill="#444" text-anchor="middle"></text>
    <rect x="541.4876033057851" y="72.22891566265059" width="4.462809917355372" height="37.7710843373494" fill="#16a34a" rx="3" />
    <text x="543.7190082644628" y="128" font-family="Arial" font-size="11" fill="#444" text-anchor="middle"></text>
    <rect x="547.4380165289256" y="71.12449799196787" width="4.462809917355372" height="38.87550200803213" fill="#16a34a" rx="3" />
    <text x="549.6694214876032" y="128" font-family="Arial" font-size="11" fill="#444" text-anchor="middle"></text>
    <rect x="553.3884297520661" y="66.26506024096386" width="4.462809917355372" height="43.734939759036145" fill="#16a34a" rx="3" />
    <text x="555.6198347107438" y="128" font-family="Arial" font-size="11" fill="#444" text-anchor="middle"></text>
    <rect x="559.3388429752066" y="65.82329317269077" width="4.462809917355372" height="44.17670682730924" fill="#16a34a" rx="3" />
    <text x="561.5702479338843" y="128" font-family="Arial" font-size="11" fill="#444" text-anchor="middle"></text>
    <rect x="565.2892561983471" y="80.18072289156626" width="4.462809917355372" height="29.819277108433734" fill="#16a34a" rx="3" />
    <text x="567.5206611570247" y="128" font-family="Arial" font-size="11" fill="#444" text-anchor="middle"></text>
    <rect x="571.2396694214876" y="68.25301204819277" width="4.462809917355372" height="41.74698795180723" fill="#16a34a" rx="3" />
    <text x="573.4710743801653" y="128" font-family="Arial" font-size="11" fill="#444" text-anchor="middle"></text>
    <rect x="577.1900826446281" y="95.86345381526104" width="4.462809917355372" height="14.136546184738954" fill="#16a34a" rx="3" />
    <text x="579.4214876033058" y="128" font-family="Arial" font-size="11" fill="#444" text-anchor="middle"></text>
    <rect x="583.1404958677685" y="100.72289156626506" width="4.462809917355372" height="9.27710843373494" fill="#16a34a" rx="3" />
    <text x="585.3719008264462" y="128" font-family="Arial" font-size="11" fill="#444" text-anchor="middle">2024</text>
    <rect x="589.090909090909" y="104.03614457831326" width="4.462809917355372" height="5.963855421686747" fill="#16a34a" rx="3" />
    <text x="591.3223140495867" y="128" font-family="Arial" font-size="11" fill="#444" text-anchor="middle"></text>
    <rect x="595.0413223140496" y="100.28112449799197" width="4.462809917355372" height="9.718875502008032" fill="#16a34a" rx="3" />
    <text x="597.2727272727273" y="128" font-family="Arial" font-size="11" fill="#444" text-anchor="middle"></text>
    <rect x="600.99173553719" y="105.58232931726907" width="4.462809917355372" height="4.417670682730924" fill="#16a34a" rx="3" />
    <text x="603.2231404958677" y="128" font-family="Arial" font-size="11" fill="#444" text-anchor="middle"></text>
    <rect x="606.9421487603305" y="106.46586345381526" width="4.462809917355372" height="3.5341365461847385" fill="#16a34a" rx="3" />
    <text x="609.1735537190082" y="128" font-family="Arial" font-size="11" fill="#444" text-anchor="middle"></text>
    <rect x="612.8925619834711" y="99.17670682730923" width="4.462809917355372" height="10.823293172690763" fill="#16a34a" rx="3" />
    <text x="615.1239669421487" y="128" font-family="Arial" font-size="11" fill="#444" text-anchor="middle"></text>
    <rect x="618.8429752066115" y="99.39759036144578" width="4.462809917355372" height="10.602409638554217" fill="#16a34a" rx="3" />
    <text x="621.0743801652892" y="128" font-family="Arial" font-size="11" fill="#444" text-anchor="middle"></text>
    <rect x="624.793388429752" y="82.16867469879519" width="4.462809917355372" height="27.831325301204817" fill="#16a34a" rx="3" />
    <text x="627.0247933884297" y="128" font-family="Arial" font-size="11" fill="#444" text-anchor="middle"></text>
    <rect x="630.7438016528926" y="82.83132530120483" width="4.462809917355372" height="27.16867469879518" fill="#16a34a" rx="3" />
    <text x="632.9752066115702" y="128" font-family="Arial" font-size="11" fill="#444" text-anchor="middle"></text>
    <rect x="636.694214876033" y="78.63453815261045" width="4.462809917355372" height="31.365461847389557" fill="#16a34a" rx="3" />
    <text x="638.9256198347107" y="128" font-family="Arial" font-size="11" fill="#444" text-anchor="middle"></text>
    <rect x="642.6446280991735" y="52.57028112449799" width="4.462809917355372" height="57.42971887550201" fill="#16a34a" rx="3" />
    <text x="644.8760330578511" y="128" font-family="Arial" font-size="11" fill="#444" text-anchor="middle"></text>
    <rect x="648.595041322314" y="51.024096385542165" width="4.462809917355372" height="58.975903614457835" fill="#16a34a" rx="3" />
    <text x="650.8264462809917" y="128" font-family="Arial" font-size="11" fill="#444" text-anchor="middle"></text>
    <rect x="654.5454545454545" y="52.34939759036145" width="4.462809917355372" height="57.65060240963855" fill="#16a34a" rx="3" />
    <text x="656.7768595041322" y="128" font-family="Arial" font-size="11" fill="#444" text-anchor="middle">2025</text>
    <rect x="660.495867768595" y="75.32128514056225" width="4.462809917355372" height="34.67871485943775" fill="#16a34a" rx="3" />
    <text x="662.7272727272726" y="128" font-family="Arial" font-size="11" fill="#444" text-anchor="middle"></text>
    <rect x="666.4462809917355" y="72.00803212851406" width="4.462809917355372" height="37.99196787148595" fill="#16a34a" rx="3" />
    <text x="668.6776859504132" y="128" font-family="Arial" font-size="11" fill="#444" text-anchor="middle"></text>
    <rect x="672.396694214876" y="60.963855421686745" width="4.462809917355372" height="49.036144578313255" fill="#16a34a" rx="3" />
    <text x="674.6280991735537" y="128" font-family="Arial" font-size="11" fill="#444" text-anchor="middle"></text>
    <rect x="678.3471074380165" y="73.55421686746988" width="4.462809917355372" height="36.445783132530124" fill="#16a34a" rx="3" />
    <text x="680.5785123966941" y="128" font-family="Arial" font-size="11" fill="#444" text-anchor="middle"></text>
    <rect x="684.297520661157" y="52.791164658634536" width="4.462809917355372" height="57.208835341365464" fill="#16a34a" rx="3" />
    <text x="686.5289256198347" y="128" font-family="Arial" font-size="11" fill="#444" text-anchor="middle"></text>
    <rect x="690.2479338842975" y="91.66666666666667" width="4.462809917355372" height="18.333333333333332" fill="#16a34a" rx="3" />
    <text x="692.4793388429752" y="128" font-family="Arial" font-size="11" fill="#444" text-anchor="middle"></text>
    <rect x="696.1983471074379" y="75.76305220883535" width="4.462809917355372" height="34.23694779116466" fill="#16a34a" rx="3" />
    <text x="698.4297520661156" y="128" font-family="Arial" font-size="11" fill="#444" text-anchor="middle"></text>
    <rect x="702.1487603305785" y="102.26907630522088" width="4.462809917355372" height="7.730923694779117" fill="#16a34a" rx="3" />
    <text x="704.3801652892562" y="128" font-family="Arial" font-size="11" fill="#444" text-anchor="middle"></text>
    <rect x="708.099173553719" y="79.29718875502009" width="4.462809917355372" height="30.702811244979916" fill="#16a34a" rx="3" />
    <text x="710.3305785123966" y="128" font-family="Arial" font-size="11" fill="#444" text-anchor="middle"></text>
    <rect x="714.0495867768594" y="96.52610441767068" width="4.462809917355372" height="13.473895582329316" fill="#16a34a" rx="3" />
    <text x="716.2809917355371" y="128" font-family="Arial" font-size="11" fill="#444" text-anchor="middle"></text>
    <text x="-6" y="110" font-family="Arial" font-size="11" fill="#666" text-anchor="end">0</text>
    <text x="-6" y="10" font-family="Arial" font-size="11" fill="#666" text-anchor="end">498</text>
  </g>
</svg>