<svg xmlns="http://www.w3.org/2000/svg" width="800" height="200" viewBox="0 0 800 200">
  <style>
    .chart-title { font: bold 18px Arial; fill: #333; }
    .axis-label { font: 10px Arial; fill: #666; }
  </style>
  <text x="400" y="20" text-anchor="middle" class="chart-title">All Time Monthly Commits</text>
  <g transform="translate(50, 40)">
    <rect x="0" y="108.37638376383764" width="7.826086956521739" height="1.6236162361623616" fill="#16a34a" rx="3" />
    <text x="3.9130434782608696" y="128" font-family="Arial" font-size="11" fill="#444" text-anchor="middle"></text>
    <rect x="10.434782608695652" y="105.9409594095941" width="7.826086956521739" height="4.059040590405904" fill="#16a34a" rx="3" />
    <text x="14.347826086956522" y="128" font-family="Arial" font-size="11" fill="#444" text-anchor="middle"></text>
    <rect x="20.869565217391305" y="103.09963099630997" width="7.826086956521739" height="6.900369003690036" fill="#16a34a" rx="3" />
    <text x="24.782608695652176" y="128" font-family="Arial" font-size="11" fill="#444" text-anchor="middle"></text>
    <rect x="31.304347826086957" y="109.18819188191883" width="7.826086956521739" height="0.8118081180811808" fill="#16a34a" rx="3" />
    <text x="35.21739130434783" y="128" font-family="Arial" font-size="11" fill="#444" text-anchor="middle"></text>
    <rect x="41.73913043478261" y="102.69372693726937" width="7.826086956521739" height="7.306273062730628" fill="#16a34a" rx="3" />
    <text x="45.65217391304348" y="128" font-family="Arial" font-size="11" fill="#444" text-anchor="middle"></text>
    <rect x="52.173913043478265" y="50.332103321033216" width="7.826086956521739" height="59.667896678966784" fill="#16a34a" rx="3" />
    <text x="56.08695652173913" y="128" font-family="Arial" font-size="11" fill="#444" text-anchor="middle"></text>
    <rect x="62.608695652173914" y="79.96309963099631" width="7.826086956521739" height="30.036900369003693" fill="#16a34a" rx="3" />
    <text x="66.52173913043478" y="128" font-family="Arial" font-size="11" fill="#444" text-anchor="middle"></text>
    <rect x="73.04347826086956" y="103.09963099630997" width="7.826086956521739" height="6.900369003690036" fill="#16a34a" rx="3" />
    <text x="76.95652173913044" y="128" font-family="Arial" font-size="11" fill="#444" text-anchor="middle"></text>
    <rect x="83.47826086956522" y="84.4280442804428" width="7.826086956521739" height="25.571955719557195" fill="#16a34a" rx="3" />
    <text x="87.3913043478261" y="128" font-family="Arial" font-size="11" fill="#444" text-anchor="middle"></text>
    <rect x="93.91304347826087" y="81.99261992619927" width="7.826086956521739" height="28.007380073800736" fill="#16a34a" rx="3" />
    <text x="97.82608695652175" y="128" font-family="Arial" font-size="11" fill="#444" text-anchor="middle"></text>
    <rect x="104.34782608695653" y="103.09963099630997" width="7.826086956521739" height="6.900369003690036" fill="#16a34a" rx="3" />
    <text x="108.2608695652174" y="128" font-family="Arial" font-size="11" fill="#444" text-anchor="middle">2021</text>
    <rect x="114.78260869565217" y="105.5350553505535" width="7.826086956521739" height="4.464944649446494" fill="#16a34a" rx="3" />
    <text x="118.69565217391305" y="128" font-family="Arial" font-size="11" fill="#444" text-anchor="middle"></text>
    <rect x="125.21739130434783" y="98.63468634686348" width="7.826086956521739" height="11.365313653136532" fill="#16a34a" rx="3" />
    <text x="129.1304347826087" y="128" font-family="Arial" font-size="11" fill="#444" text-anchor="middle"></text>
    <rect x="135.65217391304347" y="41.40221402214023" width="7.826086956521739" height="68.59778597785977" fill="#16a34a" rx="3" />
    <text x="139.56521739130434" y="128" font-family="Arial" font-size="11" fill="#444" text-anchor="middle"></text>
    <rect x="146.08695652173913" y="41.80811808118081" width="7.826086956521739" height="68.19188191881919" fill="#16a34a" rx="3" />
    <text x="150" y="128" font-family="Arial" font-size="11" fill="#444" text-anchor="middle"></text>
    <rect x="156.52173913043478" y="9.741697416974176" width="7.826086956521739" height="100.25830258302582" fill="#16a34a" rx="3" />
    <text x="160.43478260869566" y="128" font-family="Arial" font-size="11" fill="#444" text-anchor="middle"></text>
    <rect x="166.95652173913044" y="50.332103321033216" width="7.826086956521739" height="59.667896678966784" fill="#16a34a" rx="3" />
    <text x="170.8695652173913" y="128" font-family="Arial" font-size="11" fill="#444" text-anchor="middle"></text>
    <rect x="177.3913043478261" y="74.68634686346863" width="7.826086956521739" height="35.313653136531364" fill="#16a34a" rx="3" />
    <text x="181.30434782608697" y="128" font-family="Arial" font-size="11" fill="#444" text-anchor="middle"></text>
    <rect x="187.82608695652175" y="76.30996309963099" width="7.826086956521739" height="33.69003690036901" fill="#16a34a" rx="3" />
    <text x="191.73913043478262" y="128" font-family="Arial" font-size="11" fill="#444" text-anchor="middle"></text>
    <rect x="198.2608695652174" y="84.83394833948338" width="7.826086956521739" height="25.166051660516608" fill="#16a34a" rx="3" />
    <text x="202.17391304347828" y="128" font-family="Arial" font-size="11" fill="#444" text-anchor="middle"></text>
    <rect x="208.69565217391306" y="69.81549815498155" width="7.826086956521739" height="40.18450184501845" fill="#16a34a" rx="3" />
    <text x="212.60869565217394" y="128" font-family="Arial" font-size="11" fill="#444" text-anchor="middle"></text>
    <rect x="219.1304347826087" y="68.19188191881918" width="7.826086956521739" height="41.808118081180815" fill="#16a34a" rx="3" />
    <text x="223.04347826086956" y="128" font-family="Arial" font-size="11" fill="#444" text-anchor="middle"></text>
    <rect x="229.56521739130434" y="52.36162361623616" width="7.826086956521739" height="57.63837638376384" fill="#16a34a" rx="3" />
    <text x="233.47826086956522" y="128" font-family="Arial" font-size="11" fill="#444" text-anchor="middle">2022</text>
    <rect x="240" y="55.608856088560884" width="7.826086956521739" height="54.391143911439116" fill="#16a34a" rx="3" />
    <text x="243.91304347826087" y="128" font-family="Arial" font-size="11" fill="#444" text-anchor="middle"></text>
    <rect x="250.43478260869566" y="68.19188191881918" width="7.826086956521739" height="41.808118081180815" fill="#16a34a" rx="3" />
    <text x="254.34782608695653" y="128" font-family="Arial" font-size="11" fill="#444" text-anchor="middle"></text>
    <rect x="260.8695652173913" y="63.321033210332104" width="7.826086956521739" height="46.678966789667896" fill="#16a34a" rx="3" />
    <text x="264.7826086956522" y="128" font-family="Arial" font-size="11" fill="#444" text-anchor="middle"></text>
    <rect x="271.30434782608694" y="74.28044280442805" width="7.826086956521739" height="35.71955719557195" fill="#16a34a" rx="3" />
    <text x="275.2173913043478" y="128" font-family="Arial" font-size="11" fill="#444" text-anchor="middle"></text>
    <rect x="281.7391304347826" y="83.21033210332104" width="7.826086956521739" height="26.789667896678967" fill="#16a34a" rx="3" />
    <text x="285.6521739130435" y="128" font-family="Arial" font-size="11" fill="#444" text-anchor="middle"></text>
    <rect x="292.17391304347825" y="72.65682656826567" width="7.826086956521739" height="37.34317343173432" fill="#16a34a" rx="3" />
    <text x="296.0869565217391" y="128" font-family="Arial" font-size="11" fill="#444" text-anchor="middle"></text>
    <rect x="302.60869565217394" y="17.0479704797048" width="7.826086956521739" height="92.9520295202952" fill="#16a34a" rx="3" />
    <text x="306.5217391304348" y="128" font-family="Arial" font-size="11" fill="#444" text-anchor="middle"></text>
    <rect x="313.04347826086956" y="68.19188191881918" width="7.826086956521739" height="41.808118081180815" fill="#16a34a" rx="3" />
    <text x="316.95652173913044" y="128" font-family="Arial" font-size="11" fill="#444" text-anchor="middle"></text>
    <rect x="323.47826086956525" y="49.52029520295203" width="7.826086956521739" height="60.47970479704797" fill="#16a34a" rx="3" />
    <text x="327.3913043478261" y="128" font-family="Arial" font-size="11" fill="#444" text-anchor="middle"></text>
    <rect x="333.9130434782609" y="48.708487084870846" width="7.826086956521739" height="61.291512915129154" fill="#16a34a" rx="3" />
    <text x="337.82608695652175" y="128" font-family="Arial" font-size="11" fill="#444" text-anchor="middle"></text>
    <rect x="344.3478260869565" y="9.335793357933568" width="7.826086956521739" height="100.66420664206643" fill="#16a34a" rx="3" />
    <text x="348.2608695652174" y="128" font-family="Arial" font-size="11" fill="#444" text-anchor="middle"></text>
    <rect x="354.7826086956522" y="69.00369003690037" width="7.826086956521739" height="40.996309963099634" fill="#16a34a" rx="3" />
    <text x="358.69565217391306" y="128" font-family="Arial" font-size="11" fill="#444" text-anchor="middle">2023</text>
    <rect x="365.2173913043478" y="0" width="7.826086956521739" height="110" fill="#16a34a" rx="3" />
    <text x="369.1304347826087" y="128" font-family="Arial" font-size="11" fill="#444" text-anchor="middle"></text>
    <rect x="375.6521739130435" y="30.442804428044283" width="7.826086956521739" height="79.55719557195572" fill="#16a34a" rx="3" />
    <text x="379.5652173913044" y="128" font-family="Arial" font-size="11" fill="#444" text-anchor="middle"></text>
    <rect x="386.0869565217391" y="49.926199261992615" width="7.826086956521739" height="60.073800738007385" fill="#16a34a" rx="3" />
    <text x="390" y="128" font-family="Arial" font-size="11" fill="#444" text-anchor="middle"></text>
    <rect x="396.5217391304348" y="30.03690036900369" width="7.826086956521739" height="79.96309963099631" fill="#16a34a" rx="3" />
    <text x="400.4347826086957" y="128" font-family="Arial" font-size="11" fill="#444" text-anchor="middle"></text>
    <rect x="406.95652173913044" y="52.76752767527676" width="7.826086956521739" height="57.23247232472324" fill="#16a34a" rx="3" />
    <text x="410.8695652173913" y="128" font-family="Arial" font-size="11" fill="#444" text-anchor="middle"></text>
    <rect x="417.3913043478261" y="67.7859778597786" width="7.826086956521739" height="42.2140221402214" fill="#16a34a" rx="3" />
    <text x="421.304347826087" y="128" font-family="Arial" font-size="11" fill="#444" text-anchor="middle"></text>
    <rect x="427.82608695652175" y="66.97416974169741" width="7.826086956521739" height="43.025830258302584" fill="#16a34a" rx="3" />
    <text x="431.7391304347826" y="128" font-family="Arial" font-size="11" fill="#444" text-anchor="middle"></text>
    <rect x="438.2608695652174" y="64.13284132841329" width="7.826086956521739" height="45.867158671586715" fill="#16a34a" rx="3" />
    <text x="442.17391304347825" y="128" font-family="Arial" font-size="11" fill="#444" text-anchor="middle"></text>
    <rect x="448.69565217391306" y="60.88560885608856" width="7.826086956521739" height="49.11439114391144" fill="#16a34a" rx="3" />
    <text x="452.60869565217394" y="128" font-family="Arial" font-size="11" fill="#444" text-anchor="middle"></text>
    <rect x="459.1304347826087" y="30.03690036900369" width="7.826086956521739" height="79.96309963099631" fill="#16a34a" rx="3" />
    <text x="463.04347826086956" y="128" font-family="Arial" font-size="11" fill="#444" text-anchor="middle"></text>
    <rect x="469.5652173913044" y="81.99261992619927" width="7.826086956521739" height="28.007380073800736" fill="#16a34a" rx="3" />
    <text x="473.47826086956525" y="128" font-family="Arial" font-size="11" fill="#444" text-anchor="middle"></text>
    <rect x="480" y="90.92250922509226" width="7.826086956521739" height="19.07749077490775" fill="#16a34a" rx="3" />
    <text x="483.9130434782609" y="128" font-family="Arial" font-size="11" fill="#444" text-anchor="middle">2024</text>
    <rect x="490.4347826086957" y="88.08118081180811" width="7.826086956521739" height="21.918819188191883" fill="#16a34a" rx="3" />
    <text x="494.34782608695656" y="128" font-family="Arial" font-size="11" fill="#444" text-anchor="middle"></text>
    <rect x="500.8695652173913" y="94.16974169741698" width="7.826086956521739" height="15.830258302583026" fill="#16a34a" rx="3" />
    <text x="504.7826086956522" y="128" font-family="Arial" font-size="11" fill="#444" text-anchor="middle"></text>
    <rect x="511.30434782608694" y="97.82287822878229" width="7.826086956521739" height="12.177121771217712" fill="#16a34a" rx="3" />
    <text x="515.2173913043478" y="128" font-family="Arial" font-size="11" fill="#444" text-anchor="middle"></text>
    <rect x="521.7391304347826" y="105.5350553505535" width="7.826086956521739" height="4.464944649446494" fill="#16a34a" rx="3" />
    <text x="525.6521739130435" y="128" font-family="Arial" font-size="11" fill="#444" text-anchor="middle"></text>
    <rect x="532.1739130434783" y="87.67527675276753" width="7.826086956521739" height="22.324723247232473" fill="#16a34a" rx="3" />
    <text x="536.0869565217391" y="128" font-family="Arial" font-size="11" fill="#444" text-anchor="middle"></text>
    <rect x="542.6086956521739" y="79.15129151291514" width="7.826086956521739" height="30.848708487084867" fill="#16a34a" rx="3" />
    <text x="546.5217391304348" y="128" font-family="Arial" font-size="11" fill="#444" text-anchor="middle"></text>
    <rect x="553.0434782608696" y="96.19926199261992" width="7.826086956521739" height="13.800738007380073" fill="#16a34a" rx="3" />
    <text x="556.9565217391305" y="128" font-family="Arial" font-size="11" fill="#444" text-anchor="middle"></text>
    <rect x="563.4782608695652" y="97.41697416974169" width="7.826086956521739" height="12.583025830258304" fill="#16a34a" rx="3" />
    <text x="567.3913043478261" y="128" font-family="Arial" font-size="11" fill="#444" text-anchor="middle"></text>
    <rect x="573.9130434782609" y="75.49815498154982" width="7.826086956521739" height="34.50184501845019" fill="#16a34a" rx="3" />
    <text x="577.8260869565217" y="128" font-family="Arial" font-size="11" fill="#444" text-anchor="middle"></text>
    <rect x="584.3478260869565" y="40.18450184501846" width="7.826086956521739" height="69.81549815498154" fill="#16a34a" rx="3" />
    <text x="588.2608695652174" y="128" font-family="Arial" font-size="11" fill="#444" text-anchor="middle"></text>
    <rect x="594.7826086956521" y="51.95571955719558" width="7.826086956521739" height="58.04428044280442" fill="#16a34a" rx="3" />
    <text x="598.695652173913" y="128" font-family="Arial" font-size="11" fill="#444" text-anchor="middle"></text>
    <rect x="605.2173913043479" y="63.321033210332104" width="7.826086956521739" height="46.678966789667896" fill="#16a34a" rx="3" />
    <text x="609.1304347826087" y="128" font-family="Arial" font-size="11" fill="#444" text-anchor="middle">2025</text>
    <rect x="615.6521739130435" y="93.76383763837639" width="7.826086956521739" height="16.236162361623617" fill="#16a34a" rx="3" />
    <text x="619.5652173913044" y="128" font-family="Arial" font-size="11" fill="#444" text-anchor="middle"></text>
    <rect x="626.0869565217391" y="84.02214022140221" width="7.826086956521739" height="25.977859778597786" fill="#16a34a" rx="3" />
    <text x="630" y="128" font-family="Arial" font-size="11" fill="#444" text-anchor="middle"></text>
    <rect x="636.5217391304348" y="72.25092250922509" width="7.826086956521739" height="37.74907749077491" fill="#16a34a" rx="3" />
    <text x="640.4347826086956" y="128" font-family="Arial" font-size="11" fill="#444" text-anchor="middle"></text>
    <rect x="646.9565217391305" y="61.291512915129154" width="7.826086956521739" height="48.708487084870846" fill="#16a34a" rx="3" />
    <text x="650.8695652173914" y="128" font-family="Arial" font-size="11" fill="#444" text-anchor="middle"></text>
    <rect x="657.3913043478261" y="44.649446494464954" width="7.826086956521739" height="65.35055350553505" fill="#16a34a" rx="3" />
    <text x="661.304347826087" y="128" font-family="Arial" font-size="11" fill="#444" text-anchor="middle"></text>
    <rect x="667.8260869565217" y="85.239852398524" width="7.826086956521739" height="24.760147601476014" fill="#16a34a" rx="3" />
    <text x="671.7391304347826" y="128" font-family="Arial" font-size="11" fill="#444" text-anchor="middle"></text>
    <rect x="678.2608695652174" y="85.64575645756457" width="7.826086956521739" height="24.354243542435423" fill="#16a34a" rx="3" />
    <text x="682.1739130434783" y="128" font-family="Arial" font-size="11" fill="#444" text-anchor="middle"></text>
    <rect x="688.695652173913" y="100.25830258302582" width="7.826086956521739" height="9.74169741697417" fill="#16a34a" rx="3" />
    <text x="692.6086956521739" y="128" font-family="Arial" font-size="11" fill="#444" text-anchor="middle"></text>
    <rect x="699.1304347826087" y="70.62730627306274" width="7.826086956521739" height="39.372693726937264" fill="#16a34a" rx="3" />
    <text x="703.0434782608696" y="128" font-family="Arial" font-size="11" fill="#444" text-anchor="middle"></text>
    <rect x="709.5652173913044" y="33.690036900368995" width="7.826086956521739" height="76.309963099631" fill="#16a34a" rx="3" />
    <text x="713.4782608695652" y="128" font-family="Arial" font-size="11" fill="#444" text-anchor="middle"></text>
    <text x="-6" y="110" font-family="Arial" font-size="11" fill="#666" text-anchor="end">0</text>
    <text x="-6" y="10" font-family="Arial" font-size="11" fill="#666" text-anchor="end">271</text>
  </g>
</svg>