<svg xmlns="http://www.w3.org/2000/svg" width="800" height="200" viewBox="0 0 800 200">
  <style>
    .chart-title { font: bold 18px Arial; fill: #333; }
    .axis-label { font: 10px Arial; fill: #666; }
  </style>
  <text x="400" y="20" text-anchor="middle" class="chart-title">All Time Monthly Commits</text>
  <g transform="translate(50, 40)">
    <rect x="0" y="108.67069486404834" width="7.297297297297297" height="1.3293051359516617" fill="#16a34a" rx="3" />
    <text x="3.6486486486486487" y="128" font-family="Arial" font-size="11" fill="#444" text-anchor="middle"></text>
    <rect x="9.72972972972973" y="106.67673716012085" width="7.297297297297297" height="3.3232628398791544" fill="#16a34a" rx="3" />
    <text x="13.378378378378379" y="128" font-family="Arial" font-size="11" fill="#444" text-anchor="middle"></text>
    <rect x="19.45945945945946" y="104.35045317220543" width="7.297297297297297" height="5.649546827794563" fill="#16a34a" rx="3" />
    <text x="23.10810810810811" y="128" font-family="Arial" font-size="11" fill="#444" text-anchor="middle"></text>
    <rect x="29.18918918918919" y="109.33534743202416" width="7.297297297297297" height="0.6646525679758308" fill="#16a34a" rx="3" />
    <text x="32.83783783783784" y="128" font-family="Arial" font-size="11" fill="#444" text-anchor="middle"></text>
    <rect x="38.91891891891892" y="104.01812688821752" width="7.297297297297297" height="5.981873111782477" fill="#16a34a" rx="3" />
    <text x="42.567567567567565" y="128" font-family="Arial" font-size="11" fill="#444" text-anchor="middle"></text>
    <rect x="48.648648648648646" y="61.14803625377643" width="7.297297297297297" height="48.85196374622357" fill="#16a34a" rx="3" />
    <text x="52.29729729729729" y="128" font-family="Arial" font-size="11" fill="#444" text-anchor="middle"></text>
    <rect x="58.37837837837838" y="85.40785498489426" width="7.297297297297297" height="24.59214501510574" fill="#16a34a" rx="3" />
    <text x="62.027027027027025" y="128" font-family="Arial" font-size="11" fill="#444" text-anchor="middle"></text>
    <rect x="68.10810810810811" y="104.35045317220543" width="7.297297297297297" height="5.649546827794563" fill="#16a34a" rx="3" />
    <text x="71.75675675675676" y="128" font-family="Arial" font-size="11" fill="#444" text-anchor="middle"></text>
    <rect x="77.83783783783784" y="89.06344410876133" width="7.297297297297297" height="20.93655589123867" fill="#16a34a" rx="3" />
    <text x="81.48648648648648" y="128" font-family="Arial" font-size="11" fill="#444" text-anchor="middle"></text>
    <rect x="87.56756756756756" y="87.06948640483384" width="7.297297297297297" height="22.930513595166165" fill="#16a34a" rx="3" />
    <text x="91.21621621621621" y="128" font-family="Arial" font-size="11" fill="#444" text-anchor="middle"></text>
    <rect x="97.29729729729729" y="104.35045317220543" width="7.297297297297297" height="5.649546827794563" fill="#16a34a" rx="3" />
    <text x="100.94594594594594" y="128" font-family="Arial" font-size="11" fill="#444" text-anchor="middle">2021</text>
    <rect x="107.02702702702703" y="106.34441087613293" width="7.297297297297297" height="3.6555891238670695" fill="#16a34a" rx="3" />
    <text x="110.67567567567568" y="128" font-family="Arial" font-size="11" fill="#444" text-anchor="middle"></text>
    <rect x="116.75675675675676" y="100.69486404833837" width="7.297297297297297" height="9.305135951661631" fill="#16a34a" rx="3" />
    <text x="120.4054054054054" y="128" font-family="Arial" font-size="11" fill="#444" text-anchor="middle"></text>
    <rect x="126.48648648648648" y="53.8368580060423" width="7.297297297297297" height="56.1631419939577" fill="#16a34a" rx="3" />
    <text x="130.13513513513513" y="128" font-family="Arial" font-size="11" fill="#444" text-anchor="middle"></text>
    <rect x="136.21621621621622" y="54.16918429003021" width="7.297297297297297" height="55.83081570996979" fill="#16a34a" rx="3" />
    <text x="139.86486486486487" y="128" font-family="Arial" font-size="11" fill="#444" text-anchor="middle"></text>
    <rect x="145.94594594594594" y="27.915407854984892" width="7.297297297297297" height="82.08459214501511" fill="#16a34a" rx="3" />
    <text x="149.59459459459458" y="128" font-family="Arial" font-size="11" fill="#444" text-anchor="middle"></text>
    <rect x="155.67567567567568" y="61.14803625377643" width="7.297297297297297" height="48.85196374622357" fill="#16a34a" rx="3" />
    <text x="159.32432432432432" y="128" font-family="Arial" font-size="11" fill="#444" text-anchor="middle"></text>
    <rect x="165.40540540540542" y="81.08761329305136" width="7.297297297297297" height="28.912386706948638" fill="#16a34a" rx="3" />
    <text x="169.05405405405406" y="128" font-family="Arial" font-size="11" fill="#444" text-anchor="middle"></text>
    <rect x="175.13513513513513" y="82.41691842900302" width="7.297297297297297" height="27.58308157099698" fill="#16a34a" rx="3" />
    <text x="178.78378378378378" y="128" font-family="Arial" font-size="11" fill="#444" text-anchor="middle"></text>
    <rect x="184.86486486486487" y="89.39577039274924" width="7.297297297297297" height="20.604229607250755" fill="#16a34a" rx="3" />
    <text x="188.51351351351352" y="128" font-family="Arial" font-size="11" fill="#444" text-anchor="middle"></text>
    <rect x="194.59459459459458" y="77.09969788519638" width="7.297297297297297" height="32.90030211480363" fill="#16a34a" rx="3" />
    <text x="198.24324324324323" y="128" font-family="Arial" font-size="11" fill="#444" text-anchor="middle"></text>
    <rect x="204.32432432432432" y="75.7703927492447" width="7.297297297297297" height="34.229607250755286" fill="#16a34a" rx="3" />
    <text x="207.97297297297297" y="128" font-family="Arial" font-size="11" fill="#444" text-anchor="middle"></text>
    <rect x="214.05405405405406" y="62.809667673716014" width="7.297297297297297" height="47.190332326283986" fill="#16a34a" rx="3" />
    <text x="217.7027027027027" y="128" font-family="Arial" font-size="11" fill="#444" text-anchor="middle">2022</text>
    <rect x="223.78378378378378" y="65.46827794561933" width="7.297297297297297" height="44.531722054380666" fill="#16a34a" rx="3" />
    <text x="227.43243243243242" y="128" font-family="Arial" font-size="11" fill="#444" text-anchor="middle"></text>
    <rect x="233.51351351351352" y="75.7703927492447" width="7.297297297297297" height="34.229607250755286" fill="#16a34a" rx="3" />
    <text x="237.16216216216216" y="128" font-family="Arial" font-size="11" fill="#444" text-anchor="middle"></text>
    <rect x="243.24324324324326" y="71.78247734138972" width="7.297297297297297" height="38.21752265861027" fill="#16a34a" rx="3" />
    <text x="246.8918918918919" y="128" font-family="Arial" font-size="11" fill="#444" text-anchor="middle"></text>
    <rect x="252.97297297297297" y="80.75528700906344" width="7.297297297297297" height="29.244712990936556" fill="#16a34a" rx="3" />
    <text x="256.6216216216216" y="128" font-family="Arial" font-size="11" fill="#444" text-anchor="middle"></text>
    <rect x="262.7027027027027" y="88.06646525679758" width="7.297297297297297" height="21.93353474320242" fill="#16a34a" rx="3" />
    <text x="266.35135135135135" y="128" font-family="Arial" font-size="11" fill="#444" text-anchor="middle"></text>
    <rect x="272.43243243243245" y="79.42598187311178" width="7.297297297297297" height="30.57401812688822" fill="#16a34a" rx="3" />
    <text x="276.0810810810811" y="128" font-family="Arial" font-size="11" fill="#444" text-anchor="middle"></text>
    <rect x="282.1621621621622" y="33.89728096676737" width="7.297297297297297" height="76.10271903323263" fill="#16a34a" rx="3" />
    <text x="285.81081081081084" y="128" font-family="Arial" font-size="11" fill="#444" text-anchor="middle"></text>
    <rect x="291.8918918918919" y="75.7703927492447" width="7.297297297297297" height="34.229607250755286" fill="#16a34a" rx="3" />
    <text x="295.5405405405405" y="128" font-family="Arial" font-size="11" fill="#444" text-anchor="middle"></text>
    <rect x="301.6216216216216" y="60.483383685800604" width="7.297297297297297" height="49.516616314199396" fill="#16a34a" rx="3" />
    <text x="305.27027027027026" y="128" font-family="Arial" font-size="11" fill="#444" text-anchor="middle"></text>
    <rect x="311.35135135135135" y="59.818731117824775" width="7.297297297297297" height="50.181268882175225" fill="#16a34a" rx="3" />
    <text x="315" y="128" font-family="Arial" font-size="11" fill="#444" text-anchor="middle"></text>
    <rect x="321.0810810810811" y="27.58308157099698" width="7.297297297297297" height="82.41691842900302" fill="#16a34a" rx="3" />
    <text x="324.72972972972974" y="128" font-family="Arial" font-size="11" fill="#444" text-anchor="middle"></text>
    <rect x="330.81081081081084" y="76.43504531722054" width="7.297297297297297" height="33.56495468277946" fill="#16a34a" rx="3" />
    <text x="334.4594594594595" y="128" font-family="Arial" font-size="11" fill="#444" text-anchor="middle">2023</text>
    <rect x="340.5405405405405" y="19.939577039274923" width="7.297297297297297" height="90.06042296072508" fill="#16a34a" rx="3" />
    <text x="344.18918918918916" y="128" font-family="Arial" font-size="11" fill="#444" text-anchor="middle"></text>
    <rect x="350.27027027027026" y="44.86404833836859" width="7.297297297297297" height="65.13595166163141" fill="#16a34a" rx="3" />
    <text x="353.9189189189189" y="128" font-family="Arial" font-size="11" fill="#444" text-anchor="middle"></text>
    <rect x="360" y="60.81570996978852" width="7.297297297297297" height="49.18429003021148" fill="#16a34a" rx="3" />
    <text x="363.64864864864865" y="128" font-family="Arial" font-size="11" fill="#444" text-anchor="middle"></text>
    <rect x="369.72972972972974" y="44.531722054380666" width="7.297297297297297" height="65.46827794561933" fill="#16a34a" rx="3" />
    <text x="373.3783783783784" y="128" font-family="Arial" font-size="11" fill="#444" text-anchor="middle"></text>
    <rect x="379.4594594594595" y="63.141993957703924" width="7.297297297297297" height="46.858006042296076" fill="#16a34a" rx="3" />
    <text x="383.1081081081081" y="128" font-family="Arial" font-size="11" fill="#444" text-anchor="middle"></text>
    <rect x="389.18918918918916" y="75.4380664652568" width="7.297297297297297" height="34.561933534743204" fill="#16a34a" rx="3" />
    <text x="392.8378378378378" y="128" font-family="Arial" font-size="11" fill="#444" text-anchor="middle"></text>
    <rect x="398.9189189189189" y="74.77341389728096" width="7.297297297297297" height="35.22658610271903" fill="#16a34a" rx="3" />
    <text x="402.56756756756755" y="128" font-family="Arial" font-size="11" fill="#444" text-anchor="middle"></text>
    <rect x="408.64864864864865" y="72.44712990936556" width="7.297297297297297" height="37.55287009063444" fill="#16a34a" rx="3" />
    <text x="412.2972972972973" y="128" font-family="Arial" font-size="11" fill="#444" text-anchor="middle"></text>
    <rect x="418.3783783783784" y="69.78851963746223" width="7.297297297297297" height="40.21148036253776" fill="#16a34a" rx="3" />
    <text x="422.02702702702703" y="128" font-family="Arial" font-size="11" fill="#444" text-anchor="middle"></text>
    <rect x="428.1081081081081" y="44.531722054380666" width="7.297297297297297" height="65.46827794561933" fill="#16a34a" rx="3" />
    <text x="431.7567567567568" y="128" font-family="Arial" font-size="11" fill="#444" text-anchor="middle"></text>
    <rect x="437.83783783783787" y="87.06948640483384" width="7.297297297297297" height="22.930513595166165" fill="#16a34a" rx="3" />
    <text x="441.4864864864865" y="128" font-family="Arial" font-size="11" fill="#444" text-anchor="middle"></text>
    <rect x="447.56756756756755" y="94.38066465256797" width="7.297297297297297" height="15.619335347432026" fill="#16a34a" rx="3" />
    <text x="451.2162162162162" y="128" font-family="Arial" font-size="11" fill="#444" text-anchor="middle">2024</text>
    <rect x="457.2972972972973" y="92.05438066465257" width="7.297297297297297" height="17.94561933534743" fill="#16a34a" rx="3" />
    <text x="460.94594594594594" y="128" font-family="Arial" font-size="11" fill="#444" text-anchor="middle"></text>
    <rect x="467.02702702702703" y="97.0392749244713" width="7.297297297297297" height="12.960725075528702" fill="#16a34a" rx="3" />
    <text x="470.6756756756757" y="128" font-family="Arial" font-size="11" fill="#444" text-anchor="middle"></text>
    <rect x="476.7567567567568" y="100.03021148036254" width="7.297297297297297" height="9.969788519637461" fill="#16a34a" rx="3" />
    <text x="480.4054054054054" y="128" font-family="Arial" font-size="11" fill="#444" text-anchor="middle"></text>
    <rect x="486.4864864864865" y="106.34441087613293" width="7.297297297297297" height="3.6555891238670695" fill="#16a34a" rx="3" />
    <text x="490.13513513513516" y="128" font-family="Arial" font-size="11" fill="#444" text-anchor="middle"></text>
    <rect x="496.2162162162162" y="91.05740181268882" width="7.297297297297297" height="18.94259818731118" fill="#16a34a" rx="3" />
    <text x="499.86486486486484" y="128" font-family="Arial" font-size="11" fill="#444" text-anchor="middle"></text>
    <rect x="505.94594594594594" y="84.74320241691842" width="7.297297297297297" height="25.25679758308157" fill="#16a34a" rx="3" />
    <text x="509.5945945945946" y="128" font-family="Arial" font-size="11" fill="#444" text-anchor="middle"></text>
    <rect x="515.6756756756757" y="98.70090634441087" width="7.297297297297297" height="11.299093655589125" fill="#16a34a" rx="3" />
    <text x="519.3243243243244" y="128" font-family="Arial" font-size="11" fill="#444" text-anchor="middle"></text>
    <rect x="525.4054054054054" y="99.69788519637463" width="7.297297297297297" height="10.302114803625377" fill="#16a34a" rx="3" />
    <text x="529.0540540540541" y="128" font-family="Arial" font-size="11" fill="#444" text-anchor="middle"></text>
    <rect x="535.1351351351351" y="81.75226586102718" width="7.297297297297297" height="28.247734138972813" fill="#16a34a" rx="3" />
    <text x="538.7837837837837" y="128" font-family="Arial" font-size="11" fill="#444" text-anchor="middle"></text>
    <rect x="544.8648648648649" y="52.83987915407855" width="7.297297297297297" height="57.16012084592145" fill="#16a34a" rx="3" />
    <text x="548.5135135135135" y="128" font-family="Arial" font-size="11" fill="#444" text-anchor="middle"></text>
    <rect x="554.5945945945946" y="62.477341389728096" width="7.297297297297297" height="47.522658610271904" fill="#16a34a" rx="3" />
    <text x="558.2432432432432" y="128" font-family="Arial" font-size="11" fill="#444" text-anchor="middle"></text>
    <rect x="564.3243243243244" y="71.78247734138972" width="7.297297297297297" height="38.21752265861027" fill="#16a34a" rx="3" />
    <text x="567.972972972973" y="128" font-family="Arial" font-size="11" fill="#444" text-anchor="middle">2025</text>
    <rect x="574.0540540540541" y="96.70694864048338" width="7.297297297297297" height="13.293051359516618" fill="#16a34a" rx="3" />
    <text x="577.7027027027027" y="128" font-family="Arial" font-size="11" fill="#444" text-anchor="middle"></text>
    <rect x="583.7837837837837" y="88.3987915407855" width="7.297297297297297" height="21.6012084592145" fill="#16a34a" rx="3" />
    <text x="587.4324324324324" y="128" font-family="Arial" font-size="11" fill="#444" text-anchor="middle"></text>
    <rect x="593.5135135135135" y="79.09365558912387" width="7.297297297297297" height="30.90634441087613" fill="#16a34a" rx="3" />
    <text x="597.1621621621622" y="128" font-family="Arial" font-size="11" fill="#444" text-anchor="middle"></text>
    <rect x="603.2432432432432" y="70.12084592145015" width="7.297297297297297" height="39.879154078549846" fill="#16a34a" rx="3" />
    <text x="606.8918918918919" y="128" font-family="Arial" font-size="11" fill="#444" text-anchor="middle"></text>
    <rect x="612.972972972973" y="55.49848942598187" width="7.297297297297297" height="54.50151057401813" fill="#16a34a" rx="3" />
    <text x="616.6216216216217" y="128" font-family="Arial" font-size="11" fill="#444" text-anchor="middle"></text>
    <rect x="622.7027027027027" y="88.3987915407855" width="7.297297297297297" height="21.6012084592145" fill="#16a34a" rx="3" />
    <text x="626.3513513513514" y="128" font-family="Arial" font-size="11" fill="#444" text-anchor="middle"></text>
    <rect x="632.4324324324324" y="40.54380664652568" width="7.297297297297297" height="69.45619335347432" fill="#16a34a" rx="3" />
    <text x="636.081081081081" y="128" font-family="Arial" font-size="11" fill="#444" text-anchor="middle"></text>
    <rect x="642.1621621621622" y="21.601208459214504" width="7.297297297297297" height="88.3987915407855" fill="#16a34a" rx="3" />
    <text x="645.8108108108108" y="128" font-family="Arial" font-size="11" fill="#444" text-anchor="middle"></text>
    <rect x="651.8918918918919" y="0" width="7.297297297297297" height="110" fill="#16a34a" rx="3" />
    <text x="655.5405405405405" y="128" font-family="Arial" font-size="11" fill="#444" text-anchor="middle"></text>
    <rect x="661.6216216216217" y="27.915407854984892" width="7.297297297297297" height="82.08459214501511" fill="#16a34a" rx="3" />
    <text x="665.2702702702703" y="128" font-family="Arial" font-size="11" fill="#444" text-anchor="middle"></text>
    <rect x="671.3513513513514" y="55.166163141993955" width="7.297297297297297" height="54.833836858006045" fill="#16a34a" rx="3" />
    <text x="675" y="128" font-family="Arial" font-size="11" fill="#444" text-anchor="middle"></text>
    <rect x="681.081081081081" y="75.10574018126889" width="7.297297297297297" height="34.89425981873112" fill="#16a34a" rx="3" />
    <text x="684.7297297297297" y="128" font-family="Arial" font-size="11" fill="#444" text-anchor="middle">2026</text>
    <rect x="690.8108108108108" y="70.12084592145015" width="7.297297297297297" height="39.879154078549846" fill="#16a34a" rx="3" />
    <text x="694.4594594594595" y="128" font-family="Arial" font-size="11" fill="#444" text-anchor="middle"></text>
    <rect x="700.5405405405405" y="66.79758308157099" width="7.297297297297297" height="43.202416918429" fill="#16a34a" rx="3" />
    <text x="704.1891891891892" y="128" font-family="Arial" font-size="11" fill="#444" text-anchor="middle"></text>
    <rect x="710.2702702702703" y="107.34138972809667" width="7.297297297297297" height="2.6586102719033233" fill="#16a34a" rx="3" />
    <text x="713.918918918919" y="128" font-family="Arial" font-size="11" fill="#444" text-anchor="middle"></text>
    <text x="-6" y="110" font-family="Arial" font-size="11" fill="#666" text-anchor="end">0</text>
    <text x="-6" y="10" font-family="Arial" font-size="11" fill="#666" text-anchor="end">331</text>
  </g>
</svg>