<svg xmlns="http://www.w3.org/2000/svg" width="800" height="200" viewBox="0 0 800 200">
  <style>
    .chart-title { font: bold 18px Arial; fill: #333; }
    .axis-label { font: 10px Arial; fill: #666; }
  </style>
  <text x="400" y="20" text-anchor="middle" class="chart-title">All Time Monthly Commits</text>
  <g transform="translate(50, 40)">
    <rect x="0" y="108.37638376383764" width="7.714285714285715" height="1.6236162361623616" fill="#16a34a" rx="3" />
    <text x="3.8571428571428577" y="128" font-family="Arial" font-size="11" fill="#444" text-anchor="middle"></text>
    <rect x="10.285714285714286" y="105.9409594095941" width="7.714285714285715" height="4.059040590405904" fill="#16a34a" rx="3" />
    <text x="14.142857142857144" y="128" font-family="Arial" font-size="11" fill="#444" text-anchor="middle"></text>
    <rect x="20.571428571428573" y="103.09963099630997" width="7.714285714285715" height="6.900369003690036" fill="#16a34a" rx="3" />
    <text x="24.42857142857143" y="128" font-family="Arial" font-size="11" fill="#444" text-anchor="middle"></text>
    <rect x="30.85714285714286" y="109.18819188191883" width="7.714285714285715" height="0.8118081180811808" fill="#16a34a" rx="3" />
    <text x="34.71428571428572" y="128" font-family="Arial" font-size="11" fill="#444" text-anchor="middle"></text>
    <rect x="41.142857142857146" y="102.69372693726937" width="7.714285714285715" height="7.306273062730628" fill="#16a34a" rx="3" />
    <text x="45" y="128" font-family="Arial" font-size="11" fill="#444" text-anchor="middle"></text>
    <rect x="51.42857142857143" y="50.332103321033216" width="7.714285714285715" height="59.667896678966784" fill="#16a34a" rx="3" />
    <text x="55.28571428571429" y="128" font-family="Arial" font-size="11" fill="#444" text-anchor="middle"></text>
    <rect x="61.71428571428572" y="79.96309963099631" width="7.714285714285715" height="30.036900369003693" fill="#16a34a" rx="3" />
    <text x="65.57142857142858" y="128" font-family="Arial" font-size="11" fill="#444" text-anchor="middle"></text>
    <rect x="72" y="103.09963099630997" width="7.714285714285715" height="6.900369003690036" fill="#16a34a" rx="3" />
    <text x="75.85714285714286" y="128" font-family="Arial" font-size="11" fill="#444" text-anchor="middle"></text>
    <rect x="82.28571428571429" y="84.4280442804428" width="7.714285714285715" height="25.571955719557195" fill="#16a34a" rx="3" />
    <text x="86.14285714285715" y="128" font-family="Arial" font-size="11" fill="#444" text-anchor="middle"></text>
    <rect x="92.57142857142858" y="81.99261992619927" width="7.714285714285715" height="28.007380073800736" fill="#16a34a" rx="3" />
    <text x="96.42857142857144" y="128" font-family="Arial" font-size="11" fill="#444" text-anchor="middle"></text>
    <rect x="102.85714285714286" y="103.09963099630997" width="7.714285714285715" height="6.900369003690036" fill="#16a34a" rx="3" />
    <text x="106.71428571428572" y="128" font-family="Arial" font-size="11" fill="#444" text-anchor="middle">2021</text>
    <rect x="113.14285714285715" y="105.5350553505535" width="7.714285714285715" height="4.464944649446494" fill="#16a34a" rx="3" />
    <text x="117.00000000000001" y="128" font-family="Arial" font-size="11" fill="#444" text-anchor="middle"></text>
    <rect x="123.42857142857144" y="98.63468634686348" width="7.714285714285715" height="11.365313653136532" fill="#16a34a" rx="3" />
    <text x="127.2857142857143" y="128" font-family="Arial" font-size="11" fill="#444" text-anchor="middle"></text>
    <rect x="133.71428571428572" y="41.40221402214023" width="7.714285714285715" height="68.59778597785977" fill="#16a34a" rx="3" />
    <text x="137.57142857142858" y="128" font-family="Arial" font-size="11" fill="#444" text-anchor="middle"></text>
    <rect x="144" y="41.80811808118081" width="7.714285714285715" height="68.19188191881919" fill="#16a34a" rx="3" />
    <text x="147.85714285714286" y="128" font-family="Arial" font-size="11" fill="#444" text-anchor="middle"></text>
    <rect x="154.2857142857143" y="9.741697416974176" width="7.714285714285715" height="100.25830258302582" fill="#16a34a" rx="3" />
    <text x="158.14285714285717" y="128" font-family="Arial" font-size="11" fill="#444" text-anchor="middle"></text>
    <rect x="164.57142857142858" y="50.332103321033216" width="7.714285714285715" height="59.667896678966784" fill="#16a34a" rx="3" />
    <text x="168.42857142857144" y="128" font-family="Arial" font-size="11" fill="#444" text-anchor="middle"></text>
    <rect x="174.85714285714286" y="74.68634686346863" width="7.714285714285715" height="35.313653136531364" fill="#16a34a" rx="3" />
    <text x="178.71428571428572" y="128" font-family="Arial" font-size="11" fill="#444" text-anchor="middle"></text>
    <rect x="185.14285714285717" y="76.30996309963099" width="7.714285714285715" height="33.69003690036901" fill="#16a34a" rx="3" />
    <text x="189.00000000000003" y="128" font-family="Arial" font-size="11" fill="#444" text-anchor="middle"></text>
    <rect x="195.42857142857144" y="84.83394833948338" width="7.714285714285715" height="25.166051660516608" fill="#16a34a" rx="3" />
    <text x="199.2857142857143" y="128" font-family="Arial" font-size="11" fill="#444" text-anchor="middle"></text>
    <rect x="205.71428571428572" y="69.81549815498155" width="7.714285714285715" height="40.18450184501845" fill="#16a34a" rx="3" />
    <text x="209.57142857142858" y="128" font-family="Arial" font-size="11" fill="#444" text-anchor="middle"></text>
    <rect x="216.00000000000003" y="68.19188191881918" width="7.714285714285715" height="41.808118081180815" fill="#16a34a" rx="3" />
    <text x="219.8571428571429" y="128" font-family="Arial" font-size="11" fill="#444" text-anchor="middle"></text>
    <rect x="226.2857142857143" y="52.36162361623616" width="7.714285714285715" height="57.63837638376384" fill="#16a34a" rx="3" />
    <text x="230.14285714285717" y="128" font-family="Arial" font-size="11" fill="#444" text-anchor="middle">2022</text>
    <rect x="236.57142857142858" y="55.608856088560884" width="7.714285714285715" height="54.391143911439116" fill="#16a34a" rx="3" />
    <text x="240.42857142857144" y="128" font-family="Arial" font-size="11" fill="#444" text-anchor="middle"></text>
    <rect x="246.8571428571429" y="68.19188191881918" width="7.714285714285715" height="41.808118081180815" fill="#16a34a" rx="3" />
    <text x="250.71428571428575" y="128" font-family="Arial" font-size="11" fill="#444" text-anchor="middle"></text>
    <rect x="257.14285714285717" y="63.321033210332104" width="7.714285714285715" height="46.678966789667896" fill="#16a34a" rx="3" />
    <text x="261" y="128" font-family="Arial" font-size="11" fill="#444" text-anchor="middle"></text>
    <rect x="267.42857142857144" y="74.28044280442805" width="7.714285714285715" height="35.71955719557195" fill="#16a34a" rx="3" />
    <text x="271.2857142857143" y="128" font-family="Arial" font-size="11" fill="#444" text-anchor="middle"></text>
    <rect x="277.7142857142857" y="83.21033210332104" width="7.714285714285715" height="26.789667896678967" fill="#16a34a" rx="3" />
    <text x="281.57142857142856" y="128" font-family="Arial" font-size="11" fill="#444" text-anchor="middle"></text>
    <rect x="288" y="72.65682656826567" width="7.714285714285715" height="37.34317343173432" fill="#16a34a" rx="3" />
    <text x="291.85714285714283" y="128" font-family="Arial" font-size="11" fill="#444" text-anchor="middle"></text>
    <rect x="298.28571428571433" y="17.0479704797048" width="7.714285714285715" height="92.9520295202952" fill="#16a34a" rx="3" />
    <text x="302.14285714285717" y="128" font-family="Arial" font-size="11" fill="#444" text-anchor="middle"></text>
    <rect x="308.5714285714286" y="68.19188191881918" width="7.714285714285715" height="41.808118081180815" fill="#16a34a" rx="3" />
    <text x="312.42857142857144" y="128" font-family="Arial" font-size="11" fill="#444" text-anchor="middle"></text>
    <rect x="318.8571428571429" y="49.52029520295203" width="7.714285714285715" height="60.47970479704797" fill="#16a34a" rx="3" />
    <text x="322.7142857142857" y="128" font-family="Arial" font-size="11" fill="#444" text-anchor="middle"></text>
    <rect x="329.14285714285717" y="48.708487084870846" width="7.714285714285715" height="61.291512915129154" fill="#16a34a" rx="3" />
    <text x="333" y="128" font-family="Arial" font-size="11" fill="#444" text-anchor="middle"></text>
    <rect x="339.42857142857144" y="9.335793357933568" width="7.714285714285715" height="100.66420664206643" fill="#16a34a" rx="3" />
    <text x="343.2857142857143" y="128" font-family="Arial" font-size="11" fill="#444" text-anchor="middle"></text>
    <rect x="349.7142857142857" y="69.00369003690037" width="7.714285714285715" height="40.996309963099634" fill="#16a34a" rx="3" />
    <text x="353.57142857142856" y="128" font-family="Arial" font-size="11" fill="#444" text-anchor="middle">2023</text>
    <rect x="360" y="0" width="7.714285714285715" height="110" fill="#16a34a" rx="3" />
    <text x="363.85714285714283" y="128" font-family="Arial" font-size="11" fill="#444" text-anchor="middle"></text>
    <rect x="370.28571428571433" y="30.442804428044283" width="7.714285714285715" height="79.55719557195572" fill="#16a34a" rx="3" />
    <text x="374.14285714285717" y="128" font-family="Arial" font-size="11" fill="#444" text-anchor="middle"></text>
    <rect x="380.5714285714286" y="49.926199261992615" width="7.714285714285715" height="60.073800738007385" fill="#16a34a" rx="3" />
    <text x="384.42857142857144" y="128" font-family="Arial" font-size="11" fill="#444" text-anchor="middle"></text>
    <rect x="390.8571428571429" y="30.03690036900369" width="7.714285714285715" height="79.96309963099631" fill="#16a34a" rx="3" />
    <text x="394.7142857142857" y="128" font-family="Arial" font-size="11" fill="#444" text-anchor="middle"></text>
    <rect x="401.14285714285717" y="52.76752767527676" width="7.714285714285715" height="57.23247232472324" fill="#16a34a" rx="3" />
    <text x="405" y="128" font-family="Arial" font-size="11" fill="#444" text-anchor="middle"></text>
    <rect x="411.42857142857144" y="67.7859778597786" width="7.714285714285715" height="42.2140221402214" fill="#16a34a" rx="3" />
    <text x="415.2857142857143" y="128" font-family="Arial" font-size="11" fill="#444" text-anchor="middle"></text>
    <rect x="421.7142857142857" y="66.97416974169741" width="7.714285714285715" height="43.025830258302584" fill="#16a34a" rx="3" />
    <text x="425.57142857142856" y="128" font-family="Arial" font-size="11" fill="#444" text-anchor="middle"></text>
    <rect x="432.00000000000006" y="64.13284132841329" width="7.714285714285715" height="45.867158671586715" fill="#16a34a" rx="3" />
    <text x="435.8571428571429" y="128" font-family="Arial" font-size="11" fill="#444" text-anchor="middle"></text>
    <rect x="442.28571428571433" y="60.88560885608856" width="7.714285714285715" height="49.11439114391144" fill="#16a34a" rx="3" />
    <text x="446.14285714285717" y="128" font-family="Arial" font-size="11" fill="#444" text-anchor="middle"></text>
    <rect x="452.5714285714286" y="30.03690036900369" width="7.714285714285715" height="79.96309963099631" fill="#16a34a" rx="3" />
    <text x="456.42857142857144" y="128" font-family="Arial" font-size="11" fill="#444" text-anchor="middle"></text>
    <rect x="462.8571428571429" y="81.99261992619927" width="7.714285714285715" height="28.007380073800736" fill="#16a34a" rx="3" />
    <text x="466.7142857142857" y="128" font-family="Arial" font-size="11" fill="#444" text-anchor="middle"></text>
    <rect x="473.14285714285717" y="90.92250922509226" width="7.714285714285715" height="19.07749077490775" fill="#16a34a" rx="3" />
    <text x="477" y="128" font-family="Arial" font-size="11" fill="#444" text-anchor="middle">2024</text>
    <rect x="483.42857142857144" y="88.08118081180811" width="7.714285714285715" height="21.918819188191883" fill="#16a34a" rx="3" />
    <text x="487.2857142857143" y="128" font-family="Arial" font-size="11" fill="#444" text-anchor="middle"></text>
    <rect x="493.7142857142858" y="94.16974169741698" width="7.714285714285715" height="15.830258302583026" fill="#16a34a" rx="3" />
    <text x="497.5714285714286" y="128" font-family="Arial" font-size="11" fill="#444" text-anchor="middle"></text>
    <rect x="504.00000000000006" y="97.82287822878229" width="7.714285714285715" height="12.177121771217712" fill="#16a34a" rx="3" />
    <text x="507.8571428571429" y="128" font-family="Arial" font-size="11" fill="#444" text-anchor="middle"></text>
    <rect x="514.2857142857143" y="105.5350553505535" width="7.714285714285715" height="4.464944649446494" fill="#16a34a" rx="3" />
    <text x="518.1428571428572" y="128" font-family="Arial" font-size="11" fill="#444" text-anchor="middle"></text>
    <rect x="524.5714285714286" y="86.86346863468634" width="7.714285714285715" height="23.136531365313655" fill="#16a34a" rx="3" />
    <text x="528.4285714285714" y="128" font-family="Arial" font-size="11" fill="#444" text-anchor="middle"></text>
    <rect x="534.8571428571429" y="79.15129151291514" width="7.714285714285715" height="30.848708487084867" fill="#16a34a" rx="3" />
    <text x="538.7142857142858" y="128" font-family="Arial" font-size="11" fill="#444" text-anchor="middle"></text>
    <rect x="545.1428571428572" y="96.19926199261992" width="7.714285714285715" height="13.800738007380073" fill="#16a34a" rx="3" />
    <text x="549.0000000000001" y="128" font-family="Arial" font-size="11" fill="#444" text-anchor="middle"></text>
    <rect x="555.4285714285714" y="97.41697416974169" width="7.714285714285715" height="12.583025830258304" fill="#16a34a" rx="3" />
    <text x="559.2857142857143" y="128" font-family="Arial" font-size="11" fill="#444" text-anchor="middle"></text>
    <rect x="565.7142857142858" y="75.49815498154982" width="7.714285714285715" height="34.50184501845019" fill="#16a34a" rx="3" />
    <text x="569.5714285714287" y="128" font-family="Arial" font-size="11" fill="#444" text-anchor="middle"></text>
    <rect x="576" y="40.18450184501846" width="7.714285714285715" height="69.81549815498154" fill="#16a34a" rx="3" />
    <text x="579.8571428571429" y="128" font-family="Arial" font-size="11" fill="#444" text-anchor="middle"></text>
    <rect x="586.2857142857143" y="51.95571955719558" width="7.714285714285715" height="58.04428044280442" fill="#16a34a" rx="3" />
    <text x="590.1428571428572" y="128" font-family="Arial" font-size="11" fill="#444" text-anchor="middle"></text>
    <rect x="596.5714285714287" y="63.321033210332104" width="7.714285714285715" height="46.678966789667896" fill="#16a34a" rx="3" />
    <text x="600.4285714285716" y="128" font-family="Arial" font-size="11" fill="#444" text-anchor="middle">2025</text>
    <rect x="606.8571428571429" y="93.76383763837639" width="7.714285714285715" height="16.236162361623617" fill="#16a34a" rx="3" />
    <text x="610.7142857142858" y="128" font-family="Arial" font-size="11" fill="#444" text-anchor="middle"></text>
    <rect x="617.1428571428572" y="83.61623616236162" width="7.714285714285715" height="26.383763837638377" fill="#16a34a" rx="3" />
    <text x="621.0000000000001" y="128" font-family="Arial" font-size="11" fill="#444" text-anchor="middle"></text>
    <rect x="627.4285714285714" y="72.25092250922509" width="7.714285714285715" height="37.74907749077491" fill="#16a34a" rx="3" />
    <text x="631.2857142857143" y="128" font-family="Arial" font-size="11" fill="#444" text-anchor="middle"></text>
    <rect x="637.7142857142858" y="61.291512915129154" width="7.714285714285715" height="48.708487084870846" fill="#16a34a" rx="3" />
    <text x="641.5714285714287" y="128" font-family="Arial" font-size="11" fill="#444" text-anchor="middle"></text>
    <rect x="648" y="44.649446494464954" width="7.714285714285715" height="65.35055350553505" fill="#16a34a" rx="3" />
    <text x="651.8571428571429" y="128" font-family="Arial" font-size="11" fill="#444" text-anchor="middle"></text>
    <rect x="658.2857142857143" y="84.83394833948338" width="7.714285714285715" height="25.166051660516608" fill="#16a34a" rx="3" />
    <text x="662.1428571428572" y="128" font-family="Arial" font-size="11" fill="#444" text-anchor="middle"></text>
    <rect x="668.5714285714287" y="85.64575645756457" width="7.714285714285715" height="24.354243542435423" fill="#16a34a" rx="3" />
    <text x="672.4285714285716" y="128" font-family="Arial" font-size="11" fill="#444" text-anchor="middle"></text>
    <rect x="678.8571428571429" y="100.25830258302582" width="7.714285714285715" height="9.74169741697417" fill="#16a34a" rx="3" />
    <text x="682.7142857142858" y="128" font-family="Arial" font-size="11" fill="#444" text-anchor="middle"></text>
    <rect x="689.1428571428572" y="67.380073800738" width="7.714285714285715" height="42.619926199262" fill="#16a34a" rx="3" />
    <text x="693.0000000000001" y="128" font-family="Arial" font-size="11" fill="#444" text-anchor="middle"></text>
    <rect x="699.4285714285714" y="23.542435424354238" width="7.714285714285715" height="86.45756457564576" fill="#16a34a" rx="3" />
    <text x="703.2857142857143" y="128" font-family="Arial" font-size="11" fill="#444" text-anchor="middle"></text>
    <rect x="709.7142857142858" y="78.74538745387454" width="7.714285714285715" height="31.254612546125458" fill="#16a34a" rx="3" />
    <text x="713.5714285714287" y="128" font-family="Arial" font-size="11" fill="#444" text-anchor="middle"></text>
    <text x="-6" y="110" font-family="Arial" font-size="11" fill="#666" text-anchor="end">0</text>
    <text x="-6" y="10" font-family="Arial" font-size="11" fill="#666" text-anchor="end">271</text>
  </g>
</svg>