<svg xmlns="http://www.w3.org/2000/svg" width="800" height="260" viewBox="0 0 800 260">
  <style>
    .chart-title { font: bold 18px Arial; fill: #333; }
    .axis-label { font: 12px Arial; fill: #666; }
  </style>
  <text x="400" y="20" text-anchor="middle" class="chart-title">Activities — Monthly Commits (last 12 months)</text>
  <g transform="translate(50, 40)">
    <rect x="0" y="15.299999999999983" width="45" height="154.70000000000002" fill="#16a34a" rx="3" />
    <text x="22.5" y="188" font-family="Arial" font-size="11" fill="#444" text-anchor="middle">Dec</text>
    <rect x="60" y="0" width="45" height="170" fill="#16a34a" rx="3" />
    <text x="82.5" y="188" font-family="Arial" font-size="11" fill="#444" text-anchor="middle">Jan</text>
    <rect x="120" y="78.19999999999999" width="45" height="91.80000000000001" fill="#16a34a" rx="3" />
    <text x="142.5" y="188" font-family="Arial" font-size="11" fill="#444" text-anchor="middle">Feb</text>
    <rect x="180" y="70.83333333333333" width="45" height="99.16666666666667" fill="#16a34a" rx="3" />
    <text x="202.5" y="188" font-family="Arial" font-size="11" fill="#444" text-anchor="middle">Mar</text>
    <rect x="240" y="30.03333333333333" width="45" height="139.96666666666667" fill="#16a34a" rx="3" />
    <text x="262.5" y="188" font-family="Arial" font-size="11" fill="#444" text-anchor="middle">Apr</text>
    <rect x="300" y="71.4" width="45" height="98.6" fill="#16a34a" rx="3" />
    <text x="322.5" y="188" font-family="Arial" font-size="11" fill="#444" text-anchor="middle">May</text>
    <rect x="360" y="25.5" width="45" height="144.5" fill="#16a34a" rx="3" />
    <text x="382.5" y="188" font-family="Arial" font-size="11" fill="#444" text-anchor="middle">Jun</text>
    <rect x="420" y="117.3" width="45" height="52.7" fill="#16a34a" rx="3" />
    <text x="442.5" y="188" font-family="Arial" font-size="11" fill="#444" text-anchor="middle">Jul</text>
    <rect x="480" y="82.16666666666666" width="45" height="87.83333333333334" fill="#16a34a" rx="3" />
    <text x="502.5" y="188" font-family="Arial" font-size="11" fill="#444" text-anchor="middle">Aug</text>
    <rect x="540" y="139.4" width="45" height="30.599999999999998" fill="#16a34a" rx="3" />
    <text x="562.5" y="188" font-family="Arial" font-size="11" fill="#444" text-anchor="middle">Sep</text>
    <rect x="600" y="88.4" width="45" height="81.6" fill="#16a34a" rx="3" />
    <text x="622.5" y="188" font-family="Arial" font-size="11" fill="#444" text-anchor="middle">Oct</text>
    <rect x="660" y="134.86666666666667" width="45" height="35.13333333333333" fill="#16a34a" rx="3" />
    <text x="682.5" y="188" font-family="Arial" font-size="11" fill="#444" text-anchor="middle">Nov</text>
    <text x="-6" y="170" font-family="Arial" font-size="11" fill="#666" text-anchor="end">0</text>
    <text x="-6" y="10" font-family="Arial" font-size="11" fill="#666" text-anchor="end">300</text>
  </g>
</svg>