<svg xmlns="http://www.w3.org/2000/svg" width="800" height="200" viewBox="0 0 800 200">
  <style>
    .chart-title { font: bold 18px Arial; fill: #333; }
    .axis-label { font: 10px Arial; fill: #666; }
  </style>
  <text x="400" y="20" text-anchor="middle" class="chart-title">All Time Monthly Commits</text>
  <g transform="translate(50, 40)">
    <rect x="0" y="108.67069486404834" width="7.199999999999999" height="1.3293051359516617" fill="#16a34a" rx="3" />
    <text x="3.5999999999999996" y="128" font-family="Arial" font-size="11" fill="#444" text-anchor="middle"></text>
    <rect x="9.6" y="106.67673716012085" width="7.199999999999999" height="3.3232628398791544" fill="#16a34a" rx="3" />
    <text x="13.2" y="128" font-family="Arial" font-size="11" fill="#444" text-anchor="middle"></text>
    <rect x="19.2" y="104.35045317220543" width="7.199999999999999" height="5.649546827794563" fill="#16a34a" rx="3" />
    <text x="22.799999999999997" y="128" font-family="Arial" font-size="11" fill="#444" text-anchor="middle"></text>
    <rect x="28.799999999999997" y="109.33534743202416" width="7.199999999999999" height="0.6646525679758308" fill="#16a34a" rx="3" />
    <text x="32.4" y="128" font-family="Arial" font-size="11" fill="#444" text-anchor="middle"></text>
    <rect x="38.4" y="104.01812688821752" width="7.199999999999999" height="5.981873111782477" fill="#16a34a" rx="3" />
    <text x="42" y="128" font-family="Arial" font-size="11" fill="#444" text-anchor="middle"></text>
    <rect x="48" y="61.14803625377643" width="7.199999999999999" height="48.85196374622357" fill="#16a34a" rx="3" />
    <text x="51.6" y="128" font-family="Arial" font-size="11" fill="#444" text-anchor="middle"></text>
    <rect x="57.599999999999994" y="85.40785498489426" width="7.199999999999999" height="24.59214501510574" fill="#16a34a" rx="3" />
    <text x="61.199999999999996" y="128" font-family="Arial" font-size="11" fill="#444" text-anchor="middle"></text>
    <rect x="67.2" y="104.35045317220543" width="7.199999999999999" height="5.649546827794563" fill="#16a34a" rx="3" />
    <text x="70.8" y="128" font-family="Arial" font-size="11" fill="#444" text-anchor="middle"></text>
    <rect x="76.8" y="89.06344410876133" width="7.199999999999999" height="20.93655589123867" fill="#16a34a" rx="3" />
    <text x="80.39999999999999" y="128" font-family="Arial" font-size="11" fill="#444" text-anchor="middle"></text>
    <rect x="86.39999999999999" y="87.06948640483384" width="7.199999999999999" height="22.930513595166165" fill="#16a34a" rx="3" />
    <text x="89.99999999999999" y="128" font-family="Arial" font-size="11" fill="#444" text-anchor="middle"></text>
    <rect x="96" y="104.35045317220543" width="7.199999999999999" height="5.649546827794563" fill="#16a34a" rx="3" />
    <text x="99.6" y="128" font-family="Arial" font-size="11" fill="#444" text-anchor="middle">2021</text>
    <rect x="105.6" y="106.34441087613293" width="7.199999999999999" height="3.6555891238670695" fill="#16a34a" rx="3" />
    <text x="109.19999999999999" y="128" font-family="Arial" font-size="11" fill="#444" text-anchor="middle"></text>
    <rect x="115.19999999999999" y="100.69486404833837" width="7.199999999999999" height="9.305135951661631" fill="#16a34a" rx="3" />
    <text x="118.79999999999998" y="128" font-family="Arial" font-size="11" fill="#444" text-anchor="middle"></text>
    <rect x="124.8" y="53.8368580060423" width="7.199999999999999" height="56.1631419939577" fill="#16a34a" rx="3" />
    <text x="128.4" y="128" font-family="Arial" font-size="11" fill="#444" text-anchor="middle"></text>
    <rect x="134.4" y="54.16918429003021" width="7.199999999999999" height="55.83081570996979" fill="#16a34a" rx="3" />
    <text x="138" y="128" font-family="Arial" font-size="11" fill="#444" text-anchor="middle"></text>
    <rect x="144" y="27.915407854984892" width="7.199999999999999" height="82.08459214501511" fill="#16a34a" rx="3" />
    <text x="147.6" y="128" font-family="Arial" font-size="11" fill="#444" text-anchor="middle"></text>
    <rect x="153.6" y="61.14803625377643" width="7.199999999999999" height="48.85196374622357" fill="#16a34a" rx="3" />
    <text x="157.2" y="128" font-family="Arial" font-size="11" fill="#444" text-anchor="middle"></text>
    <rect x="163.2" y="81.08761329305136" width="7.199999999999999" height="28.912386706948638" fill="#16a34a" rx="3" />
    <text x="166.79999999999998" y="128" font-family="Arial" font-size="11" fill="#444" text-anchor="middle"></text>
    <rect x="172.79999999999998" y="82.41691842900302" width="7.199999999999999" height="27.58308157099698" fill="#16a34a" rx="3" />
    <text x="176.39999999999998" y="128" font-family="Arial" font-size="11" fill="#444" text-anchor="middle"></text>
    <rect x="182.4" y="89.39577039274924" width="7.199999999999999" height="20.604229607250755" fill="#16a34a" rx="3" />
    <text x="186" y="128" font-family="Arial" font-size="11" fill="#444" text-anchor="middle"></text>
    <rect x="192" y="77.09969788519638" width="7.199999999999999" height="32.90030211480363" fill="#16a34a" rx="3" />
    <text x="195.6" y="128" font-family="Arial" font-size="11" fill="#444" text-anchor="middle"></text>
    <rect x="201.6" y="75.7703927492447" width="7.199999999999999" height="34.229607250755286" fill="#16a34a" rx="3" />
    <text x="205.2" y="128" font-family="Arial" font-size="11" fill="#444" text-anchor="middle"></text>
    <rect x="211.2" y="62.809667673716014" width="7.199999999999999" height="47.190332326283986" fill="#16a34a" rx="3" />
    <text x="214.79999999999998" y="128" font-family="Arial" font-size="11" fill="#444" text-anchor="middle">2022</text>
    <rect x="220.79999999999998" y="65.46827794561933" width="7.199999999999999" height="44.531722054380666" fill="#16a34a" rx="3" />
    <text x="224.39999999999998" y="128" font-family="Arial" font-size="11" fill="#444" text-anchor="middle"></text>
    <rect x="230.39999999999998" y="75.7703927492447" width="7.199999999999999" height="34.229607250755286" fill="#16a34a" rx="3" />
    <text x="233.99999999999997" y="128" font-family="Arial" font-size="11" fill="#444" text-anchor="middle"></text>
    <rect x="240" y="71.78247734138972" width="7.199999999999999" height="38.21752265861027" fill="#16a34a" rx="3" />
    <text x="243.6" y="128" font-family="Arial" font-size="11" fill="#444" text-anchor="middle"></text>
    <rect x="249.6" y="80.75528700906344" width="7.199999999999999" height="29.244712990936556" fill="#16a34a" rx="3" />
    <text x="253.2" y="128" font-family="Arial" font-size="11" fill="#444" text-anchor="middle"></text>
    <rect x="259.2" y="88.06646525679758" width="7.199999999999999" height="21.93353474320242" fill="#16a34a" rx="3" />
    <text x="262.8" y="128" font-family="Arial" font-size="11" fill="#444" text-anchor="middle"></text>
    <rect x="268.8" y="79.42598187311178" width="7.199999999999999" height="30.57401812688822" fill="#16a34a" rx="3" />
    <text x="272.40000000000003" y="128" font-family="Arial" font-size="11" fill="#444" text-anchor="middle"></text>
    <rect x="278.4" y="33.89728096676737" width="7.199999999999999" height="76.10271903323263" fill="#16a34a" rx="3" />
    <text x="282" y="128" font-family="Arial" font-size="11" fill="#444" text-anchor="middle"></text>
    <rect x="288" y="75.7703927492447" width="7.199999999999999" height="34.229607250755286" fill="#16a34a" rx="3" />
    <text x="291.6" y="128" font-family="Arial" font-size="11" fill="#444" text-anchor="middle"></text>
    <rect x="297.59999999999997" y="60.483383685800604" width="7.199999999999999" height="49.516616314199396" fill="#16a34a" rx="3" />
    <text x="301.2" y="128" font-family="Arial" font-size="11" fill="#444" text-anchor="middle"></text>
    <rect x="307.2" y="59.818731117824775" width="7.199999999999999" height="50.181268882175225" fill="#16a34a" rx="3" />
    <text x="310.8" y="128" font-family="Arial" font-size="11" fill="#444" text-anchor="middle"></text>
    <rect x="316.8" y="27.58308157099698" width="7.199999999999999" height="82.41691842900302" fill="#16a34a" rx="3" />
    <text x="320.40000000000003" y="128" font-family="Arial" font-size="11" fill="#444" text-anchor="middle"></text>
    <rect x="326.4" y="76.43504531722054" width="7.199999999999999" height="33.56495468277946" fill="#16a34a" rx="3" />
    <text x="330" y="128" font-family="Arial" font-size="11" fill="#444" text-anchor="middle">2023</text>
    <rect x="336" y="19.939577039274923" width="7.199999999999999" height="90.06042296072508" fill="#16a34a" rx="3" />
    <text x="339.6" y="128" font-family="Arial" font-size="11" fill="#444" text-anchor="middle"></text>
    <rect x="345.59999999999997" y="44.86404833836859" width="7.199999999999999" height="65.13595166163141" fill="#16a34a" rx="3" />
    <text x="349.2" y="128" font-family="Arial" font-size="11" fill="#444" text-anchor="middle"></text>
    <rect x="355.2" y="60.81570996978852" width="7.199999999999999" height="49.18429003021148" fill="#16a34a" rx="3" />
    <text x="358.8" y="128" font-family="Arial" font-size="11" fill="#444" text-anchor="middle"></text>
    <rect x="364.8" y="44.531722054380666" width="7.199999999999999" height="65.46827794561933" fill="#16a34a" rx="3" />
    <text x="368.40000000000003" y="128" font-family="Arial" font-size="11" fill="#444" text-anchor="middle"></text>
    <rect x="374.4" y="63.141993957703924" width="7.199999999999999" height="46.858006042296076" fill="#16a34a" rx="3" />
    <text x="378" y="128" font-family="Arial" font-size="11" fill="#444" text-anchor="middle"></text>
    <rect x="384" y="75.4380664652568" width="7.199999999999999" height="34.561933534743204" fill="#16a34a" rx="3" />
    <text x="387.6" y="128" font-family="Arial" font-size="11" fill="#444" text-anchor="middle"></text>
    <rect x="393.59999999999997" y="74.77341389728096" width="7.199999999999999" height="35.22658610271903" fill="#16a34a" rx="3" />
    <text x="397.2" y="128" font-family="Arial" font-size="11" fill="#444" text-anchor="middle"></text>
    <rect x="403.2" y="72.44712990936556" width="7.199999999999999" height="37.55287009063444" fill="#16a34a" rx="3" />
    <text x="406.8" y="128" font-family="Arial" font-size="11" fill="#444" text-anchor="middle"></text>
    <rect x="412.8" y="69.78851963746223" width="7.199999999999999" height="40.21148036253776" fill="#16a34a" rx="3" />
    <text x="416.40000000000003" y="128" font-family="Arial" font-size="11" fill="#444" text-anchor="middle"></text>
    <rect x="422.4" y="44.531722054380666" width="7.199999999999999" height="65.46827794561933" fill="#16a34a" rx="3" />
    <text x="426" y="128" font-family="Arial" font-size="11" fill="#444" text-anchor="middle"></text>
    <rect x="432" y="87.06948640483384" width="7.199999999999999" height="22.930513595166165" fill="#16a34a" rx="3" />
    <text x="435.6" y="128" font-family="Arial" font-size="11" fill="#444" text-anchor="middle"></text>
    <rect x="441.59999999999997" y="94.38066465256797" width="7.199999999999999" height="15.619335347432026" fill="#16a34a" rx="3" />
    <text x="445.2" y="128" font-family="Arial" font-size="11" fill="#444" text-anchor="middle">2024</text>
    <rect x="451.2" y="92.05438066465257" width="7.199999999999999" height="17.94561933534743" fill="#16a34a" rx="3" />
    <text x="454.8" y="128" font-family="Arial" font-size="11" fill="#444" text-anchor="middle"></text>
    <rect x="460.79999999999995" y="97.0392749244713" width="7.199999999999999" height="12.960725075528702" fill="#16a34a" rx="3" />
    <text x="464.4" y="128" font-family="Arial" font-size="11" fill="#444" text-anchor="middle"></text>
    <rect x="470.4" y="100.03021148036254" width="7.199999999999999" height="9.969788519637461" fill="#16a34a" rx="3" />
    <text x="474" y="128" font-family="Arial" font-size="11" fill="#444" text-anchor="middle"></text>
    <rect x="480" y="106.34441087613293" width="7.199999999999999" height="3.6555891238670695" fill="#16a34a" rx="3" />
    <text x="483.6" y="128" font-family="Arial" font-size="11" fill="#444" text-anchor="middle"></text>
    <rect x="489.59999999999997" y="91.05740181268882" width="7.199999999999999" height="18.94259818731118" fill="#16a34a" rx="3" />
    <text x="493.2" y="128" font-family="Arial" font-size="11" fill="#444" text-anchor="middle"></text>
    <rect x="499.2" y="84.74320241691842" width="7.199999999999999" height="25.25679758308157" fill="#16a34a" rx="3" />
    <text x="502.8" y="128" font-family="Arial" font-size="11" fill="#444" text-anchor="middle"></text>
    <rect x="508.79999999999995" y="98.70090634441087" width="7.199999999999999" height="11.299093655589125" fill="#16a34a" rx="3" />
    <text x="512.4" y="128" font-family="Arial" font-size="11" fill="#444" text-anchor="middle"></text>
    <rect x="518.4" y="99.69788519637463" width="7.199999999999999" height="10.302114803625377" fill="#16a34a" rx="3" />
    <text x="522" y="128" font-family="Arial" font-size="11" fill="#444" text-anchor="middle"></text>
    <rect x="528" y="81.75226586102718" width="7.199999999999999" height="28.247734138972813" fill="#16a34a" rx="3" />
    <text x="531.6" y="128" font-family="Arial" font-size="11" fill="#444" text-anchor="middle"></text>
    <rect x="537.6" y="52.83987915407855" width="7.199999999999999" height="57.16012084592145" fill="#16a34a" rx="3" />
    <text x="541.2" y="128" font-family="Arial" font-size="11" fill="#444" text-anchor="middle"></text>
    <rect x="547.1999999999999" y="62.477341389728096" width="7.199999999999999" height="47.522658610271904" fill="#16a34a" rx="3" />
    <text x="550.8" y="128" font-family="Arial" font-size="11" fill="#444" text-anchor="middle"></text>
    <rect x="556.8" y="71.78247734138972" width="7.199999999999999" height="38.21752265861027" fill="#16a34a" rx="3" />
    <text x="560.4" y="128" font-family="Arial" font-size="11" fill="#444" text-anchor="middle">2025</text>
    <rect x="566.4" y="96.70694864048338" width="7.199999999999999" height="13.293051359516618" fill="#16a34a" rx="3" />
    <text x="570" y="128" font-family="Arial" font-size="11" fill="#444" text-anchor="middle"></text>
    <rect x="576" y="88.3987915407855" width="7.199999999999999" height="21.6012084592145" fill="#16a34a" rx="3" />
    <text x="579.6" y="128" font-family="Arial" font-size="11" fill="#444" text-anchor="middle"></text>
    <rect x="585.6" y="79.09365558912387" width="7.199999999999999" height="30.90634441087613" fill="#16a34a" rx="3" />
    <text x="589.2" y="128" font-family="Arial" font-size="11" fill="#444" text-anchor="middle"></text>
    <rect x="595.1999999999999" y="70.12084592145015" width="7.199999999999999" height="39.879154078549846" fill="#16a34a" rx="3" />
    <text x="598.8" y="128" font-family="Arial" font-size="11" fill="#444" text-anchor="middle"></text>
    <rect x="604.8" y="55.49848942598187" width="7.199999999999999" height="54.50151057401813" fill="#16a34a" rx="3" />
    <text x="608.4" y="128" font-family="Arial" font-size="11" fill="#444" text-anchor="middle"></text>
    <rect x="614.4" y="88.3987915407855" width="7.199999999999999" height="21.6012084592145" fill="#16a34a" rx="3" />
    <text x="618" y="128" font-family="Arial" font-size="11" fill="#444" text-anchor="middle"></text>
    <rect x="624" y="40.54380664652568" width="7.199999999999999" height="69.45619335347432" fill="#16a34a" rx="3" />
    <text x="627.6" y="128" font-family="Arial" font-size="11" fill="#444" text-anchor="middle"></text>
    <rect x="633.6" y="21.601208459214504" width="7.199999999999999" height="88.3987915407855" fill="#16a34a" rx="3" />
    <text x="637.2" y="128" font-family="Arial" font-size="11" fill="#444" text-anchor="middle"></text>
    <rect x="643.1999999999999" y="0" width="7.199999999999999" height="110" fill="#16a34a" rx="3" />
    <text x="646.8" y="128" font-family="Arial" font-size="11" fill="#444" text-anchor="middle"></text>
    <rect x="652.8" y="27.915407854984892" width="7.199999999999999" height="82.08459214501511" fill="#16a34a" rx="3" />
    <text x="656.4" y="128" font-family="Arial" font-size="11" fill="#444" text-anchor="middle"></text>
    <rect x="662.4" y="55.166163141993955" width="7.199999999999999" height="54.833836858006045" fill="#16a34a" rx="3" />
    <text x="666" y="128" font-family="Arial" font-size="11" fill="#444" text-anchor="middle"></text>
    <rect x="672" y="75.10574018126889" width="7.199999999999999" height="34.89425981873112" fill="#16a34a" rx="3" />
    <text x="675.6" y="128" font-family="Arial" font-size="11" fill="#444" text-anchor="middle">2026</text>
    <rect x="681.6" y="70.12084592145015" width="7.199999999999999" height="39.879154078549846" fill="#16a34a" rx="3" />
    <text x="685.2" y="128" font-family="Arial" font-size="11" fill="#444" text-anchor="middle"></text>
    <rect x="691.1999999999999" y="66.79758308157099" width="7.199999999999999" height="43.202416918429" fill="#16a34a" rx="3" />
    <text x="694.8" y="128" font-family="Arial" font-size="11" fill="#444" text-anchor="middle"></text>
    <rect x="700.8" y="90.7250755287009" width="7.199999999999999" height="19.274924471299094" fill="#16a34a" rx="3" />
    <text x="704.4" y="128" font-family="Arial" font-size="11" fill="#444" text-anchor="middle"></text>
    <rect x="710.4" y="66.46525679758308" width="7.199999999999999" height="43.53474320241692" fill="#16a34a" rx="3" />
    <text x="714" y="128" font-family="Arial" font-size="11" fill="#444" text-anchor="middle"></text>
    <text x="-6" y="110" font-family="Arial" font-size="11" fill="#666" text-anchor="end">0</text>
    <text x="-6" y="10" font-family="Arial" font-size="11" fill="#666" text-anchor="end">331</text>
  </g>
</svg>