<svg xmlns="http://www.w3.org/2000/svg" width="800" height="200" viewBox="0 0 800 200">
  <style>
    .chart-title { font: bold 18px Arial; fill: #333; }
    .axis-label { font: 10px Arial; fill: #666; }
  </style>
  <text x="400" y="20" text-anchor="middle" class="chart-title">All Time Monthly Commits</text>
  <g transform="translate(50, 40)">
    <rect x="0" y="108.67069486404834" width="7.5" height="1.3293051359516617" fill="#16a34a" rx="3" />
    <text x="3.75" y="128" font-family="Arial" font-size="11" fill="#444" text-anchor="middle"></text>
    <rect x="10" y="106.67673716012085" width="7.5" height="3.3232628398791544" fill="#16a34a" rx="3" />
    <text x="13.75" y="128" font-family="Arial" font-size="11" fill="#444" text-anchor="middle"></text>
    <rect x="20" y="104.35045317220543" width="7.5" height="5.649546827794563" fill="#16a34a" rx="3" />
    <text x="23.75" y="128" font-family="Arial" font-size="11" fill="#444" text-anchor="middle"></text>
    <rect x="30" y="109.33534743202416" width="7.5" height="0.6646525679758308" fill="#16a34a" rx="3" />
    <text x="33.75" y="128" font-family="Arial" font-size="11" fill="#444" text-anchor="middle"></text>
    <rect x="40" y="104.01812688821752" width="7.5" height="5.981873111782477" fill="#16a34a" rx="3" />
    <text x="43.75" y="128" font-family="Arial" font-size="11" fill="#444" text-anchor="middle"></text>
    <rect x="50" y="61.14803625377643" width="7.5" height="48.85196374622357" fill="#16a34a" rx="3" />
    <text x="53.75" y="128" font-family="Arial" font-size="11" fill="#444" text-anchor="middle"></text>
    <rect x="60" y="85.40785498489426" width="7.5" height="24.59214501510574" fill="#16a34a" rx="3" />
    <text x="63.75" y="128" font-family="Arial" font-size="11" fill="#444" text-anchor="middle"></text>
    <rect x="70" y="104.35045317220543" width="7.5" height="5.649546827794563" fill="#16a34a" rx="3" />
    <text x="73.75" y="128" font-family="Arial" font-size="11" fill="#444" text-anchor="middle"></text>
    <rect x="80" y="89.06344410876133" width="7.5" height="20.93655589123867" fill="#16a34a" rx="3" />
    <text x="83.75" y="128" font-family="Arial" font-size="11" fill="#444" text-anchor="middle"></text>
    <rect x="90" y="87.06948640483384" width="7.5" height="22.930513595166165" fill="#16a34a" rx="3" />
    <text x="93.75" y="128" font-family="Arial" font-size="11" fill="#444" text-anchor="middle"></text>
    <rect x="100" y="104.35045317220543" width="7.5" height="5.649546827794563" fill="#16a34a" rx="3" />
    <text x="103.75" y="128" font-family="Arial" font-size="11" fill="#444" text-anchor="middle">2021</text>
    <rect x="110" y="106.34441087613293" width="7.5" height="3.6555891238670695" fill="#16a34a" rx="3" />
    <text x="113.75" y="128" font-family="Arial" font-size="11" fill="#444" text-anchor="middle"></text>
    <rect x="120" y="100.69486404833837" width="7.5" height="9.305135951661631" fill="#16a34a" rx="3" />
    <text x="123.75" y="128" font-family="Arial" font-size="11" fill="#444" text-anchor="middle"></text>
    <rect x="130" y="53.8368580060423" width="7.5" height="56.1631419939577" fill="#16a34a" rx="3" />
    <text x="133.75" y="128" font-family="Arial" font-size="11" fill="#444" text-anchor="middle"></text>
    <rect x="140" y="54.16918429003021" width="7.5" height="55.83081570996979" fill="#16a34a" rx="3" />
    <text x="143.75" y="128" font-family="Arial" font-size="11" fill="#444" text-anchor="middle"></text>
    <rect x="150" y="27.915407854984892" width="7.5" height="82.08459214501511" fill="#16a34a" rx="3" />
    <text x="153.75" y="128" font-family="Arial" font-size="11" fill="#444" text-anchor="middle"></text>
    <rect x="160" y="61.14803625377643" width="7.5" height="48.85196374622357" fill="#16a34a" rx="3" />
    <text x="163.75" y="128" font-family="Arial" font-size="11" fill="#444" text-anchor="middle"></text>
    <rect x="170" y="81.08761329305136" width="7.5" height="28.912386706948638" fill="#16a34a" rx="3" />
    <text x="173.75" y="128" font-family="Arial" font-size="11" fill="#444" text-anchor="middle"></text>
    <rect x="180" y="82.41691842900302" width="7.5" height="27.58308157099698" fill="#16a34a" rx="3" />
    <text x="183.75" y="128" font-family="Arial" font-size="11" fill="#444" text-anchor="middle"></text>
    <rect x="190" y="89.39577039274924" width="7.5" height="20.604229607250755" fill="#16a34a" rx="3" />
    <text x="193.75" y="128" font-family="Arial" font-size="11" fill="#444" text-anchor="middle"></text>
    <rect x="200" y="77.09969788519638" width="7.5" height="32.90030211480363" fill="#16a34a" rx="3" />
    <text x="203.75" y="128" font-family="Arial" font-size="11" fill="#444" text-anchor="middle"></text>
    <rect x="210" y="75.7703927492447" width="7.5" height="34.229607250755286" fill="#16a34a" rx="3" />
    <text x="213.75" y="128" font-family="Arial" font-size="11" fill="#444" text-anchor="middle"></text>
    <rect x="220" y="62.809667673716014" width="7.5" height="47.190332326283986" fill="#16a34a" rx="3" />
    <text x="223.75" y="128" font-family="Arial" font-size="11" fill="#444" text-anchor="middle">2022</text>
    <rect x="230" y="65.46827794561933" width="7.5" height="44.531722054380666" fill="#16a34a" rx="3" />
    <text x="233.75" y="128" font-family="Arial" font-size="11" fill="#444" text-anchor="middle"></text>
    <rect x="240" y="75.7703927492447" width="7.5" height="34.229607250755286" fill="#16a34a" rx="3" />
    <text x="243.75" y="128" font-family="Arial" font-size="11" fill="#444" text-anchor="middle"></text>
    <rect x="250" y="71.78247734138972" width="7.5" height="38.21752265861027" fill="#16a34a" rx="3" />
    <text x="253.75" y="128" font-family="Arial" font-size="11" fill="#444" text-anchor="middle"></text>
    <rect x="260" y="80.75528700906344" width="7.5" height="29.244712990936556" fill="#16a34a" rx="3" />
    <text x="263.75" y="128" font-family="Arial" font-size="11" fill="#444" text-anchor="middle"></text>
    <rect x="270" y="88.06646525679758" width="7.5" height="21.93353474320242" fill="#16a34a" rx="3" />
    <text x="273.75" y="128" font-family="Arial" font-size="11" fill="#444" text-anchor="middle"></text>
    <rect x="280" y="79.42598187311178" width="7.5" height="30.57401812688822" fill="#16a34a" rx="3" />
    <text x="283.75" y="128" font-family="Arial" font-size="11" fill="#444" text-anchor="middle"></text>
    <rect x="290" y="33.89728096676737" width="7.5" height="76.10271903323263" fill="#16a34a" rx="3" />
    <text x="293.75" y="128" font-family="Arial" font-size="11" fill="#444" text-anchor="middle"></text>
    <rect x="300" y="75.7703927492447" width="7.5" height="34.229607250755286" fill="#16a34a" rx="3" />
    <text x="303.75" y="128" font-family="Arial" font-size="11" fill="#444" text-anchor="middle"></text>
    <rect x="310" y="60.483383685800604" width="7.5" height="49.516616314199396" fill="#16a34a" rx="3" />
    <text x="313.75" y="128" font-family="Arial" font-size="11" fill="#444" text-anchor="middle"></text>
    <rect x="320" y="59.818731117824775" width="7.5" height="50.181268882175225" fill="#16a34a" rx="3" />
    <text x="323.75" y="128" font-family="Arial" font-size="11" fill="#444" text-anchor="middle"></text>
    <rect x="330" y="27.58308157099698" width="7.5" height="82.41691842900302" fill="#16a34a" rx="3" />
    <text x="333.75" y="128" font-family="Arial" font-size="11" fill="#444" text-anchor="middle"></text>
    <rect x="340" y="76.43504531722054" width="7.5" height="33.56495468277946" fill="#16a34a" rx="3" />
    <text x="343.75" y="128" font-family="Arial" font-size="11" fill="#444" text-anchor="middle">2023</text>
    <rect x="350" y="19.939577039274923" width="7.5" height="90.06042296072508" fill="#16a34a" rx="3" />
    <text x="353.75" y="128" font-family="Arial" font-size="11" fill="#444" text-anchor="middle"></text>
    <rect x="360" y="44.86404833836859" width="7.5" height="65.13595166163141" fill="#16a34a" rx="3" />
    <text x="363.75" y="128" font-family="Arial" font-size="11" fill="#444" text-anchor="middle"></text>
    <rect x="370" y="60.81570996978852" width="7.5" height="49.18429003021148" fill="#16a34a" rx="3" />
    <text x="373.75" y="128" font-family="Arial" font-size="11" fill="#444" text-anchor="middle"></text>
    <rect x="380" y="44.531722054380666" width="7.5" height="65.46827794561933" fill="#16a34a" rx="3" />
    <text x="383.75" y="128" font-family="Arial" font-size="11" fill="#444" text-anchor="middle"></text>
    <rect x="390" y="63.141993957703924" width="7.5" height="46.858006042296076" fill="#16a34a" rx="3" />
    <text x="393.75" y="128" font-family="Arial" font-size="11" fill="#444" text-anchor="middle"></text>
    <rect x="400" y="75.4380664652568" width="7.5" height="34.561933534743204" fill="#16a34a" rx="3" />
    <text x="403.75" y="128" font-family="Arial" font-size="11" fill="#444" text-anchor="middle"></text>
    <rect x="410" y="74.77341389728096" width="7.5" height="35.22658610271903" fill="#16a34a" rx="3" />
    <text x="413.75" y="128" font-family="Arial" font-size="11" fill="#444" text-anchor="middle"></text>
    <rect x="420" y="72.44712990936556" width="7.5" height="37.55287009063444" fill="#16a34a" rx="3" />
    <text x="423.75" y="128" font-family="Arial" font-size="11" fill="#444" text-anchor="middle"></text>
    <rect x="430" y="69.78851963746223" width="7.5" height="40.21148036253776" fill="#16a34a" rx="3" />
    <text x="433.75" y="128" font-family="Arial" font-size="11" fill="#444" text-anchor="middle"></text>
    <rect x="440" y="44.531722054380666" width="7.5" height="65.46827794561933" fill="#16a34a" rx="3" />
    <text x="443.75" y="128" font-family="Arial" font-size="11" fill="#444" text-anchor="middle"></text>
    <rect x="450" y="87.06948640483384" width="7.5" height="22.930513595166165" fill="#16a34a" rx="3" />
    <text x="453.75" y="128" font-family="Arial" font-size="11" fill="#444" text-anchor="middle"></text>
    <rect x="460" y="94.38066465256797" width="7.5" height="15.619335347432026" fill="#16a34a" rx="3" />
    <text x="463.75" y="128" font-family="Arial" font-size="11" fill="#444" text-anchor="middle">2024</text>
    <rect x="470" y="92.05438066465257" width="7.5" height="17.94561933534743" fill="#16a34a" rx="3" />
    <text x="473.75" y="128" font-family="Arial" font-size="11" fill="#444" text-anchor="middle"></text>
    <rect x="480" y="97.0392749244713" width="7.5" height="12.960725075528702" fill="#16a34a" rx="3" />
    <text x="483.75" y="128" font-family="Arial" font-size="11" fill="#444" text-anchor="middle"></text>
    <rect x="490" y="100.03021148036254" width="7.5" height="9.969788519637461" fill="#16a34a" rx="3" />
    <text x="493.75" y="128" font-family="Arial" font-size="11" fill="#444" text-anchor="middle"></text>
    <rect x="500" y="106.34441087613293" width="7.5" height="3.6555891238670695" fill="#16a34a" rx="3" />
    <text x="503.75" y="128" font-family="Arial" font-size="11" fill="#444" text-anchor="middle"></text>
    <rect x="510" y="91.05740181268882" width="7.5" height="18.94259818731118" fill="#16a34a" rx="3" />
    <text x="513.75" y="128" font-family="Arial" font-size="11" fill="#444" text-anchor="middle"></text>
    <rect x="520" y="84.74320241691842" width="7.5" height="25.25679758308157" fill="#16a34a" rx="3" />
    <text x="523.75" y="128" font-family="Arial" font-size="11" fill="#444" text-anchor="middle"></text>
    <rect x="530" y="98.70090634441087" width="7.5" height="11.299093655589125" fill="#16a34a" rx="3" />
    <text x="533.75" y="128" font-family="Arial" font-size="11" fill="#444" text-anchor="middle"></text>
    <rect x="540" y="99.69788519637463" width="7.5" height="10.302114803625377" fill="#16a34a" rx="3" />
    <text x="543.75" y="128" font-family="Arial" font-size="11" fill="#444" text-anchor="middle"></text>
    <rect x="550" y="81.75226586102718" width="7.5" height="28.247734138972813" fill="#16a34a" rx="3" />
    <text x="553.75" y="128" font-family="Arial" font-size="11" fill="#444" text-anchor="middle"></text>
    <rect x="560" y="52.83987915407855" width="7.5" height="57.16012084592145" fill="#16a34a" rx="3" />
    <text x="563.75" y="128" font-family="Arial" font-size="11" fill="#444" text-anchor="middle"></text>
    <rect x="570" y="62.477341389728096" width="7.5" height="47.522658610271904" fill="#16a34a" rx="3" />
    <text x="573.75" y="128" font-family="Arial" font-size="11" fill="#444" text-anchor="middle"></text>
    <rect x="580" y="71.78247734138972" width="7.5" height="38.21752265861027" fill="#16a34a" rx="3" />
    <text x="583.75" y="128" font-family="Arial" font-size="11" fill="#444" text-anchor="middle">2025</text>
    <rect x="590" y="96.70694864048338" width="7.5" height="13.293051359516618" fill="#16a34a" rx="3" />
    <text x="593.75" y="128" font-family="Arial" font-size="11" fill="#444" text-anchor="middle"></text>
    <rect x="600" y="88.3987915407855" width="7.5" height="21.6012084592145" fill="#16a34a" rx="3" />
    <text x="603.75" y="128" font-family="Arial" font-size="11" fill="#444" text-anchor="middle"></text>
    <rect x="610" y="79.09365558912387" width="7.5" height="30.90634441087613" fill="#16a34a" rx="3" />
    <text x="613.75" y="128" font-family="Arial" font-size="11" fill="#444" text-anchor="middle"></text>
    <rect x="620" y="70.12084592145015" width="7.5" height="39.879154078549846" fill="#16a34a" rx="3" />
    <text x="623.75" y="128" font-family="Arial" font-size="11" fill="#444" text-anchor="middle"></text>
    <rect x="630" y="55.49848942598187" width="7.5" height="54.50151057401813" fill="#16a34a" rx="3" />
    <text x="633.75" y="128" font-family="Arial" font-size="11" fill="#444" text-anchor="middle"></text>
    <rect x="640" y="88.3987915407855" width="7.5" height="21.6012084592145" fill="#16a34a" rx="3" />
    <text x="643.75" y="128" font-family="Arial" font-size="11" fill="#444" text-anchor="middle"></text>
    <rect x="650" y="40.54380664652568" width="7.5" height="69.45619335347432" fill="#16a34a" rx="3" />
    <text x="653.75" y="128" font-family="Arial" font-size="11" fill="#444" text-anchor="middle"></text>
    <rect x="660" y="21.601208459214504" width="7.5" height="88.3987915407855" fill="#16a34a" rx="3" />
    <text x="663.75" y="128" font-family="Arial" font-size="11" fill="#444" text-anchor="middle"></text>
    <rect x="670" y="0" width="7.5" height="110" fill="#16a34a" rx="3" />
    <text x="673.75" y="128" font-family="Arial" font-size="11" fill="#444" text-anchor="middle"></text>
    <rect x="680" y="27.915407854984892" width="7.5" height="82.08459214501511" fill="#16a34a" rx="3" />
    <text x="683.75" y="128" font-family="Arial" font-size="11" fill="#444" text-anchor="middle"></text>
    <rect x="690" y="59.48640483383686" width="7.5" height="50.51359516616314" fill="#16a34a" rx="3" />
    <text x="693.75" y="128" font-family="Arial" font-size="11" fill="#444" text-anchor="middle"></text>
    <rect x="700" y="75.4380664652568" width="7.5" height="34.561933534743204" fill="#16a34a" rx="3" />
    <text x="703.75" y="128" font-family="Arial" font-size="11" fill="#444" text-anchor="middle">2026</text>
    <rect x="710" y="85.07552870090635" width="7.5" height="24.924471299093657" fill="#16a34a" rx="3" />
    <text x="713.75" y="128" font-family="Arial" font-size="11" fill="#444" text-anchor="middle"></text>
    <text x="-6" y="110" font-family="Arial" font-size="11" fill="#666" text-anchor="end">0</text>
    <text x="-6" y="10" font-family="Arial" font-size="11" fill="#666" text-anchor="end">331</text>
  </g>
</svg>