<svg xmlns="http://www.w3.org/2000/svg" width="800" height="200" viewBox="0 0 800 200">
  <style>
    .chart-title { font: bold 18px Arial; fill: #333; }
    .axis-label { font: 10px Arial; fill: #666; }
  </style>
  <text x="400" y="20" text-anchor="middle" class="chart-title">All Time Monthly Commits</text>
  <g transform="translate(50, 40)">
    <rect x="0" y="108.37638376383764" width="7.605633802816902" height="1.6236162361623616" fill="#16a34a" rx="3" />
    <text x="3.802816901408451" y="128" font-family="Arial" font-size="11" fill="#444" text-anchor="middle"></text>
    <rect x="10.140845070422536" y="105.9409594095941" width="7.605633802816902" height="4.059040590405904" fill="#16a34a" rx="3" />
    <text x="13.943661971830988" y="128" font-family="Arial" font-size="11" fill="#444" text-anchor="middle"></text>
    <rect x="20.281690140845072" y="103.09963099630997" width="7.605633802816902" height="6.900369003690036" fill="#16a34a" rx="3" />
    <text x="24.084507042253524" y="128" font-family="Arial" font-size="11" fill="#444" text-anchor="middle"></text>
    <rect x="30.422535211267608" y="109.18819188191883" width="7.605633802816902" height="0.8118081180811808" fill="#16a34a" rx="3" />
    <text x="34.225352112676056" y="128" font-family="Arial" font-size="11" fill="#444" text-anchor="middle"></text>
    <rect x="40.563380281690144" y="102.69372693726937" width="7.605633802816902" height="7.306273062730628" fill="#16a34a" rx="3" />
    <text x="44.36619718309859" y="128" font-family="Arial" font-size="11" fill="#444" text-anchor="middle"></text>
    <rect x="50.70422535211268" y="50.332103321033216" width="7.605633802816902" height="59.667896678966784" fill="#16a34a" rx="3" />
    <text x="54.50704225352113" y="128" font-family="Arial" font-size="11" fill="#444" text-anchor="middle"></text>
    <rect x="60.845070422535215" y="79.96309963099631" width="7.605633802816902" height="30.036900369003693" fill="#16a34a" rx="3" />
    <text x="64.64788732394366" y="128" font-family="Arial" font-size="11" fill="#444" text-anchor="middle"></text>
    <rect x="70.98591549295776" y="103.09963099630997" width="7.605633802816902" height="6.900369003690036" fill="#16a34a" rx="3" />
    <text x="74.7887323943662" y="128" font-family="Arial" font-size="11" fill="#444" text-anchor="middle"></text>
    <rect x="81.12676056338029" y="84.4280442804428" width="7.605633802816902" height="25.571955719557195" fill="#16a34a" rx="3" />
    <text x="84.92957746478874" y="128" font-family="Arial" font-size="11" fill="#444" text-anchor="middle"></text>
    <rect x="91.26760563380282" y="81.99261992619927" width="7.605633802816902" height="28.007380073800736" fill="#16a34a" rx="3" />
    <text x="95.07042253521126" y="128" font-family="Arial" font-size="11" fill="#444" text-anchor="middle"></text>
    <rect x="101.40845070422536" y="103.09963099630997" width="7.605633802816902" height="6.900369003690036" fill="#16a34a" rx="3" />
    <text x="105.21126760563381" y="128" font-family="Arial" font-size="11" fill="#444" text-anchor="middle">2021</text>
    <rect x="111.5492957746479" y="105.5350553505535" width="7.605633802816902" height="4.464944649446494" fill="#16a34a" rx="3" />
    <text x="115.35211267605635" y="128" font-family="Arial" font-size="11" fill="#444" text-anchor="middle"></text>
    <rect x="121.69014084507043" y="98.63468634686348" width="7.605633802816902" height="11.365313653136532" fill="#16a34a" rx="3" />
    <text x="125.49295774647888" y="128" font-family="Arial" font-size="11" fill="#444" text-anchor="middle"></text>
    <rect x="131.83098591549296" y="41.40221402214023" width="7.605633802816902" height="68.59778597785977" fill="#16a34a" rx="3" />
    <text x="135.6338028169014" y="128" font-family="Arial" font-size="11" fill="#444" text-anchor="middle"></text>
    <rect x="141.97183098591552" y="41.80811808118081" width="7.605633802816902" height="68.19188191881919" fill="#16a34a" rx="3" />
    <text x="145.77464788732397" y="128" font-family="Arial" font-size="11" fill="#444" text-anchor="middle"></text>
    <rect x="152.11267605633805" y="9.741697416974176" width="7.605633802816902" height="100.25830258302582" fill="#16a34a" rx="3" />
    <text x="155.9154929577465" y="128" font-family="Arial" font-size="11" fill="#444" text-anchor="middle"></text>
    <rect x="162.25352112676057" y="50.332103321033216" width="7.605633802816902" height="59.667896678966784" fill="#16a34a" rx="3" />
    <text x="166.05633802816902" y="128" font-family="Arial" font-size="11" fill="#444" text-anchor="middle"></text>
    <rect x="172.3943661971831" y="74.68634686346863" width="7.605633802816902" height="35.313653136531364" fill="#16a34a" rx="3" />
    <text x="176.19718309859155" y="128" font-family="Arial" font-size="11" fill="#444" text-anchor="middle"></text>
    <rect x="182.53521126760563" y="76.30996309963099" width="7.605633802816902" height="33.69003690036901" fill="#16a34a" rx="3" />
    <text x="186.33802816901408" y="128" font-family="Arial" font-size="11" fill="#444" text-anchor="middle"></text>
    <rect x="192.6760563380282" y="84.83394833948338" width="7.605633802816902" height="25.166051660516608" fill="#16a34a" rx="3" />
    <text x="196.47887323943664" y="128" font-family="Arial" font-size="11" fill="#444" text-anchor="middle"></text>
    <rect x="202.81690140845072" y="69.81549815498155" width="7.605633802816902" height="40.18450184501845" fill="#16a34a" rx="3" />
    <text x="206.61971830985917" y="128" font-family="Arial" font-size="11" fill="#444" text-anchor="middle"></text>
    <rect x="212.95774647887325" y="68.19188191881918" width="7.605633802816902" height="41.808118081180815" fill="#16a34a" rx="3" />
    <text x="216.7605633802817" y="128" font-family="Arial" font-size="11" fill="#444" text-anchor="middle"></text>
    <rect x="223.0985915492958" y="52.36162361623616" width="7.605633802816902" height="57.63837638376384" fill="#16a34a" rx="3" />
    <text x="226.90140845070425" y="128" font-family="Arial" font-size="11" fill="#444" text-anchor="middle">2022</text>
    <rect x="233.23943661971833" y="55.608856088560884" width="7.605633802816902" height="54.391143911439116" fill="#16a34a" rx="3" />
    <text x="237.04225352112678" y="128" font-family="Arial" font-size="11" fill="#444" text-anchor="middle"></text>
    <rect x="243.38028169014086" y="68.19188191881918" width="7.605633802816902" height="41.808118081180815" fill="#16a34a" rx="3" />
    <text x="247.1830985915493" y="128" font-family="Arial" font-size="11" fill="#444" text-anchor="middle"></text>
    <rect x="253.5211267605634" y="63.321033210332104" width="7.605633802816902" height="46.678966789667896" fill="#16a34a" rx="3" />
    <text x="257.32394366197184" y="128" font-family="Arial" font-size="11" fill="#444" text-anchor="middle"></text>
    <rect x="263.6619718309859" y="74.28044280442805" width="7.605633802816902" height="35.71955719557195" fill="#16a34a" rx="3" />
    <text x="267.46478873239437" y="128" font-family="Arial" font-size="11" fill="#444" text-anchor="middle"></text>
    <rect x="273.80281690140845" y="83.21033210332104" width="7.605633802816902" height="26.789667896678967" fill="#16a34a" rx="3" />
    <text x="277.6056338028169" y="128" font-family="Arial" font-size="11" fill="#444" text-anchor="middle"></text>
    <rect x="283.94366197183103" y="72.65682656826567" width="7.605633802816902" height="37.34317343173432" fill="#16a34a" rx="3" />
    <text x="287.7464788732395" y="128" font-family="Arial" font-size="11" fill="#444" text-anchor="middle"></text>
    <rect x="294.08450704225356" y="17.0479704797048" width="7.605633802816902" height="92.9520295202952" fill="#16a34a" rx="3" />
    <text x="297.887323943662" y="128" font-family="Arial" font-size="11" fill="#444" text-anchor="middle"></text>
    <rect x="304.2253521126761" y="68.19188191881918" width="7.605633802816902" height="41.808118081180815" fill="#16a34a" rx="3" />
    <text x="308.02816901408454" y="128" font-family="Arial" font-size="11" fill="#444" text-anchor="middle"></text>
    <rect x="314.3661971830986" y="49.52029520295203" width="7.605633802816902" height="60.47970479704797" fill="#16a34a" rx="3" />
    <text x="318.16901408450707" y="128" font-family="Arial" font-size="11" fill="#444" text-anchor="middle"></text>
    <rect x="324.50704225352115" y="48.708487084870846" width="7.605633802816902" height="61.291512915129154" fill="#16a34a" rx="3" />
    <text x="328.3098591549296" y="128" font-family="Arial" font-size="11" fill="#444" text-anchor="middle"></text>
    <rect x="334.6478873239437" y="9.335793357933568" width="7.605633802816902" height="100.66420664206643" fill="#16a34a" rx="3" />
    <text x="338.4507042253521" y="128" font-family="Arial" font-size="11" fill="#444" text-anchor="middle"></text>
    <rect x="344.7887323943662" y="69.00369003690037" width="7.605633802816902" height="40.996309963099634" fill="#16a34a" rx="3" />
    <text x="348.59154929577466" y="128" font-family="Arial" font-size="11" fill="#444" text-anchor="middle">2023</text>
    <rect x="354.92957746478874" y="0" width="7.605633802816902" height="110" fill="#16a34a" rx="3" />
    <text x="358.7323943661972" y="128" font-family="Arial" font-size="11" fill="#444" text-anchor="middle"></text>
    <rect x="365.07042253521126" y="30.442804428044283" width="7.605633802816902" height="79.55719557195572" fill="#16a34a" rx="3" />
    <text x="368.8732394366197" y="128" font-family="Arial" font-size="11" fill="#444" text-anchor="middle"></text>
    <rect x="375.21126760563385" y="49.926199261992615" width="7.605633802816902" height="60.073800738007385" fill="#16a34a" rx="3" />
    <text x="379.0140845070423" y="128" font-family="Arial" font-size="11" fill="#444" text-anchor="middle"></text>
    <rect x="385.3521126760564" y="30.03690036900369" width="7.605633802816902" height="79.96309963099631" fill="#16a34a" rx="3" />
    <text x="389.1549295774648" y="128" font-family="Arial" font-size="11" fill="#444" text-anchor="middle"></text>
    <rect x="395.4929577464789" y="52.76752767527676" width="7.605633802816902" height="57.23247232472324" fill="#16a34a" rx="3" />
    <text x="399.29577464788736" y="128" font-family="Arial" font-size="11" fill="#444" text-anchor="middle"></text>
    <rect x="405.63380281690144" y="67.7859778597786" width="7.605633802816902" height="42.2140221402214" fill="#16a34a" rx="3" />
    <text x="409.4366197183099" y="128" font-family="Arial" font-size="11" fill="#444" text-anchor="middle"></text>
    <rect x="415.77464788732397" y="66.97416974169741" width="7.605633802816902" height="43.025830258302584" fill="#16a34a" rx="3" />
    <text x="419.5774647887324" y="128" font-family="Arial" font-size="11" fill="#444" text-anchor="middle"></text>
    <rect x="425.9154929577465" y="64.13284132841329" width="7.605633802816902" height="45.867158671586715" fill="#16a34a" rx="3" />
    <text x="429.71830985915494" y="128" font-family="Arial" font-size="11" fill="#444" text-anchor="middle"></text>
    <rect x="436.056338028169" y="60.88560885608856" width="7.605633802816902" height="49.11439114391144" fill="#16a34a" rx="3" />
    <text x="439.85915492957747" y="128" font-family="Arial" font-size="11" fill="#444" text-anchor="middle"></text>
    <rect x="446.1971830985916" y="30.03690036900369" width="7.605633802816902" height="79.96309963099631" fill="#16a34a" rx="3" />
    <text x="450.00000000000006" y="128" font-family="Arial" font-size="11" fill="#444" text-anchor="middle"></text>
    <rect x="456.33802816901414" y="81.99261992619927" width="7.605633802816902" height="28.007380073800736" fill="#16a34a" rx="3" />
    <text x="460.1408450704226" y="128" font-family="Arial" font-size="11" fill="#444" text-anchor="middle"></text>
    <rect x="466.47887323943667" y="90.92250922509226" width="7.605633802816902" height="19.07749077490775" fill="#16a34a" rx="3" />
    <text x="470.2816901408451" y="128" font-family="Arial" font-size="11" fill="#444" text-anchor="middle">2024</text>
    <rect x="476.6197183098592" y="88.08118081180811" width="7.605633802816902" height="21.918819188191883" fill="#16a34a" rx="3" />
    <text x="480.42253521126764" y="128" font-family="Arial" font-size="11" fill="#444" text-anchor="middle"></text>
    <rect x="486.7605633802817" y="94.16974169741698" width="7.605633802816902" height="15.830258302583026" fill="#16a34a" rx="3" />
    <text x="490.5633802816902" y="128" font-family="Arial" font-size="11" fill="#444" text-anchor="middle"></text>
    <rect x="496.90140845070425" y="97.82287822878229" width="7.605633802816902" height="12.177121771217712" fill="#16a34a" rx="3" />
    <text x="500.7042253521127" y="128" font-family="Arial" font-size="11" fill="#444" text-anchor="middle"></text>
    <rect x="507.0422535211268" y="105.5350553505535" width="7.605633802816902" height="4.464944649446494" fill="#16a34a" rx="3" />
    <text x="510.84507042253523" y="128" font-family="Arial" font-size="11" fill="#444" text-anchor="middle"></text>
    <rect x="517.1830985915493" y="86.86346863468634" width="7.605633802816902" height="23.136531365313655" fill="#16a34a" rx="3" />
    <text x="520.9859154929578" y="128" font-family="Arial" font-size="11" fill="#444" text-anchor="middle"></text>
    <rect x="527.3239436619718" y="79.15129151291514" width="7.605633802816902" height="30.848708487084867" fill="#16a34a" rx="3" />
    <text x="531.1267605633803" y="128" font-family="Arial" font-size="11" fill="#444" text-anchor="middle"></text>
    <rect x="537.4647887323944" y="96.19926199261992" width="7.605633802816902" height="13.800738007380073" fill="#16a34a" rx="3" />
    <text x="541.2676056338029" y="128" font-family="Arial" font-size="11" fill="#444" text-anchor="middle"></text>
    <rect x="547.6056338028169" y="97.41697416974169" width="7.605633802816902" height="12.583025830258304" fill="#16a34a" rx="3" />
    <text x="551.4084507042254" y="128" font-family="Arial" font-size="11" fill="#444" text-anchor="middle"></text>
    <rect x="557.7464788732394" y="75.49815498154982" width="7.605633802816902" height="34.50184501845019" fill="#16a34a" rx="3" />
    <text x="561.5492957746479" y="128" font-family="Arial" font-size="11" fill="#444" text-anchor="middle"></text>
    <rect x="567.8873239436621" y="40.18450184501846" width="7.605633802816902" height="69.81549815498154" fill="#16a34a" rx="3" />
    <text x="571.6901408450706" y="128" font-family="Arial" font-size="11" fill="#444" text-anchor="middle"></text>
    <rect x="578.0281690140846" y="51.95571955719558" width="7.605633802816902" height="58.04428044280442" fill="#16a34a" rx="3" />
    <text x="581.8309859154931" y="128" font-family="Arial" font-size="11" fill="#444" text-anchor="middle"></text>
    <rect x="588.1690140845071" y="63.321033210332104" width="7.605633802816902" height="46.678966789667896" fill="#16a34a" rx="3" />
    <text x="591.9718309859156" y="128" font-family="Arial" font-size="11" fill="#444" text-anchor="middle">2025</text>
    <rect x="598.3098591549297" y="93.76383763837639" width="7.605633802816902" height="16.236162361623617" fill="#16a34a" rx="3" />
    <text x="602.1126760563382" y="128" font-family="Arial" font-size="11" fill="#444" text-anchor="middle"></text>
    <rect x="608.4507042253522" y="83.61623616236162" width="7.605633802816902" height="26.383763837638377" fill="#16a34a" rx="3" />
    <text x="612.2535211267607" y="128" font-family="Arial" font-size="11" fill="#444" text-anchor="middle"></text>
    <rect x="618.5915492957747" y="72.25092250922509" width="7.605633802816902" height="37.74907749077491" fill="#16a34a" rx="3" />
    <text x="622.3943661971832" y="128" font-family="Arial" font-size="11" fill="#444" text-anchor="middle"></text>
    <rect x="628.7323943661972" y="61.291512915129154" width="7.605633802816902" height="48.708487084870846" fill="#16a34a" rx="3" />
    <text x="632.5352112676057" y="128" font-family="Arial" font-size="11" fill="#444" text-anchor="middle"></text>
    <rect x="638.8732394366198" y="44.649446494464954" width="7.605633802816902" height="65.35055350553505" fill="#16a34a" rx="3" />
    <text x="642.6760563380283" y="128" font-family="Arial" font-size="11" fill="#444" text-anchor="middle"></text>
    <rect x="649.0140845070423" y="84.83394833948338" width="7.605633802816902" height="25.166051660516608" fill="#16a34a" rx="3" />
    <text x="652.8169014084508" y="128" font-family="Arial" font-size="11" fill="#444" text-anchor="middle"></text>
    <rect x="659.1549295774648" y="85.64575645756457" width="7.605633802816902" height="24.354243542435423" fill="#16a34a" rx="3" />
    <text x="662.9577464788733" y="128" font-family="Arial" font-size="11" fill="#444" text-anchor="middle"></text>
    <rect x="669.2957746478874" y="100.25830258302582" width="7.605633802816902" height="9.74169741697417" fill="#16a34a" rx="3" />
    <text x="673.0985915492959" y="128" font-family="Arial" font-size="11" fill="#444" text-anchor="middle"></text>
    <rect x="679.4366197183099" y="67.380073800738" width="7.605633802816902" height="42.619926199262" fill="#16a34a" rx="3" />
    <text x="683.2394366197184" y="128" font-family="Arial" font-size="11" fill="#444" text-anchor="middle"></text>
    <rect x="689.5774647887324" y="23.542435424354238" width="7.605633802816902" height="86.45756457564576" fill="#16a34a" rx="3" />
    <text x="693.3802816901409" y="128" font-family="Arial" font-size="11" fill="#444" text-anchor="middle"></text>
    <rect x="699.7183098591549" y="77.93357933579335" width="7.605633802816902" height="32.06642066420664" fill="#16a34a" rx="3" />
    <text x="703.5211267605634" y="128" font-family="Arial" font-size="11" fill="#444" text-anchor="middle"></text>
    <rect x="709.8591549295775" y="108.37638376383764" width="7.605633802816902" height="1.6236162361623616" fill="#16a34a" rx="3" />
    <text x="713.661971830986" y="128" font-family="Arial" font-size="11" fill="#444" text-anchor="middle">2026</text>
    <text x="-6" y="110" font-family="Arial" font-size="11" fill="#666" text-anchor="end">0</text>
    <text x="-6" y="10" font-family="Arial" font-size="11" fill="#666" text-anchor="end">271</text>
  </g>
</svg>