<svg xmlns="http://www.w3.org/2000/svg" width="800" height="200" viewBox="0 0 800 200">
  <style>
    .chart-title { font: bold 18px Arial; fill: #333; }
    .axis-label { font: 10px Arial; fill: #666; }
  </style>
  <text x="400" y="20" text-anchor="middle" class="chart-title">All Time Monthly Commits</text>
  <g transform="translate(50, 40)">
    <rect x="0" y="108.67069486404834" width="7.397260273972603" height="1.3293051359516617" fill="#16a34a" rx="3" />
    <text x="3.6986301369863015" y="128" font-family="Arial" font-size="11" fill="#444" text-anchor="middle"></text>
    <rect x="9.863013698630137" y="106.67673716012085" width="7.397260273972603" height="3.3232628398791544" fill="#16a34a" rx="3" />
    <text x="13.561643835616438" y="128" font-family="Arial" font-size="11" fill="#444" text-anchor="middle"></text>
    <rect x="19.726027397260275" y="104.35045317220543" width="7.397260273972603" height="5.649546827794563" fill="#16a34a" rx="3" />
    <text x="23.424657534246577" y="128" font-family="Arial" font-size="11" fill="#444" text-anchor="middle"></text>
    <rect x="29.589041095890412" y="109.33534743202416" width="7.397260273972603" height="0.6646525679758308" fill="#16a34a" rx="3" />
    <text x="33.28767123287671" y="128" font-family="Arial" font-size="11" fill="#444" text-anchor="middle"></text>
    <rect x="39.45205479452055" y="104.01812688821752" width="7.397260273972603" height="5.981873111782477" fill="#16a34a" rx="3" />
    <text x="43.15068493150685" y="128" font-family="Arial" font-size="11" fill="#444" text-anchor="middle"></text>
    <rect x="49.31506849315069" y="61.14803625377643" width="7.397260273972603" height="48.85196374622357" fill="#16a34a" rx="3" />
    <text x="53.01369863013699" y="128" font-family="Arial" font-size="11" fill="#444" text-anchor="middle"></text>
    <rect x="59.178082191780824" y="85.40785498489426" width="7.397260273972603" height="24.59214501510574" fill="#16a34a" rx="3" />
    <text x="62.87671232876713" y="128" font-family="Arial" font-size="11" fill="#444" text-anchor="middle"></text>
    <rect x="69.04109589041096" y="104.35045317220543" width="7.397260273972603" height="5.649546827794563" fill="#16a34a" rx="3" />
    <text x="72.73972602739725" y="128" font-family="Arial" font-size="11" fill="#444" text-anchor="middle"></text>
    <rect x="78.9041095890411" y="89.06344410876133" width="7.397260273972603" height="20.93655589123867" fill="#16a34a" rx="3" />
    <text x="82.6027397260274" y="128" font-family="Arial" font-size="11" fill="#444" text-anchor="middle"></text>
    <rect x="88.76712328767124" y="87.06948640483384" width="7.397260273972603" height="22.930513595166165" fill="#16a34a" rx="3" />
    <text x="92.46575342465754" y="128" font-family="Arial" font-size="11" fill="#444" text-anchor="middle"></text>
    <rect x="98.63013698630138" y="104.35045317220543" width="7.397260273972603" height="5.649546827794563" fill="#16a34a" rx="3" />
    <text x="102.32876712328768" y="128" font-family="Arial" font-size="11" fill="#444" text-anchor="middle">2021</text>
    <rect x="108.4931506849315" y="106.34441087613293" width="7.397260273972603" height="3.6555891238670695" fill="#16a34a" rx="3" />
    <text x="112.1917808219178" y="128" font-family="Arial" font-size="11" fill="#444" text-anchor="middle"></text>
    <rect x="118.35616438356165" y="100.69486404833837" width="7.397260273972603" height="9.305135951661631" fill="#16a34a" rx="3" />
    <text x="122.05479452054794" y="128" font-family="Arial" font-size="11" fill="#444" text-anchor="middle"></text>
    <rect x="128.21917808219177" y="53.8368580060423" width="7.397260273972603" height="56.1631419939577" fill="#16a34a" rx="3" />
    <text x="131.91780821917808" y="128" font-family="Arial" font-size="11" fill="#444" text-anchor="middle"></text>
    <rect x="138.08219178082192" y="54.16918429003021" width="7.397260273972603" height="55.83081570996979" fill="#16a34a" rx="3" />
    <text x="141.78082191780823" y="128" font-family="Arial" font-size="11" fill="#444" text-anchor="middle"></text>
    <rect x="147.94520547945206" y="27.915407854984892" width="7.397260273972603" height="82.08459214501511" fill="#16a34a" rx="3" />
    <text x="151.64383561643837" y="128" font-family="Arial" font-size="11" fill="#444" text-anchor="middle"></text>
    <rect x="157.8082191780822" y="61.14803625377643" width="7.397260273972603" height="48.85196374622357" fill="#16a34a" rx="3" />
    <text x="161.5068493150685" y="128" font-family="Arial" font-size="11" fill="#444" text-anchor="middle"></text>
    <rect x="167.67123287671234" y="81.08761329305136" width="7.397260273972603" height="28.912386706948638" fill="#16a34a" rx="3" />
    <text x="171.36986301369865" y="128" font-family="Arial" font-size="11" fill="#444" text-anchor="middle"></text>
    <rect x="177.53424657534248" y="82.41691842900302" width="7.397260273972603" height="27.58308157099698" fill="#16a34a" rx="3" />
    <text x="181.2328767123288" y="128" font-family="Arial" font-size="11" fill="#444" text-anchor="middle"></text>
    <rect x="187.39726027397262" y="89.39577039274924" width="7.397260273972603" height="20.604229607250755" fill="#16a34a" rx="3" />
    <text x="191.09589041095893" y="128" font-family="Arial" font-size="11" fill="#444" text-anchor="middle"></text>
    <rect x="197.26027397260276" y="77.09969788519638" width="7.397260273972603" height="32.90030211480363" fill="#16a34a" rx="3" />
    <text x="200.95890410958907" y="128" font-family="Arial" font-size="11" fill="#444" text-anchor="middle"></text>
    <rect x="207.12328767123287" y="75.7703927492447" width="7.397260273972603" height="34.229607250755286" fill="#16a34a" rx="3" />
    <text x="210.82191780821918" y="128" font-family="Arial" font-size="11" fill="#444" text-anchor="middle"></text>
    <rect x="216.986301369863" y="62.809667673716014" width="7.397260273972603" height="47.190332326283986" fill="#16a34a" rx="3" />
    <text x="220.68493150684932" y="128" font-family="Arial" font-size="11" fill="#444" text-anchor="middle">2022</text>
    <rect x="226.84931506849315" y="65.46827794561933" width="7.397260273972603" height="44.531722054380666" fill="#16a34a" rx="3" />
    <text x="230.54794520547946" y="128" font-family="Arial" font-size="11" fill="#444" text-anchor="middle"></text>
    <rect x="236.7123287671233" y="75.7703927492447" width="7.397260273972603" height="34.229607250755286" fill="#16a34a" rx="3" />
    <text x="240.4109589041096" y="128" font-family="Arial" font-size="11" fill="#444" text-anchor="middle"></text>
    <rect x="246.57534246575344" y="71.78247734138972" width="7.397260273972603" height="38.21752265861027" fill="#16a34a" rx="3" />
    <text x="250.27397260273975" y="128" font-family="Arial" font-size="11" fill="#444" text-anchor="middle"></text>
    <rect x="256.43835616438355" y="80.75528700906344" width="7.397260273972603" height="29.244712990936556" fill="#16a34a" rx="3" />
    <text x="260.13698630136986" y="128" font-family="Arial" font-size="11" fill="#444" text-anchor="middle"></text>
    <rect x="266.3013698630137" y="88.06646525679758" width="7.397260273972603" height="21.93353474320242" fill="#16a34a" rx="3" />
    <text x="270" y="128" font-family="Arial" font-size="11" fill="#444" text-anchor="middle"></text>
    <rect x="276.16438356164383" y="79.42598187311178" width="7.397260273972603" height="30.57401812688822" fill="#16a34a" rx="3" />
    <text x="279.86301369863014" y="128" font-family="Arial" font-size="11" fill="#444" text-anchor="middle"></text>
    <rect x="286.027397260274" y="33.89728096676737" width="7.397260273972603" height="76.10271903323263" fill="#16a34a" rx="3" />
    <text x="289.7260273972603" y="128" font-family="Arial" font-size="11" fill="#444" text-anchor="middle"></text>
    <rect x="295.8904109589041" y="75.7703927492447" width="7.397260273972603" height="34.229607250755286" fill="#16a34a" rx="3" />
    <text x="299.5890410958904" y="128" font-family="Arial" font-size="11" fill="#444" text-anchor="middle"></text>
    <rect x="305.75342465753425" y="60.483383685800604" width="7.397260273972603" height="49.516616314199396" fill="#16a34a" rx="3" />
    <text x="309.45205479452056" y="128" font-family="Arial" font-size="11" fill="#444" text-anchor="middle"></text>
    <rect x="315.6164383561644" y="59.818731117824775" width="7.397260273972603" height="50.181268882175225" fill="#16a34a" rx="3" />
    <text x="319.3150684931507" y="128" font-family="Arial" font-size="11" fill="#444" text-anchor="middle"></text>
    <rect x="325.47945205479454" y="27.58308157099698" width="7.397260273972603" height="82.41691842900302" fill="#16a34a" rx="3" />
    <text x="329.17808219178085" y="128" font-family="Arial" font-size="11" fill="#444" text-anchor="middle"></text>
    <rect x="335.3424657534247" y="76.43504531722054" width="7.397260273972603" height="33.56495468277946" fill="#16a34a" rx="3" />
    <text x="339.041095890411" y="128" font-family="Arial" font-size="11" fill="#444" text-anchor="middle">2023</text>
    <rect x="345.2054794520548" y="19.939577039274923" width="7.397260273972603" height="90.06042296072508" fill="#16a34a" rx="3" />
    <text x="348.9041095890411" y="128" font-family="Arial" font-size="11" fill="#444" text-anchor="middle"></text>
    <rect x="355.06849315068496" y="44.86404833836859" width="7.397260273972603" height="65.13595166163141" fill="#16a34a" rx="3" />
    <text x="358.76712328767127" y="128" font-family="Arial" font-size="11" fill="#444" text-anchor="middle"></text>
    <rect x="364.9315068493151" y="60.81570996978852" width="7.397260273972603" height="49.18429003021148" fill="#16a34a" rx="3" />
    <text x="368.6301369863014" y="128" font-family="Arial" font-size="11" fill="#444" text-anchor="middle"></text>
    <rect x="374.79452054794524" y="44.531722054380666" width="7.397260273972603" height="65.46827794561933" fill="#16a34a" rx="3" />
    <text x="378.49315068493155" y="128" font-family="Arial" font-size="11" fill="#444" text-anchor="middle"></text>
    <rect x="384.6575342465754" y="63.141993957703924" width="7.397260273972603" height="46.858006042296076" fill="#16a34a" rx="3" />
    <text x="388.3561643835617" y="128" font-family="Arial" font-size="11" fill="#444" text-anchor="middle"></text>
    <rect x="394.5205479452055" y="75.4380664652568" width="7.397260273972603" height="34.561933534743204" fill="#16a34a" rx="3" />
    <text x="398.21917808219183" y="128" font-family="Arial" font-size="11" fill="#444" text-anchor="middle"></text>
    <rect x="404.3835616438356" y="74.77341389728096" width="7.397260273972603" height="35.22658610271903" fill="#16a34a" rx="3" />
    <text x="408.0821917808219" y="128" font-family="Arial" font-size="11" fill="#444" text-anchor="middle"></text>
    <rect x="414.24657534246575" y="72.44712990936556" width="7.397260273972603" height="37.55287009063444" fill="#16a34a" rx="3" />
    <text x="417.94520547945206" y="128" font-family="Arial" font-size="11" fill="#444" text-anchor="middle"></text>
    <rect x="424.1095890410959" y="69.78851963746223" width="7.397260273972603" height="40.21148036253776" fill="#16a34a" rx="3" />
    <text x="427.8082191780822" y="128" font-family="Arial" font-size="11" fill="#444" text-anchor="middle"></text>
    <rect x="433.972602739726" y="44.531722054380666" width="7.397260273972603" height="65.46827794561933" fill="#16a34a" rx="3" />
    <text x="437.67123287671234" y="128" font-family="Arial" font-size="11" fill="#444" text-anchor="middle"></text>
    <rect x="443.83561643835617" y="87.06948640483384" width="7.397260273972603" height="22.930513595166165" fill="#16a34a" rx="3" />
    <text x="447.5342465753425" y="128" font-family="Arial" font-size="11" fill="#444" text-anchor="middle"></text>
    <rect x="453.6986301369863" y="94.38066465256797" width="7.397260273972603" height="15.619335347432026" fill="#16a34a" rx="3" />
    <text x="457.3972602739726" y="128" font-family="Arial" font-size="11" fill="#444" text-anchor="middle">2024</text>
    <rect x="463.56164383561645" y="92.05438066465257" width="7.397260273972603" height="17.94561933534743" fill="#16a34a" rx="3" />
    <text x="467.26027397260276" y="128" font-family="Arial" font-size="11" fill="#444" text-anchor="middle"></text>
    <rect x="473.4246575342466" y="97.0392749244713" width="7.397260273972603" height="12.960725075528702" fill="#16a34a" rx="3" />
    <text x="477.1232876712329" y="128" font-family="Arial" font-size="11" fill="#444" text-anchor="middle"></text>
    <rect x="483.28767123287673" y="100.03021148036254" width="7.397260273972603" height="9.969788519637461" fill="#16a34a" rx="3" />
    <text x="486.98630136986304" y="128" font-family="Arial" font-size="11" fill="#444" text-anchor="middle"></text>
    <rect x="493.1506849315069" y="106.34441087613293" width="7.397260273972603" height="3.6555891238670695" fill="#16a34a" rx="3" />
    <text x="496.8493150684932" y="128" font-family="Arial" font-size="11" fill="#444" text-anchor="middle"></text>
    <rect x="503.013698630137" y="91.05740181268882" width="7.397260273972603" height="18.94259818731118" fill="#16a34a" rx="3" />
    <text x="506.7123287671233" y="128" font-family="Arial" font-size="11" fill="#444" text-anchor="middle"></text>
    <rect x="512.8767123287671" y="84.74320241691842" width="7.397260273972603" height="25.25679758308157" fill="#16a34a" rx="3" />
    <text x="516.5753424657534" y="128" font-family="Arial" font-size="11" fill="#444" text-anchor="middle"></text>
    <rect x="522.7397260273973" y="98.70090634441087" width="7.397260273972603" height="11.299093655589125" fill="#16a34a" rx="3" />
    <text x="526.4383561643835" y="128" font-family="Arial" font-size="11" fill="#444" text-anchor="middle"></text>
    <rect x="532.6027397260274" y="99.69788519637463" width="7.397260273972603" height="10.302114803625377" fill="#16a34a" rx="3" />
    <text x="536.3013698630136" y="128" font-family="Arial" font-size="11" fill="#444" text-anchor="middle"></text>
    <rect x="542.4657534246576" y="81.75226586102718" width="7.397260273972603" height="28.247734138972813" fill="#16a34a" rx="3" />
    <text x="546.1643835616438" y="128" font-family="Arial" font-size="11" fill="#444" text-anchor="middle"></text>
    <rect x="552.3287671232877" y="52.83987915407855" width="7.397260273972603" height="57.16012084592145" fill="#16a34a" rx="3" />
    <text x="556.0273972602739" y="128" font-family="Arial" font-size="11" fill="#444" text-anchor="middle"></text>
    <rect x="562.1917808219179" y="62.477341389728096" width="7.397260273972603" height="47.522658610271904" fill="#16a34a" rx="3" />
    <text x="565.8904109589041" y="128" font-family="Arial" font-size="11" fill="#444" text-anchor="middle"></text>
    <rect x="572.054794520548" y="71.78247734138972" width="7.397260273972603" height="38.21752265861027" fill="#16a34a" rx="3" />
    <text x="575.7534246575342" y="128" font-family="Arial" font-size="11" fill="#444" text-anchor="middle">2025</text>
    <rect x="581.9178082191781" y="96.70694864048338" width="7.397260273972603" height="13.293051359516618" fill="#16a34a" rx="3" />
    <text x="585.6164383561644" y="128" font-family="Arial" font-size="11" fill="#444" text-anchor="middle"></text>
    <rect x="591.7808219178082" y="88.3987915407855" width="7.397260273972603" height="21.6012084592145" fill="#16a34a" rx="3" />
    <text x="595.4794520547945" y="128" font-family="Arial" font-size="11" fill="#444" text-anchor="middle"></text>
    <rect x="601.6438356164384" y="79.09365558912387" width="7.397260273972603" height="30.90634441087613" fill="#16a34a" rx="3" />
    <text x="605.3424657534247" y="128" font-family="Arial" font-size="11" fill="#444" text-anchor="middle"></text>
    <rect x="611.5068493150685" y="70.12084592145015" width="7.397260273972603" height="39.879154078549846" fill="#16a34a" rx="3" />
    <text x="615.2054794520548" y="128" font-family="Arial" font-size="11" fill="#444" text-anchor="middle"></text>
    <rect x="621.3698630136987" y="55.49848942598187" width="7.397260273972603" height="54.50151057401813" fill="#16a34a" rx="3" />
    <text x="625.068493150685" y="128" font-family="Arial" font-size="11" fill="#444" text-anchor="middle"></text>
    <rect x="631.2328767123288" y="88.3987915407855" width="7.397260273972603" height="21.6012084592145" fill="#16a34a" rx="3" />
    <text x="634.931506849315" y="128" font-family="Arial" font-size="11" fill="#444" text-anchor="middle"></text>
    <rect x="641.0958904109589" y="40.54380664652568" width="7.397260273972603" height="69.45619335347432" fill="#16a34a" rx="3" />
    <text x="644.7945205479451" y="128" font-family="Arial" font-size="11" fill="#444" text-anchor="middle"></text>
    <rect x="650.9589041095891" y="21.601208459214504" width="7.397260273972603" height="88.3987915407855" fill="#16a34a" rx="3" />
    <text x="654.6575342465753" y="128" font-family="Arial" font-size="11" fill="#444" text-anchor="middle"></text>
    <rect x="660.8219178082192" y="0" width="7.397260273972603" height="110" fill="#16a34a" rx="3" />
    <text x="664.5205479452054" y="128" font-family="Arial" font-size="11" fill="#444" text-anchor="middle"></text>
    <rect x="670.6849315068494" y="27.915407854984892" width="7.397260273972603" height="82.08459214501511" fill="#16a34a" rx="3" />
    <text x="674.3835616438356" y="128" font-family="Arial" font-size="11" fill="#444" text-anchor="middle"></text>
    <rect x="680.5479452054794" y="59.48640483383686" width="7.397260273972603" height="50.51359516616314" fill="#16a34a" rx="3" />
    <text x="684.2465753424657" y="128" font-family="Arial" font-size="11" fill="#444" text-anchor="middle"></text>
    <rect x="690.4109589041096" y="75.4380664652568" width="7.397260273972603" height="34.561933534743204" fill="#16a34a" rx="3" />
    <text x="694.1095890410959" y="128" font-family="Arial" font-size="11" fill="#444" text-anchor="middle">2026</text>
    <rect x="700.2739726027397" y="85.07552870090635" width="7.397260273972603" height="24.924471299093657" fill="#16a34a" rx="3" />
    <text x="703.972602739726" y="128" font-family="Arial" font-size="11" fill="#444" text-anchor="middle"></text>
    <rect x="710.1369863013699" y="109.66767371601209" width="7.397260273972603" height="0.3323262839879154" fill="#16a34a" rx="3" />
    <text x="713.8356164383562" y="128" font-family="Arial" font-size="11" fill="#444" text-anchor="middle"></text>
    <text x="-6" y="110" font-family="Arial" font-size="11" fill="#666" text-anchor="end">0</text>
    <text x="-6" y="10" font-family="Arial" font-size="11" fill="#666" text-anchor="end">331</text>
  </g>
</svg>