<svg xmlns="http://www.w3.org/2000/svg" width="800" height="200" viewBox="0 0 800 200">
  <style>
    .chart-title { font: bold 18px Arial; fill: #333; }
    .axis-label { font: 10px Arial; fill: #666; }
  </style>
  <text x="400" y="20" text-anchor="middle" class="chart-title">All Time Monthly Commits</text>
  <g transform="translate(50, 40)">
    <rect x="0" y="108.67069486404834" width="7.012987012987013" height="1.3293051359516617" fill="#16a34a" rx="3" />
    <text x="3.5064935064935066" y="128" font-family="Arial" font-size="11" fill="#444" text-anchor="middle"></text>
    <rect x="9.35064935064935" y="106.67673716012085" width="7.012987012987013" height="3.3232628398791544" fill="#16a34a" rx="3" />
    <text x="12.857142857142858" y="128" font-family="Arial" font-size="11" fill="#444" text-anchor="middle"></text>
    <rect x="18.7012987012987" y="104.35045317220543" width="7.012987012987013" height="5.649546827794563" fill="#16a34a" rx="3" />
    <text x="22.207792207792206" y="128" font-family="Arial" font-size="11" fill="#444" text-anchor="middle"></text>
    <rect x="28.051948051948052" y="109.33534743202416" width="7.012987012987013" height="0.6646525679758308" fill="#16a34a" rx="3" />
    <text x="31.558441558441558" y="128" font-family="Arial" font-size="11" fill="#444" text-anchor="middle"></text>
    <rect x="37.4025974025974" y="104.01812688821752" width="7.012987012987013" height="5.981873111782477" fill="#16a34a" rx="3" />
    <text x="40.90909090909091" y="128" font-family="Arial" font-size="11" fill="#444" text-anchor="middle"></text>
    <rect x="46.75324675324675" y="61.14803625377643" width="7.012987012987013" height="48.85196374622357" fill="#16a34a" rx="3" />
    <text x="50.259740259740255" y="128" font-family="Arial" font-size="11" fill="#444" text-anchor="middle"></text>
    <rect x="56.103896103896105" y="85.40785498489426" width="7.012987012987013" height="24.59214501510574" fill="#16a34a" rx="3" />
    <text x="59.61038961038961" y="128" font-family="Arial" font-size="11" fill="#444" text-anchor="middle"></text>
    <rect x="65.45454545454545" y="104.35045317220543" width="7.012987012987013" height="5.649546827794563" fill="#16a34a" rx="3" />
    <text x="68.96103896103897" y="128" font-family="Arial" font-size="11" fill="#444" text-anchor="middle"></text>
    <rect x="74.8051948051948" y="89.06344410876133" width="7.012987012987013" height="20.93655589123867" fill="#16a34a" rx="3" />
    <text x="78.31168831168831" y="128" font-family="Arial" font-size="11" fill="#444" text-anchor="middle"></text>
    <rect x="84.15584415584415" y="87.06948640483384" width="7.012987012987013" height="22.930513595166165" fill="#16a34a" rx="3" />
    <text x="87.66233766233766" y="128" font-family="Arial" font-size="11" fill="#444" text-anchor="middle"></text>
    <rect x="93.5064935064935" y="104.35045317220543" width="7.012987012987013" height="5.649546827794563" fill="#16a34a" rx="3" />
    <text x="97.01298701298701" y="128" font-family="Arial" font-size="11" fill="#444" text-anchor="middle">2021</text>
    <rect x="102.85714285714285" y="106.34441087613293" width="7.012987012987013" height="3.6555891238670695" fill="#16a34a" rx="3" />
    <text x="106.36363636363636" y="128" font-family="Arial" font-size="11" fill="#444" text-anchor="middle"></text>
    <rect x="112.20779220779221" y="100.69486404833837" width="7.012987012987013" height="9.305135951661631" fill="#16a34a" rx="3" />
    <text x="115.71428571428572" y="128" font-family="Arial" font-size="11" fill="#444" text-anchor="middle"></text>
    <rect x="121.55844155844156" y="53.8368580060423" width="7.012987012987013" height="56.1631419939577" fill="#16a34a" rx="3" />
    <text x="125.06493506493507" y="128" font-family="Arial" font-size="11" fill="#444" text-anchor="middle"></text>
    <rect x="130.9090909090909" y="54.16918429003021" width="7.012987012987013" height="55.83081570996979" fill="#16a34a" rx="3" />
    <text x="134.41558441558442" y="128" font-family="Arial" font-size="11" fill="#444" text-anchor="middle"></text>
    <rect x="140.25974025974025" y="27.915407854984892" width="7.012987012987013" height="82.08459214501511" fill="#16a34a" rx="3" />
    <text x="143.76623376623377" y="128" font-family="Arial" font-size="11" fill="#444" text-anchor="middle"></text>
    <rect x="149.6103896103896" y="61.14803625377643" width="7.012987012987013" height="48.85196374622357" fill="#16a34a" rx="3" />
    <text x="153.11688311688312" y="128" font-family="Arial" font-size="11" fill="#444" text-anchor="middle"></text>
    <rect x="158.96103896103895" y="81.08761329305136" width="7.012987012987013" height="28.912386706948638" fill="#16a34a" rx="3" />
    <text x="162.46753246753246" y="128" font-family="Arial" font-size="11" fill="#444" text-anchor="middle"></text>
    <rect x="168.3116883116883" y="82.41691842900302" width="7.012987012987013" height="27.58308157099698" fill="#16a34a" rx="3" />
    <text x="171.8181818181818" y="128" font-family="Arial" font-size="11" fill="#444" text-anchor="middle"></text>
    <rect x="177.66233766233765" y="89.39577039274924" width="7.012987012987013" height="20.604229607250755" fill="#16a34a" rx="3" />
    <text x="181.16883116883116" y="128" font-family="Arial" font-size="11" fill="#444" text-anchor="middle"></text>
    <rect x="187.012987012987" y="77.09969788519638" width="7.012987012987013" height="32.90030211480363" fill="#16a34a" rx="3" />
    <text x="190.5194805194805" y="128" font-family="Arial" font-size="11" fill="#444" text-anchor="middle"></text>
    <rect x="196.36363636363635" y="75.7703927492447" width="7.012987012987013" height="34.229607250755286" fill="#16a34a" rx="3" />
    <text x="199.87012987012986" y="128" font-family="Arial" font-size="11" fill="#444" text-anchor="middle"></text>
    <rect x="205.7142857142857" y="62.809667673716014" width="7.012987012987013" height="47.190332326283986" fill="#16a34a" rx="3" />
    <text x="209.2207792207792" y="128" font-family="Arial" font-size="11" fill="#444" text-anchor="middle">2022</text>
    <rect x="215.06493506493504" y="65.46827794561933" width="7.012987012987013" height="44.531722054380666" fill="#16a34a" rx="3" />
    <text x="218.57142857142856" y="128" font-family="Arial" font-size="11" fill="#444" text-anchor="middle"></text>
    <rect x="224.41558441558442" y="75.7703927492447" width="7.012987012987013" height="34.229607250755286" fill="#16a34a" rx="3" />
    <text x="227.92207792207793" y="128" font-family="Arial" font-size="11" fill="#444" text-anchor="middle"></text>
    <rect x="233.76623376623377" y="71.78247734138972" width="7.012987012987013" height="38.21752265861027" fill="#16a34a" rx="3" />
    <text x="237.27272727272728" y="128" font-family="Arial" font-size="11" fill="#444" text-anchor="middle"></text>
    <rect x="243.11688311688312" y="80.75528700906344" width="7.012987012987013" height="29.244712990936556" fill="#16a34a" rx="3" />
    <text x="246.62337662337663" y="128" font-family="Arial" font-size="11" fill="#444" text-anchor="middle"></text>
    <rect x="252.46753246753246" y="88.06646525679758" width="7.012987012987013" height="21.93353474320242" fill="#16a34a" rx="3" />
    <text x="255.97402597402598" y="128" font-family="Arial" font-size="11" fill="#444" text-anchor="middle"></text>
    <rect x="261.8181818181818" y="79.42598187311178" width="7.012987012987013" height="30.57401812688822" fill="#16a34a" rx="3" />
    <text x="265.3246753246753" y="128" font-family="Arial" font-size="11" fill="#444" text-anchor="middle"></text>
    <rect x="271.16883116883116" y="33.89728096676737" width="7.012987012987013" height="76.10271903323263" fill="#16a34a" rx="3" />
    <text x="274.67532467532465" y="128" font-family="Arial" font-size="11" fill="#444" text-anchor="middle"></text>
    <rect x="280.5194805194805" y="75.7703927492447" width="7.012987012987013" height="34.229607250755286" fill="#16a34a" rx="3" />
    <text x="284.025974025974" y="128" font-family="Arial" font-size="11" fill="#444" text-anchor="middle"></text>
    <rect x="289.87012987012986" y="60.483383685800604" width="7.012987012987013" height="49.516616314199396" fill="#16a34a" rx="3" />
    <text x="293.37662337662334" y="128" font-family="Arial" font-size="11" fill="#444" text-anchor="middle"></text>
    <rect x="299.2207792207792" y="59.818731117824775" width="7.012987012987013" height="50.181268882175225" fill="#16a34a" rx="3" />
    <text x="302.7272727272727" y="128" font-family="Arial" font-size="11" fill="#444" text-anchor="middle"></text>
    <rect x="308.57142857142856" y="27.58308157099698" width="7.012987012987013" height="82.41691842900302" fill="#16a34a" rx="3" />
    <text x="312.07792207792204" y="128" font-family="Arial" font-size="11" fill="#444" text-anchor="middle"></text>
    <rect x="317.9220779220779" y="76.43504531722054" width="7.012987012987013" height="33.56495468277946" fill="#16a34a" rx="3" />
    <text x="321.4285714285714" y="128" font-family="Arial" font-size="11" fill="#444" text-anchor="middle">2023</text>
    <rect x="327.27272727272725" y="19.939577039274923" width="7.012987012987013" height="90.06042296072508" fill="#16a34a" rx="3" />
    <text x="330.77922077922074" y="128" font-family="Arial" font-size="11" fill="#444" text-anchor="middle"></text>
    <rect x="336.6233766233766" y="44.86404833836859" width="7.012987012987013" height="65.13595166163141" fill="#16a34a" rx="3" />
    <text x="340.1298701298701" y="128" font-family="Arial" font-size="11" fill="#444" text-anchor="middle"></text>
    <rect x="345.97402597402595" y="60.81570996978852" width="7.012987012987013" height="49.18429003021148" fill="#16a34a" rx="3" />
    <text x="349.48051948051943" y="128" font-family="Arial" font-size="11" fill="#444" text-anchor="middle"></text>
    <rect x="355.3246753246753" y="44.531722054380666" width="7.012987012987013" height="65.46827794561933" fill="#16a34a" rx="3" />
    <text x="358.8311688311688" y="128" font-family="Arial" font-size="11" fill="#444" text-anchor="middle"></text>
    <rect x="364.67532467532465" y="63.141993957703924" width="7.012987012987013" height="46.858006042296076" fill="#16a34a" rx="3" />
    <text x="368.18181818181813" y="128" font-family="Arial" font-size="11" fill="#444" text-anchor="middle"></text>
    <rect x="374.025974025974" y="75.4380664652568" width="7.012987012987013" height="34.561933534743204" fill="#16a34a" rx="3" />
    <text x="377.5324675324675" y="128" font-family="Arial" font-size="11" fill="#444" text-anchor="middle"></text>
    <rect x="383.37662337662334" y="74.77341389728096" width="7.012987012987013" height="35.22658610271903" fill="#16a34a" rx="3" />
    <text x="386.8831168831168" y="128" font-family="Arial" font-size="11" fill="#444" text-anchor="middle"></text>
    <rect x="392.7272727272727" y="72.44712990936556" width="7.012987012987013" height="37.55287009063444" fill="#16a34a" rx="3" />
    <text x="396.2337662337662" y="128" font-family="Arial" font-size="11" fill="#444" text-anchor="middle"></text>
    <rect x="402.07792207792204" y="69.78851963746223" width="7.012987012987013" height="40.21148036253776" fill="#16a34a" rx="3" />
    <text x="405.5844155844155" y="128" font-family="Arial" font-size="11" fill="#444" text-anchor="middle"></text>
    <rect x="411.4285714285714" y="44.531722054380666" width="7.012987012987013" height="65.46827794561933" fill="#16a34a" rx="3" />
    <text x="414.9350649350649" y="128" font-family="Arial" font-size="11" fill="#444" text-anchor="middle"></text>
    <rect x="420.77922077922074" y="87.06948640483384" width="7.012987012987013" height="22.930513595166165" fill="#16a34a" rx="3" />
    <text x="424.2857142857142" y="128" font-family="Arial" font-size="11" fill="#444" text-anchor="middle"></text>
    <rect x="430.1298701298701" y="94.38066465256797" width="7.012987012987013" height="15.619335347432026" fill="#16a34a" rx="3" />
    <text x="433.63636363636357" y="128" font-family="Arial" font-size="11" fill="#444" text-anchor="middle">2024</text>
    <rect x="439.48051948051943" y="92.05438066465257" width="7.012987012987013" height="17.94561933534743" fill="#16a34a" rx="3" />
    <text x="442.9870129870129" y="128" font-family="Arial" font-size="11" fill="#444" text-anchor="middle"></text>
    <rect x="448.83116883116884" y="97.0392749244713" width="7.012987012987013" height="12.960725075528702" fill="#16a34a" rx="3" />
    <text x="452.3376623376623" y="128" font-family="Arial" font-size="11" fill="#444" text-anchor="middle"></text>
    <rect x="458.1818181818182" y="100.03021148036254" width="7.012987012987013" height="9.969788519637461" fill="#16a34a" rx="3" />
    <text x="461.68831168831167" y="128" font-family="Arial" font-size="11" fill="#444" text-anchor="middle"></text>
    <rect x="467.53246753246754" y="106.34441087613293" width="7.012987012987013" height="3.6555891238670695" fill="#16a34a" rx="3" />
    <text x="471.038961038961" y="128" font-family="Arial" font-size="11" fill="#444" text-anchor="middle"></text>
    <rect x="476.8831168831169" y="91.05740181268882" width="7.012987012987013" height="18.94259818731118" fill="#16a34a" rx="3" />
    <text x="480.38961038961037" y="128" font-family="Arial" font-size="11" fill="#444" text-anchor="middle"></text>
    <rect x="486.23376623376623" y="84.74320241691842" width="7.012987012987013" height="25.25679758308157" fill="#16a34a" rx="3" />
    <text x="489.7402597402597" y="128" font-family="Arial" font-size="11" fill="#444" text-anchor="middle"></text>
    <rect x="495.5844155844156" y="98.70090634441087" width="7.012987012987013" height="11.299093655589125" fill="#16a34a" rx="3" />
    <text x="499.09090909090907" y="128" font-family="Arial" font-size="11" fill="#444" text-anchor="middle"></text>
    <rect x="504.93506493506493" y="99.69788519637463" width="7.012987012987013" height="10.302114803625377" fill="#16a34a" rx="3" />
    <text x="508.4415584415584" y="128" font-family="Arial" font-size="11" fill="#444" text-anchor="middle"></text>
    <rect x="514.2857142857142" y="81.75226586102718" width="7.012987012987013" height="28.247734138972813" fill="#16a34a" rx="3" />
    <text x="517.7922077922077" y="128" font-family="Arial" font-size="11" fill="#444" text-anchor="middle"></text>
    <rect x="523.6363636363636" y="52.83987915407855" width="7.012987012987013" height="57.16012084592145" fill="#16a34a" rx="3" />
    <text x="527.1428571428571" y="128" font-family="Arial" font-size="11" fill="#444" text-anchor="middle"></text>
    <rect x="532.9870129870129" y="62.477341389728096" width="7.012987012987013" height="47.522658610271904" fill="#16a34a" rx="3" />
    <text x="536.4935064935064" y="128" font-family="Arial" font-size="11" fill="#444" text-anchor="middle"></text>
    <rect x="542.3376623376623" y="71.78247734138972" width="7.012987012987013" height="38.21752265861027" fill="#16a34a" rx="3" />
    <text x="545.8441558441558" y="128" font-family="Arial" font-size="11" fill="#444" text-anchor="middle">2025</text>
    <rect x="551.6883116883116" y="96.70694864048338" width="7.012987012987013" height="13.293051359516618" fill="#16a34a" rx="3" />
    <text x="555.1948051948051" y="128" font-family="Arial" font-size="11" fill="#444" text-anchor="middle"></text>
    <rect x="561.038961038961" y="88.3987915407855" width="7.012987012987013" height="21.6012084592145" fill="#16a34a" rx="3" />
    <text x="564.5454545454545" y="128" font-family="Arial" font-size="11" fill="#444" text-anchor="middle"></text>
    <rect x="570.3896103896103" y="79.09365558912387" width="7.012987012987013" height="30.90634441087613" fill="#16a34a" rx="3" />
    <text x="573.8961038961038" y="128" font-family="Arial" font-size="11" fill="#444" text-anchor="middle"></text>
    <rect x="579.7402597402597" y="70.12084592145015" width="7.012987012987013" height="39.879154078549846" fill="#16a34a" rx="3" />
    <text x="583.2467532467532" y="128" font-family="Arial" font-size="11" fill="#444" text-anchor="middle"></text>
    <rect x="589.090909090909" y="55.49848942598187" width="7.012987012987013" height="54.50151057401813" fill="#16a34a" rx="3" />
    <text x="592.5974025974025" y="128" font-family="Arial" font-size="11" fill="#444" text-anchor="middle"></text>
    <rect x="598.4415584415584" y="88.3987915407855" width="7.012987012987013" height="21.6012084592145" fill="#16a34a" rx="3" />
    <text x="601.9480519480519" y="128" font-family="Arial" font-size="11" fill="#444" text-anchor="middle"></text>
    <rect x="607.7922077922078" y="40.54380664652568" width="7.012987012987013" height="69.45619335347432" fill="#16a34a" rx="3" />
    <text x="611.2987012987013" y="128" font-family="Arial" font-size="11" fill="#444" text-anchor="middle"></text>
    <rect x="617.1428571428571" y="21.601208459214504" width="7.012987012987013" height="88.3987915407855" fill="#16a34a" rx="3" />
    <text x="620.6493506493506" y="128" font-family="Arial" font-size="11" fill="#444" text-anchor="middle"></text>
    <rect x="626.4935064935065" y="0" width="7.012987012987013" height="110" fill="#16a34a" rx="3" />
    <text x="630" y="128" font-family="Arial" font-size="11" fill="#444" text-anchor="middle"></text>
    <rect x="635.8441558441558" y="27.915407854984892" width="7.012987012987013" height="82.08459214501511" fill="#16a34a" rx="3" />
    <text x="639.3506493506493" y="128" font-family="Arial" font-size="11" fill="#444" text-anchor="middle"></text>
    <rect x="645.1948051948052" y="55.166163141993955" width="7.012987012987013" height="54.833836858006045" fill="#16a34a" rx="3" />
    <text x="648.7012987012987" y="128" font-family="Arial" font-size="11" fill="#444" text-anchor="middle"></text>
    <rect x="654.5454545454545" y="75.10574018126889" width="7.012987012987013" height="34.89425981873112" fill="#16a34a" rx="3" />
    <text x="658.051948051948" y="128" font-family="Arial" font-size="11" fill="#444" text-anchor="middle">2026</text>
    <rect x="663.8961038961039" y="70.12084592145015" width="7.012987012987013" height="39.879154078549846" fill="#16a34a" rx="3" />
    <text x="667.4025974025974" y="128" font-family="Arial" font-size="11" fill="#444" text-anchor="middle"></text>
    <rect x="673.2467532467532" y="66.79758308157099" width="7.012987012987013" height="43.202416918429" fill="#16a34a" rx="3" />
    <text x="676.7532467532467" y="128" font-family="Arial" font-size="11" fill="#444" text-anchor="middle"></text>
    <rect x="682.5974025974026" y="90.7250755287009" width="7.012987012987013" height="19.274924471299094" fill="#16a34a" rx="3" />
    <text x="686.1038961038961" y="128" font-family="Arial" font-size="11" fill="#444" text-anchor="middle"></text>
    <rect x="691.9480519480519" y="60.151057401812686" width="7.012987012987013" height="49.848942598187314" fill="#16a34a" rx="3" />
    <text x="695.4545454545454" y="128" font-family="Arial" font-size="11" fill="#444" text-anchor="middle"></text>
    <rect x="701.2987012987013" y="94.04833836858006" width="7.012987012987013" height="15.951661631419942" fill="#16a34a" rx="3" />
    <text x="704.8051948051948" y="128" font-family="Arial" font-size="11" fill="#444" text-anchor="middle"></text>
    <rect x="710.6493506493506" y="106.01208459214502" width="7.012987012987013" height="3.9879154078549854" fill="#16a34a" rx="3" />
    <text x="714.1558441558441" y="128" font-family="Arial" font-size="11" fill="#444" text-anchor="middle"></text>
    <text x="-6" y="110" font-family="Arial" font-size="11" fill="#666" text-anchor="end">0</text>
    <text x="-6" y="10" font-family="Arial" font-size="11" fill="#666" text-anchor="end">331</text>
  </g>
</svg>