<svg xmlns="http://www.w3.org/2000/svg" width="500" height="500" viewBox="0 0 500 500">
  <style>
    .chart-title { font: bold 18px Arial; fill: #333; }
    .legend-text { font: 12px Arial; fill: #666; }
    .legend-value { font: 12px Arial; fill: #333; }
    .slice { transition: opacity 0.2s; }
    .slice:hover { opacity: 0.8; }
  </style>

  <text x="250" y="30" text-anchor="middle" class="chart-title">Database Distribution</text>
  <path class="slice" d="M 250 80 A 100 100 0 1 1 223.0203228842976 276.29172873477995 L 233.81219373057854 237.77503724086796 A 60 60 0 1 0 250 120 Z" fill="#4db33d"/>
  <path class="slice" d="M 223.0203228842976 276.29172873477995 A 100 100 0 0 1 161.21147815976246 133.99349622688484 L 196.7268868958575 152.3960977361309 A 60 60 0 0 0 233.81219373057854 237.77503724086796 Z" fill="#00758f"/>
  <path class="slice" d="M 161.21147815976246 133.99349622688484 A 100 100 0 0 1 198.04160499645658 94.55805954535118 L 218.82496299787394 128.7348357272107 A 60 60 0 0 0 196.7268868958575 152.3960977361309 Z" fill="#336791"/>
  <path class="slice" d="M 198.04160499645658 94.55805954535118 A 100 100 0 0 1 249.99999999999997 80 L 250 120 A 60 60 0 0 0 218.82496299787394 128.7348357272107 Z" fill="#dc382d"/>
  <circle cx="250" cy="180" r="60" fill="white"/>
  <rect x="30" y="220" width="15" height="15" fill="#4db33d"/>
  <text x="52" y="232" class="legend-text">MySQL</text>
  <text x="470" y="232" text-anchor="end" class="legend-value">54.3%</text>
  <rect x="30" y="245" width="15" height="15" fill="#00758f"/>
  <text x="52" y="257" class="legend-text">MongoDB</text>
  <text x="470" y="257" text-anchor="end" class="legend-value">28.3%</text>
  <rect x="30" y="270" width="15" height="15" fill="#336791"/>
  <text x="52" y="282" class="legend-text">SQLite</text>
  <text x="470" y="282" text-anchor="end" class="legend-value">8.7%</text>
  <rect x="30" y="295" width="15" height="15" fill="#dc382d"/>
  <text x="52" y="307" class="legend-text">Redis</text>
  <text x="470" y="307" text-anchor="end" class="legend-value">8.7%</text>
</svg>