<svg xmlns="http://www.w3.org/2000/svg" width="500" height="500" viewBox="0 0 500 500">
  <style>
    .chart-title { font: bold 18px Arial; fill: #333; }
    .legend-text { font: 12px Arial; fill: #666; }
    .legend-value { font: 12px Arial; fill: #333; }
    .slice { transition: opacity 0.2s; }
    .slice:hover { opacity: 0.8; }
  </style>

  <text x="250" y="30" text-anchor="middle" class="chart-title">Database Distribution</text>
  <path class="slice" d="M 250 80 A 100 100 0 1 1 230.08140148961635 277.9961705036587 L 238.0488408937698 238.7977023021952 A 60 60 0 1 0 250 120 Z" fill="#4db33d"/>
  <path class="slice" d="M 230.08140148961635 277.9961705036587 A 100 100 0 0 1 162.30500717933285 131.94182448133165 L 197.38300430759972 151.16509468879897 A 60 60 0 0 0 238.0488408937698 238.7977023021952 Z" fill="#00758f"/>
  <path class="slice" d="M 162.30500717933285 131.94182448133165 A 100 100 0 0 1 199.0383357408083 93.95984207398604 L 219.42300144448498 128.37590524439162 A 60 60 0 0 0 197.38300430759972 151.16509468879897 Z" fill="#336791"/>
  <path class="slice" d="M 199.0383357408083 93.95984207398604 A 100 100 0 0 1 249.99999999999997 80 L 250 120 A 60 60 0 0 0 219.42300144448498 128.37590524439162 Z" fill="#dc382d"/>
  <circle cx="250" cy="180" r="60" fill="white"/>
  <rect x="30" y="220" width="15" height="15" fill="#4db33d"/>
  <text x="52" y="232" class="legend-text">MySQL</text>
  <text x="470" y="232" text-anchor="end" class="legend-value">53.2%</text>
  <rect x="30" y="245" width="15" height="15" fill="#00758f"/>
  <text x="52" y="257" class="legend-text">MongoDB</text>
  <text x="470" y="257" text-anchor="end" class="legend-value">29.8%</text>
  <rect x="30" y="270" width="15" height="15" fill="#336791"/>
  <text x="52" y="282" class="legend-text">SQLite</text>
  <text x="470" y="282" text-anchor="end" class="legend-value">8.5%</text>
  <rect x="30" y="295" width="15" height="15" fill="#dc382d"/>
  <text x="52" y="307" class="legend-text">Redis</text>
  <text x="470" y="307" text-anchor="end" class="legend-value">8.5%</text>
</svg>