<svg xmlns="http://www.w3.org/2000/svg" width="500" height="500" viewBox="0 0 500 500">
  <style>
    .chart-title { font: bold 18px Arial; fill: #333; }
    .legend-text { font: 12px Arial; fill: #666; }
    .legend-value { font: 12px Arial; fill: #333; }
    .slice { transition: opacity 0.2s; }
    .slice:hover { opacity: 0.8; }
  </style>

  <text x="250" y="30" text-anchor="middle" class="chart-title">Database Distribution</text>
  <path class="slice" d="M 250 80 A 100 100 0 1 1 225.1310112835145 276.8583161128631 L 235.0786067701087 238.11498966771785 A 60 60 0 1 0 250 120 Z" fill="#4db33d"/>
  <path class="slice" d="M 225.1310112835145 276.8583161128631 A 100 100 0 0 1 159.51729475339806 137.42207084349275 L 195.71037685203885 154.45324250609565 A 60 60 0 0 0 235.0786067701087 238.11498966771785 Z" fill="#00758f"/>
  <path class="slice" d="M 159.51729475339806 137.42207084349275 A 100 100 0 0 1 201.82463258982847 92.36933199561363 L 221.09477955389707 127.42159919736818 A 60 60 0 0 0 195.71037685203885 154.45324250609565 Z" fill="#336791"/>
  <path class="slice" d="M 201.82463258982847 92.36933199561363 A 100 100 0 0 1 249.99999999999997 80 L 250 120 A 60 60 0 0 0 221.09477955389707 127.42159919736818 Z" fill="#dc382d"/>
  <circle cx="250" cy="180" r="60" fill="white"/>
  <rect x="30" y="220" width="15" height="15" fill="#4db33d"/>
  <text x="52" y="232" class="legend-text">MySQL</text>
  <text x="470" y="232" text-anchor="end" class="legend-value">54.0%</text>
  <rect x="30" y="245" width="15" height="15" fill="#00758f"/>
  <text x="52" y="257" class="legend-text">MongoDB</text>
  <text x="470" y="257" text-anchor="end" class="legend-value">28.0%</text>
  <rect x="30" y="270" width="15" height="15" fill="#336791"/>
  <text x="52" y="282" class="legend-text">Redis</text>
  <text x="470" y="282" text-anchor="end" class="legend-value">10.0%</text>
  <rect x="30" y="295" width="15" height="15" fill="#dc382d"/>
  <text x="52" y="307" class="legend-text">SQLite</text>
  <text x="470" y="307" text-anchor="end" class="legend-value">8.0%</text>
</svg>