<svg xmlns="http://www.w3.org/2000/svg" width="500" height="500" viewBox="0 0 500 500">
  <style>
    .chart-title { font: bold 18px Arial; fill: #333; }
    .legend-text { font: 12px Arial; fill: #666; }
    .legend-value { font: 12px Arial; fill: #333; }
    .slice { transition: opacity 0.2s; }
    .slice:hover { opacity: 0.8; }
  </style>

  <text x="250" y="30" text-anchor="middle" class="chart-title">Database Distribution</text>
  <path class="slice" d="M 250 80 A 100 100 0 1 1 231.62504821834298 278.2973099683902 L 238.9750289310058 238.9783859810341 A 60 60 0 1 0 250 120 Z" fill="#4db33d"/>
  <path class="slice" d="M 231.62504821834298 278.2973099683902 A 100 100 0 0 1 155.68455655287227 146.76452005203396 L 193.41073393172337 160.05871203122038 A 60 60 0 0 0 238.9750289310058 238.9783859810341 Z" fill="#00758f"/>
  <path class="slice" d="M 155.68455655287227 146.76452005203396 A 100 100 0 0 1 192.22261685917493 98.3803087643778 L 215.33357011550498 131.02818525862668 A 60 60 0 0 0 193.41073393172337 160.05871203122038 Z" fill="#336791"/>
  <path class="slice" d="M 192.22261685917493 98.3803087643778 A 100 100 0 0 1 250.00000000000006 80 L 250.00000000000003 120 A 60 60 0 0 0 215.33357011550498 131.02818525862668 Z" fill="#dc382d"/>
  <circle cx="250" cy="180" r="60" fill="white"/>
  <rect x="30" y="220" width="15" height="15" fill="#4db33d"/>
  <text x="52" y="232" class="legend-text">MySQL</text>
  <text x="470" y="232" text-anchor="end" class="legend-value">52.9%</text>
  <rect x="30" y="245" width="15" height="15" fill="#00758f"/>
  <text x="52" y="257" class="legend-text">MongoDB</text>
  <text x="470" y="257" text-anchor="end" class="legend-value">27.5%</text>
  <rect x="30" y="270" width="15" height="15" fill="#336791"/>
  <text x="52" y="282" class="legend-text">SQLite</text>
  <text x="470" y="282" text-anchor="end" class="legend-value">9.8%</text>
  <rect x="30" y="295" width="15" height="15" fill="#dc382d"/>
  <text x="52" y="307" class="legend-text">Redis</text>
  <text x="470" y="307" text-anchor="end" class="legend-value">9.8%</text>
</svg>