<svg xmlns="http://www.w3.org/2000/svg" width="500" height="500" viewBox="0 0 500 500">
  <style>
    .chart-title { font: bold 18px Arial; fill: #333; }
    .legend-text { font: 12px Arial; fill: #666; }
    .legend-value { font: 12px Arial; fill: #333; }
    .slice { transition: opacity 0.2s; }
    .slice:hover { opacity: 0.8; }
  </style>

  <text x="250" y="30" text-anchor="middle" class="chart-title">Language Distribution</text>
  <path class="slice" d="M 250 80 A 100 100 0 0 1 282.6981662399789 274.5030683340108 L 269.6188997439873 236.70184100040646 A 60 60 0 0 0 250 120 Z" fill="#3178c6"/>
  <path class="slice" d="M 282.6981662399789 274.5030683340108 A 100 100 0 0 1 164.0379026762177 231.0932267888473 L 198.4227416057306 210.65593607330837 A 60 60 0 0 0 269.6188997439873 236.70184100040646 Z" fill="#f1e05a"/>
  <path class="slice" d="M 164.0379026762177 231.0932267888473 A 100 100 0 0 1 151.2194151581209 195.5690737777277 L 190.73164909487255 189.3414442666366 A 60 60 0 0 0 198.4227416057306 210.65593607330837 Z" fill="#e34c26"/>
  <path class="slice" d="M 151.2194151581209 195.5690737777277 A 100 100 0 0 1 151.00740785462375 165.84137364222101 L 190.60444471277424 171.5048241853326 A 60 60 0 0 0 190.73164909487255 189.3414442666366 Z" fill="#563d7c"/>
  <path class="slice" d="M 151.00740785462375 165.84137364222101 A 100 100 0 0 1 158.64676107289608 139.32340061500392 L 195.18805664373764 155.59404036900236 A 60 60 0 0 0 190.60444471277424 171.5048241853326 Z" fill="#b07219"/>
  <path class="slice" d="M 158.64676107289608 139.32340061500392 A 100 100 0 0 1 172.05593840549471 117.35238821669282 L 203.23356304329684 142.41143293001568 A 60 60 0 0 0 195.18805664373764 155.59404036900236 Z" fill="#00ADD8"/>
  <path class="slice" d="M 172.05593840549471 117.35238821669282 A 100 100 0 0 1 190.09684313659852 99.92745915234913 L 214.0581058819591 131.9564754914095 A 60 60 0 0 0 203.23356304329684 142.41143293001568 Z" fill="#89e051"/>
  <path class="slice" d="M 190.09684313659852 99.92745915234913 A 100 100 0 0 1 205.55217852155062 90.42103390962869 L 223.33130711293038 126.25262034577722 A 60 60 0 0 0 214.0581058819591 131.9564754914095 Z" fill="#f34b7d"/>
  <circle cx="250" cy="180" r="60" fill="white"/>
  <rect x="30" y="220" width="15" height="15" fill="#3178c6"/>
  <text x="52" y="232" class="legend-text">PHP</text>
  <text x="470" y="232" text-anchor="end" class="legend-value">44.7%</text>
  <rect x="30" y="245" width="15" height="15" fill="#f1e05a"/>
  <text x="52" y="257" class="legend-text">JavaScript</text>
  <text x="470" y="257" text-anchor="end" class="legend-value">21.8%</text>
  <rect x="30" y="270" width="15" height="15" fill="#e34c26"/>
  <text x="52" y="282" class="legend-text">C#</text>
  <text x="470" y="282" text-anchor="end" class="legend-value">6.0%</text>
  <rect x="30" y="295" width="15" height="15" fill="#563d7c"/>
  <text x="52" y="307" class="legend-text">HTML</text>
  <text x="470" y="307" text-anchor="end" class="legend-value">4.7%</text>
  <rect x="30" y="320" width="15" height="15" fill="#b07219"/>
  <text x="52" y="332" class="legend-text">Python</text>
  <text x="470" y="332" text-anchor="end" class="legend-value">4.4%</text>
  <rect x="30" y="345" width="15" height="15" fill="#00ADD8"/>
  <text x="52" y="357" class="legend-text">CSS</text>
  <text x="470" y="357" text-anchor="end" class="legend-value">4.1%</text>
  <rect x="30" y="370" width="15" height="15" fill="#89e051"/>
  <text x="52" y="382" class="legend-text">TypeScript</text>
  <text x="470" y="382" text-anchor="end" class="legend-value">4.0%</text>
  <rect x="30" y="395" width="15" height="15" fill="#f34b7d"/>
  <text x="52" y="407" class="legend-text">Blade</text>
  <text x="470" y="407" text-anchor="end" class="legend-value">2.9%</text>
</svg>