<svg xmlns="http://www.w3.org/2000/svg" width="500" height="500" viewBox="0 0 500 500">
  <style>
    .chart-title { font: bold 18px Arial; fill: #333; }
    .legend-text { font: 12px Arial; fill: #666; }
    .legend-value { font: 12px Arial; fill: #333; }
    .slice { transition: opacity 0.2s; }
    .slice:hover { opacity: 0.8; }
  </style>

  <text x="250" y="30" text-anchor="middle" class="chart-title">Language Distribution</text>
  <path class="slice" d="M 250 80 A 100 100 0 0 1 284.8978148922393 273.71308614994496 L 270.9386889353436 236.22785168996697 A 60 60 0 0 0 250 120 Z" fill="#3178c6"/>
  <path class="slice" d="M 284.8978148922393 273.71308614994496 A 100 100 0 0 1 165.65045279588642 233.713628498371 L 199.39027167753187 212.22817709902262 A 60 60 0 0 0 270.9386889353436 236.22785168996697 Z" fill="#f1e05a"/>
  <path class="slice" d="M 165.65045279588642 233.713628498371 A 100 100 0 0 1 151.80484110092937 198.9132432117358 L 191.08290466055763 191.34794592704148 A 60 60 0 0 0 199.39027167753187 212.22817709902262 Z" fill="#e34c26"/>
  <path class="slice" d="M 151.80484110092937 198.9132432117358 A 100 100 0 0 1 150.55309308407683 169.4970144789345 L 190.3318558504461 173.6982086873607 A 60 60 0 0 0 191.08290466055763 191.34794592704148 Z" fill="#563d7c"/>
  <path class="slice" d="M 150.55309308407683 169.4970144789345 A 100 100 0 0 1 157.1277717165661 142.92238932091587 L 194.27666302993964 157.75343359254953 A 60 60 0 0 0 190.3318558504461 173.6982086873607 Z" fill="#b07219"/>
  <path class="slice" d="M 157.1277717165661 142.92238932091587 A 100 100 0 0 1 169.5400716324651 120.61818521558007 L 201.72404297947907 144.37091112934803 A 60 60 0 0 0 194.27666302993964 157.75343359254953 Z" fill="#00ADD8"/>
  <path class="slice" d="M 169.5400716324651 120.61818521558007 A 100 100 0 0 1 186.7997593640985 102.50335759812467 L 212.07985561845908 133.5020145588748 A 60 60 0 0 0 201.72404297947907 144.37091112934803 Z" fill="#89e051"/>
  <path class="slice" d="M 186.7997593640985 102.50335759812467 A 100 100 0 0 1 201.71159602263037 92.4315693796083 L 221.02695761357825 127.45894162776497 A 60 60 0 0 0 212.07985561845908 133.5020145588748 Z" fill="#f34b7d"/>
  <circle cx="250" cy="180" r="60" fill="white"/>
  <rect x="30" y="220" width="15" height="15" fill="#3178c6"/>
  <text x="52" y="232" class="legend-text">PHP</text>
  <text x="470" y="232" text-anchor="end" class="legend-value">44.3%</text>
  <rect x="30" y="245" width="15" height="15" fill="#f1e05a"/>
  <text x="52" y="257" class="legend-text">JavaScript</text>
  <text x="470" y="257" text-anchor="end" class="legend-value">21.6%</text>
  <rect x="30" y="270" width="15" height="15" fill="#e34c26"/>
  <text x="52" y="282" class="legend-text">C#</text>
  <text x="470" y="282" text-anchor="end" class="legend-value">6.0%</text>
  <rect x="30" y="295" width="15" height="15" fill="#563d7c"/>
  <text x="52" y="307" class="legend-text">HTML</text>
  <text x="470" y="307" text-anchor="end" class="legend-value">4.7%</text>
  <rect x="30" y="320" width="15" height="15" fill="#b07219"/>
  <text x="52" y="332" class="legend-text">Python</text>
  <text x="470" y="332" text-anchor="end" class="legend-value">4.4%</text>
  <rect x="30" y="345" width="15" height="15" fill="#00ADD8"/>
  <text x="52" y="357" class="legend-text">CSS</text>
  <text x="470" y="357" text-anchor="end" class="legend-value">4.1%</text>
  <rect x="30" y="370" width="15" height="15" fill="#89e051"/>
  <text x="52" y="382" class="legend-text">TypeScript</text>
  <text x="470" y="382" text-anchor="end" class="legend-value">4.0%</text>
  <rect x="30" y="395" width="15" height="15" fill="#f34b7d"/>
  <text x="52" y="407" class="legend-text">Blade</text>
  <text x="470" y="407" text-anchor="end" class="legend-value">2.9%</text>
</svg>