<svg xmlns="http://www.w3.org/2000/svg" width="500" height="500" viewBox="0 0 500 500">
  <style>
    .chart-title { font: bold 18px Arial; fill: #333; }
    .legend-text { font: 12px Arial; fill: #666; }
    .legend-value { font: 12px Arial; fill: #333; }
    .slice { transition: opacity 0.2s; }
    .slice:hover { opacity: 0.8; }
  </style>

  <text x="250" y="30" text-anchor="middle" class="chart-title">Language Distribution</text>
  <path class="slice" d="M 250 80 A 100 100 0 0 1 284.3825722269219 273.9033477947432 L 270.6295433361531 236.34200867684592 A 60 60 0 0 0 250 120 Z" fill="#3178c6"/>
  <path class="slice" d="M 284.3825722269219 273.9033477947432 A 100 100 0 0 1 165.2468338518632 233.07448377390324 L 199.1481003111179 211.84469026434195 A 60 60 0 0 0 270.6295433361531 236.34200867684592 Z" fill="#f1e05a"/>
  <path class="slice" d="M 165.2468338518632 233.07448377390324 A 100 100 0 0 1 151.65118497938454 198.0972534944053 L 190.99071098763073 190.8583520966432 A 60 60 0 0 0 199.1481003111179 211.84469026434195 Z" fill="#e34c26"/>
  <path class="slice" d="M 151.65118497938454 198.0972534944053 A 100 100 0 0 1 150.6503585701674 168.61365959740834 L 190.39021514210043 173.168195758445 A 60 60 0 0 0 190.99071098763073 190.8583520966432 Z" fill="#563d7c"/>
  <path class="slice" d="M 150.6503585701674 168.61365959740834 A 100 100 0 0 1 157.48151325781623 142.04832532105644 L 194.48890795468975 157.22899519263385 A 60 60 0 0 0 190.39021514210043 173.168195758445 Z" fill="#b07219"/>
  <path class="slice" d="M 157.48151325781623 142.04832532105644 A 100 100 0 0 1 170.1378770680981 119.81660261492551 L 202.08272624085888 143.8899615689553 A 60 60 0 0 0 194.48890795468975 157.22899519263385 Z" fill="#00ADD8"/>
  <path class="slice" d="M 170.1378770680981 119.81660261492551 A 100 100 0 0 1 187.65517154289606 101.81354104031644 L 212.59310292573764 133.08812462418987 A 60 60 0 0 0 202.08272624085888 143.8899615689553 Z" fill="#89e051"/>
  <path class="slice" d="M 187.65517154289606 101.81354104031644 A 100 100 0 0 1 202.70813892908052 91.88938840043811 L 221.6248833574483 127.13363304026286 A 60 60 0 0 0 212.59310292573764 133.08812462418987 Z" fill="#f34b7d"/>
  <circle cx="250" cy="180" r="60" fill="white"/>
  <rect x="30" y="220" width="15" height="15" fill="#3178c6"/>
  <text x="52" y="232" class="legend-text">PHP</text>
  <text x="470" y="232" text-anchor="end" class="legend-value">44.4%</text>
  <rect x="30" y="245" width="15" height="15" fill="#f1e05a"/>
  <text x="52" y="257" class="legend-text">JavaScript</text>
  <text x="470" y="257" text-anchor="end" class="legend-value">21.7%</text>
  <rect x="30" y="270" width="15" height="15" fill="#e34c26"/>
  <text x="52" y="282" class="legend-text">C#</text>
  <text x="470" y="282" text-anchor="end" class="legend-value">6.0%</text>
  <rect x="30" y="295" width="15" height="15" fill="#563d7c"/>
  <text x="52" y="307" class="legend-text">HTML</text>
  <text x="470" y="307" text-anchor="end" class="legend-value">4.7%</text>
  <rect x="30" y="320" width="15" height="15" fill="#b07219"/>
  <text x="52" y="332" class="legend-text">Python</text>
  <text x="470" y="332" text-anchor="end" class="legend-value">4.4%</text>
  <rect x="30" y="345" width="15" height="15" fill="#00ADD8"/>
  <text x="52" y="357" class="legend-text">CSS</text>
  <text x="470" y="357" text-anchor="end" class="legend-value">4.1%</text>
  <rect x="30" y="370" width="15" height="15" fill="#89e051"/>
  <text x="52" y="382" class="legend-text">TypeScript</text>
  <text x="470" y="382" text-anchor="end" class="legend-value">4.0%</text>
  <rect x="30" y="395" width="15" height="15" fill="#f34b7d"/>
  <text x="52" y="407" class="legend-text">Blade</text>
  <text x="470" y="407" text-anchor="end" class="legend-value">2.9%</text>
</svg>