<svg xmlns="http://www.w3.org/2000/svg" width="500" height="500" viewBox="0 0 500 500">
  <style>
    .chart-title { font: bold 18px Arial; fill: #333; }
    .legend-text { font: 12px Arial; fill: #666; }
    .legend-value { font: 12px Arial; fill: #333; }
    .slice { transition: opacity 0.2s; }
    .slice:hover { opacity: 0.8; }
  </style>

  <text x="250" y="30" text-anchor="middle" class="chart-title">Language Distribution</text>
  <path class="slice" d="M 250 80 A 100 100 0 0 1 282.71943935354847 274.4957051319766 L 269.6316636121291 236.69742307918594 A 60 60 0 0 0 250 120 Z" fill="#3178c6"/>
  <path class="slice" d="M 282.71943935354847 274.4957051319766 A 100 100 0 0 1 164.02838675735453 231.07721328006244 L 198.41703205441272 210.64632796803747 A 60 60 0 0 0 269.6316636121291 236.69742307918594 Z" fill="#f1e05a"/>
  <path class="slice" d="M 164.02838675735453 231.07721328006244 A 100 100 0 0 1 151.21730034142317 195.555650039886 L 190.7303802048539 189.3333900239316 A 60 60 0 0 0 198.41703205441272 210.64632796803747 Z" fill="#e34c26"/>
  <path class="slice" d="M 151.21730034142317 195.555650039886 A 100 100 0 0 1 151.0087721424128 165.8318382544787 L 190.60526328544768 171.49910295268722 A 60 60 0 0 0 190.7303802048539 189.3333900239316 Z" fill="#563d7c"/>
  <path class="slice" d="M 151.0087721424128 165.8318382544787 A 100 100 0 0 1 158.6516027878726 139.31252862642606 L 195.19096167272357 155.58751717585565 A 60 60 0 0 0 190.60526328544768 171.49910295268722 Z" fill="#b07219"/>
  <path class="slice" d="M 158.6516027878726 139.31252862642606 A 100 100 0 0 1 172.06125035614252 117.345779839247 L 203.23675021368553 142.4074679035482 A 60 60 0 0 0 195.19096167272357 155.58751717585565 Z" fill="#00ADD8"/>
  <path class="slice" d="M 172.06125035614252 117.345779839247 A 100 100 0 0 1 190.10096204647328 99.92437791536075 L 214.06057722788398 131.95462674921646 A 60 60 0 0 0 203.23675021368553 142.4074679035482 Z" fill="#89e051"/>
  <path class="slice" d="M 190.10096204647328 99.92437791536075 A 100 100 0 0 1 205.5546280250378 90.41981854222863 L 223.33277681502267 126.25189112533718 A 60 60 0 0 0 214.06057722788398 131.95462674921646 Z" fill="#f34b7d"/>
  <circle cx="250" cy="180" r="60" fill="white"/>
  <rect x="30" y="220" width="15" height="15" fill="#3178c6"/>
  <text x="52" y="232" class="legend-text">PHP</text>
  <text x="470" y="232" text-anchor="end" class="legend-value">44.7%</text>
  <rect x="30" y="245" width="15" height="15" fill="#f1e05a"/>
  <text x="52" y="257" class="legend-text">JavaScript</text>
  <text x="470" y="257" text-anchor="end" class="legend-value">21.8%</text>
  <rect x="30" y="270" width="15" height="15" fill="#e34c26"/>
  <text x="52" y="282" class="legend-text">C#</text>
  <text x="470" y="282" text-anchor="end" class="legend-value">6.0%</text>
  <rect x="30" y="295" width="15" height="15" fill="#563d7c"/>
  <text x="52" y="307" class="legend-text">HTML</text>
  <text x="470" y="307" text-anchor="end" class="legend-value">4.7%</text>
  <rect x="30" y="320" width="15" height="15" fill="#b07219"/>
  <text x="52" y="332" class="legend-text">Python</text>
  <text x="470" y="332" text-anchor="end" class="legend-value">4.4%</text>
  <rect x="30" y="345" width="15" height="15" fill="#00ADD8"/>
  <text x="52" y="357" class="legend-text">CSS</text>
  <text x="470" y="357" text-anchor="end" class="legend-value">4.1%</text>
  <rect x="30" y="370" width="15" height="15" fill="#89e051"/>
  <text x="52" y="382" class="legend-text">TypeScript</text>
  <text x="470" y="382" text-anchor="end" class="legend-value">4.0%</text>
  <rect x="30" y="395" width="15" height="15" fill="#f34b7d"/>
  <text x="52" y="407" class="legend-text">Blade</text>
  <text x="470" y="407" text-anchor="end" class="legend-value">2.9%</text>
</svg>