<svg xmlns="http://www.w3.org/2000/svg" width="500" height="500" viewBox="0 0 500 500">
  <style>
    .chart-title { font: bold 18px Arial; fill: #333; }
    .legend-text { font: 12px Arial; fill: #666; }
    .legend-value { font: 12px Arial; fill: #333; }
    .slice { transition: opacity 0.2s; }
    .slice:hover { opacity: 0.8; }
  </style>

  <text x="250" y="30" text-anchor="middle" class="chart-title">Language Distribution</text>
  <path class="slice" d="M 250 80 A 100 100 0 0 1 282.4563726622654 274.586383129963 L 269.4738235973592 236.7518298779778 A 60 60 0 0 0 250 120 Z" fill="#3178c6"/>
  <path class="slice" d="M 282.4563726622654 274.586383129963 A 100 100 0 0 1 163.86614068682334 230.8031325787878 L 198.319684412094 210.48187954727268 A 60 60 0 0 0 269.4738235973592 236.7518298779778 Z" fill="#f1e05a"/>
  <path class="slice" d="M 163.86614068682334 230.8031325787878 A 100 100 0 0 1 151.16213208150907 195.20117973470957 L 190.69727924890543 189.12070784082573 A 60 60 0 0 0 198.319684412094 210.48187954727268 Z" fill="#e34c26"/>
  <path class="slice" d="M 151.16213208150907 195.20117973470957 A 100 100 0 0 1 151.0648296659845 165.44554807011485 L 190.6388977995907 171.2673288420689 A 60 60 0 0 0 190.69727924890543 189.12070784082573 Z" fill="#563d7c"/>
  <path class="slice" d="M 151.0648296659845 165.44554807011485 A 100 100 0 0 1 158.820713905026 138.93495662718863 L 195.2924283430156 155.36097397631318 A 60 60 0 0 0 190.6388977995907 171.2673288420689 Z" fill="#b07219"/>
  <path class="slice" d="M 158.820713905026 138.93495662718863 A 100 100 0 0 1 172.33692432369395 117.00439160944343 L 203.40215459421637 142.20263496566605 A 60 60 0 0 0 195.2924283430156 155.36097397631318 Z" fill="#00ADD8"/>
  <path class="slice" d="M 172.33692432369395 117.00439160944343 A 100 100 0 0 1 190.17267271188985 99.87078616658373 L 214.1036036271339 131.92247169995022 A 60 60 0 0 0 203.40215459421637 142.20263496566605 Z" fill="#89e051"/>
  <path class="slice" d="M 190.17267271188985 99.87078616658373 A 100 100 0 0 1 205.65208640325483 90.37153041797698 L 223.3912518419529 126.2229182507862 A 60 60 0 0 0 214.1036036271339 131.92247169995022 Z" fill="#f34b7d"/>
  <circle cx="250" cy="180" r="60" fill="white"/>
  <rect x="30" y="220" width="15" height="15" fill="#3178c6"/>
  <text x="52" y="232" class="legend-text">PHP</text>
  <text x="470" y="232" text-anchor="end" class="legend-value">44.7%</text>
  <rect x="30" y="245" width="15" height="15" fill="#f1e05a"/>
  <text x="52" y="257" class="legend-text">JavaScript</text>
  <text x="470" y="257" text-anchor="end" class="legend-value">21.8%</text>
  <rect x="30" y="270" width="15" height="15" fill="#e34c26"/>
  <text x="52" y="282" class="legend-text">C#</text>
  <text x="470" y="282" text-anchor="end" class="legend-value">6.1%</text>
  <rect x="30" y="295" width="15" height="15" fill="#563d7c"/>
  <text x="52" y="307" class="legend-text">HTML</text>
  <text x="470" y="307" text-anchor="end" class="legend-value">4.8%</text>
  <rect x="30" y="320" width="15" height="15" fill="#b07219"/>
  <text x="52" y="332" class="legend-text">Python</text>
  <text x="470" y="332" text-anchor="end" class="legend-value">4.4%</text>
  <rect x="30" y="345" width="15" height="15" fill="#00ADD8"/>
  <text x="52" y="357" class="legend-text">CSS</text>
  <text x="470" y="357" text-anchor="end" class="legend-value">4.1%</text>
  <rect x="30" y="370" width="15" height="15" fill="#89e051"/>
  <text x="52" y="382" class="legend-text">TypeScript</text>
  <text x="470" y="382" text-anchor="end" class="legend-value">3.9%</text>
  <rect x="30" y="395" width="15" height="15" fill="#f34b7d"/>
  <text x="52" y="407" class="legend-text">Blade</text>
  <text x="470" y="407" text-anchor="end" class="legend-value">2.9%</text>
</svg>