<svg xmlns="http://www.w3.org/2000/svg" width="500" height="500" viewBox="0 0 500 500">
  <style>
    .chart-title { font: bold 18px Arial; fill: #333; }
    .legend-text { font: 12px Arial; fill: #666; }
    .legend-value { font: 12px Arial; fill: #333; }
    .slice { transition: opacity 0.2s; }
    .slice:hover { opacity: 0.8; }
  </style>

  <text x="250" y="30" text-anchor="middle" class="chart-title">Language Distribution</text>
  <path class="slice" d="M 250 80 A 100 100 0 1 1 231.69269292765915 278.30993087048233 L 239.01561575659548 238.98595852228942 A 60 60 0 1 0 250 120 Z" fill="#3178c6"/>
  <path class="slice" d="M 231.69269292765915 278.30993087048233 A 100 100 0 0 1 153.95648220262316 207.85036245913074 L 192.3738893215739 196.71021747547843 A 60 60 0 0 0 239.01561575659548 238.98595852228942 Z" fill="#f1e05a"/>
  <path class="slice" d="M 153.95648220262316 207.85036245913074 A 100 100 0 0 1 150.18221950541977 173.96587229702595 L 190.10933170325185 176.37952337821557 A 60 60 0 0 0 192.3738893215739 196.71021747547843 Z" fill="#e34c26"/>
  <path class="slice" d="M 150.18221950541977 173.96587229702595 A 100 100 0 0 1 156.48089361670247 144.58564215929533 L 193.8885361700215 158.75138529557722 A 60 60 0 0 0 190.10933170325185 176.37952337821557 Z" fill="#563d7c"/>
  <path class="slice" d="M 156.48089361670247 144.58564215929533 A 100 100 0 0 1 171.16685013673234 118.47492801600649 L 202.7001100820394 143.0849568096039 A 60 60 0 0 0 193.8885361700215 158.75138529557722 Z" fill="#b07219"/>
  <path class="slice" d="M 171.16685013673234 118.47492801600649 A 100 100 0 0 1 186.19364602410462 103.00162863863457 L 211.71618761446277 133.80097718318075 A 60 60 0 0 0 202.7001100820394 143.0849568096039 Z" fill="#00ADD8"/>
  <path class="slice" d="M 186.19364602410462 103.00162863863457 A 100 100 0 0 1 203.5595396525301 91.43768497427884 L 222.13572379151805 126.86261098456731 A 60 60 0 0 0 211.71618761446277 133.80097718318075 Z" fill="#89e051"/>
  <path class="slice" d="M 203.5595396525301 91.43768497427884 A 100 100 0 0 1 215.1704569749172 86.26151840005139 L 229.10227418495032 123.75691104003083 A 60 60 0 0 0 222.13572379151805 126.86261098456731 Z" fill="#f34b7d"/>
  <circle cx="250" cy="180" r="60" fill="white"/>
  <rect x="30" y="220" width="15" height="15" fill="#3178c6"/>
  <text x="52" y="232" class="legend-text">PHP</text>
  <text x="470" y="232" text-anchor="end" class="legend-value">52.9%</text>
  <rect x="30" y="245" width="15" height="15" fill="#f1e05a"/>
  <text x="52" y="257" class="legend-text">JavaScript</text>
  <text x="470" y="257" text-anchor="end" class="legend-value">17.6%</text>
  <rect x="30" y="270" width="15" height="15" fill="#e34c26"/>
  <text x="52" y="282" class="legend-text">Python</text>
  <text x="470" y="282" text-anchor="end" class="legend-value">5.5%</text>
  <rect x="30" y="295" width="15" height="15" fill="#563d7c"/>
  <text x="52" y="307" class="legend-text">HTML</text>
  <text x="470" y="307" text-anchor="end" class="legend-value">4.8%</text>
  <rect x="30" y="320" width="15" height="15" fill="#b07219"/>
  <text x="52" y="332" class="legend-text">CSS</text>
  <text x="470" y="332" text-anchor="end" class="legend-value">4.8%</text>
  <rect x="30" y="345" width="15" height="15" fill="#00ADD8"/>
  <text x="52" y="357" class="legend-text">TypeScript</text>
  <text x="470" y="357" text-anchor="end" class="legend-value">3.4%</text>
  <rect x="30" y="370" width="15" height="15" fill="#89e051"/>
  <text x="52" y="382" class="legend-text">Blade</text>
  <text x="470" y="382" text-anchor="end" class="legend-value">3.3%</text>
  <rect x="30" y="395" width="15" height="15" fill="#f34b7d"/>
  <text x="52" y="407" class="legend-text">Vue</text>
  <text x="470" y="407" text-anchor="end" class="legend-value">2.0%</text>
</svg>