<svg xmlns="http://www.w3.org/2000/svg" width="500" height="500" viewBox="0 0 500 500">
  <style>
    .chart-title { font: bold 18px Arial; fill: #333; }
    .legend-text { font: 12px Arial; fill: #666; }
    .legend-value { font: 12px Arial; fill: #333; }
    .slice { transition: opacity 0.2s; }
    .slice:hover { opacity: 0.8; }
  </style>

  <text x="250" y="30" text-anchor="middle" class="chart-title">Language Distribution</text>
  <path class="slice" d="M 250 80 A 100 100 0 1 1 231.73683611028537 278.3181409747836 L 239.04210166617122 238.99088458487017 A 60 60 0 1 0 250 120 Z" fill="#3178c6"/>
  <path class="slice" d="M 231.73683611028537 278.3181409747836 A 100 100 0 0 1 153.973157223059 207.90780296427235 L 192.38389433383537 196.7446817785634 A 60 60 0 0 0 239.04210166617122 238.99088458487017 Z" fill="#f1e05a"/>
  <path class="slice" d="M 153.973157223059 207.90780296427235 A 100 100 0 0 1 150.17835197291456 174.03019387612375 L 190.10701118374874 176.41811632567425 A 60 60 0 0 0 192.38389433383537 196.7446817785634 Z" fill="#e34c26"/>
  <path class="slice" d="M 150.17835197291456 174.03019387612375 A 100 100 0 0 1 156.45665315962168 144.64972048341508 L 193.873991895773 158.78983229004905 A 60 60 0 0 0 190.10701118374874 176.41811632567425 Z" fill="#563d7c"/>
  <path class="slice" d="M 156.45665315962168 144.64972048341508 A 100 100 0 0 1 171.12222210925353 118.53215348641154 L 202.67333326555212 143.11929209184694 A 60 60 0 0 0 193.873991895773 158.78983229004905 Z" fill="#b07219"/>
  <path class="slice" d="M 171.12222210925353 118.53215348641154 A 100 100 0 0 1 186.1355397466779 103.04981665680165 L 211.68132384800674 133.829889994081 A 60 60 0 0 0 202.67333326555212 143.11929209184694 Z" fill="#00ADD8"/>
  <path class="slice" d="M 186.1355397466779 103.04981665680165 A 100 100 0 0 1 203.4902007663802 91.47407964190161 L 222.0941204598281 126.88444778514096 A 60 60 0 0 0 211.68132384800674 133.829889994081 Z" fill="#89e051"/>
  <path class="slice" d="M 203.4902007663802 91.47407964190161 A 100 100 0 0 1 215.09545155965216 86.28942163141126 L 229.0572709357913 123.77365297884675 A 60 60 0 0 0 222.0941204598281 126.88444778514096 Z" fill="#f34b7d"/>
  <circle cx="250" cy="180" r="60" fill="white"/>
  <rect x="30" y="220" width="15" height="15" fill="#3178c6"/>
  <text x="52" y="232" class="legend-text">PHP</text>
  <text x="470" y="232" text-anchor="end" class="legend-value">52.9%</text>
  <rect x="30" y="245" width="15" height="15" fill="#f1e05a"/>
  <text x="52" y="257" class="legend-text">JavaScript</text>
  <text x="470" y="257" text-anchor="end" class="legend-value">17.6%</text>
  <rect x="30" y="270" width="15" height="15" fill="#e34c26"/>
  <text x="52" y="282" class="legend-text">Python</text>
  <text x="470" y="282" text-anchor="end" class="legend-value">5.5%</text>
  <rect x="30" y="295" width="15" height="15" fill="#563d7c"/>
  <text x="52" y="307" class="legend-text">HTML</text>
  <text x="470" y="307" text-anchor="end" class="legend-value">4.8%</text>
  <rect x="30" y="320" width="15" height="15" fill="#b07219"/>
  <text x="52" y="332" class="legend-text">CSS</text>
  <text x="470" y="332" text-anchor="end" class="legend-value">4.8%</text>
  <rect x="30" y="345" width="15" height="15" fill="#00ADD8"/>
  <text x="52" y="357" class="legend-text">TypeScript</text>
  <text x="470" y="357" text-anchor="end" class="legend-value">3.4%</text>
  <rect x="30" y="370" width="15" height="15" fill="#89e051"/>
  <text x="52" y="382" class="legend-text">Blade</text>
  <text x="470" y="382" text-anchor="end" class="legend-value">3.3%</text>
  <rect x="30" y="395" width="15" height="15" fill="#f34b7d"/>
  <text x="52" y="407" class="legend-text">Vue</text>
  <text x="470" y="407" text-anchor="end" class="legend-value">2.0%</text>
</svg>