<svg xmlns="http://www.w3.org/2000/svg" width="500" height="500" viewBox="0 0 500 500">
  <style>
    .chart-title { font: bold 18px Arial; fill: #333; }
    .legend-text { font: 12px Arial; fill: #666; }
    .legend-value { font: 12px Arial; fill: #333; }
    .slice { transition: opacity 0.2s; }
    .slice:hover { opacity: 0.8; }
  </style>

  <text x="250" y="30" text-anchor="middle" class="chart-title">Language Distribution</text>
  <path class="slice" d="M 250 80 A 100 100 0 0 1 282.5903465646667 274.5403052184354 L 269.5542079388 236.72418313106124 A 60 60 0 0 0 250 120 Z" fill="#3178c6"/>
  <path class="slice" d="M 282.5903465646667 274.5403052184354 A 100 100 0 0 1 163.90038478431734 230.8611468580034 L 198.3402308705904 210.51668811480204 A 60 60 0 0 0 269.5542079388 236.72418313106124 Z" fill="#f1e05a"/>
  <path class="slice" d="M 163.90038478431734 230.8611468580034 A 100 100 0 0 1 151.16921106088446 195.24713604818947 L 190.70152663653067 189.14828162891368 A 60 60 0 0 0 198.3402308705904 210.51668811480204 Z" fill="#e34c26"/>
  <path class="slice" d="M 151.16921106088446 195.24713604818947 A 100 100 0 0 1 151.06045195617253 165.4753370819437 L 190.63627117370353 171.28520224916622 A 60 60 0 0 0 190.70152663653067 189.14828162891368 Z" fill="#563d7c"/>
  <path class="slice" d="M 151.06045195617253 165.4753370819437 A 100 100 0 0 1 158.81459505498225 138.94854539711008 L 195.28875703298934 155.36912723826603 A 60 60 0 0 0 190.63627117370353 171.28520224916622 Z" fill="#b07219"/>
  <path class="slice" d="M 158.81459505498225 138.94854539711008 A 100 100 0 0 1 172.33629705433208 117.00516493578976 L 203.40177823259924 142.20309896147387 A 60 60 0 0 0 195.28875703298934 155.36912723826603 Z" fill="#00ADD8"/>
  <path class="slice" d="M 172.33629705433208 117.00516493578976 A 100 100 0 0 1 190.18277814471634 99.86324208257628 L 214.1096668868298 131.91794524954577 A 60 60 0 0 0 203.40177823259924 142.20309896147387 Z" fill="#89e051"/>
  <path class="slice" d="M 190.18277814471634 99.86324208257628 A 100 100 0 0 1 205.62948904140424 90.38271507530963 L 223.37769342484256 126.22962904518579 A 60 60 0 0 0 214.1096668868298 131.91794524954577 Z" fill="#f34b7d"/>
  <circle cx="250" cy="180" r="60" fill="white"/>
  <rect x="30" y="220" width="15" height="15" fill="#3178c6"/>
  <text x="52" y="232" class="legend-text">PHP</text>
  <text x="470" y="232" text-anchor="end" class="legend-value">44.7%</text>
  <rect x="30" y="245" width="15" height="15" fill="#f1e05a"/>
  <text x="52" y="257" class="legend-text">JavaScript</text>
  <text x="470" y="257" text-anchor="end" class="legend-value">21.8%</text>
  <rect x="30" y="270" width="15" height="15" fill="#e34c26"/>
  <text x="52" y="282" class="legend-text">C#</text>
  <text x="470" y="282" text-anchor="end" class="legend-value">6.1%</text>
  <rect x="30" y="295" width="15" height="15" fill="#563d7c"/>
  <text x="52" y="307" class="legend-text">HTML</text>
  <text x="470" y="307" text-anchor="end" class="legend-value">4.8%</text>
  <rect x="30" y="320" width="15" height="15" fill="#b07219"/>
  <text x="52" y="332" class="legend-text">Python</text>
  <text x="470" y="332" text-anchor="end" class="legend-value">4.4%</text>
  <rect x="30" y="345" width="15" height="15" fill="#00ADD8"/>
  <text x="52" y="357" class="legend-text">CSS</text>
  <text x="470" y="357" text-anchor="end" class="legend-value">4.1%</text>
  <rect x="30" y="370" width="15" height="15" fill="#89e051"/>
  <text x="52" y="382" class="legend-text">TypeScript</text>
  <text x="470" y="382" text-anchor="end" class="legend-value">3.9%</text>
  <rect x="30" y="395" width="15" height="15" fill="#f34b7d"/>
  <text x="52" y="407" class="legend-text">Blade</text>
  <text x="470" y="407" text-anchor="end" class="legend-value">2.9%</text>
</svg>