<svg xmlns="http://www.w3.org/2000/svg" width="500" height="500" viewBox="0 0 500 500">
  <style>
    .chart-title { font: bold 18px Arial; fill: #333; }
    .legend-text { font: 12px Arial; fill: #666; }
    .legend-value { font: 12px Arial; fill: #333; }
    .slice { transition: opacity 0.2s; }
    .slice:hover { opacity: 0.8; }
  </style>

  <text x="250" y="30" text-anchor="middle" class="chart-title">Language Distribution</text>
  <path class="slice" d="M 250 80 A 100 100 0 1 1 228.56556811230726 277.6758165036354 L 237.13934086738436 238.60548990218126 A 60 60 0 1 0 250 120 Z" fill="#3178c6"/>
  <path class="slice" d="M 228.56556811230726 277.6758165036354 A 100 100 0 0 1 152.97358154474966 204.20483674282187 L 191.7841489268498 194.52290204569312 A 60 60 0 0 0 237.13934086738436 238.60548990218126 Z" fill="#f1e05a"/>
  <path class="slice" d="M 152.97358154474966 204.20483674282187 A 100 100 0 0 1 150.51427461918723 169.87130583670796 L 190.30856477151235 173.92278350202477 A 60 60 0 0 0 191.7841489268498 194.52290204569312 Z" fill="#e34c26"/>
  <path class="slice" d="M 150.51427461918723 169.87130583670796 A 100 100 0 0 1 157.98207002059382 140.85028017590548 L 194.78924201235628 156.5101681055433 A 60 60 0 0 0 190.30856477151235 173.92278350202477 Z" fill="#563d7c"/>
  <path class="slice" d="M 157.98207002059382 140.85028017590548 A 100 100 0 0 1 172.4391303949407 116.87859708381802 L 203.46347823696442 142.12715825029082 A 60 60 0 0 0 194.78924201235628 156.5101681055433 Z" fill="#b07219"/>
  <path class="slice" d="M 172.4391303949407 116.87859708381802 A 100 100 0 0 1 187.37243340753233 102.03983130658305 L 212.4234600445194 133.22389878394983 A 60 60 0 0 0 203.46347823696442 142.12715825029082 Z" fill="#00ADD8"/>
  <path class="slice" d="M 187.37243340753233 102.03983130658305 A 100 100 0 0 1 204.40680781191844 90.99853469689019 L 222.64408468715106 126.59912081813411 A 60 60 0 0 0 212.4234600445194 133.22389878394983 Z" fill="#89e051"/>
  <path class="slice" d="M 204.40680781191844 90.99853469689019 A 100 100 0 0 1 216.0252351277013 85.94833679369611 L 229.61514107662077 123.56900207621766 A 60 60 0 0 0 222.64408468715106 126.59912081813411 Z" fill="#f34b7d"/>
  <circle cx="250" cy="180" r="60" fill="white"/>
  <rect x="30" y="220" width="15" height="15" fill="#3178c6"/>
  <text x="52" y="232" class="legend-text">PHP</text>
  <text x="470" y="232" text-anchor="end" class="legend-value">53.4%</text>
  <rect x="30" y="245" width="15" height="15" fill="#f1e05a"/>
  <text x="52" y="257" class="legend-text">JavaScript</text>
  <text x="470" y="257" text-anchor="end" class="legend-value">17.7%</text>
  <rect x="30" y="270" width="15" height="15" fill="#e34c26"/>
  <text x="52" y="282" class="legend-text">Python</text>
  <text x="470" y="282" text-anchor="end" class="legend-value">5.5%</text>
  <rect x="30" y="295" width="15" height="15" fill="#563d7c"/>
  <text x="52" y="307" class="legend-text">CSS</text>
  <text x="470" y="307" text-anchor="end" class="legend-value">4.8%</text>
  <rect x="30" y="320" width="15" height="15" fill="#b07219"/>
  <text x="52" y="332" class="legend-text">HTML</text>
  <text x="470" y="332" text-anchor="end" class="legend-value">4.5%</text>
  <rect x="30" y="345" width="15" height="15" fill="#00ADD8"/>
  <text x="52" y="357" class="legend-text">Blade</text>
  <text x="470" y="357" text-anchor="end" class="legend-value">3.4%</text>
  <rect x="30" y="370" width="15" height="15" fill="#89e051"/>
  <text x="52" y="382" class="legend-text">TypeScript</text>
  <text x="470" y="382" text-anchor="end" class="legend-value">3.2%</text>
  <rect x="30" y="395" width="15" height="15" fill="#f34b7d"/>
  <text x="52" y="407" class="legend-text">Vue</text>
  <text x="470" y="407" text-anchor="end" class="legend-value">2.0%</text>
</svg>