<svg xmlns="http://www.w3.org/2000/svg" width="500" height="500" viewBox="0 0 500 500">
  <style>
    .chart-title { font: bold 18px Arial; fill: #333; }
    .legend-text { font: 12px Arial; fill: #666; }
    .legend-value { font: 12px Arial; fill: #333; }
    .slice { transition: opacity 0.2s; }
    .slice:hover { opacity: 0.8; }
  </style>

  <text x="250" y="30" text-anchor="middle" class="chart-title">Language Distribution</text>
  <path class="slice" d="M 250 80 A 100 100 0 0 1 283.8753203188731 274.08752666158114 L 270.3251921913238 236.4525159969487 A 60 60 0 0 0 250 120 Z" fill="#3178c6"/>
  <path class="slice" d="M 283.8753203188731 274.08752666158114 A 100 100 0 0 1 164.8297436684877 232.4025518121445 L 198.89784620109262 211.4415310872867 A 60 60 0 0 0 270.3251921913238 236.4525159969487 Z" fill="#f1e05a"/>
  <path class="slice" d="M 164.8297436684877 232.4025518121445 A 100 100 0 0 1 151.4985211038371 197.24698974513447 L 190.89911266230226 190.3481938470807 A 60 60 0 0 0 198.89784620109262 211.4415310872867 Z" fill="#e34c26"/>
  <path class="slice" d="M 151.4985211038371 197.24698974513447 A 100 100 0 0 1 150.75079437795523 167.76908902031087 L 190.45047662677314 172.66145341218652 A 60 60 0 0 0 190.89911266230226 190.3481938470807 Z" fill="#563d7c"/>
  <path class="slice" d="M 150.75079437795523 167.76908902031087 A 100 100 0 0 1 157.82826961039066 141.2137638203297 L 194.69696176623438 156.7282582921978 A 60 60 0 0 0 190.45047662677314 172.66145341218652 Z" fill="#b07219"/>
  <path class="slice" d="M 157.82826961039066 141.2137638203297 A 100 100 0 0 1 170.71126077325505 119.0631816400525 L 202.426756463953 143.4379089840315 A 60 60 0 0 0 194.69696176623438 156.7282582921978 Z" fill="#00ADD8"/>
  <path class="slice" d="M 170.71126077325505 119.0631816400525 A 100 100 0 0 1 188.32226400991206 101.28623447492167 L 212.99335840594722 132.771740684953 A 60 60 0 0 0 202.426756463953 143.4379089840315 Z" fill="#89e051"/>
  <path class="slice" d="M 188.32226400991206 101.28623447492167 A 100 100 0 0 1 203.48997998232866 91.47419563790561 L 222.0939879893972 126.88451738274335 A 60 60 0 0 0 212.99335840594722 132.771740684953 Z" fill="#f34b7d"/>
  <circle cx="250" cy="180" r="60" fill="white"/>
  <rect x="30" y="220" width="15" height="15" fill="#3178c6"/>
  <text x="52" y="232" class="legend-text">PHP</text>
  <text x="470" y="232" text-anchor="end" class="legend-value">44.5%</text>
  <rect x="30" y="245" width="15" height="15" fill="#f1e05a"/>
  <text x="52" y="257" class="legend-text">JavaScript</text>
  <text x="470" y="257" text-anchor="end" class="legend-value">21.7%</text>
  <rect x="30" y="270" width="15" height="15" fill="#e34c26"/>
  <text x="52" y="282" class="legend-text">C#</text>
  <text x="470" y="282" text-anchor="end" class="legend-value">6.0%</text>
  <rect x="30" y="295" width="15" height="15" fill="#563d7c"/>
  <text x="52" y="307" class="legend-text">HTML</text>
  <text x="470" y="307" text-anchor="end" class="legend-value">4.7%</text>
  <rect x="30" y="320" width="15" height="15" fill="#b07219"/>
  <text x="52" y="332" class="legend-text">Python</text>
  <text x="470" y="332" text-anchor="end" class="legend-value">4.4%</text>
  <rect x="30" y="345" width="15" height="15" fill="#00ADD8"/>
  <text x="52" y="357" class="legend-text">CSS</text>
  <text x="470" y="357" text-anchor="end" class="legend-value">4.1%</text>
  <rect x="30" y="370" width="15" height="15" fill="#89e051"/>
  <text x="52" y="382" class="legend-text">TypeScript</text>
  <text x="470" y="382" text-anchor="end" class="legend-value">4.0%</text>
  <rect x="30" y="395" width="15" height="15" fill="#f34b7d"/>
  <text x="52" y="407" class="legend-text">Blade</text>
  <text x="470" y="407" text-anchor="end" class="legend-value">2.9%</text>
</svg>