<svg xmlns="http://www.w3.org/2000/svg" width="500" height="500" viewBox="0 0 500 500">
  <style>
    .chart-title { font: bold 18px Arial; fill: #333; }
    .legend-text { font: 12px Arial; fill: #666; }
    .legend-value { font: 12px Arial; fill: #333; }
    .slice { transition: opacity 0.2s; }
    .slice:hover { opacity: 0.8; }
  </style>

  <text x="250" y="30" text-anchor="middle" class="chart-title">Language Distribution</text>
  <path class="slice" d="M 250 80 A 100 100 0 1 1 230.92038429478836 278.16296788780096 L 238.552230576873 238.8977807326806 A 60 60 0 1 0 250 120 Z" fill="#3178c6"/>
  <path class="slice" d="M 230.92038429478836 278.16296788780096 A 100 100 0 0 1 153.72661047548175 207.04504519242627 L 192.23596628528907 196.22702711545577 A 60 60 0 0 0 238.552230576873 238.8977807326806 Z" fill="#f1e05a"/>
  <path class="slice" d="M 153.72661047548175 207.04504519242627 A 100 100 0 0 1 150.24185100208965 173.0493375487859 L 190.14511060125378 175.82960252927154 A 60 60 0 0 0 192.23596628528907 196.22702711545577 Z" fill="#e34c26"/>
  <path class="slice" d="M 150.24185100208965 173.0493375487859 A 100 100 0 0 1 156.82678378417825 143.6853778761264 L 194.09607027050694 158.21122672567586 A 60 60 0 0 0 190.14511060125378 175.82960252927154 Z" fill="#563d7c"/>
  <path class="slice" d="M 156.82678378417825 143.6853778761264 A 100 100 0 0 1 171.80816545804137 117.66191364051215 L 203.0848992748248 142.5971481843073 A 60 60 0 0 0 194.09607027050694 158.21122672567586 Z" fill="#b07219"/>
  <path class="slice" d="M 171.80816545804137 117.66191364051215 A 100 100 0 0 1 186.4833066851209 102.76251123745934 L 211.88998401107256 133.65750674247562 A 60 60 0 0 0 203.0848992748248 142.5971481843073 Z" fill="#00ADD8"/>
  <path class="slice" d="M 186.4833066851209 102.76251123745934 A 100 100 0 0 1 203.60397122084137 91.41440007809686 L 222.16238273250482 126.84864004685812 A 60 60 0 0 0 211.88998401107256 133.65750674247562 Z" fill="#89e051"/>
  <path class="slice" d="M 203.60397122084137 91.41440007809686 A 100 100 0 0 1 215.18598716572663 86.2557494542996 L 229.11159229943598 123.75344967257976 A 60 60 0 0 0 222.16238273250482 126.84864004685812 Z" fill="#f34b7d"/>
  <circle cx="250" cy="180" r="60" fill="white"/>
  <rect x="30" y="220" width="15" height="15" fill="#3178c6"/>
  <text x="52" y="232" class="legend-text">PHP</text>
  <text x="470" y="232" text-anchor="end" class="legend-value">53.1%</text>
  <rect x="30" y="245" width="15" height="15" fill="#f1e05a"/>
  <text x="52" y="257" class="legend-text">JavaScript</text>
  <text x="470" y="257" text-anchor="end" class="legend-value">17.6%</text>
  <rect x="30" y="270" width="15" height="15" fill="#e34c26"/>
  <text x="52" y="282" class="legend-text">Python</text>
  <text x="470" y="282" text-anchor="end" class="legend-value">5.5%</text>
  <rect x="30" y="295" width="15" height="15" fill="#563d7c"/>
  <text x="52" y="307" class="legend-text">HTML</text>
  <text x="470" y="307" text-anchor="end" class="legend-value">4.8%</text>
  <rect x="30" y="320" width="15" height="15" fill="#b07219"/>
  <text x="52" y="332" class="legend-text">CSS</text>
  <text x="470" y="332" text-anchor="end" class="legend-value">4.8%</text>
  <rect x="30" y="345" width="15" height="15" fill="#00ADD8"/>
  <text x="52" y="357" class="legend-text">Blade</text>
  <text x="470" y="357" text-anchor="end" class="legend-value">3.3%</text>
  <rect x="30" y="370" width="15" height="15" fill="#89e051"/>
  <text x="52" y="382" class="legend-text">TypeScript</text>
  <text x="470" y="382" text-anchor="end" class="legend-value">3.3%</text>
  <rect x="30" y="395" width="15" height="15" fill="#f34b7d"/>
  <text x="52" y="407" class="legend-text">Vue</text>
  <text x="470" y="407" text-anchor="end" class="legend-value">2.0%</text>
</svg>