<svg xmlns="http://www.w3.org/2000/svg" width="500" height="500" viewBox="0 0 500 500">
  <style>
    .chart-title { font: bold 18px Arial; fill: #333; }
    .legend-text { font: 12px Arial; fill: #666; }
    .legend-value { font: 12px Arial; fill: #333; }
    .slice { transition: opacity 0.2s; }
    .slice:hover { opacity: 0.8; }
  </style>

  <text x="250" y="30" text-anchor="middle" class="chart-title">Language Distribution</text>
  <path class="slice" d="M 250 80 A 100 100 0 1 1 229.31242851449403 277.836723095329 L 237.5874571086964 238.7020338571974 A 60 60 0 1 0 250 120 Z" fill="#3178c6"/>
  <path class="slice" d="M 229.31242851449403 277.836723095329 A 100 100 0 0 1 153.21996236448803 205.17189534518374 L 191.9319774186928 195.10313720711025 A 60 60 0 0 0 237.5874571086964 238.7020338571974 Z" fill="#f1e05a"/>
  <path class="slice" d="M 153.21996236448803 205.17189534518374 A 100 100 0 0 1 150.4114703102245 170.9377290799324 L 190.2468821861347 174.56263744795945 A 60 60 0 0 0 191.9319774186928 195.10313720711025 Z" fill="#e34c26"/>
  <path class="slice" d="M 150.4114703102245 170.9377290799324 A 100 100 0 0 1 157.54357740498648 141.89737645604606 L 194.5261464429919 157.13842587362763 A 60 60 0 0 0 190.2468821861347 174.56263744795945 Z" fill="#563d7c"/>
  <path class="slice" d="M 157.54357740498648 141.89737645604606 A 100 100 0 0 1 171.87360645618503 117.57991804044994 L 203.124163873711 142.54795082426995 A 60 60 0 0 0 194.5261464429919 157.13842587362763 Z" fill="#b07219"/>
  <path class="slice" d="M 171.87360645618503 117.57991804044994 A 100 100 0 0 1 186.6379828377075 102.63557160344713 L 211.98278970262453 133.58134296206828 A 60 60 0 0 0 203.124163873711 142.54795082426995 Z" fill="#00ADD8"/>
  <path class="slice" d="M 186.6379828377075 102.63557160344713 A 100 100 0 0 1 203.76663028149392 91.3293987588224 L 222.25997816889637 126.79763925529345 A 60 60 0 0 0 211.98278970262453 133.58134296206828 Z" fill="#89e051"/>
  <path class="slice" d="M 203.76663028149392 91.3293987588224 A 100 100 0 0 1 215.3231272927573 86.20493350263199 L 229.19387637565438 123.72296010157919 A 60 60 0 0 0 222.25997816889637 126.79763925529345 Z" fill="#f34b7d"/>
  <circle cx="250" cy="180" r="60" fill="white"/>
  <rect x="30" y="220" width="15" height="15" fill="#3178c6"/>
  <text x="52" y="232" class="legend-text">PHP</text>
  <text x="470" y="232" text-anchor="end" class="legend-value">53.3%</text>
  <rect x="30" y="245" width="15" height="15" fill="#f1e05a"/>
  <text x="52" y="257" class="legend-text">JavaScript</text>
  <text x="470" y="257" text-anchor="end" class="legend-value">17.6%</text>
  <rect x="30" y="270" width="15" height="15" fill="#e34c26"/>
  <text x="52" y="282" class="legend-text">Python</text>
  <text x="470" y="282" text-anchor="end" class="legend-value">5.5%</text>
  <rect x="30" y="295" width="15" height="15" fill="#563d7c"/>
  <text x="52" y="307" class="legend-text">CSS</text>
  <text x="470" y="307" text-anchor="end" class="legend-value">4.8%</text>
  <rect x="30" y="320" width="15" height="15" fill="#b07219"/>
  <text x="52" y="332" class="legend-text">HTML</text>
  <text x="470" y="332" text-anchor="end" class="legend-value">4.5%</text>
  <rect x="30" y="345" width="15" height="15" fill="#00ADD8"/>
  <text x="52" y="357" class="legend-text">Blade</text>
  <text x="470" y="357" text-anchor="end" class="legend-value">3.3%</text>
  <rect x="30" y="370" width="15" height="15" fill="#89e051"/>
  <text x="52" y="382" class="legend-text">TypeScript</text>
  <text x="470" y="382" text-anchor="end" class="legend-value">3.3%</text>
  <rect x="30" y="395" width="15" height="15" fill="#f34b7d"/>
  <text x="52" y="407" class="legend-text">Vue</text>
  <text x="470" y="407" text-anchor="end" class="legend-value">2.0%</text>
</svg>