<svg xmlns="http://www.w3.org/2000/svg" width="500" height="500" viewBox="0 0 500 500">
  <style>
    .chart-title { font: bold 18px Arial; fill: #333; }
    .legend-text { font: 12px Arial; fill: #666; }
    .legend-value { font: 12px Arial; fill: #333; }
    .slice { transition: opacity 0.2s; }
    .slice:hover { opacity: 0.8; }
  </style>

  <text x="250" y="30" text-anchor="middle" class="chart-title">Language Distribution</text>
  <path class="slice" d="M 250 80 A 100 100 0 0 1 282.45564311437744 274.5866334638894 L 269.47338586862645 236.75198007833364 A 60 60 0 0 0 250 120 Z" fill="#3178c6"/>
  <path class="slice" d="M 282.45564311437744 274.5866334638894 A 100 100 0 0 1 163.86590327719426 230.80273006194003 L 198.31954196631654 210.481638037164 A 60 60 0 0 0 269.47338586862645 236.75198007833364 Z" fill="#f1e05a"/>
  <path class="slice" d="M 163.86590327719426 230.80273006194003 A 100 100 0 0 1 151.1620738866119 195.2008013474432 L 190.6972443319671 189.1204808084659 A 60 60 0 0 0 198.31954196631654 210.481638037164 Z" fill="#e34c26"/>
  <path class="slice" d="M 151.1620738866119 195.2008013474432 A 100 100 0 0 1 151.06487572991637 165.4452349499174 L 190.6389254379498 171.26714096995045 A 60 60 0 0 0 190.6972443319671 189.1204808084659 Z" fill="#563d7c"/>
  <path class="slice" d="M 151.06487572991637 165.4452349499174 A 100 100 0 0 1 158.82081859426242 138.9347241799157 L 195.29249115655745 155.36083450794942 A 60 60 0 0 0 190.6389254379498 171.26714096995045 Z" fill="#b07219"/>
  <path class="slice" d="M 158.82081859426242 138.9347241799157 A 100 100 0 0 1 172.33704877112223 117.00423818683552 L 203.40222926267333 142.2025429121013 A 60 60 0 0 0 195.29249115655745 155.36083450794942 Z" fill="#00ADD8"/>
  <path class="slice" d="M 172.33704877112223 117.00423818683552 A 100 100 0 0 1 190.1727868707025 99.8707009316716 L 214.1036721224215 131.92242055900294 A 60 60 0 0 0 203.40222926267333 142.2025429121013 Z" fill="#89e051"/>
  <path class="slice" d="M 190.1727868707025 99.8707009316716 A 100 100 0 0 1 205.65217788544888 90.37148515290389 L 223.3913067312693 126.22289109174233 A 60 60 0 0 0 214.1036721224215 131.92242055900294 Z" fill="#f34b7d"/>
  <circle cx="250" cy="180" r="60" fill="white"/>
  <rect x="30" y="220" width="15" height="15" fill="#3178c6"/>
  <text x="52" y="232" class="legend-text">PHP</text>
  <text x="470" y="232" text-anchor="end" class="legend-value">44.7%</text>
  <rect x="30" y="245" width="15" height="15" fill="#f1e05a"/>
  <text x="52" y="257" class="legend-text">JavaScript</text>
  <text x="470" y="257" text-anchor="end" class="legend-value">21.8%</text>
  <rect x="30" y="270" width="15" height="15" fill="#e34c26"/>
  <text x="52" y="282" class="legend-text">C#</text>
  <text x="470" y="282" text-anchor="end" class="legend-value">6.1%</text>
  <rect x="30" y="295" width="15" height="15" fill="#563d7c"/>
  <text x="52" y="307" class="legend-text">HTML</text>
  <text x="470" y="307" text-anchor="end" class="legend-value">4.8%</text>
  <rect x="30" y="320" width="15" height="15" fill="#b07219"/>
  <text x="52" y="332" class="legend-text">Python</text>
  <text x="470" y="332" text-anchor="end" class="legend-value">4.4%</text>
  <rect x="30" y="345" width="15" height="15" fill="#00ADD8"/>
  <text x="52" y="357" class="legend-text">CSS</text>
  <text x="470" y="357" text-anchor="end" class="legend-value">4.1%</text>
  <rect x="30" y="370" width="15" height="15" fill="#89e051"/>
  <text x="52" y="382" class="legend-text">TypeScript</text>
  <text x="470" y="382" text-anchor="end" class="legend-value">3.9%</text>
  <rect x="30" y="395" width="15" height="15" fill="#f34b7d"/>
  <text x="52" y="407" class="legend-text">Blade</text>
  <text x="470" y="407" text-anchor="end" class="legend-value">2.9%</text>
</svg>