<svg xmlns="http://www.w3.org/2000/svg" width="500" height="500" viewBox="0 0 500 500">
  <style>
    .chart-title { font: bold 18px Arial; fill: #333; }
    .legend-text { font: 12px Arial; fill: #666; }
    .legend-value { font: 12px Arial; fill: #333; }
    .slice { transition: opacity 0.2s; }
    .slice:hover { opacity: 0.8; }
  </style>

  <text x="250" y="30" text-anchor="middle" class="chart-title">Language Distribution</text>
  <path class="slice" d="M 250 80 A 100 100 0 0 1 282.70490291094967 274.50073716953403 L 269.6229417465698 236.70044230172044 A 60 60 0 0 0 250 120 Z" fill="#3178c6"/>
  <path class="slice" d="M 282.70490291094967 274.50073716953403 A 100 100 0 0 1 164.03857229136358 231.09435336994562 L 198.42314337481815 210.6566120219674 A 60 60 0 0 0 269.6229417465698 236.70044230172044 Z" fill="#f1e05a"/>
  <path class="slice" d="M 164.03857229136358 231.09435336994562 A 100 100 0 0 1 151.21976937161946 195.57132097813005 L 190.73186162297168 189.34279258687803 A 60 60 0 0 0 198.42314337481815 210.6566120219674 Z" fill="#e34c26"/>
  <path class="slice" d="M 151.21976937161946 195.57132097813005 A 100 100 0 0 1 151.0069785636133 165.84437543253284 L 190.60418713816796 171.5066252595197 A 60 60 0 0 0 190.73186162297168 189.34279258687803 Z" fill="#563d7c"/>
  <path class="slice" d="M 151.0069785636133 165.84437543253284 A 100 100 0 0 1 158.64660080581936 139.32376055153725 L 195.18796048349162 155.59425633092235 A 60 60 0 0 0 190.60418713816796 171.5066252595197 Z" fill="#b07219"/>
  <path class="slice" d="M 158.64660080581936 139.32376055153725 A 100 100 0 0 1 172.05528113794264 117.3532059757657 L 203.23316868276558 142.41192358545942 A 60 60 0 0 0 195.18796048349162 155.59425633092235 Z" fill="#00ADD8"/>
  <path class="slice" d="M 172.05528113794264 117.3532059757657 A 100 100 0 0 1 190.0954919394268 99.92847001573705 L 214.05729516365608 131.95708200944222 A 60 60 0 0 0 203.23316868276558 142.41192358545942 Z" fill="#89e051"/>
  <path class="slice" d="M 190.0954919394268 99.92847001573705 A 100 100 0 0 1 205.55025377205905 90.42198896899056 L 223.33015226323542 126.25319338139434 A 60 60 0 0 0 214.05729516365608 131.95708200944222 Z" fill="#f34b7d"/>
  <circle cx="250" cy="180" r="60" fill="white"/>
  <rect x="30" y="220" width="15" height="15" fill="#3178c6"/>
  <text x="52" y="232" class="legend-text">PHP</text>
  <text x="470" y="232" text-anchor="end" class="legend-value">44.7%</text>
  <rect x="30" y="245" width="15" height="15" fill="#f1e05a"/>
  <text x="52" y="257" class="legend-text">JavaScript</text>
  <text x="470" y="257" text-anchor="end" class="legend-value">21.8%</text>
  <rect x="30" y="270" width="15" height="15" fill="#e34c26"/>
  <text x="52" y="282" class="legend-text">C#</text>
  <text x="470" y="282" text-anchor="end" class="legend-value">6.0%</text>
  <rect x="30" y="295" width="15" height="15" fill="#563d7c"/>
  <text x="52" y="307" class="legend-text">HTML</text>
  <text x="470" y="307" text-anchor="end" class="legend-value">4.7%</text>
  <rect x="30" y="320" width="15" height="15" fill="#b07219"/>
  <text x="52" y="332" class="legend-text">Python</text>
  <text x="470" y="332" text-anchor="end" class="legend-value">4.4%</text>
  <rect x="30" y="345" width="15" height="15" fill="#00ADD8"/>
  <text x="52" y="357" class="legend-text">CSS</text>
  <text x="470" y="357" text-anchor="end" class="legend-value">4.1%</text>
  <rect x="30" y="370" width="15" height="15" fill="#89e051"/>
  <text x="52" y="382" class="legend-text">TypeScript</text>
  <text x="470" y="382" text-anchor="end" class="legend-value">4.0%</text>
  <rect x="30" y="395" width="15" height="15" fill="#f34b7d"/>
  <text x="52" y="407" class="legend-text">Blade</text>
  <text x="470" y="407" text-anchor="end" class="legend-value">2.9%</text>
</svg>