<svg xmlns="http://www.w3.org/2000/svg" width="500" height="500" viewBox="0 0 500 500">
  <style>
    .chart-title { font: bold 18px Arial; fill: #333; }
    .legend-text { font: 12px Arial; fill: #666; }
    .legend-value { font: 12px Arial; fill: #333; }
    .slice { transition: opacity 0.2s; }
    .slice:hover { opacity: 0.8; }
  </style>

  <text x="250" y="30" text-anchor="middle" class="chart-title">Language Distribution</text>
  <path class="slice" d="M 250 80 A 100 100 0 0 1 284.83463171490604 273.7365906852114 L 270.9007790289436 236.24195441112684 A 60 60 0 0 0 250 120 Z" fill="#3178c6"/>
  <path class="slice" d="M 284.83463171490604 273.7365906852114 A 100 100 0 0 1 165.59648296990355 233.6287825048287 L 199.35788978194213 212.17726950289722 A 60 60 0 0 0 270.9007790289436 236.24195441112684 Z" fill="#f1e05a"/>
  <path class="slice" d="M 165.59648296990355 233.6287825048287 A 100 100 0 0 1 151.78414496982614 198.80547315788343 L 191.0704869818957 191.28328389473006 A 60 60 0 0 0 199.35788978194213 212.17726950289722 Z" fill="#e34c26"/>
  <path class="slice" d="M 151.78414496982614 198.80547315788343 A 100 100 0 0 1 150.56544345128765 169.3807267687037 L 190.3392660707726 173.62843606122223 A 60 60 0 0 0 191.0704869818957 191.28328389473006 Z" fill="#563d7c"/>
  <path class="slice" d="M 150.56544345128765 169.3807267687037 A 100 100 0 0 1 157.17368364891547 142.80759495961073 L 194.30421018934928 157.68455697576644 A 60 60 0 0 0 190.3392660707726 173.62843606122223 Z" fill="#b07219"/>
  <path class="slice" d="M 157.17368364891547 142.80759495961073 A 100 100 0 0 1 169.617260752005 120.51373914096766 L 201.77035645120299 144.3082434845806 A 60 60 0 0 0 194.30421018934928 157.68455697576644 Z" fill="#00ADD8"/>
  <path class="slice" d="M 169.617260752005 120.51373914096766 A 100 100 0 0 1 186.90443644291628 102.41810868885698 L 212.14266186574977 133.4508652133142 A 60 60 0 0 0 201.77035645120299 144.3082434845806 Z" fill="#89e051"/>
  <path class="slice" d="M 186.90443644291628 102.41810868885698 A 100 100 0 0 1 201.83370506007216 92.36434497443474 L 221.1002230360433 127.41860698466084 A 60 60 0 0 0 212.14266186574977 133.4508652133142 Z" fill="#f34b7d"/>
  <circle cx="250" cy="180" r="60" fill="white"/>
  <rect x="30" y="220" width="15" height="15" fill="#3178c6"/>
  <text x="52" y="232" class="legend-text">PHP</text>
  <text x="470" y="232" text-anchor="end" class="legend-value">44.3%</text>
  <rect x="30" y="245" width="15" height="15" fill="#f1e05a"/>
  <text x="52" y="257" class="legend-text">JavaScript</text>
  <text x="470" y="257" text-anchor="end" class="legend-value">21.7%</text>
  <rect x="30" y="270" width="15" height="15" fill="#e34c26"/>
  <text x="52" y="282" class="legend-text">C#</text>
  <text x="470" y="282" text-anchor="end" class="legend-value">6.0%</text>
  <rect x="30" y="295" width="15" height="15" fill="#563d7c"/>
  <text x="52" y="307" class="legend-text">HTML</text>
  <text x="470" y="307" text-anchor="end" class="legend-value">4.7%</text>
  <rect x="30" y="320" width="15" height="15" fill="#b07219"/>
  <text x="52" y="332" class="legend-text">Python</text>
  <text x="470" y="332" text-anchor="end" class="legend-value">4.4%</text>
  <rect x="30" y="345" width="15" height="15" fill="#00ADD8"/>
  <text x="52" y="357" class="legend-text">CSS</text>
  <text x="470" y="357" text-anchor="end" class="legend-value">4.1%</text>
  <rect x="30" y="370" width="15" height="15" fill="#89e051"/>
  <text x="52" y="382" class="legend-text">TypeScript</text>
  <text x="470" y="382" text-anchor="end" class="legend-value">4.0%</text>
  <rect x="30" y="395" width="15" height="15" fill="#f34b7d"/>
  <text x="52" y="407" class="legend-text">Blade</text>
  <text x="470" y="407" text-anchor="end" class="legend-value">2.9%</text>
</svg>