<svg xmlns="http://www.w3.org/2000/svg" width="500" height="500" viewBox="0 0 500 500">
  <style>
    .chart-title { font: bold 18px Arial; fill: #333; }
    .legend-text { font: 12px Arial; fill: #666; }
    .legend-value { font: 12px Arial; fill: #333; }
    .slice { transition: opacity 0.2s; }
    .slice:hover { opacity: 0.8; }
  </style>

  <text x="250" y="30" text-anchor="middle" class="chart-title">Language Distribution</text>
  <path class="slice" d="M 250 80 A 100 100 0 1 1 230.43505644901578 278.0673900124134 L 238.26103386940946 238.84043400744804 A 60 60 0 1 0 250 120 Z" fill="#3178c6"/>
  <path class="slice" d="M 230.43505644901578 278.0673900124134 A 100 100 0 0 1 153.58802515334105 206.54677204797605 L 192.15281509200463 195.92806322878562 A 60 60 0 0 0 238.26103386940946 238.84043400744804 Z" fill="#f1e05a"/>
  <path class="slice" d="M 153.58802515334105 206.54677204797605 A 100 100 0 0 1 150.28342344716103 172.4764130508245 L 190.17005406829662 175.4858478304947 A 60 60 0 0 0 192.15281509200463 195.92806322878562 Z" fill="#e34c26"/>
  <path class="slice" d="M 150.28342344716103 172.4764130508245 A 100 100 0 0 1 156.9366659913533 143.40470162445644 L 194.161999594812 158.04282097467384 A 60 60 0 0 0 190.17005406829662 175.4858478304947 Z" fill="#563d7c"/>
  <path class="slice" d="M 156.9366659913533 143.40470162445644 A 100 100 0 0 1 171.7390897554693 117.74865521374251 L 203.04345385328156 142.6491931282455 A 60 60 0 0 0 194.161999594812 158.04282097467384 Z" fill="#b07219"/>
  <path class="slice" d="M 171.7390897554693 117.74865521374251 A 100 100 0 0 1 186.41458369318536 102.8190772723656 L 211.84875021591122 133.69144636341937 A 60 60 0 0 0 203.04345385328156 142.6491931282455 Z" fill="#00ADD8"/>
  <path class="slice" d="M 186.41458369318536 102.8190772723656 A 100 100 0 0 1 203.51142224650238 91.46293353370574 L 222.10685334790145 126.87776012022346 A 60 60 0 0 0 211.84875021591122 133.69144636341937 Z" fill="#89e051"/>
  <path class="slice" d="M 203.51142224650238 91.46293353370574 A 100 100 0 0 1 215.1078593543817 86.28480101303529 L 229.06471561262902 123.77088060782117 A 60 60 0 0 0 222.10685334790145 126.87776012022346 Z" fill="#f34b7d"/>
  <circle cx="250" cy="180" r="60" fill="white"/>
  <rect x="30" y="220" width="15" height="15" fill="#3178c6"/>
  <text x="52" y="232" class="legend-text">PHP</text>
  <text x="470" y="232" text-anchor="end" class="legend-value">53.1%</text>
  <rect x="30" y="245" width="15" height="15" fill="#f1e05a"/>
  <text x="52" y="257" class="legend-text">JavaScript</text>
  <text x="470" y="257" text-anchor="end" class="legend-value">17.6%</text>
  <rect x="30" y="270" width="15" height="15" fill="#e34c26"/>
  <text x="52" y="282" class="legend-text">Python</text>
  <text x="470" y="282" text-anchor="end" class="legend-value">5.5%</text>
  <rect x="30" y="295" width="15" height="15" fill="#563d7c"/>
  <text x="52" y="307" class="legend-text">CSS</text>
  <text x="470" y="307" text-anchor="end" class="legend-value">4.8%</text>
  <rect x="30" y="320" width="15" height="15" fill="#b07219"/>
  <text x="52" y="332" class="legend-text">HTML</text>
  <text x="470" y="332" text-anchor="end" class="legend-value">4.7%</text>
  <rect x="30" y="345" width="15" height="15" fill="#00ADD8"/>
  <text x="52" y="357" class="legend-text">Blade</text>
  <text x="470" y="357" text-anchor="end" class="legend-value">3.3%</text>
  <rect x="30" y="370" width="15" height="15" fill="#89e051"/>
  <text x="52" y="382" class="legend-text">TypeScript</text>
  <text x="470" y="382" text-anchor="end" class="legend-value">3.3%</text>
  <rect x="30" y="395" width="15" height="15" fill="#f34b7d"/>
  <text x="52" y="407" class="legend-text">Vue</text>
  <text x="470" y="407" text-anchor="end" class="legend-value">2.0%</text>
</svg>