<svg xmlns="http://www.w3.org/2000/svg" width="500" height="500" viewBox="0 0 500 500">
  <style>
    .chart-title { font: bold 18px Arial; fill: #333; }
    .legend-text { font: 12px Arial; fill: #666; }
    .legend-value { font: 12px Arial; fill: #333; }
    .slice { transition: opacity 0.2s; }
    .slice:hover { opacity: 0.8; }
  </style>

  <text x="250" y="30" text-anchor="middle" class="chart-title">Language Distribution</text>
  <path class="slice" d="M 250 80 A 100 100 0 1 1 228.6633313209093 277.69721884311093 L 237.19799879254558 238.61833130586655 A 60 60 0 1 0 250 120 Z" fill="#3178c6"/>
  <path class="slice" d="M 228.6633313209093 277.69721884311093 A 100 100 0 0 1 153.00547783161784 204.33233793385295 L 191.8032866989707 194.5994027603118 A 60 60 0 0 0 237.19799879254558 238.61833130586655 Z" fill="#f1e05a"/>
  <path class="slice" d="M 153.00547783161784 204.33233793385295 A 100 100 0 0 1 150.50001799929072 170.01232850667753 L 190.3000107995744 174.00739710400651 A 60 60 0 0 0 191.8032866989707 194.5994027603118 Z" fill="#e34c26"/>
  <path class="slice" d="M 150.50001799929072 170.01232850667753 A 100 100 0 0 1 157.9231731042069 140.9890022070423 L 194.75390386252414 156.59340132422537 A 60 60 0 0 0 190.3000107995744 174.00739710400651 Z" fill="#563d7c"/>
  <path class="slice" d="M 157.9231731042069 140.9890022070423 A 100 100 0 0 1 172.3388159343434 117.00205964065013 L 203.40328956060603 142.20123578439006 A 60 60 0 0 0 194.75390386252414 156.59340132422537 Z" fill="#b07219"/>
  <path class="slice" d="M 172.3388159343434 117.00205964065013 A 100 100 0 0 1 187.24360015885404 102.1435020118538 L 212.34616009531243 133.28610120711227 A 60 60 0 0 0 203.40328956060603 142.20123578439006 Z" fill="#00ADD8"/>
  <path class="slice" d="M 187.24360015885404 102.1435020118538 A 100 100 0 0 1 204.41936720574367 90.9921019567636 L 222.6516203234462 126.59526117405817 A 60 60 0 0 0 212.34616009531243 133.28610120711227 Z" fill="#89e051"/>
  <path class="slice" d="M 204.41936720574367 90.9921019567636 A 100 100 0 0 1 216.03495306574794 85.94482690062149 L 229.62097183944877 123.5668961403729 A 60 60 0 0 0 222.6516203234462 126.59526117405817 Z" fill="#f34b7d"/>
  <circle cx="250" cy="180" r="60" fill="white"/>
  <rect x="30" y="220" width="15" height="15" fill="#3178c6"/>
  <text x="52" y="232" class="legend-text">PHP</text>
  <text x="470" y="232" text-anchor="end" class="legend-value">53.4%</text>
  <rect x="30" y="245" width="15" height="15" fill="#f1e05a"/>
  <text x="52" y="257" class="legend-text">JavaScript</text>
  <text x="470" y="257" text-anchor="end" class="legend-value">17.7%</text>
  <rect x="30" y="270" width="15" height="15" fill="#e34c26"/>
  <text x="52" y="282" class="legend-text">Python</text>
  <text x="470" y="282" text-anchor="end" class="legend-value">5.5%</text>
  <rect x="30" y="295" width="15" height="15" fill="#563d7c"/>
  <text x="52" y="307" class="legend-text">CSS</text>
  <text x="470" y="307" text-anchor="end" class="legend-value">4.8%</text>
  <rect x="30" y="320" width="15" height="15" fill="#b07219"/>
  <text x="52" y="332" class="legend-text">HTML</text>
  <text x="470" y="332" text-anchor="end" class="legend-value">4.5%</text>
  <rect x="30" y="345" width="15" height="15" fill="#00ADD8"/>
  <text x="52" y="357" class="legend-text">Blade</text>
  <text x="470" y="357" text-anchor="end" class="legend-value">3.4%</text>
  <rect x="30" y="370" width="15" height="15" fill="#89e051"/>
  <text x="52" y="382" class="legend-text">TypeScript</text>
  <text x="470" y="382" text-anchor="end" class="legend-value">3.3%</text>
  <rect x="30" y="395" width="15" height="15" fill="#f34b7d"/>
  <text x="52" y="407" class="legend-text">Vue</text>
  <text x="470" y="407" text-anchor="end" class="legend-value">2.0%</text>
</svg>