<svg xmlns="http://www.w3.org/2000/svg" width="500" height="500" viewBox="0 0 500 500">
  <style>
    .chart-title { font: bold 18px Arial; fill: #333; }
    .legend-text { font: 12px Arial; fill: #666; }
    .legend-value { font: 12px Arial; fill: #333; }
    .slice { transition: opacity 0.2s; }
    .slice:hover { opacity: 0.8; }
  </style>

  <text x="250" y="30" text-anchor="middle" class="chart-title">Language Distribution</text>
  <path class="slice" d="M 250 80 A 100 100 0 0 1 285.0889079411835 273.641702993352 L 271.0533447647101 236.1850217960112 A 60 60 0 0 0 250 120 Z" fill="#3178c6"/>
  <path class="slice" d="M 285.0889079411835 273.641702993352 A 100 100 0 0 1 165.8443326508779 234.0168830369164 L 199.50659959052675 212.41012982214983 A 60 60 0 0 0 271.0533447647101 236.1850217960112 Z" fill="#f1e05a"/>
  <path class="slice" d="M 165.8443326508779 234.0168830369164 A 100 100 0 0 1 151.88203767867577 199.30972474975243 L 191.12922260720546 191.58583484985147 A 60 60 0 0 0 199.50659959052675 212.41012982214983 Z" fill="#e34c26"/>
  <path class="slice" d="M 151.88203767867577 199.30972474975243 A 100 100 0 0 1 150.51788468590763 169.8359096504593 L 190.31073081154457 173.90154579027558 A 60 60 0 0 0 191.12922260720546 191.58583484985147 Z" fill="#563d7c"/>
  <path class="slice" d="M 150.51788468590763 169.8359096504593 A 100 100 0 0 1 156.9901973464796 143.2688604811505 L 194.19411840788774 157.9613162886903 A 60 60 0 0 0 190.31073081154457 173.90154579027558 Z" fill="#b07219"/>
  <path class="slice" d="M 156.9901973464796 143.2688604811505 A 100 100 0 0 1 169.306103917166 120.93651606133625 L 201.58366235029962 144.56190963680177 A 60 60 0 0 0 194.19411840788774 157.9613162886903 Z" fill="#00ADD8"/>
  <path class="slice" d="M 169.306103917166 120.93651606133625 A 100 100 0 0 1 186.8307132353023 102.47812431552376 L 212.0984279411814 133.48687458931425 A 60 60 0 0 0 201.58366235029962 144.56190963680177 Z" fill="#89e051"/>
  <path class="slice" d="M 186.8307132353023 102.47812431552376 A 100 100 0 0 1 201.73354045426933 92.41947201049571 L 221.0401242725616 127.45168320629743 A 60 60 0 0 0 212.0984279411814 133.48687458931425 Z" fill="#f34b7d"/>
  <circle cx="250" cy="180" r="60" fill="white"/>
  <rect x="30" y="220" width="15" height="15" fill="#3178c6"/>
  <text x="52" y="232" class="legend-text">PHP</text>
  <text x="470" y="232" text-anchor="end" class="legend-value">44.3%</text>
  <rect x="30" y="245" width="15" height="15" fill="#f1e05a"/>
  <text x="52" y="257" class="legend-text">JavaScript</text>
  <text x="470" y="257" text-anchor="end" class="legend-value">21.6%</text>
  <rect x="30" y="270" width="15" height="15" fill="#e34c26"/>
  <text x="52" y="282" class="legend-text">C#</text>
  <text x="470" y="282" text-anchor="end" class="legend-value">6.0%</text>
  <rect x="30" y="295" width="15" height="15" fill="#563d7c"/>
  <text x="52" y="307" class="legend-text">HTML</text>
  <text x="470" y="307" text-anchor="end" class="legend-value">4.7%</text>
  <rect x="30" y="320" width="15" height="15" fill="#b07219"/>
  <text x="52" y="332" class="legend-text">Python</text>
  <text x="470" y="332" text-anchor="end" class="legend-value">4.4%</text>
  <rect x="30" y="345" width="15" height="15" fill="#00ADD8"/>
  <text x="52" y="357" class="legend-text">CSS</text>
  <text x="470" y="357" text-anchor="end" class="legend-value">4.1%</text>
  <rect x="30" y="370" width="15" height="15" fill="#89e051"/>
  <text x="52" y="382" class="legend-text">TypeScript</text>
  <text x="470" y="382" text-anchor="end" class="legend-value">4.1%</text>
  <rect x="30" y="395" width="15" height="15" fill="#f34b7d"/>
  <text x="52" y="407" class="legend-text">Blade</text>
  <text x="470" y="407" text-anchor="end" class="legend-value">2.9%</text>
</svg>