<svg xmlns="http://www.w3.org/2000/svg" width="500" height="500" viewBox="0 0 500 500">
  <style>
    .chart-title { font: bold 18px Arial; fill: #333; }
    .legend-text { font: 12px Arial; fill: #666; }
    .legend-value { font: 12px Arial; fill: #333; }
    .slice { transition: opacity 0.2s; }
    .slice:hover { opacity: 0.8; }
  </style>

  <text x="250" y="30" text-anchor="middle" class="chart-title">Language Distribution</text>
  <path class="slice" d="M 250 80 A 100 100 0 0 1 285.101644680141 273.63692936416237 L 271.0609868080846 236.1821576184974 A 60 60 0 0 0 250 120 Z" fill="#3178c6"/>
  <path class="slice" d="M 285.101644680141 273.63692936416237 A 100 100 0 0 1 165.85526862656099 234.0339169604776 L 199.5131611759366 212.42035017628655 A 60 60 0 0 0 271.0609868080846 236.1821576184974 Z" fill="#f1e05a"/>
  <path class="slice" d="M 165.85526862656099 234.0339169604776 A 100 100 0 0 1 151.8863039478256 199.33139019785023 L 191.13178236869535 191.59883411871013 A 60 60 0 0 0 199.5131611759366 212.42035017628655 Z" fill="#e34c26"/>
  <path class="slice" d="M 151.8863039478256 199.33139019785023 A 100 100 0 0 1 150.51549594895647 169.85931690082433 L 190.30929756937388 173.9155901404946 A 60 60 0 0 0 191.13178236869535 191.59883411871013 Z" fill="#563d7c"/>
  <path class="slice" d="M 150.51549594895647 169.85931690082433 A 100 100 0 0 1 156.981065398628 143.2919926225125 L 194.18863923917678 157.9751955735075 A 60 60 0 0 0 190.30929756937388 173.9155901404946 Z" fill="#b07219"/>
  <path class="slice" d="M 156.981065398628 143.2919926225125 A 100 100 0 0 1 169.29067971951457 120.95759473173521 L 201.57440783170875 144.57455683904112 A 60 60 0 0 0 194.18863923917678 157.9751955735075 Z" fill="#00ADD8"/>
  <path class="slice" d="M 169.29067971951457 120.95759473173521 A 100 100 0 0 1 186.8095004955135 102.49541450744033 L 212.0857002973081 133.4972487044642 A 60 60 0 0 0 201.57440783170875 144.57455683904112 Z" fill="#89e051"/>
  <path class="slice" d="M 186.8095004955135 102.49541450744033 A 100 100 0 0 1 201.70880392033928 92.43310910397835 L 221.02528235220356 127.459865462387 A 60 60 0 0 0 212.0857002973081 133.4972487044642 Z" fill="#f34b7d"/>
  <circle cx="250" cy="180" r="60" fill="white"/>
  <rect x="30" y="220" width="15" height="15" fill="#3178c6"/>
  <text x="52" y="232" class="legend-text">PHP</text>
  <text x="470" y="232" text-anchor="end" class="legend-value">44.3%</text>
  <rect x="30" y="245" width="15" height="15" fill="#f1e05a"/>
  <text x="52" y="257" class="legend-text">JavaScript</text>
  <text x="470" y="257" text-anchor="end" class="legend-value">21.6%</text>
  <rect x="30" y="270" width="15" height="15" fill="#e34c26"/>
  <text x="52" y="282" class="legend-text">C#</text>
  <text x="470" y="282" text-anchor="end" class="legend-value">6.0%</text>
  <rect x="30" y="295" width="15" height="15" fill="#563d7c"/>
  <text x="52" y="307" class="legend-text">HTML</text>
  <text x="470" y="307" text-anchor="end" class="legend-value">4.7%</text>
  <rect x="30" y="320" width="15" height="15" fill="#b07219"/>
  <text x="52" y="332" class="legend-text">Python</text>
  <text x="470" y="332" text-anchor="end" class="legend-value">4.4%</text>
  <rect x="30" y="345" width="15" height="15" fill="#00ADD8"/>
  <text x="52" y="357" class="legend-text">CSS</text>
  <text x="470" y="357" text-anchor="end" class="legend-value">4.1%</text>
  <rect x="30" y="370" width="15" height="15" fill="#89e051"/>
  <text x="52" y="382" class="legend-text">TypeScript</text>
  <text x="470" y="382" text-anchor="end" class="legend-value">4.1%</text>
  <rect x="30" y="395" width="15" height="15" fill="#f34b7d"/>
  <text x="52" y="407" class="legend-text">Blade</text>
  <text x="470" y="407" text-anchor="end" class="legend-value">2.9%</text>
</svg>