<svg xmlns="http://www.w3.org/2000/svg" width="500" height="500" viewBox="0 0 500 500">
  <style>
    .chart-title { font: bold 18px Arial; fill: #333; }
    .legend-text { font: 12px Arial; fill: #666; }
    .legend-value { font: 12px Arial; fill: #333; }
    .slice { transition: opacity 0.2s; }
    .slice:hover { opacity: 0.8; }
  </style>

  <text x="250" y="30" text-anchor="middle" class="chart-title">Language Distribution</text>
  <path class="slice" d="M 250 80 A 100 100 0 0 1 282.52579709805156 274.5625323430817 L 269.5154782588309 236.73751940584904 A 60 60 0 0 0 250 120 Z" fill="#3178c6"/>
  <path class="slice" d="M 282.52579709805156 274.5625323430817 A 100 100 0 0 1 163.9032880164043 230.86606123550132 L 198.3419728098426 210.51963674130081 A 60 60 0 0 0 269.5154782588309 236.73751940584904 Z" fill="#f1e05a"/>
  <path class="slice" d="M 163.9032880164043 230.86606123550132 A 100 100 0 0 1 151.17481284843302 195.28340225400615 L 190.70488770905982 189.17004135240367 A 60 60 0 0 0 198.3419728098426 210.51963674130081 Z" fill="#e34c26"/>
  <path class="slice" d="M 151.17481284843302 195.28340225400615 A 100 100 0 0 1 151.05160550965266 165.5357258121052 L 190.6309633057916 171.3214354872631 A 60 60 0 0 0 190.70488770905982 189.17004135240367 Z" fill="#563d7c"/>
  <path class="slice" d="M 151.05160550965266 165.5357258121052 A 100 100 0 0 1 158.7803025093425 139.02480274955434 L 195.2681815056055 155.4148816497326 A 60 60 0 0 0 190.6309633057916 171.3214354872631 Z" fill="#b07219"/>
  <path class="slice" d="M 158.7803025093425 139.02480274955434 A 100 100 0 0 1 172.27057624616543 117.08627587801831 L 203.36234574769927 142.251765526811 A 60 60 0 0 0 195.2681815056055 155.4148816497326 Z" fill="#00ADD8"/>
  <path class="slice" d="M 172.27057624616543 117.08627587801831 A 100 100 0 0 1 190.08297483195648 99.93783605839748 L 214.0497848991739 131.96270163503848 A 60 60 0 0 0 203.36234574769927 142.251765526811 Z" fill="#89e051"/>
  <path class="slice" d="M 190.08297483195648 99.93783605839748 A 100 100 0 0 1 205.54740560181733 90.42340232365008 L 223.3284433610904 126.25404139419004 A 60 60 0 0 0 214.0497848991739 131.96270163503848 Z" fill="#f34b7d"/>
  <circle cx="250" cy="180" r="60" fill="white"/>
  <rect x="30" y="220" width="15" height="15" fill="#3178c6"/>
  <text x="52" y="232" class="legend-text">PHP</text>
  <text x="470" y="232" text-anchor="end" class="legend-value">44.7%</text>
  <rect x="30" y="245" width="15" height="15" fill="#f1e05a"/>
  <text x="52" y="257" class="legend-text">JavaScript</text>
  <text x="470" y="257" text-anchor="end" class="legend-value">21.8%</text>
  <rect x="30" y="270" width="15" height="15" fill="#e34c26"/>
  <text x="52" y="282" class="legend-text">C#</text>
  <text x="470" y="282" text-anchor="end" class="legend-value">6.1%</text>
  <rect x="30" y="295" width="15" height="15" fill="#563d7c"/>
  <text x="52" y="307" class="legend-text">HTML</text>
  <text x="470" y="307" text-anchor="end" class="legend-value">4.8%</text>
  <rect x="30" y="320" width="15" height="15" fill="#b07219"/>
  <text x="52" y="332" class="legend-text">Python</text>
  <text x="470" y="332" text-anchor="end" class="legend-value">4.4%</text>
  <rect x="30" y="345" width="15" height="15" fill="#00ADD8"/>
  <text x="52" y="357" class="legend-text">CSS</text>
  <text x="470" y="357" text-anchor="end" class="legend-value">4.1%</text>
  <rect x="30" y="370" width="15" height="15" fill="#89e051"/>
  <text x="52" y="382" class="legend-text">TypeScript</text>
  <text x="470" y="382" text-anchor="end" class="legend-value">3.9%</text>
  <rect x="30" y="395" width="15" height="15" fill="#f34b7d"/>
  <text x="52" y="407" class="legend-text">Blade</text>
  <text x="470" y="407" text-anchor="end" class="legend-value">2.9%</text>
</svg>