<svg xmlns="http://www.w3.org/2000/svg" width="500" height="500" viewBox="0 0 500 500">
  <style>
    .chart-title { font: bold 18px Arial; fill: #333; }
    .legend-text { font: 12px Arial; fill: #666; }
    .legend-value { font: 12px Arial; fill: #333; }
    .slice { transition: opacity 0.2s; }
    .slice:hover { opacity: 0.8; }
  </style>

  <text x="250" y="30" text-anchor="middle" class="chart-title">Language Distribution</text>
  <path class="slice" d="M 250 80 A 100 100 0 1 1 228.66412431503164 277.6973920263769 L 237.19847458901899 238.61843521582614 A 60 60 0 1 0 250 120 Z" fill="#3178c6"/>
  <path class="slice" d="M 228.66412431503164 277.6973920263769 A 100 100 0 0 1 153.00574065032288 204.33338556813615 L 191.80344439019373 194.60003134088169 A 60 60 0 0 0 237.19847458901899 238.61843521582614 Z" fill="#f1e05a"/>
  <path class="slice" d="M 153.00574065032288 204.33338556813615 A 100 100 0 0 1 150.49990177686988 170.01348641479612 L 190.29994106612193 174.00809184887768 A 60 60 0 0 0 191.80344439019373 194.60003134088169 Z" fill="#e34c26"/>
  <path class="slice" d="M 150.49990177686988 170.01348641479612 A 100 100 0 0 1 157.92269076274113 140.99014068692117 L 194.7536144576447 156.5940844121527 A 60 60 0 0 0 190.29994106612193 174.00809184887768 Z" fill="#563d7c"/>
  <path class="slice" d="M 157.92269076274113 140.99014068692117 A 100 100 0 0 1 172.33799423450017 117.0030726108053 L 203.40279654070008 142.20184356648318 A 60 60 0 0 0 194.7536144576447 156.5940844121527 Z" fill="#b07219"/>
  <path class="slice" d="M 172.33799423450017 117.0030726108053 A 100 100 0 0 1 187.24254495568997 102.14435257246006 L 212.34552697341397 133.28661154347606 A 60 60 0 0 0 203.40279654070008 142.20184356648318 Z" fill="#00ADD8"/>
  <path class="slice" d="M 187.24254495568997 102.14435257246006 A 100 100 0 0 1 204.41946907217692 90.99204979139355 L 222.65168144330616 126.59522987483614 A 60 60 0 0 0 212.34552697341397 133.28661154347606 Z" fill="#89e051"/>
  <path class="slice" d="M 204.41946907217692 90.99204979139355 A 100 100 0 0 1 216.03503188438054 85.94479843780593 L 229.62101913062833 123.56687906268357 A 60 60 0 0 0 222.65168144330616 126.59522987483614 Z" fill="#f34b7d"/>
  <circle cx="250" cy="180" r="60" fill="white"/>
  <rect x="30" y="220" width="15" height="15" fill="#3178c6"/>
  <text x="52" y="232" class="legend-text">PHP</text>
  <text x="470" y="232" text-anchor="end" class="legend-value">53.4%</text>
  <rect x="30" y="245" width="15" height="15" fill="#f1e05a"/>
  <text x="52" y="257" class="legend-text">JavaScript</text>
  <text x="470" y="257" text-anchor="end" class="legend-value">17.7%</text>
  <rect x="30" y="270" width="15" height="15" fill="#e34c26"/>
  <text x="52" y="282" class="legend-text">Python</text>
  <text x="470" y="282" text-anchor="end" class="legend-value">5.5%</text>
  <rect x="30" y="295" width="15" height="15" fill="#563d7c"/>
  <text x="52" y="307" class="legend-text">CSS</text>
  <text x="470" y="307" text-anchor="end" class="legend-value">4.8%</text>
  <rect x="30" y="320" width="15" height="15" fill="#b07219"/>
  <text x="52" y="332" class="legend-text">HTML</text>
  <text x="470" y="332" text-anchor="end" class="legend-value">4.5%</text>
  <rect x="30" y="345" width="15" height="15" fill="#00ADD8"/>
  <text x="52" y="357" class="legend-text">Blade</text>
  <text x="470" y="357" text-anchor="end" class="legend-value">3.4%</text>
  <rect x="30" y="370" width="15" height="15" fill="#89e051"/>
  <text x="52" y="382" class="legend-text">TypeScript</text>
  <text x="470" y="382" text-anchor="end" class="legend-value">3.3%</text>
  <rect x="30" y="395" width="15" height="15" fill="#f34b7d"/>
  <text x="52" y="407" class="legend-text">Vue</text>
  <text x="470" y="407" text-anchor="end" class="legend-value">2.0%</text>
</svg>