<svg xmlns="http://www.w3.org/2000/svg" width="500" height="500" viewBox="0 0 500 500">
  <style>
    .chart-title { font: bold 18px Arial; fill: #333; }
    .legend-text { font: 12px Arial; fill: #666; }
    .legend-value { font: 12px Arial; fill: #333; }
    .slice { transition: opacity 0.2s; }
    .slice:hover { opacity: 0.8; }
  </style>

  <text x="250" y="30" text-anchor="middle" class="chart-title">Language Distribution</text>
  <path class="slice" d="M 250 80 A 100 100 0 1 1 231.06702680463133 278.19135667656013 L 238.6402160827788 238.91481400593608 A 60 60 0 1 0 250 120 Z" fill="#3178c6"/>
  <path class="slice" d="M 231.06702680463133 278.19135667656013 A 100 100 0 0 1 153.7329677775465 207.06766534226944 L 192.2397806665279 196.24059920536166 A 60 60 0 0 0 238.6402160827788 238.91481400593608 Z" fill="#f1e05a"/>
  <path class="slice" d="M 153.7329677775465 207.06766534226944 A 100 100 0 0 1 150.23915584089633 173.08812813609586 L 190.1434935045378 175.85287688165752 A 60 60 0 0 0 192.2397806665279 196.24059920536166 Z" fill="#e34c26"/>
  <path class="slice" d="M 150.23915584089633 173.08812813609586 A 100 100 0 0 1 156.81695201753524 143.710613553028 L 194.09017121052116 158.2263681318168 A 60 60 0 0 0 190.1434935045378 175.85287688165752 Z" fill="#563d7c"/>
  <path class="slice" d="M 156.81695201753524 143.710613553028 A 100 100 0 0 1 171.78286970273047 117.69365579605908 L 203.0697218216383 142.61619347763545 A 60 60 0 0 0 194.09017121052116 158.2263681318168 Z" fill="#b07219"/>
  <path class="slice" d="M 171.78286970273047 117.69365579605908 A 100 100 0 0 1 186.44471427593345 102.79426409564984 L 211.86682856556007 133.6765584573899 A 60 60 0 0 0 203.0697218216383 142.61619347763545 Z" fill="#00ADD8"/>
  <path class="slice" d="M 186.44471427593345 102.79426409564984 A 100 100 0 0 1 203.55154557309058 91.44187738354366 L 222.13092734385435 126.8651264301262 A 60 60 0 0 0 211.86682856556007 133.6765584573899 Z" fill="#89e051"/>
  <path class="slice" d="M 203.55154557309058 91.44187738354366 A 100 100 0 0 1 215.12517816183077 86.27835467856983 L 229.07510689709846 123.7670128071419 A 60 60 0 0 0 222.13092734385435 126.8651264301262 Z" fill="#f34b7d"/>
  <circle cx="250" cy="180" r="60" fill="white"/>
  <rect x="30" y="220" width="15" height="15" fill="#3178c6"/>
  <text x="52" y="232" class="legend-text">PHP</text>
  <text x="470" y="232" text-anchor="end" class="legend-value">53.0%</text>
  <rect x="30" y="245" width="15" height="15" fill="#f1e05a"/>
  <text x="52" y="257" class="legend-text">JavaScript</text>
  <text x="470" y="257" text-anchor="end" class="legend-value">17.6%</text>
  <rect x="30" y="270" width="15" height="15" fill="#e34c26"/>
  <text x="52" y="282" class="legend-text">Python</text>
  <text x="470" y="282" text-anchor="end" class="legend-value">5.5%</text>
  <rect x="30" y="295" width="15" height="15" fill="#563d7c"/>
  <text x="52" y="307" class="legend-text">HTML</text>
  <text x="470" y="307" text-anchor="end" class="legend-value">4.8%</text>
  <rect x="30" y="320" width="15" height="15" fill="#b07219"/>
  <text x="52" y="332" class="legend-text">CSS</text>
  <text x="470" y="332" text-anchor="end" class="legend-value">4.8%</text>
  <rect x="30" y="345" width="15" height="15" fill="#00ADD8"/>
  <text x="52" y="357" class="legend-text">Blade</text>
  <text x="470" y="357" text-anchor="end" class="legend-value">3.3%</text>
  <rect x="30" y="370" width="15" height="15" fill="#89e051"/>
  <text x="52" y="382" class="legend-text">TypeScript</text>
  <text x="470" y="382" text-anchor="end" class="legend-value">3.3%</text>
  <rect x="30" y="395" width="15" height="15" fill="#f34b7d"/>
  <text x="52" y="407" class="legend-text">Vue</text>
  <text x="470" y="407" text-anchor="end" class="legend-value">2.0%</text>
</svg>