<svg xmlns="http://www.w3.org/2000/svg" width="500" height="500" viewBox="0 0 500 500">
  <style>
    .chart-title { font: bold 18px Arial; fill: #333; }
    .legend-text { font: 12px Arial; fill: #666; }
    .legend-value { font: 12px Arial; fill: #333; }
    .slice { transition: opacity 0.2s; }
    .slice:hover { opacity: 0.8; }
  </style>

  <text x="250" y="30" text-anchor="middle" class="chart-title">Language Distribution</text>
  <path class="slice" d="M 250 80 A 100 100 0 0 1 285.0002309993014 273.67488366683756 L 271.00013859958085 236.20493020010252 A 60 60 0 0 0 250 120 Z" fill="#3178c6"/>
  <path class="slice" d="M 285.0002309993014 273.67488366683756 A 100 100 0 0 1 165.76826688058128 233.89819232311058 L 199.46096012834875 212.33891539386633 A 60 60 0 0 0 271.00013859958085 236.20493020010252 Z" fill="#f1e05a"/>
  <path class="slice" d="M 165.76826688058128 233.89819232311058 A 100 100 0 0 1 151.85245999035618 199.15882016344864 L 191.11147599421372 191.49529209806917 A 60 60 0 0 0 199.46096012834875 212.33891539386633 Z" fill="#e34c26"/>
  <path class="slice" d="M 151.85245999035618 199.15882016344864 A 100 100 0 0 1 150.53467213769113 169.67292135967756 L 190.3208032826147 173.80375281580655 A 60 60 0 0 0 191.11147599421372 191.49529209806917 Z" fill="#563d7c"/>
  <path class="slice" d="M 150.53467213769113 169.67292135967756 A 100 100 0 0 1 157.05394865093703 143.10783906278533 L 194.23236919056222 157.86470343767118 A 60 60 0 0 0 190.3208032826147 173.80375281580655 Z" fill="#b07219"/>
  <path class="slice" d="M 157.05394865093703 143.10783906278533 A 100 100 0 0 1 169.41366339605082 120.78984586445497 L 201.6481980376305 144.47390751867297 A 60 60 0 0 0 194.23236919056222 157.86470343767118 Z" fill="#00ADD8"/>
  <path class="slice" d="M 169.41366339605082 120.78984586445497 A 100 100 0 0 1 186.9796885612178 102.35696846362258 L 212.18781313673068 133.41418107817356 A 60 60 0 0 0 201.6481980376305 144.47390751867297 Z" fill="#89e051"/>
  <path class="slice" d="M 186.9796885612178 102.35696846362258 A 100 100 0 0 1 201.90717321685963 92.32400549747466 L 221.14430393011577 127.39440329848479 A 60 60 0 0 0 212.18781313673068 133.41418107817356 Z" fill="#f34b7d"/>
  <circle cx="250" cy="180" r="60" fill="white"/>
  <rect x="30" y="220" width="15" height="15" fill="#3178c6"/>
  <text x="52" y="232" class="legend-text">PHP</text>
  <text x="470" y="232" text-anchor="end" class="legend-value">44.3%</text>
  <rect x="30" y="245" width="15" height="15" fill="#f1e05a"/>
  <text x="52" y="257" class="legend-text">JavaScript</text>
  <text x="470" y="257" text-anchor="end" class="legend-value">21.6%</text>
  <rect x="30" y="270" width="15" height="15" fill="#e34c26"/>
  <text x="52" y="282" class="legend-text">C#</text>
  <text x="470" y="282" text-anchor="end" class="legend-value">6.0%</text>
  <rect x="30" y="295" width="15" height="15" fill="#563d7c"/>
  <text x="52" y="307" class="legend-text">HTML</text>
  <text x="470" y="307" text-anchor="end" class="legend-value">4.7%</text>
  <rect x="30" y="320" width="15" height="15" fill="#b07219"/>
  <text x="52" y="332" class="legend-text">Python</text>
  <text x="470" y="332" text-anchor="end" class="legend-value">4.4%</text>
  <rect x="30" y="345" width="15" height="15" fill="#00ADD8"/>
  <text x="52" y="357" class="legend-text">CSS</text>
  <text x="470" y="357" text-anchor="end" class="legend-value">4.1%</text>
  <rect x="30" y="370" width="15" height="15" fill="#89e051"/>
  <text x="52" y="382" class="legend-text">TypeScript</text>
  <text x="470" y="382" text-anchor="end" class="legend-value">4.1%</text>
  <rect x="30" y="395" width="15" height="15" fill="#f34b7d"/>
  <text x="52" y="407" class="legend-text">Blade</text>
  <text x="470" y="407" text-anchor="end" class="legend-value">2.9%</text>
</svg>