<svg xmlns="http://www.w3.org/2000/svg" width="500" height="500" viewBox="0 0 500 500">
  <style>
    .chart-title { font: bold 18px Arial; fill: #333; }
    .legend-text { font: 12px Arial; fill: #666; }
    .legend-value { font: 12px Arial; fill: #333; }
    .slice { transition: opacity 0.2s; }
    .slice:hover { opacity: 0.8; }
  </style>

  <text x="250" y="30" text-anchor="middle" class="chart-title">Language Distribution</text>
  <path class="slice" d="M 250 80 A 100 100 0 0 1 279.53107836378706 275.5401246109291 L 267.71864701827224 237.3240747665575 A 60 60 0 0 0 250 120 Z" fill="#3178c6"/>
  <path class="slice" d="M 279.53107836378706 275.5401246109291 A 100 100 0 0 1 161.5637809342585 226.6801366467171 L 196.93826856055512 208.00808198803026 A 60 60 0 0 0 267.71864701827224 237.3240747665575 Z" fill="#f1e05a"/>
  <path class="slice" d="M 161.5637809342585 226.6801366467171 A 100 100 0 0 1 150.50671312014367 190.0541466988806 L 190.3040278720862 186.03248801932835 A 60 60 0 0 0 196.93826856055512 208.00808198803026 Z" fill="#e34c26"/>
  <path class="slice" d="M 150.50671312014367 190.0541466988806 A 100 100 0 0 1 152.02562421424642 159.97447405454864 L 191.21537452854787 167.98468443272918 A 60 60 0 0 0 190.3040278720862 186.03248801932835 Z" fill="#563d7c"/>
  <path class="slice" d="M 152.02562421424642 159.97447405454864 A 100 100 0 0 1 161.39633872736135 133.638472748587 L 196.8378032364168 152.1830836491522 A 60 60 0 0 0 191.21537452854787 167.98468443272918 Z" fill="#b07219"/>
  <path class="slice" d="M 161.39633872736135 133.638472748587 A 100 100 0 0 1 176.39218945293564 112.31033885099231 L 205.83531367176138 139.3862033105954 A 60 60 0 0 0 196.8378032364168 152.1830836491522 Z" fill="#00ADD8"/>
  <path class="slice" d="M 176.39218945293564 112.31033885099231 A 100 100 0 0 1 189.9955485533015 100.00333877854152 L 213.99732913198088 132.0020032671249 A 60 60 0 0 0 205.83531367176138 139.3862033105954 Z" fill="#89e051"/>
  <path class="slice" d="M 189.9955485533015 100.00333877854152 A 100 100 0 0 1 205.1510084018804 90.62121083483063 L 223.09060504112824 126.37272650089838 A 60 60 0 0 0 213.99732913198088 132.0020032671249 Z" fill="#f34b7d"/>
  <circle cx="250" cy="180" r="60" fill="white"/>
  <rect x="30" y="220" width="15" height="15" fill="#3178c6"/>
  <text x="52" y="232" class="legend-text">PHP</text>
  <text x="470" y="232" text-anchor="end" class="legend-value">45.2%</text>
  <rect x="30" y="245" width="15" height="15" fill="#f1e05a"/>
  <text x="52" y="257" class="legend-text">JavaScript</text>
  <text x="470" y="257" text-anchor="end" class="legend-value">22.0%</text>
  <rect x="30" y="270" width="15" height="15" fill="#e34c26"/>
  <text x="52" y="282" class="legend-text">C#</text>
  <text x="470" y="282" text-anchor="end" class="legend-value">6.1%</text>
  <rect x="30" y="295" width="15" height="15" fill="#563d7c"/>
  <text x="52" y="307" class="legend-text">HTML</text>
  <text x="470" y="307" text-anchor="end" class="legend-value">4.8%</text>
  <rect x="30" y="320" width="15" height="15" fill="#b07219"/>
  <text x="52" y="332" class="legend-text">Python</text>
  <text x="470" y="332" text-anchor="end" class="legend-value">4.5%</text>
  <rect x="30" y="345" width="15" height="15" fill="#00ADD8"/>
  <text x="52" y="357" class="legend-text">CSS</text>
  <text x="470" y="357" text-anchor="end" class="legend-value">4.2%</text>
  <rect x="30" y="370" width="15" height="15" fill="#89e051"/>
  <text x="52" y="382" class="legend-text">Blade</text>
  <text x="470" y="382" text-anchor="end" class="legend-value">2.9%</text>
  <rect x="30" y="395" width="15" height="15" fill="#f34b7d"/>
  <text x="52" y="407" class="legend-text">TypeScript</text>
  <text x="470" y="407" text-anchor="end" class="legend-value">2.8%</text>
</svg>