<svg xmlns="http://www.w3.org/2000/svg" width="500" height="500" viewBox="0 0 500 500">
  <style>
    .chart-title { font: bold 18px Arial; fill: #333; }
    .legend-text { font: 12px Arial; fill: #666; }
    .legend-value { font: 12px Arial; fill: #333; }
    .slice { transition: opacity 0.2s; }
    .slice:hover { opacity: 0.8; }
  </style>

  <text x="250" y="30" text-anchor="middle" class="chart-title">Language Distribution</text>
  <path class="slice" d="M 250 80 A 100 100 0 0 1 285.03185740897317 273.66306084298856 L 271.01911444538393 236.1978365057931 A 60 60 0 0 0 250 120 Z" fill="#3178c6"/>
  <path class="slice" d="M 285.03185740897317 273.66306084298856 A 100 100 0 0 1 165.78466263814903 233.9238069226351 L 199.47079758288942 212.35428415358106 A 60 60 0 0 0 271.01911444538393 236.1978365057931 Z" fill="#f1e05a"/>
  <path class="slice" d="M 165.78466263814903 233.9238069226351 A 100 100 0 0 1 151.85808371355284 199.18760713648265 L 191.1148502281317 191.51256428188958 A 60 60 0 0 0 199.47079758288942 212.35428415358106 Z" fill="#e34c26"/>
  <path class="slice" d="M 151.85808371355284 199.18760713648265 A 100 100 0 0 1 150.53173500991707 169.70124959703162 L 190.31904100595023 173.82074975821897 A 60 60 0 0 0 191.1148502281317 191.51256428188958 Z" fill="#563d7c"/>
  <path class="slice" d="M 150.53173500991707 169.70124959703162 A 100 100 0 0 1 157.0437361141373 143.1335789046203 L 194.22624166848237 157.88014734277218 A 60 60 0 0 0 190.31904100595023 173.82074975821897 Z" fill="#b07219"/>
  <path class="slice" d="M 157.0437361141373 143.1335789046203 A 100 100 0 0 1 169.39770512444798 120.81157156339965 L 201.6386230746688 144.4869429380398 A 60 60 0 0 0 194.22624166848237 157.88014734277218 Z" fill="#00ADD8"/>
  <path class="slice" d="M 169.39770512444798 120.81157156339965 A 100 100 0 0 1 186.82337486937524 102.48410461650778 L 212.09402492162513 133.49046276990467 A 60 60 0 0 0 201.6386230746688 144.4869429380398 Z" fill="#89e051"/>
  <path class="slice" d="M 186.82337486937524 102.48410461650778 A 100 100 0 0 1 201.72566839030517 92.42381084086144 L 221.0354010341831 127.45428650451686 A 60 60 0 0 0 212.09402492162513 133.49046276990467 Z" fill="#f34b7d"/>
  <circle cx="250" cy="180" r="60" fill="white"/>
  <rect x="30" y="220" width="15" height="15" fill="#3178c6"/>
  <text x="52" y="232" class="legend-text">PHP</text>
  <text x="470" y="232" text-anchor="end" class="legend-value">44.3%</text>
  <rect x="30" y="245" width="15" height="15" fill="#f1e05a"/>
  <text x="52" y="257" class="legend-text">JavaScript</text>
  <text x="470" y="257" text-anchor="end" class="legend-value">21.6%</text>
  <rect x="30" y="270" width="15" height="15" fill="#e34c26"/>
  <text x="52" y="282" class="legend-text">C#</text>
  <text x="470" y="282" text-anchor="end" class="legend-value">6.0%</text>
  <rect x="30" y="295" width="15" height="15" fill="#563d7c"/>
  <text x="52" y="307" class="legend-text">HTML</text>
  <text x="470" y="307" text-anchor="end" class="legend-value">4.7%</text>
  <rect x="30" y="320" width="15" height="15" fill="#b07219"/>
  <text x="52" y="332" class="legend-text">Python</text>
  <text x="470" y="332" text-anchor="end" class="legend-value">4.4%</text>
  <rect x="30" y="345" width="15" height="15" fill="#00ADD8"/>
  <text x="52" y="357" class="legend-text">CSS</text>
  <text x="470" y="357" text-anchor="end" class="legend-value">4.1%</text>
  <rect x="30" y="370" width="15" height="15" fill="#89e051"/>
  <text x="52" y="382" class="legend-text">TypeScript</text>
  <text x="470" y="382" text-anchor="end" class="legend-value">4.0%</text>
  <rect x="30" y="395" width="15" height="15" fill="#f34b7d"/>
  <text x="52" y="407" class="legend-text">Blade</text>
  <text x="470" y="407" text-anchor="end" class="legend-value">2.9%</text>
</svg>