<svg xmlns="http://www.w3.org/2000/svg" width="500" height="500" viewBox="0 0 500 500">
  <style>
    .chart-title { font: bold 18px Arial; fill: #333; }
    .legend-text { font: 12px Arial; fill: #666; }
    .legend-value { font: 12px Arial; fill: #333; }
    .slice { transition: opacity 0.2s; }
    .slice:hover { opacity: 0.8; }
  </style>

  <text x="250" y="30" text-anchor="middle" class="chart-title">Language Distribution</text>
  <path class="slice" d="M 250 80 A 100 100 0 0 1 282.45637660425524 274.5863817773085 L 269.4738259625531 236.75182906638508 A 60 60 0 0 0 250 120 Z" fill="#3178c6"/>
  <path class="slice" d="M 282.45637660425524 274.5863817773085 A 100 100 0 0 1 163.86613910232217 230.80312989235495 L 198.3196834613933 210.48187793541297 A 60 60 0 0 0 269.4738259625531 236.75182906638508 Z" fill="#f1e05a"/>
  <path class="slice" d="M 163.86613910232217 230.80312989235495 A 100 100 0 0 1 151.1621316931059 195.20117720931694 L 190.69727901586353 189.12070632559016 A 60 60 0 0 0 198.3196834613933 210.48187793541297 Z" fill="#e34c26"/>
  <path class="slice" d="M 151.1621316931059 195.20117720931694 A 100 100 0 0 1 151.06482997341635 165.4455459803198 L 190.6388979840498 171.26732758819188 A 60 60 0 0 0 190.69727901586353 189.12070632559016 Z" fill="#563d7c"/>
  <path class="slice" d="M 151.06482997341635 165.4455459803198 A 100 100 0 0 1 158.82071460373012 138.93495507581216 L 195.29242876223807 155.3609730454873 A 60 60 0 0 0 190.6388979840498 171.26732758819188 Z" fill="#b07219"/>
  <path class="slice" d="M 158.82071460373012 138.93495507581216 A 100 100 0 0 1 172.3369251542672 117.00439058548521 L 203.40215509256032 142.20263435129112 A 60 60 0 0 0 195.29242876223807 155.3609730454873 Z" fill="#00ADD8"/>
  <path class="slice" d="M 172.3369251542672 117.00439058548521 A 100 100 0 0 1 190.17267347379646 99.8707855977171 L 214.1036040842779 131.92247135863028 A 60 60 0 0 0 203.40215509256032 142.20263435129112 Z" fill="#89e051"/>
  <path class="slice" d="M 190.17267347379646 99.8707855977171 A 100 100 0 0 1 205.65208701381573 90.37153011587317 L 223.39125220828944 126.2229180695239 A 60 60 0 0 0 214.1036040842779 131.92247135863028 Z" fill="#f34b7d"/>
  <circle cx="250" cy="180" r="60" fill="white"/>
  <rect x="30" y="220" width="15" height="15" fill="#3178c6"/>
  <text x="52" y="232" class="legend-text">PHP</text>
  <text x="470" y="232" text-anchor="end" class="legend-value">44.7%</text>
  <rect x="30" y="245" width="15" height="15" fill="#f1e05a"/>
  <text x="52" y="257" class="legend-text">JavaScript</text>
  <text x="470" y="257" text-anchor="end" class="legend-value">21.8%</text>
  <rect x="30" y="270" width="15" height="15" fill="#e34c26"/>
  <text x="52" y="282" class="legend-text">C#</text>
  <text x="470" y="282" text-anchor="end" class="legend-value">6.1%</text>
  <rect x="30" y="295" width="15" height="15" fill="#563d7c"/>
  <text x="52" y="307" class="legend-text">HTML</text>
  <text x="470" y="307" text-anchor="end" class="legend-value">4.8%</text>
  <rect x="30" y="320" width="15" height="15" fill="#b07219"/>
  <text x="52" y="332" class="legend-text">Python</text>
  <text x="470" y="332" text-anchor="end" class="legend-value">4.4%</text>
  <rect x="30" y="345" width="15" height="15" fill="#00ADD8"/>
  <text x="52" y="357" class="legend-text">CSS</text>
  <text x="470" y="357" text-anchor="end" class="legend-value">4.1%</text>
  <rect x="30" y="370" width="15" height="15" fill="#89e051"/>
  <text x="52" y="382" class="legend-text">TypeScript</text>
  <text x="470" y="382" text-anchor="end" class="legend-value">3.9%</text>
  <rect x="30" y="395" width="15" height="15" fill="#f34b7d"/>
  <text x="52" y="407" class="legend-text">Blade</text>
  <text x="470" y="407" text-anchor="end" class="legend-value">2.9%</text>
</svg>