<svg xmlns="http://www.w3.org/2000/svg" width="500" height="500" viewBox="0 0 500 500">
  <style>
    .chart-title { font: bold 18px Arial; fill: #333; }
    .legend-text { font: 12px Arial; fill: #666; }
    .legend-value { font: 12px Arial; fill: #333; }
    .slice { transition: opacity 0.2s; }
    .slice:hover { opacity: 0.8; }
  </style>

  <text x="250" y="30" text-anchor="middle" class="chart-title">Language Distribution</text>
  <path class="slice" d="M 250 80 A 100 100 0 0 1 266.331532713934 278.65739221778415 L 259.7989196283604 239.1944353306705 A 60 60 0 0 0 250 120 Z" fill="#3178c6"/>
  <path class="slice" d="M 266.331532713934 278.65739221778415 A 100 100 0 0 1 166.52260952972387 235.05928877376687 L 199.91356571783433 213.0355732642601 A 60 60 0 0 0 259.7989196283604 239.1944353306705 Z" fill="#f1e05a"/>
  <path class="slice" d="M 166.52260952972387 235.05928877376687 A 100 100 0 0 1 152.047615031841 200.13281597416457 L 191.22856901910458 192.07968958449874 A 60 60 0 0 0 199.91356571783433 213.0355732642601 Z" fill="#e34c26"/>
  <path class="slice" d="M 152.047615031841 200.13281597416457 A 100 100 0 0 1 150.59793898328581 169.0807387782217 L 190.3587633899715 173.44844326693303 A 60 60 0 0 0 191.22856901910458 192.07968958449874 Z" fill="#563d7c"/>
  <path class="slice" d="M 150.59793898328581 169.0807387782217 A 100 100 0 0 1 158.4984760776255 139.65807243223094 L 195.0990856465753 155.79484345933855 A 60 60 0 0 0 190.3587633899715 173.44844326693303 Z" fill="#b07219"/>
  <path class="slice" d="M 158.4984760776255 139.65807243223094 A 100 100 0 0 1 173.3879319348988 115.73032576099128 L 204.0327591609393 141.43819545659477 A 60 60 0 0 0 195.0990856465753 155.79484345933855 Z" fill="#00ADD8"/>
  <path class="slice" d="M 173.3879319348988 115.73032576099128 A 100 100 0 0 1 187.2467571942372 102.14095738219625 L 212.34805431654232 133.28457442931776 A 60 60 0 0 0 204.0327591609393 141.43819545659477 Z" fill="#89e051"/>
  <path class="slice" d="M 187.2467571942372 102.14095738219625 A 100 100 0 0 1 202.77902052997672 91.85138062401863 L 221.66741231798602 127.11082837441117 A 60 60 0 0 0 212.34805431654232 133.28457442931776 Z" fill="#f34b7d"/>
  <circle cx="250" cy="180" r="60" fill="white"/>
  <rect x="30" y="220" width="15" height="15" fill="#3178c6"/>
  <text x="52" y="232" class="legend-text">PHP</text>
  <text x="470" y="232" text-anchor="end" class="legend-value">47.4%</text>
  <rect x="30" y="245" width="15" height="15" fill="#f1e05a"/>
  <text x="52" y="257" class="legend-text">JavaScript</text>
  <text x="470" y="257" text-anchor="end" class="legend-value">18.3%</text>
  <rect x="30" y="270" width="15" height="15" fill="#e34c26"/>
  <text x="52" y="282" class="legend-text">C#</text>
  <text x="470" y="282" text-anchor="end" class="legend-value">6.1%</text>
  <rect x="30" y="295" width="15" height="15" fill="#563d7c"/>
  <text x="52" y="307" class="legend-text">HTML</text>
  <text x="470" y="307" text-anchor="end" class="legend-value">5.0%</text>
  <rect x="30" y="320" width="15" height="15" fill="#b07219"/>
  <text x="52" y="332" class="legend-text">Python</text>
  <text x="470" y="332" text-anchor="end" class="legend-value">4.9%</text>
  <rect x="30" y="345" width="15" height="15" fill="#00ADD8"/>
  <text x="52" y="357" class="legend-text">CSS</text>
  <text x="470" y="357" text-anchor="end" class="legend-value">4.5%</text>
  <rect x="30" y="370" width="15" height="15" fill="#89e051"/>
  <text x="52" y="382" class="legend-text">TypeScript</text>
  <text x="470" y="382" text-anchor="end" class="legend-value">3.1%</text>
  <rect x="30" y="395" width="15" height="15" fill="#f34b7d"/>
  <text x="52" y="407" class="legend-text">Blade</text>
  <text x="470" y="407" text-anchor="end" class="legend-value">3.0%</text>
</svg>