<svg xmlns="http://www.w3.org/2000/svg" width="500" height="500" viewBox="0 0 500 500">
  <style>
    .chart-title { font: bold 18px Arial; fill: #333; }
    .legend-text { font: 12px Arial; fill: #666; }
    .legend-value { font: 12px Arial; fill: #333; }
    .slice { transition: opacity 0.2s; }
    .slice:hover { opacity: 0.8; }
  </style>

  <text x="250" y="30" text-anchor="middle" class="chart-title">Language Distribution</text>
  <path class="slice" d="M 250 80 A 100 100 0 0 1 285.0347833782843 273.66196641986915 L 271.02087002697056 236.19717985192148 A 60 60 0 0 0 250 120 Z" fill="#3178c6"/>
  <path class="slice" d="M 285.0347833782843 273.66196641986915 A 100 100 0 0 1 165.78716979015059 233.9277222590299 L 199.47230187409033 212.35663335541796 A 60 60 0 0 0 271.02087002697056 236.19717985192148 Z" fill="#f1e05a"/>
  <path class="slice" d="M 165.78716979015059 233.9277222590299 A 100 100 0 0 1 151.85905698557394 199.1925846159182 L 191.11543419134438 191.51555076955094 A 60 60 0 0 0 199.47230187409033 212.35663335541796 Z" fill="#e34c26"/>
  <path class="slice" d="M 151.85905698557394 199.1925846159182 A 100 100 0 0 1 150.5311785904112 169.70662507302256 L 190.3187071542467 173.82397504381353 A 60 60 0 0 0 191.11543419134438 191.51555076955094 Z" fill="#563d7c"/>
  <path class="slice" d="M 150.5311785904112 169.70662507302256 A 100 100 0 0 1 157.04163040420633 143.138888756688 L 194.2249782425238 157.8833332540128 A 60 60 0 0 0 190.3187071542467 173.82397504381353 Z" fill="#b07219"/>
  <path class="slice" d="M 157.04163040420633 143.138888756688 A 100 100 0 0 1 169.3941544172244 120.81640719011955 L 201.63649265033465 144.48984431407172 A 60 60 0 0 0 194.2249782425238 157.8833332540128 Z" fill="#00ADD8"/>
  <path class="slice" d="M 169.3941544172244 120.81640719011955 A 100 100 0 0 1 186.81850404890818 102.48807466342893 L 212.09110242934491 133.49284479805735 A 60 60 0 0 0 201.63649265033465 144.48984431407172 Z" fill="#89e051"/>
  <path class="slice" d="M 186.81850404890818 102.48807466342893 A 100 100 0 0 1 201.71998842717719 92.42694202822368 L 221.0319930563063 127.45616521693421 A 60 60 0 0 0 212.09110242934491 133.49284479805735 Z" fill="#f34b7d"/>
  <circle cx="250" cy="180" r="60" fill="white"/>
  <rect x="30" y="220" width="15" height="15" fill="#3178c6"/>
  <text x="52" y="232" class="legend-text">PHP</text>
  <text x="470" y="232" text-anchor="end" class="legend-value">44.3%</text>
  <rect x="30" y="245" width="15" height="15" fill="#f1e05a"/>
  <text x="52" y="257" class="legend-text">JavaScript</text>
  <text x="470" y="257" text-anchor="end" class="legend-value">21.6%</text>
  <rect x="30" y="270" width="15" height="15" fill="#e34c26"/>
  <text x="52" y="282" class="legend-text">C#</text>
  <text x="470" y="282" text-anchor="end" class="legend-value">6.0%</text>
  <rect x="30" y="295" width="15" height="15" fill="#563d7c"/>
  <text x="52" y="307" class="legend-text">HTML</text>
  <text x="470" y="307" text-anchor="end" class="legend-value">4.7%</text>
  <rect x="30" y="320" width="15" height="15" fill="#b07219"/>
  <text x="52" y="332" class="legend-text">Python</text>
  <text x="470" y="332" text-anchor="end" class="legend-value">4.4%</text>
  <rect x="30" y="345" width="15" height="15" fill="#00ADD8"/>
  <text x="52" y="357" class="legend-text">CSS</text>
  <text x="470" y="357" text-anchor="end" class="legend-value">4.1%</text>
  <rect x="30" y="370" width="15" height="15" fill="#89e051"/>
  <text x="52" y="382" class="legend-text">TypeScript</text>
  <text x="470" y="382" text-anchor="end" class="legend-value">4.0%</text>
  <rect x="30" y="395" width="15" height="15" fill="#f34b7d"/>
  <text x="52" y="407" class="legend-text">Blade</text>
  <text x="470" y="407" text-anchor="end" class="legend-value">2.9%</text>
</svg>