<svg xmlns="http://www.w3.org/2000/svg" width="500" height="500" viewBox="0 0 500 500">
  <style>
    .chart-title { font: bold 18px Arial; fill: #333; }
    .legend-text { font: 12px Arial; fill: #666; }
    .legend-value { font: 12px Arial; fill: #333; }
    .slice { transition: opacity 0.2s; }
    .slice:hover { opacity: 0.8; }
  </style>

  <text x="250" y="30" text-anchor="middle" class="chart-title">Language Distribution</text>
  <path class="slice" d="M 250 80 A 100 100 0 0 1 282.8490018665089 274.4507441811556 L 269.70940111990535 236.67044650869335 A 60 60 0 0 0 250 120 Z" fill="#3178c6"/>
  <path class="slice" d="M 282.8490018665089 274.4507441811556 A 100 100 0 0 1 164.1135067772659 231.22021360655629 L 198.46810406635956 210.73212816393377 A 60 60 0 0 0 269.70940111990535 236.67044650869335 Z" fill="#f1e05a"/>
  <path class="slice" d="M 164.1135067772659 231.22021360655629 A 100 100 0 0 1 151.24575868791499 195.73530498193423 L 190.747455212749 189.44118298916052 A 60 60 0 0 0 198.46810406635956 210.73212816393377 Z" fill="#e34c26"/>
  <path class="slice" d="M 151.24575868791499 195.73530498193423 A 100 100 0 0 1 150.98146508506426 166.02395823919915 L 190.58887905103853 171.6143749435195 A 60 60 0 0 0 190.747455212749 189.44118298916052 Z" fill="#563d7c"/>
  <path class="slice" d="M 150.98146508506426 166.02395823919915 A 100 100 0 0 1 158.5682511216785 139.5001815182888 L 195.1409506730071 155.70010891097328 A 60 60 0 0 0 190.58887905103853 171.6143749435195 Z" fill="#b07219"/>
  <path class="slice" d="M 158.5682511216785 139.5001815182888 A 100 100 0 0 1 171.92619484602216 117.51415401245893 L 203.15571690761328 142.50849240747536 A 60 60 0 0 0 195.1409506730071 155.70010891097328 Z" fill="#00ADD8"/>
  <path class="slice" d="M 171.92619484602216 117.51415401245893 A 100 100 0 0 1 189.92007084426297 100.06000930296766 L 213.95204250655777 132.03600558178059 A 60 60 0 0 0 203.15571690761328 142.50849240747536 Z" fill="#89e051"/>
  <path class="slice" d="M 189.92007084426297 100.06000930296766 A 100 100 0 0 1 205.34663785314766 90.52331449488054 L 223.20798271188858 126.31398869692833 A 60 60 0 0 0 213.95204250655777 132.03600558178059 Z" fill="#f34b7d"/>
  <circle cx="250" cy="180" r="60" fill="white"/>
  <rect x="30" y="220" width="15" height="15" fill="#3178c6"/>
  <text x="52" y="232" class="legend-text">PHP</text>
  <text x="470" y="232" text-anchor="end" class="legend-value">44.7%</text>
  <rect x="30" y="245" width="15" height="15" fill="#f1e05a"/>
  <text x="52" y="257" class="legend-text">JavaScript</text>
  <text x="470" y="257" text-anchor="end" class="legend-value">21.8%</text>
  <rect x="30" y="270" width="15" height="15" fill="#e34c26"/>
  <text x="52" y="282" class="legend-text">C#</text>
  <text x="470" y="282" text-anchor="end" class="legend-value">6.0%</text>
  <rect x="30" y="295" width="15" height="15" fill="#563d7c"/>
  <text x="52" y="307" class="legend-text">HTML</text>
  <text x="470" y="307" text-anchor="end" class="legend-value">4.7%</text>
  <rect x="30" y="320" width="15" height="15" fill="#b07219"/>
  <text x="52" y="332" class="legend-text">Python</text>
  <text x="470" y="332" text-anchor="end" class="legend-value">4.4%</text>
  <rect x="30" y="345" width="15" height="15" fill="#00ADD8"/>
  <text x="52" y="357" class="legend-text">CSS</text>
  <text x="470" y="357" text-anchor="end" class="legend-value">4.1%</text>
  <rect x="30" y="370" width="15" height="15" fill="#89e051"/>
  <text x="52" y="382" class="legend-text">TypeScript</text>
  <text x="470" y="382" text-anchor="end" class="legend-value">4.0%</text>
  <rect x="30" y="395" width="15" height="15" fill="#f34b7d"/>
  <text x="52" y="407" class="legend-text">Blade</text>
  <text x="470" y="407" text-anchor="end" class="legend-value">2.9%</text>
</svg>