<svg xmlns="http://www.w3.org/2000/svg" width="500" height="500" viewBox="0 0 500 500">
  <style>
    .chart-title { font: bold 18px Arial; fill: #333; }
    .legend-text { font: 12px Arial; fill: #666; }
    .legend-value { font: 12px Arial; fill: #333; }
    .slice { transition: opacity 0.2s; }
    .slice:hover { opacity: 0.8; }
  </style>

  <text x="250" y="30" text-anchor="middle" class="chart-title">Language Distribution</text>
  <path class="slice" d="M 250 80 A 100 100 0 0 1 282.5267760636582 274.56219561169587 L 269.5160656381949 236.7373173670175 A 60 60 0 0 0 250 120 Z" fill="#3178c6"/>
  <path class="slice" d="M 282.5267760636582 274.56219561169587 A 100 100 0 0 1 163.90473922763556 230.86851749892625 L 198.34284353658134 210.52111049935576 A 60 60 0 0 0 269.5160656381949 236.7373173670175 Z" fill="#f1e05a"/>
  <path class="slice" d="M 163.90473922763556 230.86851749892625 A 100 100 0 0 1 151.1753261109755 195.28672073166652 L 190.70519566658533 189.1720324389999 A 60 60 0 0 0 198.34284353658134 210.52111049935576 Z" fill="#e34c26"/>
  <path class="slice" d="M 151.1753261109755 195.28672073166652 A 100 100 0 0 1 151.05106251232172 165.5394408801204 L 190.63063750739303 171.32366452807224 A 60 60 0 0 0 190.70519566658533 189.1720324389999 Z" fill="#563d7c"/>
  <path class="slice" d="M 151.05106251232172 165.5394408801204 A 100 100 0 0 1 158.77861337933922 139.0285633275579 L 195.26716802760353 155.41713799653473 A 60 60 0 0 0 190.63063750739303 171.32366452807224 Z" fill="#b07219"/>
  <path class="slice" d="M 158.77861337933922 139.0285633275579 A 100 100 0 0 1 172.26776687827072 117.08974698899128 L 203.36066012696244 142.25384819339476 A 60 60 0 0 0 195.26716802760353 155.41713799653473 Z" fill="#00ADD8"/>
  <path class="slice" d="M 172.26776687827072 117.08974698899128 A 100 100 0 0 1 190.07913606673605 99.94070906202536 L 214.04748164004164 131.96442543721523 A 60 60 0 0 0 203.36066012696244 142.25384819339476 Z" fill="#89e051"/>
  <path class="slice" d="M 190.07913606673605 99.94070906202536 A 100 100 0 0 1 205.54289429200102 90.42564121319202 L 223.3257365752006 126.25538472791521 A 60 60 0 0 0 214.04748164004164 131.96442543721523 Z" fill="#f34b7d"/>
  <circle cx="250" cy="180" r="60" fill="white"/>
  <rect x="30" y="220" width="15" height="15" fill="#3178c6"/>
  <text x="52" y="232" class="legend-text">PHP</text>
  <text x="470" y="232" text-anchor="end" class="legend-value">44.7%</text>
  <rect x="30" y="245" width="15" height="15" fill="#f1e05a"/>
  <text x="52" y="257" class="legend-text">JavaScript</text>
  <text x="470" y="257" text-anchor="end" class="legend-value">21.8%</text>
  <rect x="30" y="270" width="15" height="15" fill="#e34c26"/>
  <text x="52" y="282" class="legend-text">C#</text>
  <text x="470" y="282" text-anchor="end" class="legend-value">6.1%</text>
  <rect x="30" y="295" width="15" height="15" fill="#563d7c"/>
  <text x="52" y="307" class="legend-text">HTML</text>
  <text x="470" y="307" text-anchor="end" class="legend-value">4.8%</text>
  <rect x="30" y="320" width="15" height="15" fill="#b07219"/>
  <text x="52" y="332" class="legend-text">Python</text>
  <text x="470" y="332" text-anchor="end" class="legend-value">4.4%</text>
  <rect x="30" y="345" width="15" height="15" fill="#00ADD8"/>
  <text x="52" y="357" class="legend-text">CSS</text>
  <text x="470" y="357" text-anchor="end" class="legend-value">4.1%</text>
  <rect x="30" y="370" width="15" height="15" fill="#89e051"/>
  <text x="52" y="382" class="legend-text">TypeScript</text>
  <text x="470" y="382" text-anchor="end" class="legend-value">3.9%</text>
  <rect x="30" y="395" width="15" height="15" fill="#f34b7d"/>
  <text x="52" y="407" class="legend-text">Blade</text>
  <text x="470" y="407" text-anchor="end" class="legend-value">2.9%</text>
</svg>