<svg xmlns="http://www.w3.org/2000/svg" width="500" height="400" viewBox="0 0 500 400">
  <style>
    .chart-title { font: bold 18px Arial; fill: #333; }
    .legend-text { font: 12px Arial; fill: #666; }
    .legend-value { font: 12px Arial; fill: #333; }
    .slice { transition: opacity 0.2s; }
    .slice:hover { opacity: 0.8; }
  </style>

  <text x="250" y="30" text-anchor="middle" class="chart-title">Language Distribution</text>
  <path class="slice" d="M 250 80 A 100 100 0 1 1 228.55917412076664 277.6744131572665 L 237.13550447245998 238.6046478943599 A 60 60 0 1 0 250 120 Z" fill="#3178c6"/>
  <path class="slice" d="M 228.55917412076664 277.6744131572665 A 100 100 0 0 1 152.97147345809185 204.19638479414286 L 191.7828840748551 194.5178308764857 A 60 60 0 0 0 237.13550447245998 238.6046478943599 Z" fill="#f1e05a"/>
  <path class="slice" d="M 152.97147345809185 204.19638479414286 A 100 100 0 0 1 150.51522566973887 169.86196880765212 L 190.30913540184332 173.91718128459127 A 60 60 0 0 0 191.7828840748551 194.5178308764857 Z" fill="#e34c26"/>
  <path class="slice" d="M 150.51522566973887 169.86196880765212 A 100 100 0 0 1 157.98597440609137 140.8411045354503 L 194.79158464365483 156.5046627212702 A 60 60 0 0 0 190.30913540184332 173.91718128459127 Z" fill="#563d7c"/>
  <path class="slice" d="M 157.98597440609137 140.8411045354503 A 100 100 0 0 1 172.44577079729828 116.87043851906772 L 203.467462478379 142.12226311144065 A 60 60 0 0 0 194.79158464365483 156.5046627212702 Z" fill="#b07219"/>
  <path class="slice" d="M 172.44577079729828 116.87043851906772 A 100 100 0 0 1 187.38095527591324 102.03298621953755 L 212.42857316554796 133.21979173172252 A 60 60 0 0 0 203.467462478379 142.12226311144065 Z" fill="#00ADD8"/>
  <path class="slice" d="M 187.38095527591324 102.03298621953755 A 100 100 0 0 1 204.4059863275548 90.9989555272699 L 222.6435917965329 126.59937331636193 A 60 60 0 0 0 212.42857316554796 133.21979173172252 Z" fill="#89e051"/>
  <path class="slice" d="M 204.4059863275548 90.9989555272699 A 100 100 0 0 1 216.02459948533416 85.94856641247809 L 229.6147596912005 123.56913984748685 A 60 60 0 0 0 222.6435917965329 126.59937331636193 Z" fill="#f34b7d"/>
  <circle cx="250" cy="180" r="60" fill="white"/>
  <rect x="30" y="220" width="15" height="15" fill="#3178c6"/>
  <text x="52" y="232" class="legend-text">PHP</text>
  <text x="470" y="232" text-anchor="end" class="legend-value">53.4%</text>
  <rect x="30" y="245" width="15" height="15" fill="#f1e05a"/>
  <text x="52" y="257" class="legend-text">JavaScript</text>
  <text x="470" y="257" text-anchor="end" class="legend-value">17.7%</text>
  <rect x="30" y="270" width="15" height="15" fill="#e34c26"/>
  <text x="52" y="282" class="legend-text">Python</text>
  <text x="470" y="282" text-anchor="end" class="legend-value">5.5%</text>
  <rect x="30" y="295" width="15" height="15" fill="#563d7c"/>
  <text x="52" y="307" class="legend-text">CSS</text>
  <text x="470" y="307" text-anchor="end" class="legend-value">4.8%</text>
  <rect x="30" y="320" width="15" height="15" fill="#b07219"/>
  <text x="52" y="332" class="legend-text">HTML</text>
  <text x="470" y="332" text-anchor="end" class="legend-value">4.5%</text>
  <rect x="30" y="345" width="15" height="15" fill="#00ADD8"/>
  <text x="52" y="357" class="legend-text">Blade</text>
  <text x="470" y="357" text-anchor="end" class="legend-value">3.4%</text>
  <rect x="30" y="370" width="15" height="15" fill="#89e051"/>
  <text x="52" y="382" class="legend-text">TypeScript</text>
  <text x="470" y="382" text-anchor="end" class="legend-value">3.2%</text>
  <rect x="30" y="395" width="15" height="15" fill="#f34b7d"/>
  <text x="52" y="407" class="legend-text">Vue</text>
  <text x="470" y="407" text-anchor="end" class="legend-value">2.0%</text>
</svg>