<svg xmlns="http://www.w3.org/2000/svg" width="500" height="500" viewBox="0 0 500 500">
  <style>
    .chart-title { font: bold 18px Arial; fill: #333; }
    .legend-text { font: 12px Arial; fill: #666; }
    .legend-value { font: 12px Arial; fill: #333; }
    .slice { transition: opacity 0.2s; }
    .slice:hover { opacity: 0.8; }
  </style>

  <text x="250" y="30" text-anchor="middle" class="chart-title">Language Distribution</text>
  <path class="slice" d="M 250 80 A 100 100 0 1 1 233.99647705938804 278.7111303424761 L 240.39788623563282 239.22667820548565 A 60 60 0 1 0 250 120 Z" fill="#3178c6"/>
  <path class="slice" d="M 233.99647705938804 278.7111303424761 A 100 100 0 0 1 153.14842209066205 204.89521754215946 L 191.88905325439725 194.9371305252957 A 60 60 0 0 0 240.39788623563282 239.22667820548565 Z" fill="#f1e05a"/>
  <path class="slice" d="M 153.14842209066205 204.89521754215946 A 100 100 0 0 1 150.39337092414507 171.1388801980194 L 190.23602255448705 174.68332811881163 A 60 60 0 0 0 191.88905325439725 194.9371305252957 Z" fill="#e34c26"/>
  <path class="slice" d="M 150.39337092414507 171.1388801980194 A 100 100 0 0 1 157.3142159850704 142.45875013351554 L 194.38852959104224 157.4752500801093 A 60 60 0 0 0 190.23602255448705 174.68332811881163 Z" fill="#563d7c"/>
  <path class="slice" d="M 157.3142159850704 142.45875013351554 A 100 100 0 0 1 172.26811854059903 117.0893124756879 L 203.36087112435942 142.25358748541274 A 60 60 0 0 0 194.38852959104224 157.4752500801093 Z" fill="#b07219"/>
  <path class="slice" d="M 172.26811854059903 117.0893124756879 A 100 100 0 0 1 186.89336750115595 102.42711211605022 L 212.13602050069358 133.45626726963013 A 60 60 0 0 0 203.36087112435942 142.25358748541274 Z" fill="#00ADD8"/>
  <path class="slice" d="M 186.89336750115595 102.42711211605022 A 100 100 0 0 1 203.83669158795942 91.2929035733058 L 222.30201495277566 126.77574214398348 A 60 60 0 0 0 212.13602050069358 133.45626726963013 Z" fill="#89e051"/>
  <path class="slice" d="M 203.83669158795942 91.2929035733058 A 100 100 0 0 1 215.30960875230454 86.20993253503964 L 229.18576525138275 123.72595952102378 A 60 60 0 0 0 222.30201495277566 126.77574214398348 Z" fill="#f34b7d"/>
  <circle cx="250" cy="180" r="60" fill="white"/>
  <rect x="30" y="220" width="15" height="15" fill="#3178c6"/>
  <text x="52" y="232" class="legend-text">PHP</text>
  <text x="470" y="232" text-anchor="end" class="legend-value">52.6%</text>
  <rect x="30" y="245" width="15" height="15" fill="#f1e05a"/>
  <text x="52" y="257" class="legend-text">JavaScript</text>
  <text x="470" y="257" text-anchor="end" class="legend-value">18.4%</text>
  <rect x="30" y="270" width="15" height="15" fill="#e34c26"/>
  <text x="52" y="282" class="legend-text">Python</text>
  <text x="470" y="282" text-anchor="end" class="legend-value">5.4%</text>
  <rect x="30" y="295" width="15" height="15" fill="#563d7c"/>
  <text x="52" y="307" class="legend-text">CSS</text>
  <text x="470" y="307" text-anchor="end" class="legend-value">4.7%</text>
  <rect x="30" y="320" width="15" height="15" fill="#b07219"/>
  <text x="52" y="332" class="legend-text">HTML</text>
  <text x="470" y="332" text-anchor="end" class="legend-value">4.7%</text>
  <rect x="30" y="345" width="15" height="15" fill="#00ADD8"/>
  <text x="52" y="357" class="legend-text">Blade</text>
  <text x="470" y="357" text-anchor="end" class="legend-value">3.3%</text>
  <rect x="30" y="370" width="15" height="15" fill="#89e051"/>
  <text x="52" y="382" class="legend-text">TypeScript</text>
  <text x="470" y="382" text-anchor="end" class="legend-value">3.2%</text>
  <rect x="30" y="395" width="15" height="15" fill="#f34b7d"/>
  <text x="52" y="407" class="legend-text">Vue</text>
  <text x="470" y="407" text-anchor="end" class="legend-value">2.0%</text>
</svg>