<svg xmlns="http://www.w3.org/2000/svg" width="500" height="500" viewBox="0 0 500 500">
  <style>
    .chart-title { font: bold 18px Arial; fill: #333; }
    .legend-text { font: 12px Arial; fill: #666; }
    .legend-value { font: 12px Arial; fill: #333; }
    .slice { transition: opacity 0.2s; }
    .slice:hover { opacity: 0.8; }
  </style>

  <text x="250" y="30" text-anchor="middle" class="chart-title">Language Distribution</text>
  <path class="slice" d="M 250 80 A 100 100 0 0 1 282.6915709354113 274.50535005900446 L 269.6149425612468 236.70321003540266 A 60 60 0 0 0 250 120 Z" fill="#3178c6"/>
  <path class="slice" d="M 282.6915709354113 274.50535005900446 A 100 100 0 0 1 164.03302202543466 231.08501441636867 L 198.41981321526077 210.65100864982122 A 60 60 0 0 0 269.6149425612468 236.70321003540266 Z" fill="#f1e05a"/>
  <path class="slice" d="M 164.03302202543466 231.08501441636867 A 100 100 0 0 1 151.21777441036016 195.5586602108763 L 190.7306646462161 189.33519612652577 A 60 60 0 0 0 198.41981321526077 210.65100864982122 Z" fill="#e34c26"/>
  <path class="slice" d="M 151.21777441036016 195.5586602108763 A 100 100 0 0 1 151.0090110483722 165.83016914784434 L 190.60540662902332 171.4981014887066 A 60 60 0 0 0 190.7306646462161 189.33519612652577 Z" fill="#563d7c"/>
  <path class="slice" d="M 151.0090110483722 165.83016914784434 A 100 100 0 0 1 158.6516588401119 139.31240278246096 L 195.19099530406714 155.5874416694766 A 60 60 0 0 0 190.60540662902332 171.4981014887066 Z" fill="#b07219"/>
  <path class="slice" d="M 158.6516588401119 139.31240278246096 A 100 100 0 0 1 172.06390209469564 117.34248135064067 L 203.2383412568174 142.40548881038438 A 60 60 0 0 0 195.19099530406714 155.5874416694766 Z" fill="#00ADD8"/>
  <path class="slice" d="M 172.06390209469564 117.34248135064067 A 100 100 0 0 1 190.10693699645435 99.91990881590286 L 214.0641621978726 131.95194528954173 A 60 60 0 0 0 203.2383412568174 142.40548881038438 Z" fill="#89e051"/>
  <path class="slice" d="M 190.10693699645435 99.91990881590286 A 100 100 0 0 1 205.5638942030266 90.41522170814851 L 223.33833652181596 126.2491330248891 A 60 60 0 0 0 214.0641621978726 131.95194528954173 Z" fill="#f34b7d"/>
  <circle cx="250" cy="180" r="60" fill="white"/>
  <rect x="30" y="220" width="15" height="15" fill="#3178c6"/>
  <text x="52" y="232" class="legend-text">PHP</text>
  <text x="470" y="232" text-anchor="end" class="legend-value">44.7%</text>
  <rect x="30" y="245" width="15" height="15" fill="#f1e05a"/>
  <text x="52" y="257" class="legend-text">JavaScript</text>
  <text x="470" y="257" text-anchor="end" class="legend-value">21.8%</text>
  <rect x="30" y="270" width="15" height="15" fill="#e34c26"/>
  <text x="52" y="282" class="legend-text">C#</text>
  <text x="470" y="282" text-anchor="end" class="legend-value">6.0%</text>
  <rect x="30" y="295" width="15" height="15" fill="#563d7c"/>
  <text x="52" y="307" class="legend-text">HTML</text>
  <text x="470" y="307" text-anchor="end" class="legend-value">4.7%</text>
  <rect x="30" y="320" width="15" height="15" fill="#b07219"/>
  <text x="52" y="332" class="legend-text">Python</text>
  <text x="470" y="332" text-anchor="end" class="legend-value">4.4%</text>
  <rect x="30" y="345" width="15" height="15" fill="#00ADD8"/>
  <text x="52" y="357" class="legend-text">CSS</text>
  <text x="470" y="357" text-anchor="end" class="legend-value">4.1%</text>
  <rect x="30" y="370" width="15" height="15" fill="#89e051"/>
  <text x="52" y="382" class="legend-text">TypeScript</text>
  <text x="470" y="382" text-anchor="end" class="legend-value">4.0%</text>
  <rect x="30" y="395" width="15" height="15" fill="#f34b7d"/>
  <text x="52" y="407" class="legend-text">Blade</text>
  <text x="470" y="407" text-anchor="end" class="legend-value">2.9%</text>
</svg>