<svg xmlns="http://www.w3.org/2000/svg" width="500" height="500" viewBox="0 0 500 500">
  <style>
    .chart-title { font: bold 18px Arial; fill: #333; }
    .legend-text { font: 12px Arial; fill: #666; }
    .legend-value { font: 12px Arial; fill: #333; }
    .slice { transition: opacity 0.2s; }
    .slice:hover { opacity: 0.8; }
  </style>

  <text x="250" y="30" text-anchor="middle" class="chart-title">Language Distribution</text>
  <path class="slice" d="M 250 80 A 100 100 0 0 1 284.0490222538104 274.02480568211524 L 270.42941335228625 236.41488340926912 A 60 60 0 0 0 250 120 Z" fill="#3178c6"/>
  <path class="slice" d="M 284.0490222538104 274.02480568211524 A 100 100 0 0 1 164.99031878982578 232.66264426084732 L 198.99419127389547 211.5975865565084 A 60 60 0 0 0 270.42941335228625 236.41488340926912 Z" fill="#f1e05a"/>
  <path class="slice" d="M 164.99031878982578 232.66264426084732 A 100 100 0 0 1 151.55556175473816 197.56964935833471 L 190.93333705284292 190.54178961500082 A 60 60 0 0 0 198.99419127389547 211.5975865565084 Z" fill="#e34c26"/>
  <path class="slice" d="M 151.55556175473816 197.56964935833471 A 100 100 0 0 1 150.76548685797366 167.65044934157532 L 190.45929211478418 172.5902696049452 A 60 60 0 0 0 190.93333705284292 190.54178961500082 Z" fill="#563d7c"/>
  <path class="slice" d="M 150.76548685797366 167.65044934157532 A 100 100 0 0 1 157.8684679462179 141.11837450127732 L 194.72108076773074 156.6710247007664 A 60 60 0 0 0 190.45929211478418 172.5902696049452 Z" fill="#b07219"/>
  <path class="slice" d="M 157.8684679462179 141.11837450127732 A 100 100 0 0 1 170.76526410712447 118.99297886319754 L 202.45915846427468 143.39578731791852 A 60 60 0 0 0 194.72108076773074 156.6710247007664 Z" fill="#00ADD8"/>
  <path class="slice" d="M 170.76526410712447 118.99297886319754 A 100 100 0 0 1 188.38040084518056 101.24071483311079 L 213.02824050710834 132.74442889986648 A 60 60 0 0 0 202.45915846427468 143.39578731791852 Z" fill="#89e051"/>
  <path class="slice" d="M 188.38040084518056 101.24071483311079 A 100 100 0 0 1 203.5460417170993 91.44476435664279 L 222.1276250302596 126.86685861398567 A 60 60 0 0 0 213.02824050710834 132.74442889986648 Z" fill="#f34b7d"/>
  <circle cx="250" cy="180" r="60" fill="white"/>
  <rect x="30" y="220" width="15" height="15" fill="#3178c6"/>
  <text x="52" y="232" class="legend-text">PHP</text>
  <text x="470" y="232" text-anchor="end" class="legend-value">44.5%</text>
  <rect x="30" y="245" width="15" height="15" fill="#f1e05a"/>
  <text x="52" y="257" class="legend-text">JavaScript</text>
  <text x="470" y="257" text-anchor="end" class="legend-value">21.7%</text>
  <rect x="30" y="270" width="15" height="15" fill="#e34c26"/>
  <text x="52" y="282" class="legend-text">C#</text>
  <text x="470" y="282" text-anchor="end" class="legend-value">6.0%</text>
  <rect x="30" y="295" width="15" height="15" fill="#563d7c"/>
  <text x="52" y="307" class="legend-text">HTML</text>
  <text x="470" y="307" text-anchor="end" class="legend-value">4.8%</text>
  <rect x="30" y="320" width="15" height="15" fill="#b07219"/>
  <text x="52" y="332" class="legend-text">Python</text>
  <text x="470" y="332" text-anchor="end" class="legend-value">4.4%</text>
  <rect x="30" y="345" width="15" height="15" fill="#00ADD8"/>
  <text x="52" y="357" class="legend-text">CSS</text>
  <text x="470" y="357" text-anchor="end" class="legend-value">4.1%</text>
  <rect x="30" y="370" width="15" height="15" fill="#89e051"/>
  <text x="52" y="382" class="legend-text">TypeScript</text>
  <text x="470" y="382" text-anchor="end" class="legend-value">4.0%</text>
  <rect x="30" y="395" width="15" height="15" fill="#f34b7d"/>
  <text x="52" y="407" class="legend-text">Blade</text>
  <text x="470" y="407" text-anchor="end" class="legend-value">2.9%</text>
</svg>