<svg xmlns="http://www.w3.org/2000/svg" width="500" height="500" viewBox="0 0 500 500">
  <style>
    .chart-title { font: bold 18px Arial; fill: #333; }
    .legend-text { font: 12px Arial; fill: #666; }
    .legend-value { font: 12px Arial; fill: #333; }
    .slice { transition: opacity 0.2s; }
    .slice:hover { opacity: 0.8; }
  </style>

  <text x="250" y="30" text-anchor="middle" class="chart-title">Language Distribution</text>
  <path class="slice" d="M 250 80 A 100 100 0 0 1 284.9010684136803 273.7118745068287 L 270.9406410482082 236.2271247040972 A 60 60 0 0 0 250 120 Z" fill="#3178c6"/>
  <path class="slice" d="M 284.9010684136803 273.7118745068287 A 100 100 0 0 1 165.67395002436012 233.75050972321924 L 199.40437001461606 212.25030583393155 A 60 60 0 0 0 270.9406410482082 236.2271247040972 Z" fill="#f1e05a"/>
  <path class="slice" d="M 165.67395002436012 233.75050972321924 A 100 100 0 0 1 151.81525056769573 198.96720798946507 L 191.08915034061744 191.38032479367902 A 60 60 0 0 0 199.40437001461606 212.25030583393155 Z" fill="#e34c26"/>
  <path class="slice" d="M 151.81525056769573 198.96720798946507 A 100 100 0 0 1 150.55636202258395 169.46610870491742 L 190.3338172135504 173.67966522295043 A 60 60 0 0 0 191.08915034061744 191.38032479367902 Z" fill="#563d7c"/>
  <path class="slice" d="M 150.55636202258395 169.46610870491742 A 100 100 0 0 1 157.13626239844373 142.90112887607893 L 194.28175743906624 157.74067732564737 A 60 60 0 0 0 190.3338172135504 173.67966522295043 Z" fill="#b07219"/>
  <path class="slice" d="M 157.13626239844373 142.90112887607893 A 100 100 0 0 1 169.549136989403 120.60590398995745 L 201.7294821936418 144.36354239397446 A 60 60 0 0 0 194.28175743906624 157.74067732564737 Z" fill="#00ADD8"/>
  <path class="slice" d="M 169.549136989403 120.60590398995745 A 100 100 0 0 1 186.8057947281896 102.49843601536618 L 212.08347683691375 133.49906160921972 A 60 60 0 0 0 201.7294821936418 144.36354239397446 Z" fill="#89e051"/>
  <path class="slice" d="M 186.8057947281896 102.49843601536618 A 100 100 0 0 1 201.713712719184 92.4304021898324 L 221.02822763151042 127.45824131389944 A 60 60 0 0 0 212.08347683691375 133.49906160921972 Z" fill="#f34b7d"/>
  <circle cx="250" cy="180" r="60" fill="white"/>
  <rect x="30" y="220" width="15" height="15" fill="#3178c6"/>
  <text x="52" y="232" class="legend-text">PHP</text>
  <text x="470" y="232" text-anchor="end" class="legend-value">44.3%</text>
  <rect x="30" y="245" width="15" height="15" fill="#f1e05a"/>
  <text x="52" y="257" class="legend-text">JavaScript</text>
  <text x="470" y="257" text-anchor="end" class="legend-value">21.6%</text>
  <rect x="30" y="270" width="15" height="15" fill="#e34c26"/>
  <text x="52" y="282" class="legend-text">C#</text>
  <text x="470" y="282" text-anchor="end" class="legend-value">6.0%</text>
  <rect x="30" y="295" width="15" height="15" fill="#563d7c"/>
  <text x="52" y="307" class="legend-text">HTML</text>
  <text x="470" y="307" text-anchor="end" class="legend-value">4.7%</text>
  <rect x="30" y="320" width="15" height="15" fill="#b07219"/>
  <text x="52" y="332" class="legend-text">Python</text>
  <text x="470" y="332" text-anchor="end" class="legend-value">4.4%</text>
  <rect x="30" y="345" width="15" height="15" fill="#00ADD8"/>
  <text x="52" y="357" class="legend-text">CSS</text>
  <text x="470" y="357" text-anchor="end" class="legend-value">4.1%</text>
  <rect x="30" y="370" width="15" height="15" fill="#89e051"/>
  <text x="52" y="382" class="legend-text">TypeScript</text>
  <text x="470" y="382" text-anchor="end" class="legend-value">4.0%</text>
  <rect x="30" y="395" width="15" height="15" fill="#f34b7d"/>
  <text x="52" y="407" class="legend-text">Blade</text>
  <text x="470" y="407" text-anchor="end" class="legend-value">2.9%</text>
</svg>