<svg xmlns="http://www.w3.org/2000/svg" width="500" height="500" viewBox="0 0 500 500">
  <style>
    .chart-title { font: bold 18px Arial; fill: #333; }
    .legend-text { font: 12px Arial; fill: #666; }
    .legend-value { font: 12px Arial; fill: #333; }
    .slice { transition: opacity 0.2s; }
    .slice:hover { opacity: 0.8; }
  </style>

  <text x="250" y="30" text-anchor="middle" class="chart-title">Language Distribution</text>
  <path class="slice" d="M 250 80 A 100 100 0 0 1 282.60095964114925 274.5366459658695 L 269.56057578468955 236.72198757952174 A 60 60 0 0 0 250 120 Z" fill="#3178c6"/>
  <path class="slice" d="M 282.60095964114925 274.5366459658695 A 100 100 0 0 1 163.90887825540574 230.8755221767546 L 198.34532695324344 210.52531330605277 A 60 60 0 0 0 269.56057578468955 236.72198757952174 Z" fill="#f1e05a"/>
  <path class="slice" d="M 163.90887825540574 230.8755221767546 A 100 100 0 0 1 151.17199031984285 195.26514011264757 L 190.7031941919057 189.15908406758854 A 60 60 0 0 0 198.34532695324344 210.52531330605277 Z" fill="#e34c26"/>
  <path class="slice" d="M 151.17199031984285 195.26514011264757 A 100 100 0 0 1 151.05763438990965 165.4945428379795 L 190.6345806339458 171.2967257027877 A 60 60 0 0 0 190.7031941919057 189.15908406758854 Z" fill="#563d7c"/>
  <path class="slice" d="M 151.05763438990965 165.4945428379795 A 100 100 0 0 1 158.80617356907158 138.96725672239663 L 195.28370414144297 155.38035403343798 A 60 60 0 0 0 190.6345806339458 171.2967257027877 Z" fill="#b07219"/>
  <path class="slice" d="M 158.80617356907158 138.96725672239663 A 100 100 0 0 1 172.3227222854732 117.02190438842823 L 203.3936333712839 142.21314263305695 A 60 60 0 0 0 195.28370414144297 155.38035403343798 Z" fill="#00ADD8"/>
  <path class="slice" d="M 172.3227222854732 117.02190438842823 A 100 100 0 0 1 190.1848313204556 99.86170955256375 L 214.11089879227336 131.91702573153825 A 60 60 0 0 0 203.3936333712839 142.21314263305695 Z" fill="#89e051"/>
  <path class="slice" d="M 190.1848313204556 99.86170955256375 A 100 100 0 0 1 205.63113523068603 90.38190004757784 L 223.37868113841162 126.22914002854671 A 60 60 0 0 0 214.11089879227336 131.91702573153825 Z" fill="#f34b7d"/>
  <circle cx="250" cy="180" r="60" fill="white"/>
  <rect x="30" y="220" width="15" height="15" fill="#3178c6"/>
  <text x="52" y="232" class="legend-text">PHP</text>
  <text x="470" y="232" text-anchor="end" class="legend-value">44.7%</text>
  <rect x="30" y="245" width="15" height="15" fill="#f1e05a"/>
  <text x="52" y="257" class="legend-text">JavaScript</text>
  <text x="470" y="257" text-anchor="end" class="legend-value">21.8%</text>
  <rect x="30" y="270" width="15" height="15" fill="#e34c26"/>
  <text x="52" y="282" class="legend-text">C#</text>
  <text x="470" y="282" text-anchor="end" class="legend-value">6.1%</text>
  <rect x="30" y="295" width="15" height="15" fill="#563d7c"/>
  <text x="52" y="307" class="legend-text">HTML</text>
  <text x="470" y="307" text-anchor="end" class="legend-value">4.8%</text>
  <rect x="30" y="320" width="15" height="15" fill="#b07219"/>
  <text x="52" y="332" class="legend-text">Python</text>
  <text x="470" y="332" text-anchor="end" class="legend-value">4.4%</text>
  <rect x="30" y="345" width="15" height="15" fill="#00ADD8"/>
  <text x="52" y="357" class="legend-text">CSS</text>
  <text x="470" y="357" text-anchor="end" class="legend-value">4.1%</text>
  <rect x="30" y="370" width="15" height="15" fill="#89e051"/>
  <text x="52" y="382" class="legend-text">TypeScript</text>
  <text x="470" y="382" text-anchor="end" class="legend-value">4.0%</text>
  <rect x="30" y="395" width="15" height="15" fill="#f34b7d"/>
  <text x="52" y="407" class="legend-text">Blade</text>
  <text x="470" y="407" text-anchor="end" class="legend-value">2.9%</text>
</svg>