<svg xmlns="http://www.w3.org/2000/svg" width="500" height="500" viewBox="0 0 500 500">
  <style>
    .chart-title { font: bold 18px Arial; fill: #333; }
    .legend-text { font: 12px Arial; fill: #666; }
    .legend-value { font: 12px Arial; fill: #333; }
    .slice { transition: opacity 0.2s; }
    .slice:hover { opacity: 0.8; }
  </style>

  <text x="250" y="30" text-anchor="middle" class="chart-title">Language Distribution</text>
  <path class="slice" d="M 250 80 A 100 100 0 0 1 279.4900276078442 275.55280357838063 L 267.69401656470654 237.33168214702837 A 60 60 0 0 0 250 120 Z" fill="#3178c6"/>
  <path class="slice" d="M 279.4900276078442 275.55280357838063 A 100 100 0 0 1 161.55017634024827 226.654353436296 L 196.93010580414895 207.99261206177758 A 60 60 0 0 0 267.69401656470654 237.33168214702837 Z" fill="#f1e05a"/>
  <path class="slice" d="M 161.55017634024827 226.654353436296 A 100 100 0 0 1 150.50417129152828 190.02896154217655 L 190.30250277491697 186.01737692530594 A 60 60 0 0 0 196.93010580414895 207.99261206177758 Z" fill="#e34c26"/>
  <path class="slice" d="M 150.50417129152828 190.02896154217655 A 100 100 0 0 1 152.03009192669305 159.9526282992562 L 191.21805515601582 167.9715769795537 A 60 60 0 0 0 190.30250277491697 186.01737692530594 Z" fill="#563d7c"/>
  <path class="slice" d="M 152.03009192669305 159.9526282992562 A 100 100 0 0 1 161.40538134435263 133.62119508589703 L 196.8432288066116 152.17271705153823 A 60 60 0 0 0 191.21805515601582 167.9715769795537 Z" fill="#b07219"/>
  <path class="slice" d="M 161.40538134435263 133.62119508589703 A 100 100 0 0 1 176.40362551651577 112.2979050332506 L 205.84217530990946 139.37874301995035 A 60 60 0 0 0 196.8432288066116 152.17271705153823 Z" fill="#00ADD8"/>
  <path class="slice" d="M 176.40362551651577 112.2979050332506 A 100 100 0 0 1 190.00068307756274 99.9994876963845 L 214.00040984653765 131.9996926178307 A 60 60 0 0 0 205.84217530990946 139.37874301995035 Z" fill="#89e051"/>
  <path class="slice" d="M 190.00068307756274 99.9994876963845 A 100 100 0 0 1 205.15515406150078 90.61913072277564 L 223.09309243690046 126.37147843366537 A 60 60 0 0 0 214.00040984653765 131.9996926178307 Z" fill="#f34b7d"/>
  <circle cx="250" cy="180" r="60" fill="white"/>
  <rect x="30" y="220" width="15" height="15" fill="#3178c6"/>
  <text x="52" y="232" class="legend-text">PHP</text>
  <text x="470" y="232" text-anchor="end" class="legend-value">45.2%</text>
  <rect x="30" y="245" width="15" height="15" fill="#f1e05a"/>
  <text x="52" y="257" class="legend-text">JavaScript</text>
  <text x="470" y="257" text-anchor="end" class="legend-value">22.0%</text>
  <rect x="30" y="270" width="15" height="15" fill="#e34c26"/>
  <text x="52" y="282" class="legend-text">C#</text>
  <text x="470" y="282" text-anchor="end" class="legend-value">6.1%</text>
  <rect x="30" y="295" width="15" height="15" fill="#563d7c"/>
  <text x="52" y="307" class="legend-text">HTML</text>
  <text x="470" y="307" text-anchor="end" class="legend-value">4.8%</text>
  <rect x="30" y="320" width="15" height="15" fill="#b07219"/>
  <text x="52" y="332" class="legend-text">Python</text>
  <text x="470" y="332" text-anchor="end" class="legend-value">4.5%</text>
  <rect x="30" y="345" width="15" height="15" fill="#00ADD8"/>
  <text x="52" y="357" class="legend-text">CSS</text>
  <text x="470" y="357" text-anchor="end" class="legend-value">4.2%</text>
  <rect x="30" y="370" width="15" height="15" fill="#89e051"/>
  <text x="52" y="382" class="legend-text">Blade</text>
  <text x="470" y="382" text-anchor="end" class="legend-value">2.9%</text>
  <rect x="30" y="395" width="15" height="15" fill="#f34b7d"/>
  <text x="52" y="407" class="legend-text">TypeScript</text>
  <text x="470" y="407" text-anchor="end" class="legend-value">2.8%</text>
</svg>