<svg xmlns="http://www.w3.org/2000/svg" width="500" height="500" viewBox="0 0 500 500">
  <style>
    .chart-title { font: bold 18px Arial; fill: #333; }
    .legend-text { font: 12px Arial; fill: #666; }
    .legend-value { font: 12px Arial; fill: #333; }
    .slice { transition: opacity 0.2s; }
    .slice:hover { opacity: 0.8; }
  </style>

  <text x="250" y="30" text-anchor="middle" class="chart-title">Language Distribution</text>
  <path class="slice" d="M 250 80 A 100 100 0 0 1 279.53126915944216 275.54006563653064 L 267.71876149566526 237.3240393819184 A 60 60 0 0 0 250 120 Z" fill="#3178c6"/>
  <path class="slice" d="M 279.53126915944216 275.54006563653064 A 100 100 0 0 1 161.56383664068636 226.68024218322768 L 196.9383019844118 208.0081453099366 A 60 60 0 0 0 267.71876149566526 237.3240393819184 Z" fill="#f1e05a"/>
  <path class="slice" d="M 161.56383664068636 226.68024218322768 A 100 100 0 0 1 150.50672287243708 190.0542432046357 L 190.30403372346223 186.03254592278142 A 60 60 0 0 0 196.9383019844118 208.0081453099366 Z" fill="#e34c26"/>
  <path class="slice" d="M 150.50672287243708 190.0542432046357 A 100 100 0 0 1 152.02560830337495 159.97455189823975 L 191.215364982025 167.98473113894386 A 60 60 0 0 0 190.30403372346223 186.03254592278142 Z" fill="#563d7c"/>
  <path class="slice" d="M 152.02560830337495 159.97455189823975 A 100 100 0 0 1 161.39630943686373 133.63852872705615 L 196.83778566211825 152.1831172362337 A 60 60 0 0 0 191.215364982025 167.98473113894386 Z" fill="#b07219"/>
  <path class="slice" d="M 161.39630943686373 133.63852872705615 A 100 100 0 0 1 176.3921569581093 112.31037418687869 L 205.83529417486557 139.38622451212723 A 60 60 0 0 0 196.83778566211825 152.1831172362337 Z" fill="#00ADD8"/>
  <path class="slice" d="M 176.3921569581093 112.31037418687869 A 100 100 0 0 1 189.9955186781815 100.00336118748778 L 213.9973112069089 132.00201671249266 A 60 60 0 0 0 205.83529417486557 139.38622451212723 Z" fill="#89e051"/>
  <path class="slice" d="M 189.9955186781815 100.00336118748778 A 100 100 0 0 1 205.15098428014664 90.62122293877395 L 223.090590568088 126.37273376326436 A 60 60 0 0 0 213.9973112069089 132.00201671249266 Z" fill="#f34b7d"/>
  <circle cx="250" cy="180" r="60" fill="white"/>
  <rect x="30" y="220" width="15" height="15" fill="#3178c6"/>
  <text x="52" y="232" class="legend-text">PHP</text>
  <text x="470" y="232" text-anchor="end" class="legend-value">45.2%</text>
  <rect x="30" y="245" width="15" height="15" fill="#f1e05a"/>
  <text x="52" y="257" class="legend-text">JavaScript</text>
  <text x="470" y="257" text-anchor="end" class="legend-value">22.0%</text>
  <rect x="30" y="270" width="15" height="15" fill="#e34c26"/>
  <text x="52" y="282" class="legend-text">C#</text>
  <text x="470" y="282" text-anchor="end" class="legend-value">6.1%</text>
  <rect x="30" y="295" width="15" height="15" fill="#563d7c"/>
  <text x="52" y="307" class="legend-text">HTML</text>
  <text x="470" y="307" text-anchor="end" class="legend-value">4.8%</text>
  <rect x="30" y="320" width="15" height="15" fill="#b07219"/>
  <text x="52" y="332" class="legend-text">Python</text>
  <text x="470" y="332" text-anchor="end" class="legend-value">4.5%</text>
  <rect x="30" y="345" width="15" height="15" fill="#00ADD8"/>
  <text x="52" y="357" class="legend-text">CSS</text>
  <text x="470" y="357" text-anchor="end" class="legend-value">4.2%</text>
  <rect x="30" y="370" width="15" height="15" fill="#89e051"/>
  <text x="52" y="382" class="legend-text">Blade</text>
  <text x="470" y="382" text-anchor="end" class="legend-value">2.9%</text>
  <rect x="30" y="395" width="15" height="15" fill="#f34b7d"/>
  <text x="52" y="407" class="legend-text">TypeScript</text>
  <text x="470" y="407" text-anchor="end" class="legend-value">2.8%</text>
</svg>