<svg xmlns="http://www.w3.org/2000/svg" width="500" height="500" viewBox="0 0 500 500">
  <style>
    .chart-title { font: bold 18px Arial; fill: #333; }
    .legend-text { font: 12px Arial; fill: #666; }
    .legend-value { font: 12px Arial; fill: #333; }
    .slice { transition: opacity 0.2s; }
    .slice:hover { opacity: 0.8; }
  </style>

  <text x="250" y="30" text-anchor="middle" class="chart-title">Language Distribution</text>
  <path class="slice" d="M 250 80 A 100 100 0 1 1 231.1280270259583 278.2030989127484 L 238.67681621557497 238.92185934764902 A 60 60 0 1 0 250 120 Z" fill="#3178c6"/>
  <path class="slice" d="M 231.1280270259583 278.2030989127484 A 100 100 0 0 1 153.74616841506537 207.11456998034532 L 192.24770104903922 196.26874198820718 A 60 60 0 0 0 238.67681621557497 238.92185934764902 Z" fill="#f1e05a"/>
  <path class="slice" d="M 153.74616841506537 207.11456998034532 A 100 100 0 0 1 150.23536073212438 173.14312376146063 L 190.14121643927461 175.88587425687638 A 60 60 0 0 0 192.24770104903922 196.26874198820718 Z" fill="#e34c26"/>
  <path class="slice" d="M 150.23536073212438 173.14312376146063 A 100 100 0 0 1 156.79491967458722 143.7672385604775 L 194.07695180475233 158.26034313628648 A 60 60 0 0 0 190.14121643927461 175.88587425687638 Z" fill="#563d7c"/>
  <path class="slice" d="M 156.79491967458722 143.7672385604775 A 100 100 0 0 1 171.74152977211617 117.7455878062332 L 203.0449178632697 142.64735268373994 A 60 60 0 0 0 194.07695180475233 158.26034313628648 Z" fill="#b07219"/>
  <path class="slice" d="M 171.74152977211617 117.7455878062332 A 100 100 0 0 1 186.390468748458 102.8389506683644 L 211.83428124907482 133.70337040101865 A 60 60 0 0 0 203.0449178632697 142.64735268373994 Z" fill="#00ADD8"/>
  <path class="slice" d="M 186.390468748458 102.8389506683644 A 100 100 0 0 1 203.48592286175327 91.47632730180456 L 222.09155371705197 126.88579638108274 A 60 60 0 0 0 211.83428124907482 133.70337040101865 Z" fill="#89e051"/>
  <path class="slice" d="M 203.48592286175327 91.47632730180456 A 100 100 0 0 1 215.11313257363327 86.28283785146336 L 229.06787954417996 123.76970271087801 A 60 60 0 0 0 222.09155371705197 126.88579638108274 Z" fill="#f34b7d"/>
  <circle cx="250" cy="180" r="60" fill="white"/>
  <rect x="30" y="220" width="15" height="15" fill="#3178c6"/>
  <text x="52" y="232" class="legend-text">PHP</text>
  <text x="470" y="232" text-anchor="end" class="legend-value">53.0%</text>
  <rect x="30" y="245" width="15" height="15" fill="#f1e05a"/>
  <text x="52" y="257" class="legend-text">JavaScript</text>
  <text x="470" y="257" text-anchor="end" class="legend-value">17.6%</text>
  <rect x="30" y="270" width="15" height="15" fill="#e34c26"/>
  <text x="52" y="282" class="legend-text">Python</text>
  <text x="470" y="282" text-anchor="end" class="legend-value">5.5%</text>
  <rect x="30" y="295" width="15" height="15" fill="#563d7c"/>
  <text x="52" y="307" class="legend-text">HTML</text>
  <text x="470" y="307" text-anchor="end" class="legend-value">4.8%</text>
  <rect x="30" y="320" width="15" height="15" fill="#b07219"/>
  <text x="52" y="332" class="legend-text">CSS</text>
  <text x="470" y="332" text-anchor="end" class="legend-value">4.8%</text>
  <rect x="30" y="345" width="15" height="15" fill="#00ADD8"/>
  <text x="52" y="357" class="legend-text">Blade</text>
  <text x="470" y="357" text-anchor="end" class="legend-value">3.3%</text>
  <rect x="30" y="370" width="15" height="15" fill="#89e051"/>
  <text x="52" y="382" class="legend-text">TypeScript</text>
  <text x="470" y="382" text-anchor="end" class="legend-value">3.3%</text>
  <rect x="30" y="395" width="15" height="15" fill="#f34b7d"/>
  <text x="52" y="407" class="legend-text">Vue</text>
  <text x="470" y="407" text-anchor="end" class="legend-value">2.0%</text>
</svg>