<svg xmlns="http://www.w3.org/2000/svg" width="500" height="500" viewBox="0 0 500 500">
  <style>
    .chart-title { font: bold 18px Arial; fill: #333; }
    .legend-text { font: 12px Arial; fill: #666; }
    .legend-value { font: 12px Arial; fill: #333; }
    .slice { transition: opacity 0.2s; }
    .slice:hover { opacity: 0.8; }
  </style>

  <text x="250" y="30" text-anchor="middle" class="chart-title">Language Distribution</text>
  <path class="slice" d="M 250 80 A 100 100 0 0 1 261.48494837325234 279.33829050705333 L 256.8909690239514 239.60297430423202 A 60 60 0 0 0 250 120 Z" fill="#3178c6"/>
  <path class="slice" d="M 261.48494837325234 279.33829050705333 A 100 100 0 0 1 165.30577775462834 233.16849366167514 L 199.18346665277699 211.9010961970051 A 60 60 0 0 0 256.8909690239514 239.60297430423202 Z" fill="#f1e05a"/>
  <path class="slice" d="M 165.30577775462834 233.16849366167514 A 100 100 0 0 1 151.54337038147543 197.50120236328547 L 190.92602222888524 190.50072141797128 A 60 60 0 0 0 199.18346665277699 211.9010961970051 Z" fill="#e34c26"/>
  <path class="slice" d="M 151.54337038147543 197.50120236328547 A 100 100 0 0 1 150.92162213837844 166.45470412616487 L 190.55297328302706 171.8728224756989 A 60 60 0 0 0 190.92602222888524 190.50072141797128 Z" fill="#563d7c"/>
  <path class="slice" d="M 150.92162213837844 166.45470412616487 A 100 100 0 0 1 159.51585354430665 137.42513370326765 L 195.709512126584 154.4550802219606 A 60 60 0 0 0 190.55297328302706 171.8728224756989 Z" fill="#b07219"/>
  <path class="slice" d="M 159.51585354430665 137.42513370326765 A 100 100 0 0 1 174.95209933374707 113.91057115099095 L 204.97125960024823 140.34634269059455 A 60 60 0 0 0 195.709512126584 154.4550802219606 Z" fill="#00ADD8"/>
  <path class="slice" d="M 174.95209933374707 113.91057115099095 A 100 100 0 0 1 189.31284028858815 100.52001103320666 L 213.58770417315287 132.312006619924 A 60 60 0 0 0 204.97125960024823 140.34634269059455 Z" fill="#89e051"/>
  <path class="slice" d="M 189.31284028858815 100.52001103320666 A 100 100 0 0 1 205.43452365270983 90.47950894940801 L 223.2607141916259 126.28770536964481 A 60 60 0 0 0 213.58770417315287 132.312006619924 Z" fill="#f34b7d"/>
  <circle cx="250" cy="180" r="60" fill="white"/>
  <rect x="30" y="220" width="15" height="15" fill="#3178c6"/>
  <text x="52" y="232" class="legend-text">PHP</text>
  <text x="470" y="232" text-anchor="end" class="legend-value">48.2%</text>
  <rect x="30" y="245" width="15" height="15" fill="#f1e05a"/>
  <text x="52" y="257" class="legend-text">JavaScript</text>
  <text x="470" y="257" text-anchor="end" class="legend-value">17.9%</text>
  <rect x="30" y="270" width="15" height="15" fill="#e34c26"/>
  <text x="52" y="282" class="legend-text">C#</text>
  <text x="470" y="282" text-anchor="end" class="legend-value">6.1%</text>
  <rect x="30" y="295" width="15" height="15" fill="#563d7c"/>
  <text x="52" y="307" class="legend-text">Python</text>
  <text x="470" y="307" text-anchor="end" class="legend-value">5.0%</text>
  <rect x="30" y="320" width="15" height="15" fill="#b07219"/>
  <text x="52" y="332" class="legend-text">HTML</text>
  <text x="470" y="332" text-anchor="end" class="legend-value">4.8%</text>
  <rect x="30" y="345" width="15" height="15" fill="#00ADD8"/>
  <text x="52" y="357" class="legend-text">CSS</text>
  <text x="470" y="357" text-anchor="end" class="legend-value">4.5%</text>
  <rect x="30" y="370" width="15" height="15" fill="#89e051"/>
  <text x="52" y="382" class="legend-text">TypeScript</text>
  <text x="470" y="382" text-anchor="end" class="legend-value">3.1%</text>
  <rect x="30" y="395" width="15" height="15" fill="#f34b7d"/>
  <text x="52" y="407" class="legend-text">Blade</text>
  <text x="470" y="407" text-anchor="end" class="legend-value">3.0%</text>
</svg>