<svg xmlns="http://www.w3.org/2000/svg" width="500" height="500" viewBox="0 0 500 500">
  <style>
    .chart-title { font: bold 18px Arial; fill: #333; }
    .legend-text { font: 12px Arial; fill: #666; }
    .legend-value { font: 12px Arial; fill: #333; }
    .slice { transition: opacity 0.2s; }
    .slice:hover { opacity: 0.8; }
  </style>

  <text x="250" y="30" text-anchor="middle" class="chart-title">Language Distribution</text>
  <path class="slice" d="M 250 80 A 100 100 0 1 1 228.56600219781188 277.6759117603506 L 237.1396013186871 238.60554705621036 A 60 60 0 1 0 250 120 Z" fill="#3178c6"/>
  <path class="slice" d="M 228.56600219781188 277.6759117603506 A 100 100 0 0 1 152.97372468749188 204.2054105311473 L 191.78423481249513 194.5232463186884 A 60 60 0 0 0 237.1396013186871 238.60554705621036 Z" fill="#f1e05a"/>
  <path class="slice" d="M 152.97372468749188 204.2054105311473 A 100 100 0 0 1 150.51421008500995 169.8719397222139 L 190.30852605100597 173.92316383332835 A 60 60 0 0 0 191.78423481249513 194.5232463186884 Z" fill="#e34c26"/>
  <path class="slice" d="M 150.51421008500995 169.8719397222139 A 100 100 0 0 1 157.98180498863903 140.85090311576596 L 194.78908299318343 156.5105418694596 A 60 60 0 0 0 190.30852605100597 173.92316383332835 Z" fill="#563d7c"/>
  <path class="slice" d="M 157.98180498863903 140.85090311576596 A 100 100 0 0 1 172.43867961527383 116.87915098655706 L 203.46320776916428 142.12749059193425 A 60 60 0 0 0 194.78908299318343 156.5105418694596 Z" fill="#b07219"/>
  <path class="slice" d="M 172.43867961527383 116.87915098655706 A 100 100 0 0 1 187.3718548928885 102.0402960469796 L 212.4231129357331 133.22417762818776 A 60 60 0 0 0 203.46320776916428 142.12749059193425 Z" fill="#00ADD8"/>
  <path class="slice" d="M 187.3718548928885 102.0402960469796 A 100 100 0 0 1 204.4068635818732 90.99850612737964 L 222.64411814912393 126.59910367642777 A 60 60 0 0 0 212.4231129357331 133.22417762818776 Z" fill="#89e051"/>
  <path class="slice" d="M 204.4068635818732 90.99850612737964 A 100 100 0 0 1 216.0252782809302 85.948321205245 L 229.61516696855813 123.568992723147 A 60 60 0 0 0 222.64411814912393 126.59910367642777 Z" fill="#f34b7d"/>
  <circle cx="250" cy="180" r="60" fill="white"/>
  <rect x="30" y="220" width="15" height="15" fill="#3178c6"/>
  <text x="52" y="232" class="legend-text">PHP</text>
  <text x="470" y="232" text-anchor="end" class="legend-value">53.4%</text>
  <rect x="30" y="245" width="15" height="15" fill="#f1e05a"/>
  <text x="52" y="257" class="legend-text">JavaScript</text>
  <text x="470" y="257" text-anchor="end" class="legend-value">17.7%</text>
  <rect x="30" y="270" width="15" height="15" fill="#e34c26"/>
  <text x="52" y="282" class="legend-text">Python</text>
  <text x="470" y="282" text-anchor="end" class="legend-value">5.5%</text>
  <rect x="30" y="295" width="15" height="15" fill="#563d7c"/>
  <text x="52" y="307" class="legend-text">CSS</text>
  <text x="470" y="307" text-anchor="end" class="legend-value">4.8%</text>
  <rect x="30" y="320" width="15" height="15" fill="#b07219"/>
  <text x="52" y="332" class="legend-text">HTML</text>
  <text x="470" y="332" text-anchor="end" class="legend-value">4.5%</text>
  <rect x="30" y="345" width="15" height="15" fill="#00ADD8"/>
  <text x="52" y="357" class="legend-text">Blade</text>
  <text x="470" y="357" text-anchor="end" class="legend-value">3.4%</text>
  <rect x="30" y="370" width="15" height="15" fill="#89e051"/>
  <text x="52" y="382" class="legend-text">TypeScript</text>
  <text x="470" y="382" text-anchor="end" class="legend-value">3.2%</text>
  <rect x="30" y="395" width="15" height="15" fill="#f34b7d"/>
  <text x="52" y="407" class="legend-text">Vue</text>
  <text x="470" y="407" text-anchor="end" class="legend-value">2.0%</text>
</svg>