<svg xmlns="http://www.w3.org/2000/svg" width="500" height="500" viewBox="0 0 500 500">
  <style>
    .chart-title { font: bold 18px Arial; fill: #333; }
    .legend-text { font: 12px Arial; fill: #666; }
    .legend-value { font: 12px Arial; fill: #333; }
    .slice { transition: opacity 0.2s; }
    .slice:hover { opacity: 0.8; }
  </style>

  <text x="250" y="30" text-anchor="middle" class="chart-title">Language Distribution</text>
  <path class="slice" d="M 250 80 A 100 100 0 0 1 349.7917406352266 186.45046517637846 L 309.8750443811359 183.87027910582708 A 60 60 0 0 0 250 120 Z" fill="#3178c6"/>
  <path class="slice" d="M 349.7917406352266 186.45046517637846 A 100 100 0 0 1 287.4173759551726 272.7358613300662 L 272.45042557310353 235.64151679803973 A 60 60 0 0 0 309.8750443811359 183.87027910582708 Z" fill="#f1e05a"/>
  <path class="slice" d="M 287.4173759551726 272.7358613300662 A 100 100 0 0 1 196.03265253288546 264.18744210013585 L 217.61959151973127 230.5124652600815 A 60 60 0 0 0 272.45042557310353 235.64151679803973 Z" fill="#e34c26"/>
  <path class="slice" d="M 196.03265253288546 264.18744210013585 A 100 100 0 0 1 152.81656891902267 203.566516996131 L 191.6899413514136 194.1399101976786 A 60 60 0 0 0 217.61959151973127 230.5124652600815 Z" fill="#563d7c"/>
  <path class="slice" d="M 152.81656891902267 203.566516996131 A 100 100 0 0 1 154.70363079003099 149.6915520787146 L 192.82217847401859 161.81493124722877 A 60 60 0 0 0 191.6899413514136 194.1399101976786 Z" fill="#b07219"/>
  <path class="slice" d="M 154.70363079003099 149.6915520787146 A 100 100 0 0 1 180.42123254155752 108.17524717088136 L 208.2527395249345 136.9051483025288 A 60 60 0 0 0 192.82217847401859 161.81493124722877 Z" fill="#00ADD8"/>
  <path class="slice" d="M 180.42123254155752 108.17524717088136 A 100 100 0 0 1 221.66219928889805 84.09917074989461 L 232.9973195733388 122.45950244993676 A 60 60 0 0 0 208.2527395249345 136.9051483025288 Z" fill="#89e051"/>
  <path class="slice" d="M 221.66219928889805 84.09917074989461 A 100 100 0 0 1 235.6183129688081 81.03956811868268 L 241.37098778128487 120.6237408712096 A 60 60 0 0 0 232.9973195733388 122.45950244993676 Z" fill="#f34b7d"/>
  <circle cx="250" cy="180" r="60" fill="white"/>
  <rect x="30" y="220" width="15" height="15" fill="#3178c6"/>
  <text x="52" y="232" class="legend-text">PHP</text>
  <text x="470" y="232" text-anchor="end" class="legend-value">26.0%</text>
  <rect x="30" y="245" width="15" height="15" fill="#f1e05a"/>
  <text x="52" y="257" class="legend-text">JavaScript</text>
  <text x="470" y="257" text-anchor="end" class="legend-value">17.9%</text>
  <rect x="30" y="270" width="15" height="15" fill="#e34c26"/>
  <text x="52" y="282" class="legend-text">CSS</text>
  <text x="470" y="282" text-anchor="end" class="legend-value">15.2%</text>
  <rect x="30" y="295" width="15" height="15" fill="#563d7c"/>
  <text x="52" y="307" class="legend-text">C++</text>
  <text x="470" y="307" text-anchor="end" class="legend-value">12.1%</text>
  <rect x="30" y="320" width="15" height="15" fill="#b07219"/>
  <text x="52" y="332" class="legend-text">C</text>
  <text x="470" y="332" text-anchor="end" class="legend-value">8.7%</text>
  <rect x="30" y="345" width="15" height="15" fill="#00ADD8"/>
  <text x="52" y="357" class="legend-text">HTML</text>
  <text x="470" y="357" text-anchor="end" class="legend-value">7.9%</text>
  <rect x="30" y="370" width="15" height="15" fill="#89e051"/>
  <text x="52" y="382" class="legend-text">C#</text>
  <text x="470" y="382" text-anchor="end" class="legend-value">7.7%</text>
  <rect x="30" y="395" width="15" height="15" fill="#f34b7d"/>
  <text x="52" y="407" class="legend-text">SCSS</text>
  <text x="470" y="407" text-anchor="end" class="legend-value">2.3%</text>
</svg>