<svg xmlns="http://www.w3.org/2000/svg" width="500" height="400" viewBox="0 0 500 400">
  <style>
    .chart-title { font: bold 18px Arial; fill: #333; }
    .legend-text { font: 12px Arial; fill: #666; }
    .legend-value { font: 12px Arial; fill: #333; }
    .slice { transition: opacity 0.2s; }
    .slice:hover { opacity: 0.8; }
  </style>

  <text x="250" y="30" text-anchor="middle" class="chart-title">Platform Distribution</text>
  <path class="slice" d="M 250 80 A 100 100 0 1 1 181.98272622290804 253.30518718298262 L 209.1896357337448 223.9831123097896 A 60 60 0 1 0 250 120 Z" fill="#61dafb"/>
  <path class="slice" d="M 181.98272622290804 253.30518718298262 A 100 100 0 0 1 156.9126251355796 143.46589756336044 L 194.14757508134775 158.07953853801627 A 60 60 0 0 0 209.1896357337448 223.9831123097896 Z" fill="#42b883"/>
  <path class="slice" d="M 156.9126251355796 143.46589756336044 A 100 100 0 0 1 193.6679941936378 97.3761225684005 L 216.2007965161827 130.4256735410403 A 60 60 0 0 0 194.14757508134775 158.07953853801627 Z" fill="#000000"/>
  <path class="slice" d="M 193.6679941936378 97.3761225684005 A 100 100 0 0 1 220.52448255890963 84.44271942138592 L 232.31468953534576 122.66563165283154 A 60 60 0 0 0 216.2007965161827 130.4256735410403 Z" fill="#339933"/>
  <path class="slice" d="M 220.52448255890963 84.44271942138592 A 100 100 0 0 1 249.99999999999997 80 L 250 120 A 60 60 0 0 0 232.31468953534576 122.66563165283154 Z" fill="#cc6699"/>
  <circle cx="250" cy="180" r="60" fill="white"/>
  <rect x="30" y="220" width="15" height="15" fill="#61dafb"/>
  <text x="52" y="232" class="legend-text">Node.js</text>
  <text x="470" y="232" text-anchor="end" class="legend-value">61.9%</text>
  <rect x="30" y="245" width="15" height="15" fill="#42b883"/>
  <text x="52" y="257" class="legend-text">Express</text>
  <text x="470" y="257" text-anchor="end" class="legend-value">19.0%</text>
  <rect x="30" y="270" width="15" height="15" fill="#000000"/>
  <text x="52" y="282" class="legend-text">Vue.js</text>
  <text x="470" y="282" text-anchor="end" class="legend-value">9.5%</text>
  <rect x="30" y="295" width="15" height="15" fill="#339933"/>
  <text x="52" y="307" class="legend-text">Laravel</text>
  <text x="470" y="307" text-anchor="end" class="legend-value">4.8%</text>
  <rect x="30" y="320" width="15" height="15" fill="#cc6699"/>
  <text x="52" y="332" class="legend-text">React</text>
  <text x="470" y="332" text-anchor="end" class="legend-value">4.8%</text>
</svg>