<svg xmlns="http://www.w3.org/2000/svg" width="500" height="500" viewBox="0 0 500 500">
  <style>
    .chart-title { font: bold 18px Arial; fill: #333; }
    .legend-text { font: 12px Arial; fill: #666; }
    .legend-value { font: 12px Arial; fill: #333; }
    .slice { transition: opacity 0.2s; }
    .slice:hover { opacity: 0.8; }
  </style>

  <text x="250" y="30" text-anchor="middle" class="chart-title">Platform Distribution</text>
  <path class="slice" d="M 250 80 A 100 100 0 0 1 270.34560130526336 277.9084087682323 L 262.20736078315804 238.74504526093938 A 60 60 0 0 0 250 120 Z" fill="#61dafb"/>
  <path class="slice" d="M 270.34560130526336 277.9084087682323 A 100 100 0 0 1 181.74468567813457 253.08359642781238 L 209.04681140688075 223.85015785668742 A 60 60 0 0 0 262.20736078315804 238.74504526093938 Z" fill="#42b883"/>
  <path class="slice" d="M 181.74468567813457 253.08359642781238 A 100 100 0 0 1 153.70827126522005 206.97967711570237 L 192.22496275913204 196.18780626942143 A 60 60 0 0 0 209.04681140688075 223.85015785668742 Z" fill="#000000"/>
  <path class="slice" d="M 153.70827126522005 206.97967711570237 A 100 100 0 0 1 152.84329106020587 156.32355795335522 L 191.70597463612353 165.79413477201314 A 60 60 0 0 0 192.22496275913204 196.18780626942143 Z" fill="#339933"/>
  <path class="slice" d="M 152.84329106020587 156.32355795335522 A 100 100 0 0 1 176.91640357218762 111.74468567813454 L 206.14984214331258 139.04681140688072 A 60 60 0 0 0 191.70597463612353 165.79413477201314 Z" fill="#cc6699"/>
  <path class="slice" d="M 176.91640357218762 111.74468567813454 A 100 100 0 0 1 213.31457811869444 86.97215566621665 L 227.98874687121668 124.18329339972999 A 60 60 0 0 0 206.14984214331258 139.04681140688072 Z" fill="#00d8ff"/>
  <path class="slice" d="M 213.31457811869444 86.97215566621665 A 100 100 0 0 1 243.17575866353295 80.23312308094607 L 245.90545519811977 120.13987384856765 A 60 60 0 0 0 227.98874687121668 124.18329339972999 Z" fill="#ff6b6b"/>
  <path class="slice" d="M 243.17575866353295 80.23312308094607 A 100 100 0 0 1 250.00000000000006 80 L 250.00000000000003 120 A 60 60 0 0 0 245.90545519811977 120.13987384856765 Z" fill="#4fc08d"/>
  <circle cx="250" cy="180" r="60" fill="white"/>
  <rect x="30" y="220" width="15" height="15" fill="#61dafb"/>
  <text x="52" y="232" class="legend-text">Node.js</text>
  <text x="470" y="232" text-anchor="end" class="legend-value">46.7%</text>
  <rect x="30" y="245" width="15" height="15" fill="#42b883"/>
  <text x="52" y="257" class="legend-text">Laravel</text>
  <text x="470" y="257" text-anchor="end" class="legend-value">15.2%</text>
  <rect x="30" y="270" width="15" height="15" fill="#000000"/>
  <text x="52" y="282" class="legend-text">React</text>
  <text x="470" y="282" text-anchor="end" class="legend-value">8.7%</text>
  <rect x="30" y="295" width="15" height="15" fill="#339933"/>
  <text x="52" y="307" class="legend-text">Nuxt.js</text>
  <text x="470" y="307" text-anchor="end" class="legend-value">8.2%</text>
  <rect x="30" y="320" width="15" height="15" fill="#cc6699"/>
  <text x="52" y="332" class="legend-text">Vue.js</text>
  <text x="470" y="332" text-anchor="end" class="legend-value">8.2%</text>
  <rect x="30" y="345" width="15" height="15" fill="#00d8ff"/>
  <text x="52" y="357" class="legend-text">Express</text>
  <text x="470" y="357" text-anchor="end" class="legend-value">7.1%</text>
  <rect x="30" y="370" width="15" height="15" fill="#ff6b6b"/>
  <text x="52" y="382" class="legend-text">Next.js</text>
  <text x="470" y="382" text-anchor="end" class="legend-value">4.9%</text>
  <rect x="30" y="395" width="15" height="15" fill="#4fc08d"/>
  <text x="52" y="407" class="legend-text">FastAPI</text>
  <text x="470" y="407" text-anchor="end" class="legend-value">1.1%</text>
</svg>