<svg xmlns="http://www.w3.org/2000/svg" width="500" height="500" viewBox="0 0 500 500">
  <style>
    .chart-title { font: bold 18px Arial; fill: #333; }
    .legend-text { font: 12px Arial; fill: #666; }
    .legend-value { font: 12px Arial; fill: #333; }
    .slice { transition: opacity 0.2s; }
    .slice:hover { opacity: 0.8; }
  </style>

  <text x="250" y="30" text-anchor="middle" class="chart-title">Platform Distribution</text>
  <path class="slice" d="M 250 80 A 100 100 0 0 1 270.129852008866 277.95299412524946 L 262.0779112053196 238.77179647514967 A 60 60 0 0 0 250 120 Z" fill="#61dafb"/>
  <path class="slice" d="M 270.129852008866 277.95299412524946 A 100 100 0 0 1 182.3372726696243 253.63256976511974 L 209.40236360177457 224.17954185907183 A 60 60 0 0 0 262.0779112053196 238.77179647514967 Z" fill="#42b883"/>
  <path class="slice" d="M 182.3372726696243 253.63256976511974 A 100 100 0 0 1 153.19228811337956 205.06525322587208 L 191.91537286802776 195.03915193552325 A 60 60 0 0 0 209.40236360177457 224.17954185907183 Z" fill="#000000"/>
  <path class="slice" d="M 153.19228811337956 205.06525322587208 A 100 100 0 0 1 153.19228811337956 154.93474677412797 L 191.91537286802773 164.9608480644768 A 60 60 0 0 0 191.91537286802776 195.03915193552325 Z" fill="#339933"/>
  <path class="slice" d="M 153.19228811337956 154.93474677412797 A 100 100 0 0 1 177.52072127708797 111.10330809243138 L 206.5124327662528 138.66198485545883 A 60 60 0 0 0 191.91537286802773 164.9608480644768 Z" fill="#cc6699"/>
  <path class="slice" d="M 177.52072127708797 111.10330809243138 A 100 100 0 0 1 213.69061399935242 86.82474315433319 L 228.21436839961146 124.09484589259992 A 60 60 0 0 0 206.5124327662528 138.66198485545883 Z" fill="#00d8ff"/>
  <path class="slice" d="M 213.69061399935242 86.82474315433319 A 100 100 0 0 1 243.24902531416348 80.22813853199293 L 245.94941518849808 120.13688311919576 A 60 60 0 0 0 228.21436839961146 124.09484589259992 Z" fill="#ff6b6b"/>
  <path class="slice" d="M 243.24902531416348 80.22813853199293 A 100 100 0 0 1 249.99999999999997 80 L 250 120 A 60 60 0 0 0 245.94941518849808 120.13688311919576 Z" fill="#4fc08d"/>
  <circle cx="250" cy="180" r="60" fill="white"/>
  <rect x="30" y="220" width="15" height="15" fill="#61dafb"/>
  <text x="52" y="232" class="legend-text">Node.js</text>
  <text x="470" y="232" text-anchor="end" class="legend-value">46.8%</text>
  <rect x="30" y="245" width="15" height="15" fill="#42b883"/>
  <text x="52" y="257" class="legend-text">Laravel</text>
  <text x="470" y="257" text-anchor="end" class="legend-value">15.1%</text>
  <rect x="30" y="270" width="15" height="15" fill="#000000"/>
  <text x="52" y="282" class="legend-text">React</text>
  <text x="470" y="282" text-anchor="end" class="legend-value">9.1%</text>
  <rect x="30" y="295" width="15" height="15" fill="#339933"/>
  <text x="52" y="307" class="legend-text">Nuxt.js</text>
  <text x="470" y="307" text-anchor="end" class="legend-value">8.1%</text>
  <rect x="30" y="320" width="15" height="15" fill="#cc6699"/>
  <text x="52" y="332" class="legend-text">Vue.js</text>
  <text x="470" y="332" text-anchor="end" class="legend-value">8.1%</text>
  <rect x="30" y="345" width="15" height="15" fill="#00d8ff"/>
  <text x="52" y="357" class="legend-text">Express</text>
  <text x="470" y="357" text-anchor="end" class="legend-value">7.0%</text>
  <rect x="30" y="370" width="15" height="15" fill="#ff6b6b"/>
  <text x="52" y="382" class="legend-text">Next.js</text>
  <text x="470" y="382" text-anchor="end" class="legend-value">4.8%</text>
  <rect x="30" y="395" width="15" height="15" fill="#4fc08d"/>
  <text x="52" y="407" class="legend-text">FastAPI</text>
  <text x="470" y="407" text-anchor="end" class="legend-value">1.1%</text>
</svg>