<svg xmlns="http://www.w3.org/2000/svg" width="500" height="500" viewBox="0 0 500 500">
  <style>
    .chart-title { font: bold 18px Arial; fill: #333; }
    .legend-text { font: 12px Arial; fill: #666; }
    .legend-value { font: 12px Arial; fill: #333; }
    .slice { transition: opacity 0.2s; }
    .slice:hover { opacity: 0.8; }
  </style>

  <text x="250" y="30" text-anchor="middle" class="chart-title">Platform Distribution</text>
  <path class="slice" d="M 250 80 A 100 100 0 0 1 272.13252843824324 277.5200040244582 L 263.27951706294596 238.51200241467495 A 60 60 0 0 0 250 120 Z" fill="#61dafb"/>
  <path class="slice" d="M 272.13252843824324 277.5200040244582 A 100 100 0 0 1 182.7050975844167 253.9688860864967 L 209.62305855065003 224.381331651898 A 60 60 0 0 0 263.27951706294596 238.51200241467495 Z" fill="#42b883"/>
  <path class="slice" d="M 182.7050975844167 253.9688860864967 A 100 100 0 0 1 153.9850126328398 207.9485634851609 L 192.39100757970388 196.76913809109652 A 60 60 0 0 0 209.62305855065003 224.381331651898 Z" fill="#000000"/>
  <path class="slice" d="M 153.9850126328398 207.9485634851609 A 100 100 0 0 1 152.67356262996174 157.03122578682044 L 191.60413757797704 166.21873547209228 A 60 60 0 0 0 192.39100757970388 196.76913809109652 Z" fill="#339933"/>
  <path class="slice" d="M 152.67356262996174 157.03122578682044 A 100 100 0 0 1 176.61146335678006 112.07266611027073 L 205.96687801406802 139.24359966616242 A 60 60 0 0 0 191.60413757797704 166.21873547209228 Z" fill="#cc6699"/>
  <path class="slice" d="M 176.61146335678006 112.07266611027073 A 100 100 0 0 1 213.12370688077397 87.04765196195997 L 227.8742241284644 124.22859117717599 A 60 60 0 0 0 205.96687801406802 139.24359966616242 Z" fill="#00d8ff"/>
  <path class="slice" d="M 213.12370688077397 87.04765196195997 A 100 100 0 0 1 243.13852619978664 80.23567683139937 L 245.88311571987197 120.14140609883961 A 60 60 0 0 0 227.8742241284644 124.22859117717599 Z" fill="#ff6b6b"/>
  <path class="slice" d="M 243.13852619978664 80.23567683139937 A 100 100 0 0 1 249.99999999999997 80 L 250 120 A 60 60 0 0 0 245.88311571987197 120.14140609883961 Z" fill="#4fc08d"/>
  <circle cx="250" cy="180" r="60" fill="white"/>
  <rect x="30" y="220" width="15" height="15" fill="#61dafb"/>
  <text x="52" y="232" class="legend-text">Node.js</text>
  <text x="470" y="232" text-anchor="end" class="legend-value">46.4%</text>
  <rect x="30" y="245" width="15" height="15" fill="#42b883"/>
  <text x="52" y="257" class="legend-text">Laravel</text>
  <text x="470" y="257" text-anchor="end" class="legend-value">15.3%</text>
  <rect x="30" y="270" width="15" height="15" fill="#000000"/>
  <text x="52" y="282" class="legend-text">React</text>
  <text x="470" y="282" text-anchor="end" class="legend-value">8.7%</text>
  <rect x="30" y="295" width="15" height="15" fill="#339933"/>
  <text x="52" y="307" class="legend-text">Nuxt.js</text>
  <text x="470" y="307" text-anchor="end" class="legend-value">8.2%</text>
  <rect x="30" y="320" width="15" height="15" fill="#cc6699"/>
  <text x="52" y="332" class="legend-text">Vue.js</text>
  <text x="470" y="332" text-anchor="end" class="legend-value">8.2%</text>
  <rect x="30" y="345" width="15" height="15" fill="#00d8ff"/>
  <text x="52" y="357" class="legend-text">Express</text>
  <text x="470" y="357" text-anchor="end" class="legend-value">7.1%</text>
  <rect x="30" y="370" width="15" height="15" fill="#ff6b6b"/>
  <text x="52" y="382" class="legend-text">Next.js</text>
  <text x="470" y="382" text-anchor="end" class="legend-value">4.9%</text>
  <rect x="30" y="395" width="15" height="15" fill="#4fc08d"/>
  <text x="52" y="407" class="legend-text">FastAPI</text>
  <text x="470" y="407" text-anchor="end" class="legend-value">1.1%</text>
</svg>