<svg xmlns="http://www.w3.org/2000/svg" width="500" height="500" viewBox="0 0 500 500">
  <style>
    .chart-title { font: bold 18px Arial; fill: #333; }
    .legend-text { font: 12px Arial; fill: #666; }
    .legend-value { font: 12px Arial; fill: #333; }
    .slice { transition: opacity 0.2s; }
    .slice:hover { opacity: 0.8; }
  </style>

  <text x="250" y="30" text-anchor="middle" class="chart-title">Platform Distribution</text>
  <path class="slice" d="M 250 80 A 100 100 0 0 1 271.25652895529765 277.71468659711593 L 262.75391737317864 238.62881195826958 A 60 60 0 0 0 250 120 Z" fill="#61dafb"/>
  <path class="slice" d="M 271.25652895529765 277.71468659711593 A 100 100 0 0 1 179.28932188134524 250.71067811865476 L 207.57359312880715 222.42640687119285 A 60 60 0 0 0 262.75391737317864 238.62881195826958 Z" fill="#42b883"/>
  <path class="slice" d="M 179.28932188134524 250.71067811865476 A 100 100 0 0 1 152.28531340288407 201.2565289552977 L 191.37118804173042 192.75391737317864 A 60 60 0 0 0 207.57359312880715 222.42640687119285 Z" fill="#000000"/>
  <path class="slice" d="M 152.28531340288407 201.2565289552977 A 100 100 0 0 1 154.05070263855026 151.82674431585707 L 192.43042158313017 163.09604658951423 A 60 60 0 0 0 191.37118804173042 192.75391737317864 Z" fill="#339933"/>
  <path class="slice" d="M 154.05070263855026 151.82674431585707 A 100 100 0 0 1 176.81054778182744 111.85820604061091 L 206.08632866909647 139.11492362436655 A 60 60 0 0 0 192.43042158313017 163.09604658951423 Z" fill="#cc6699"/>
  <path class="slice" d="M 176.81054778182744 111.85820604061091 A 100 100 0 0 1 211.73165676349097 87.61204674887135 L 227.03899405809457 124.56722804932281 A 60 60 0 0 0 206.08632866909647 139.11492362436655 Z" fill="#00d8ff"/>
  <path class="slice" d="M 211.73165676349097 87.61204674887135 A 100 100 0 0 1 242.86608168007672 80.25478853897465 L 245.71964900804602 120.15287312338478 A 60 60 0 0 0 227.03899405809457 124.56722804932281 Z" fill="#ff6b6b"/>
  <path class="slice" d="M 242.86608168007672 80.25478853897465 A 100 100 0 0 1 249.9999999999999 80 L 249.99999999999994 120 A 60 60 0 0 0 245.71964900804602 120.15287312338478 Z" fill="#4fc08d"/>
  <circle cx="250" cy="180" r="60" fill="white"/>
  <rect x="30" y="220" width="15" height="15" fill="#61dafb"/>
  <text x="52" y="232" class="legend-text">Node.js</text>
  <text x="470" y="232" text-anchor="end" class="legend-value">46.6%</text>
  <rect x="30" y="245" width="15" height="15" fill="#42b883"/>
  <text x="52" y="257" class="legend-text">Laravel</text>
  <text x="470" y="257" text-anchor="end" class="legend-value">15.9%</text>
  <rect x="30" y="270" width="15" height="15" fill="#000000"/>
  <text x="52" y="282" class="legend-text">React</text>
  <text x="470" y="282" text-anchor="end" class="legend-value">9.1%</text>
  <rect x="30" y="295" width="15" height="15" fill="#339933"/>
  <text x="52" y="307" class="legend-text">Express</text>
  <text x="470" y="307" text-anchor="end" class="legend-value">8.0%</text>
  <rect x="30" y="320" width="15" height="15" fill="#cc6699"/>
  <text x="52" y="332" class="legend-text">Nuxt.js</text>
  <text x="470" y="332" text-anchor="end" class="legend-value">7.4%</text>
  <rect x="30" y="345" width="15" height="15" fill="#00d8ff"/>
  <text x="52" y="357" class="legend-text">Vue.js</text>
  <text x="470" y="357" text-anchor="end" class="legend-value">6.8%</text>
  <rect x="30" y="370" width="15" height="15" fill="#ff6b6b"/>
  <text x="52" y="382" class="legend-text">Next.js</text>
  <text x="470" y="382" text-anchor="end" class="legend-value">5.1%</text>
  <rect x="30" y="395" width="15" height="15" fill="#4fc08d"/>
  <text x="52" y="407" class="legend-text">FastAPI</text>
  <text x="470" y="407" text-anchor="end" class="legend-value">1.1%</text>
</svg>