<svg xmlns="http://www.w3.org/2000/svg" width="500" height="500" viewBox="0 0 500 500">
  <style>
    .chart-title { font: bold 18px Arial; fill: #333; }
    .legend-text { font: 12px Arial; fill: #666; }
    .legend-value { font: 12px Arial; fill: #333; }
    .slice { transition: opacity 0.2s; }
    .slice:hover { opacity: 0.8; }
  </style>

  <text x="250" y="30" text-anchor="middle" class="chart-title">Platform Distribution</text>
  <path class="slice" d="M 250 80 A 100 100 0 0 1 264.9042266176175 278.88308262251286 L 258.94253597057053 239.32984957350772 A 60 60 0 0 0 250 120 Z" fill="#61dafb"/>
  <path class="slice" d="M 264.9042266176175 278.88308262251286 A 100 100 0 0 1 179.58377303476487 251.0039082021581 L 207.75026382085892 222.60234492129487 A 60 60 0 0 0 258.94253597057053 239.32984957350772 Z" fill="#42b883"/>
  <path class="slice" d="M 179.58377303476487 251.0039082021581 A 100 100 0 0 1 152.50720878181767 202.2520933956316 L 191.5043252690906 193.35125603737896 A 60 60 0 0 0 207.75026382085892 222.60234492129487 Z" fill="#000000"/>
  <path class="slice" d="M 152.50720878181767 202.2520933956316 A 100 100 0 0 1 153.73757530499876 152.91595318569958 L 192.24254518299927 163.74957191141974 A 60 60 0 0 0 191.5043252690906 193.35125603737896 Z" fill="#339933"/>
  <path class="slice" d="M 153.73757530499876 152.91595318569958 A 100 100 0 0 1 178.41331507402808 110.1763181913928 L 207.04798904441685 138.10579091483567 A 60 60 0 0 0 192.24254518299927 163.74957191141974 Z" fill="#cc6699"/>
  <path class="slice" d="M 178.41331507402808 110.1763181913928 A 100 100 0 0 1 214.24080813865123 86.6122053080637 L 228.54448488319073 123.96732318483822 A 60 60 0 0 0 207.04798904441685 138.10579091483567 Z" fill="#00d8ff"/>
  <path class="slice" d="M 214.24080813865123 86.6122053080637 A 100 100 0 0 1 243.35602441267744 80.22095616616151 L 246.01361464760646 120.1325736996969 A 60 60 0 0 0 228.54448488319073 123.96732318483822 Z" fill="#ff6b6b"/>
  <path class="slice" d="M 243.35602441267744 80.22095616616151 A 100 100 0 0 1 249.9999999999999 80 L 249.99999999999994 120 A 60 60 0 0 0 246.01361464760646 120.1325736996969 Z" fill="#4fc08d"/>
  <circle cx="250" cy="180" r="60" fill="white"/>
  <rect x="30" y="220" width="15" height="15" fill="#61dafb"/>
  <text x="52" y="232" class="legend-text">Node.js</text>
  <text x="470" y="232" text-anchor="end" class="legend-value">47.6%</text>
  <rect x="30" y="245" width="15" height="15" fill="#42b883"/>
  <text x="52" y="257" class="legend-text">Laravel</text>
  <text x="470" y="257" text-anchor="end" class="legend-value">14.8%</text>
  <rect x="30" y="270" width="15" height="15" fill="#000000"/>
  <text x="52" y="282" class="legend-text">React</text>
  <text x="470" y="282" text-anchor="end" class="legend-value">9.0%</text>
  <rect x="30" y="295" width="15" height="15" fill="#339933"/>
  <text x="52" y="307" class="legend-text">Nuxt.js</text>
  <text x="470" y="307" text-anchor="end" class="legend-value">7.9%</text>
  <rect x="30" y="320" width="15" height="15" fill="#cc6699"/>
  <text x="52" y="332" class="legend-text">Vue.js</text>
  <text x="470" y="332" text-anchor="end" class="legend-value">7.9%</text>
  <rect x="30" y="345" width="15" height="15" fill="#00d8ff"/>
  <text x="52" y="357" class="legend-text">Express</text>
  <text x="470" y="357" text-anchor="end" class="legend-value">6.9%</text>
  <rect x="30" y="370" width="15" height="15" fill="#ff6b6b"/>
  <text x="52" y="382" class="legend-text">Next.js</text>
  <text x="470" y="382" text-anchor="end" class="legend-value">4.8%</text>
  <rect x="30" y="395" width="15" height="15" fill="#4fc08d"/>
  <text x="52" y="407" class="legend-text">FastAPI</text>
  <text x="470" y="407" text-anchor="end" class="legend-value">1.1%</text>
</svg>