<svg xmlns="http://www.w3.org/2000/svg" width="500" height="500" viewBox="0 0 500 500">
  <style>
    .chart-title { font: bold 18px Arial; fill: #333; }
    .legend-text { font: 12px Arial; fill: #666; }
    .legend-value { font: 12px Arial; fill: #333; }
    .slice { transition: opacity 0.2s; }
    .slice:hover { opacity: 0.8; }
  </style>

  <text x="250" y="30" text-anchor="middle" class="chart-title">Platform Distribution</text>
  <path class="slice" d="M 250 80 A 100 100 0 0 1 272.6185943437725 277.40841436914917 L 263.57115660626346 238.4450486214895 A 60 60 0 0 0 250 120 Z" fill="#61dafb"/>
  <path class="slice" d="M 272.6185943437725 277.40841436914917 A 100 100 0 0 1 181.4941303588 252.84878739349688 L 208.89647821527998 223.70927243609813 A 60 60 0 0 0 263.57115660626346 238.4450486214895 Z" fill="#42b883"/>
  <path class="slice" d="M 181.4941303588 252.84878739349688 A 100 100 0 0 1 153.2207317909486 205.17485342401204 L 191.93243907456917 195.10491205440724 A 60 60 0 0 0 208.89647821527998 223.70927243609813 Z" fill="#000000"/>
  <path class="slice" d="M 153.2207317909486 205.17485342401204 A 100 100 0 0 1 152.79382083256976 156.52748987284377 L 191.67629249954186 165.91649392370627 A 60 60 0 0 0 191.93243907456917 195.10491205440724 Z" fill="#339933"/>
  <path class="slice" d="M 152.79382083256976 156.52748987284377 A 100 100 0 0 1 175.3731651566452 113.43547850947441 L 205.22389909398711 140.06128710568464 A 60 60 0 0 0 191.67629249954186 165.91649392370627 Z" fill="#cc6699"/>
  <path class="slice" d="M 175.3731651566452 113.43547850947441 A 100 100 0 0 1 212.340537029438 87.3621845639219 L 227.4043222176628 124.41731073835314 A 60 60 0 0 0 205.22389909398711 140.06128710568464 Z" fill="#00d8ff"/>
  <path class="slice" d="M 212.340537029438 87.3621845639219 A 100 100 0 0 1 242.9854463924795 80.24632318712648 L 245.7912678354877 120.14779391227589 A 60 60 0 0 0 227.4043222176628 124.41731073835314 Z" fill="#ff6b6b"/>
  <path class="slice" d="M 242.9854463924795 80.24632318712648 A 100 100 0 0 1 249.9999999999999 80 L 249.99999999999994 120 A 60 60 0 0 0 245.7912678354877 120.14779391227589 Z" fill="#4fc08d"/>
  <circle cx="250" cy="180" r="60" fill="white"/>
  <rect x="30" y="220" width="15" height="15" fill="#61dafb"/>
  <text x="52" y="232" class="legend-text">Node.js</text>
  <text x="470" y="232" text-anchor="end" class="legend-value">46.4%</text>
  <rect x="30" y="245" width="15" height="15" fill="#42b883"/>
  <text x="52" y="257" class="legend-text">Laravel</text>
  <text x="470" y="257" text-anchor="end" class="legend-value">15.6%</text>
  <rect x="30" y="270" width="15" height="15" fill="#000000"/>
  <text x="52" y="282" class="legend-text">React</text>
  <text x="470" y="282" text-anchor="end" class="legend-value">8.9%</text>
  <rect x="30" y="295" width="15" height="15" fill="#339933"/>
  <text x="52" y="307" class="legend-text">Nuxt.js</text>
  <text x="470" y="307" text-anchor="end" class="legend-value">7.8%</text>
  <rect x="30" y="320" width="15" height="15" fill="#cc6699"/>
  <text x="52" y="332" class="legend-text">Vue.js</text>
  <text x="470" y="332" text-anchor="end" class="legend-value">7.8%</text>
  <rect x="30" y="345" width="15" height="15" fill="#00d8ff"/>
  <text x="52" y="357" class="legend-text">Express</text>
  <text x="470" y="357" text-anchor="end" class="legend-value">7.3%</text>
  <rect x="30" y="370" width="15" height="15" fill="#ff6b6b"/>
  <text x="52" y="382" class="legend-text">Next.js</text>
  <text x="470" y="382" text-anchor="end" class="legend-value">5.0%</text>
  <rect x="30" y="395" width="15" height="15" fill="#4fc08d"/>
  <text x="52" y="407" class="legend-text">FastAPI</text>
  <text x="470" y="407" text-anchor="end" class="legend-value">1.1%</text>
</svg>